<svg xmlns="http://www.w3.org/2000/svg" viewBox="0 0 1600 2800" font-family="'Helvetica Neue', Arial, 'Hiragino Kaku Gothic ProN', sans-serif">
  <defs>
    <!-- 青系：本則（措置法） -->
    <linearGradient id="gBlue" x1="0" y1="0" x2="0" y2="1">
      <stop offset="0%" stop-color="#e8f4fd"/>
      <stop offset="100%" stop-color="#d0eafc"/>
    </linearGradient>
    <linearGradient id="gBlueHeader" x1="0" y1="0" x2="1" y2="0">
      <stop offset="0%" stop-color="#1a73b5"/>
      <stop offset="100%" stop-color="#2196c8"/>
    </linearGradient>
    <!-- 橙系：政令（施行令） -->
    <linearGradient id="gOrange" x1="0" y1="0" x2="0" y2="1">
      <stop offset="0%" stop-color="#fff3e0"/>
      <stop offset="100%" stop-color="#ffe0b2"/>
    </linearGradient>
    <linearGradient id="gOrangeHeader" x1="0" y1="0" x2="1" y2="0">
      <stop offset="0%" stop-color="#e65100"/>
      <stop offset="100%" stop-color="#f57c00"/>
    </linearGradient>
    <!-- 赤系：重要判定 -->
    <linearGradient id="gRed" x1="0" y1="0" x2="0" y2="1">
      <stop offset="0%" stop-color="#ffebee"/>
      <stop offset="100%" stop-color="#ffcdd2"/>
    </linearGradient>
    <linearGradient id="gRedHeader" x1="0" y1="0" x2="1" y2="0">
      <stop offset="0%" stop-color="#c62828"/>
      <stop offset="100%" stop-color="#e53935"/>
    </linearGradient>
    <!-- 紫系：BEPS -->
    <linearGradient id="gPurple" x1="0" y1="0" x2="0" y2="1">
      <stop offset="0%" stop-color="#f3e5f5"/>
      <stop offset="100%" stop-color="#e1bee7"/>
    </linearGradient>
    <linearGradient id="gPurpleHeader" x1="0" y1="0" x2="1" y2="0">
      <stop offset="0%" stop-color="#6a1b9a"/>
      <stop offset="100%" stop-color="#8e24aa"/>
    </linearGradient>
    <!-- 緑系：適用除外 -->
    <linearGradient id="gGreen" x1="0" y1="0" x2="0" y2="1">
      <stop offset="0%" stop-color="#e8f5e9"/>
      <stop offset="100%" stop-color="#c8e6c9"/>
    </linearGradient>
    <linearGradient id="gGreenHeader" x1="0" y1="0" x2="1" y2="0">
      <stop offset="0%" stop-color="#2e7d32"/>
      <stop offset="100%" stop-color="#43a047"/>
    </linearGradient>
    <!-- 矢印マーカー -->
    <marker id="arrowBlue" markerWidth="10" markerHeight="7" refX="10" refY="3.5" orient="auto">
      <polygon points="0 0, 10 3.5, 0 7" fill="#1a73b5"/>
    </marker>
    <marker id="arrowRed" markerWidth="10" markerHeight="7" refX="10" refY="3.5" orient="auto">
      <polygon points="0 0, 10 3.5, 0 7" fill="#c62828"/>
    </marker>
    <marker id="arrowOrange" markerWidth="10" markerHeight="7" refX="10" refY="3.5" orient="auto">
      <polygon points="0 0, 10 3.5, 0 7" fill="#e65100"/>
    </marker>
    <marker id="arrowPurple" markerWidth="10" markerHeight="7" refX="10" refY="3.5" orient="auto">
      <polygon points="0 0, 10 3.5, 0 7" fill="#6a1b9a"/>
    </marker>
    <marker id="arrowGreen" markerWidth="10" markerHeight="7" refX="10" refY="3.5" orient="auto">
      <polygon points="0 0, 10 3.5, 0 7" fill="#2e7d32"/>
    </marker>
    <marker id="arrowGray" markerWidth="10" markerHeight="7" refX="10" refY="3.5" orient="auto">
      <polygon points="0 0, 10 3.5, 0 7" fill="#616161"/>
    </marker>
    <filter id="shadow" x="-3%" y="-3%" width="106%" height="106%">
      <feDropShadow dx="2" dy="2" stdDeviation="3" flood-opacity="0.15"/>
    </filter>
  </defs>

  <!-- 背景 -->
  <rect width="1600" height="2800" fill="#f5f7fa" rx="0"/>

  <!-- ==================== タイトル ==================== -->
  <rect x="50" y="20" width="1500" height="90" rx="12" fill="url(#gBlueHeader)" filter="url(#shadow)"/>
  <text x="800" y="58" text-anchor="middle" fill="white" font-size="26" font-weight="bold">過大支払利子税制（BEPS対応・利子控除制限）条文マップ</text>
  <text x="800" y="88" text-anchor="middle" fill="#e3f2fd" font-size="15">租税特別措置法66条の5の2・66条の5の3 ／ 同施行令 ／ 過少資本税制（66条の5）との関係</text>

  <!-- 凡例 -->
  <g transform="translate(50, 130)">
    <rect width="1500" height="42" rx="8" fill="white" stroke="#ddd" stroke-width="1" filter="url(#shadow)"/>
    <rect x="20" y="12" width="18" height="18" rx="3" fill="url(#gBlue)" stroke="#1a73b5" stroke-width="1.5"/>
    <text x="45" y="26" font-size="12.5" fill="#333">青系＝本則（措置法）</text>
    <rect x="220" y="12" width="18" height="18" rx="3" fill="url(#gOrange)" stroke="#e65100" stroke-width="1.5"/>
    <text x="245" y="26" font-size="12.5" fill="#333">橙系＝政令（施行令）</text>
    <rect x="440" y="12" width="18" height="18" rx="3" fill="url(#gRed)" stroke="#c62828" stroke-width="1.5"/>
    <text x="465" y="26" font-size="12.5" fill="#333">赤系＝重要判定</text>
    <rect x="630" y="12" width="18" height="18" rx="3" fill="url(#gPurple)" stroke="#6a1b9a" stroke-width="1.5"/>
    <text x="655" y="26" font-size="12.5" fill="#333">紫系＝BEPS行動4</text>
    <rect x="840" y="12" width="18" height="18" rx="3" fill="url(#gGreen)" stroke="#2e7d32" stroke-width="1.5"/>
    <text x="865" y="26" font-size="12.5" fill="#333">緑系＝適用除外</text>
    <line x1="1060" y1="21" x2="1110" y2="21" stroke="#1a73b5" stroke-width="2.5" stroke-dasharray="6,3"/>
    <text x="1120" y="26" font-size="12.5" fill="#333">参照・連携</text>
    <line x1="1260" y1="21" x2="1310" y2="21" stroke="#c62828" stroke-width="2.5" marker-end="url(#arrowRed)"/>
    <text x="1320" y="26" font-size="12.5" fill="#333">判定フロー</text>
  </g>

  <!-- ==================== BEPS行動4（上段左） ==================== -->
  <g transform="translate(50, 200)">
    <rect width="460" height="260" rx="10" fill="url(#gPurple)" stroke="#8e24aa" stroke-width="2" filter="url(#shadow)"/>
    <rect width="460" height="36" rx="10" fill="url(#gPurpleHeader)"/>
    <rect x="0" y="18" width="460" height="18" fill="url(#gPurpleHeader)"/>
    <text x="230" y="25" text-anchor="middle" fill="white" font-size="14" font-weight="bold">BEPS 行動4：利子控除制限ルール</text>
    <text x="20" y="60" font-size="12" fill="#4a148c" font-weight="bold">■ OECD/G20 BEPS最終報告書（2015年）</text>
    <text x="25" y="82" font-size="11.5" fill="#333">• 純支払利子 ≦ EBITDA × 10〜30%</text>
    <text x="25" y="100" font-size="11.5" fill="#333">• 固定比率ルール（Fixed Ratio Rule）</text>
    <text x="25" y="118" font-size="11.5" fill="#333">• グループ比率ルール（任意導入）</text>
    <text x="20" y="145" font-size="12" fill="#4a148c" font-weight="bold">■ 日本の対応（平成31年度改正）</text>
    <text x="25" y="167" font-size="11.5" fill="#333">• 固定比率：20%（措法66の5の2①）</text>
    <text x="25" y="185" font-size="11.5" fill="#333">• グループ比率ルール：不採用</text>
    <text x="25" y="203" font-size="11.5" fill="#333">• 基準所得：調整所得金額（≒税務EBITDA）</text>
    <text x="25" y="225" font-size="11" fill="#6a1b9a">※ 令和4年度改正で対象利子の範囲を拡大</text>
    <text x="25" y="243" font-size="11" fill="#6a1b9a">  （第三者を含む全利子へ）</text>
  </g>

  <!-- ==================== 措法66条の5の2 本体（中央上段） ==================== -->
  <g transform="translate(540, 200)">
    <rect width="700" height="260" rx="10" fill="url(#gBlue)" stroke="#1a73b5" stroke-width="2" filter="url(#shadow)"/>
    <rect width="700" height="36" rx="10" fill="url(#gBlueHeader)"/>
    <rect x="0" y="18" width="700" height="18" fill="url(#gBlueHeader)"/>
    <text x="350" y="25" text-anchor="middle" fill="white" font-size="14" font-weight="bold">措法66条の5の2 ── 対象純支払利子等に係る課税の特例（本則）</text>
    <text x="20" y="60" font-size="12" fill="#0d47a1" font-weight="bold">第1項：損金不算入の基本規定</text>
    <text x="25" y="80" font-size="11.5" fill="#333">内国法人の各事業年度の対象純支払利子等の額が</text>
    <text x="25" y="97" font-size="11.5" fill="#333">調整所得金額の20/100を超える場合 → 超過額は損金不算入</text>
    <text x="20" y="124" font-size="12" fill="#0d47a1" font-weight="bold">第2項：対象純支払利子等の額の定義</text>
    <text x="25" y="144" font-size="11.5" fill="#333">対象支払利子等合計額 − 控除対象受取利子等合計額</text>
    <text x="20" y="170" font-size="12" fill="#0d47a1" font-weight="bold">第3項〜第5項：調整所得金額の計算</text>
    <text x="25" y="190" font-size="11.5" fill="#333">当期所得＋損金算入対象純支払利子等＋減価償却費等（≒税務EBITDA）</text>
    <text x="20" y="216" font-size="12" fill="#0d47a1" font-weight="bold">第6項〜第8項：適用除外</text>
    <text x="25" y="236" font-size="11.5" fill="#333">対象純支払利子等の額 ≦ 2,000万円 → 不適用（デミニマス基準）</text>
  </g>

  <!-- 措法66条の5の2 から BEPS への参照矢印 -->
  <line x1="540" y1="320" x2="510" y2="320" stroke="#6a1b9a" stroke-width="2" stroke-dasharray="6,3" marker-end="url(#arrowPurple)"/>
  <text x="518" y="310" text-anchor="middle" font-size="10" fill="#6a1b9a">BEPS対応</text>

  <!-- ==================== 施行令（橙系・右上） ==================== -->
  <g transform="translate(1270, 200)">
    <rect width="280" height="260" rx="10" fill="url(#gOrange)" stroke="#e65100" stroke-width="2" filter="url(#shadow)"/>
    <rect width="280" height="36" rx="10" fill="url(#gOrangeHeader)"/>
    <rect x="0" y="18" width="280" height="18" fill="url(#gOrangeHeader)"/>
    <text x="140" y="25" text-anchor="middle" fill="white" font-size="13" font-weight="bold">施行令（措令39条の13の2）</text>
    <text x="15" y="58" font-size="11.5" fill="#bf360c" font-weight="bold">■ 定義の詳細</text>
    <text x="20" y="78" font-size="11" fill="#333">• 対象支払利子等の範囲</text>
    <text x="20" y="95" font-size="11" fill="#333">• 控除対象受取利子等</text>
    <text x="20" y="112" font-size="11" fill="#333">• 調整所得金額の計算細則</text>
    <text x="15" y="138" font-size="11.5" fill="#bf360c" font-weight="bold">■ 適用除外の詳細</text>
    <text x="20" y="158" font-size="11" fill="#333">• 2,000万円基準の判定</text>
    <text x="20" y="175" font-size="11" fill="#333">• 公共法人等の除外</text>
    <text x="15" y="200" font-size="11.5" fill="#bf360c" font-weight="bold">■ 連結納税の読替え</text>
    <text x="20" y="220" font-size="11" fill="#333">• グループ通算制度対応</text>
    <text x="20" y="237" font-size="11" fill="#333">  （令和4年4月1日〜）</text>
  </g>

  <!-- 施行令←→本則の参照矢印 -->
  <line x1="1240" y1="340" x2="1270" y2="340" stroke="#e65100" stroke-width="2" stroke-dasharray="6,3" marker-end="url(#arrowOrange)"/>

  <!-- ==================== 適用要件判定フロー（赤系） ==================== -->
  <g transform="translate(50, 500)">
    <rect width="1500" height="48" rx="10" fill="url(#gRedHeader)" filter="url(#shadow)"/>
    <text x="750" y="32" text-anchor="middle" fill="white" font-size="16" font-weight="bold">▼ 適用要件の判定フロー（措法66条の5の2①〜⑧）</text>
  </g>

  <!-- STEP 1: 対象純支払利子の算定 -->
  <g transform="translate(80, 575)">
    <rect width="320" height="120" rx="10" fill="url(#gBlue)" stroke="#1a73b5" stroke-width="2" filter="url(#shadow)"/>
    <rect width="320" height="30" rx="10" fill="url(#gBlueHeader)"/>
    <rect x="0" y="15" width="320" height="15" fill="url(#gBlueHeader)"/>
    <text x="160" y="22" text-anchor="middle" fill="white" font-size="12" font-weight="bold">STEP 1：対象純支払利子等の額（②項）</text>
    <text x="15" y="52" font-size="11.5" fill="#333" font-weight="bold">対象支払利子等合計額</text>
    <text x="15" y="70" font-size="11" fill="#555">（国内外の関連者・第三者への支払利子）</text>
    <text x="195" y="52" font-size="14" fill="#c62828" font-weight="bold">−</text>
    <text x="215" y="52" font-size="11.5" fill="#333" font-weight="bold">控除対象受取利子等合計額</text>
    <text x="160" y="100" text-anchor="middle" font-size="13" fill="#1a73b5" font-weight="bold">＝ 対象純支払利子等の額（A）</text>
  </g>

  <!-- 矢印 STEP1→STEP2 -->
  <line x1="400" y1="695" x2="400" y2="720" stroke="#c62828" stroke-width="2.5" marker-end="url(#arrowRed)"/>

  <!-- STEP 2: 適用除外判定 -->
  <g transform="translate(200, 725)">
    <polygon points="200,0 400,55 200,110 0,55" fill="url(#gGreen)" stroke="#2e7d32" stroke-width="2" filter="url(#shadow)"/>
    <text x="200" y="48" text-anchor="middle" font-size="12" fill="#1b5e20" font-weight="bold">STEP 2：適用除外判定（⑥〜⑧項）</text>
    <text x="200" y="68" text-anchor="middle" font-size="11.5" fill="#333">A ≦ 2,000万円？</text>
  </g>

  <!-- YES → 適用なし -->
  <line x1="600" y1="780" x2="720" y2="780" stroke="#2e7d32" stroke-width="2.5" marker-end="url(#arrowGreen)"/>
  <text x="650" y="772" font-size="11" fill="#2e7d32" font-weight="bold">YES</text>
  <g transform="translate(725, 755)">
    <rect width="200" height="50" rx="25" fill="#e8f5e9" stroke="#2e7d32" stroke-width="2"/>
    <text x="100" y="22" text-anchor="middle" font-size="12" fill="#2e7d32" font-weight="bold">適用除外</text>
    <text x="100" y="40" text-anchor="middle" font-size="11" fill="#333">→ 全額損金算入</text>
  </g>

  <!-- NO → STEP3 -->
  <line x1="400" y1="835" x2="400" y2="870" stroke="#c62828" stroke-width="2.5" marker-end="url(#arrowRed)"/>
  <text x="415" y="858" font-size="11" fill="#c62828" font-weight="bold">NO</text>

  <!-- STEP 3: 調整所得金額 -->
  <g transform="translate(80, 875)">
    <rect width="420" height="140" rx="10" fill="url(#gBlue)" stroke="#1a73b5" stroke-width="2" filter="url(#shadow)"/>
    <rect width="420" height="30" rx="10" fill="url(#gBlueHeader)"/>
    <rect x="0" y="15" width="420" height="15" fill="url(#gBlueHeader)"/>
    <text x="210" y="22" text-anchor="middle" fill="white" font-size="12" font-weight="bold">STEP 3：調整所得金額の算出（③〜⑤項）</text>
    <text x="15" y="52" font-size="11.5" fill="#333">当期所得金額（税務上）</text>
    <text x="15" y="72" font-size="11.5" fill="#333">＋ 損金算入された対象純支払利子等の額</text>
    <text x="15" y="92" font-size="11.5" fill="#333">＋ 減価償却費</text>
    <text x="15" y="112" font-size="11.5" fill="#333">＋ 受取配当益金不算入額 等の調整</text>
    <text x="210" y="133" text-anchor="middle" font-size="13" fill="#1a73b5" font-weight="bold">＝ 調整所得金額（B）≒ 税務EBITDA</text>
  </g>

  <!-- 施行令注釈（STEP3横） -->
  <g transform="translate(530, 910)">
    <rect width="260" height="75" rx="8" fill="url(#gOrange)" stroke="#e65100" stroke-width="1.5" stroke-dasharray="4,2"/>
    <text x="15" y="20" font-size="11" fill="#bf360c" font-weight="bold">施行令39条の13の2②〜④</text>
    <text x="15" y="38" font-size="10.5" fill="#333">• 調整所得金額の計算細則</text>
    <text x="15" y="54" font-size="10.5" fill="#333">• 繰越欠損金の加算処理</text>
    <text x="15" y="70" font-size="10.5" fill="#333">• 外国法人税の加算処理</text>
  </g>
  <line x1="500" y1="950" x2="530" y2="950" stroke="#e65100" stroke-width="1.5" stroke-dasharray="4,2"/>

  <!-- 矢印 STEP3→STEP4 -->
  <line x1="290" y1="1015" x2="290" y2="1050" stroke="#c62828" stroke-width="2.5" marker-end="url(#arrowRed)"/>

  <!-- STEP 4: 基準額の算定 -->
  <g transform="translate(80, 1055)">
    <rect width="420" height="80" rx="10" fill="url(#gRed)" stroke="#c62828" stroke-width="2" filter="url(#shadow)"/>
    <rect width="420" height="30" rx="10" fill="url(#gRedHeader)"/>
    <rect x="0" y="15" width="420" height="15" fill="url(#gRedHeader)"/>
    <text x="210" y="22" text-anchor="middle" fill="white" font-size="12" font-weight="bold">STEP 4：基準額の算定（①項）</text>
    <text x="210" y="55" text-anchor="middle" font-size="14" fill="#333">基準額 ＝ B × <tspan font-weight="bold" fill="#c62828">20 / 100</tspan></text>
    <text x="210" y="72" text-anchor="middle" font-size="11" fill="#555">（調整所得金額の20%）</text>
  </g>

  <!-- BEPS対応注釈（STEP4横） -->
  <g transform="translate(530, 1065)">
    <rect width="260" height="60" rx="8" fill="url(#gPurple)" stroke="#8e24aa" stroke-width="1.5" stroke-dasharray="4,2"/>
    <text x="15" y="20" font-size="11" fill="#6a1b9a" font-weight="bold">BEPS行動4 対応</text>
    <text x="15" y="38" font-size="10.5" fill="#333">固定比率ルール：10〜30%の範囲</text>
    <text x="15" y="54" font-size="10.5" fill="#333">→ 日本は20%を採用</text>
  </g>
  <line x1="500" y1="1095" x2="530" y2="1095" stroke="#8e24aa" stroke-width="1.5" stroke-dasharray="4,2"/>

  <!-- 矢印 STEP4→STEP5 -->
  <line x1="290" y1="1135" x2="290" y2="1170" stroke="#c62828" stroke-width="2.5" marker-end="url(#arrowRed)"/>

  <!-- STEP 5: 比較判定 -->
  <g transform="translate(90, 1175)">
    <polygon points="200,0 400,60 200,120 0,60" fill="url(#gRed)" stroke="#c62828" stroke-width="2" filter="url(#shadow)"/>
    <text x="200" y="50" text-anchor="middle" font-size="13" fill="#b71c1c" font-weight="bold">STEP 5：A ＞ B × 20% ？</text>
    <text x="200" y="72" text-anchor="middle" font-size="11.5" fill="#333">対象純支払利子等 ＞ 基準額？</text>
  </g>

  <!-- NO → 損金算入 -->
  <line x1="490" y1="1235" x2="600" y2="1235" stroke="#2e7d32" stroke-width="2.5" marker-end="url(#arrowGreen)"/>
  <text x="540" y="1227" font-size="11" fill="#2e7d32" font-weight="bold">NO</text>
  <g transform="translate(605, 1210)">
    <rect width="200" height="50" rx="25" fill="#e8f5e9" stroke="#2e7d32" stroke-width="2"/>
    <text x="100" y="22" text-anchor="middle" font-size="12" fill="#2e7d32" font-weight="bold">全額損金算入</text>
    <text x="100" y="40" text-anchor="middle" font-size="11" fill="#333">→ 損金不算入額なし</text>
  </g>

  <!-- YES → STEP6 -->
  <line x1="290" y1="1295" x2="290" y2="1330" stroke="#c62828" stroke-width="2.5" marker-end="url(#arrowRed)"/>
  <text x="305" y="1318" font-size="11" fill="#c62828" font-weight="bold">YES</text>

  <!-- STEP 6: 損金不算入額の計算 -->
  <g transform="translate(80, 1335)">
    <rect width="500" height="110" rx="10" fill="url(#gRed)" stroke="#c62828" stroke-width="2.5" filter="url(#shadow)"/>
    <rect width="500" height="32" rx="10" fill="url(#gRedHeader)"/>
    <rect x="0" y="16" width="500" height="16" fill="url(#gRedHeader)"/>
    <text x="250" y="23" text-anchor="middle" fill="white" font-size="13" font-weight="bold">STEP 6：損金不算入額の算出（①項）</text>
    <text x="250" y="62" text-anchor="middle" font-size="16" fill="#b71c1c" font-weight="bold">損金不算入額 ＝ A − B × 20%</text>
    <text x="250" y="85" text-anchor="middle" font-size="12" fill="#555">（対象純支払利子等の額 − 調整所得金額 × 20/100）</text>
    <text x="250" y="103" text-anchor="middle" font-size="11" fill="#c62828">→ この超過額を「超過利子額」として所得加算</text>
  </g>

  <!-- ==================== 繰越控除セクション（措法66条の5の3） ==================== -->
  <g transform="translate(50, 1490)">
    <rect width="1500" height="48" rx="10" fill="url(#gBlueHeader)" filter="url(#shadow)"/>
    <text x="750" y="32" text-anchor="middle" fill="white" font-size="16" font-weight="bold">▼ 超過利子額の繰越控除（措法66条の5の3）── 7年間</text>
  </g>

  <!-- 繰越控除の本則ボックス -->
  <g transform="translate(80, 1560)">
    <rect width="660" height="200" rx="10" fill="url(#gBlue)" stroke="#1a73b5" stroke-width="2" filter="url(#shadow)"/>
    <rect width="660" height="34" rx="10" fill="url(#gBlueHeader)"/>
    <rect x="0" y="17" width="660" height="17" fill="url(#gBlueHeader)"/>
    <text x="330" y="24" text-anchor="middle" fill="white" font-size="13" font-weight="bold">措法66条の5の3 ── 超過利子額の損金算入（繰越控除）</text>
    <text x="20" y="56" font-size="12" fill="#0d47a1" font-weight="bold">第1項：繰越控除の基本規定</text>
    <text x="25" y="76" font-size="11.5" fill="#333">前7年以内に開始した事業年度の超過利子額がある場合、</text>
    <text x="25" y="94" font-size="11.5" fill="#333">当期の「調整所得金額×20% − 対象純支払利子等の額」の範囲で損金算入</text>
    <text x="20" y="122" font-size="12" fill="#0d47a1" font-weight="bold">第2項：繰越控除の適用順序</text>
    <text x="25" y="142" font-size="11.5" fill="#333">最も古い事業年度の超過利子額から順次控除（FIFO方式）</text>
    <text x="20" y="168" font-size="12" fill="#0d47a1" font-weight="bold">第3項〜第5項：適用要件</text>
    <text x="25" y="188" font-size="11.5" fill="#333">連続して確定申告書を提出し、かつ超過利子額の明細書を保存していること</text>
  </g>

  <!-- 繰越イメージ図 -->
  <g transform="translate(780, 1570)">
    <rect width="740" height="180" rx="10" fill="white" stroke="#1a73b5" stroke-width="1.5" filter="url(#shadow)"/>
    <text x="370" y="24" text-anchor="middle" font-size="12" fill="#1a73b5" font-weight="bold">繰越控除のイメージ（7年間）</text>

    <!-- 年度バー -->
    <g transform="translate(20, 45)">
      <rect x="0" y="0" width="90" height="35" rx="5" fill="#ffcdd2" stroke="#c62828" stroke-width="1.2"/>
      <text x="45" y="15" text-anchor="middle" font-size="10" fill="#b71c1c" font-weight="bold">X期</text>
      <text x="45" y="28" text-anchor="middle" font-size="9" fill="#333">超過利子発生</text>

      <line x1="90" y1="17" x2="100" y2="17" stroke="#999" stroke-width="1.5" marker-end="url(#arrowGray)"/>

      <rect x="105" y="0" width="75" height="35" rx="5" fill="#e3f2fd" stroke="#1a73b5" stroke-width="1"/>
      <text x="142" y="15" text-anchor="middle" font-size="10" fill="#333">X+1期</text>
      <text x="142" y="28" text-anchor="middle" font-size="9" fill="#1a73b5">繰越①</text>

      <line x1="180" y1="17" x2="190" y2="17" stroke="#999" stroke-width="1"/>

      <rect x="195" y="0" width="75" height="35" rx="5" fill="#e3f2fd" stroke="#1a73b5" stroke-width="1"/>
      <text x="232" y="15" text-anchor="middle" font-size="10" fill="#333">X+2期</text>
      <text x="232" y="28" text-anchor="middle" font-size="9" fill="#1a73b5">繰越②</text>

      <line x1="270" y1="17" x2="280" y2="17" stroke="#999" stroke-width="1"/>

      <text x="295" y="22" text-anchor="middle" font-size="16" fill="#999">…</text>

      <line x1="310" y1="17" x2="320" y2="17" stroke="#999" stroke-width="1"/>

      <rect x="325" y="0" width="75" height="35" rx="5" fill="#e3f2fd" stroke="#1a73b5" stroke-width="1"/>
      <text x="362" y="15" text-anchor="middle" font-size="10" fill="#333">X+6期</text>
      <text x="362" y="28" text-anchor="middle" font-size="9" fill="#1a73b5">繰越⑥</text>

      <line x1="400" y1="17" x2="410" y2="17" stroke="#999" stroke-width="1"/>

      <rect x="415" y="0" width="75" height="35" rx="5" fill="#c8e6c9" stroke="#2e7d32" stroke-width="1.2"/>
      <text x="452" y="15" text-anchor="middle" font-size="10" fill="#333">X+7期</text>
      <text x="452" y="28" text-anchor="middle" font-size="9" fill="#2e7d32">繰越⑦</text>

      <line x1="490" y1="17" x2="500" y2="17" stroke="#c62828" stroke-width="1.5"/>
      <rect x="505" y="0" width="75" height="35" rx="5" fill="#ffebee" stroke="#c62828" stroke-width="1.2" stroke-dasharray="4,2"/>
      <text x="542" y="15" text-anchor="middle" font-size="10" fill="#c62828">X+8期</text>
      <text x="542" y="28" text-anchor="middle" font-size="9" fill="#c62828">失効</text>
    </g>

    <text x="370" y="108" text-anchor="middle" font-size="11" fill="#333">当期控除可能額 ＝ 調整所得金額 × 20% − 対象純支払利子等の額</text>
    <text x="370" y="128" text-anchor="middle" font-size="11" fill="#333">（当期に基準額に余裕がある場合のみ控除可能）</text>

    <!-- 施行令注記 -->
    <rect x="20" y="140" width="700" height="32" rx="5" fill="url(#gOrange)" stroke="#e65100" stroke-width="1" stroke-dasharray="3,2"/>
    <text x="370" y="160" text-anchor="middle" font-size="10.5" fill="#bf360c">施行令39条の13の3：超過利子額の計算・繰越管理の細則、連結（グループ通算）移行時の経過措置</text>
  </g>

  <!-- 矢印 STEP6→繰越控除 -->
  <line x1="330" y1="1445" x2="330" y2="1490" stroke="#1a73b5" stroke-width="2.5" marker-end="url(#arrowBlue)"/>
  <text x="345" y="1475" font-size="10" fill="#1a73b5">超過利子額の繰越</text>

  <!-- ==================== 過少資本税制との関係セクション ==================== -->
  <g transform="translate(50, 1810)">
    <rect width="1500" height="48" rx="10" fill="url(#gRedHeader)" filter="url(#shadow)"/>
    <text x="750" y="32" text-anchor="middle" fill="white" font-size="16" font-weight="bold">▼ 過少資本税制（措法66条の5）との関係・適用順序</text>
  </g>

  <!-- 過少資本税制ボックス -->
  <g transform="translate(80, 1885)">
    <rect width="500" height="240" rx="10" fill="url(#gBlue)" stroke="#1565c0" stroke-width="2" filter="url(#shadow)"/>
    <rect width="500" height="34" rx="10" fill="#1565c0"/>
    <rect x="0" y="17" width="500" height="17" fill="#1565c0"/>
    <text x="250" y="24" text-anchor="middle" fill="white" font-size="13" font-weight="bold">措法66条の5 ── 過少資本税制</text>
    <text x="20" y="56" font-size="12" fill="#0d47a1" font-weight="bold">趣旨：関連者間の資本・負債比率の適正化</text>
    <text x="20" y="80" font-size="11.5" fill="#333">■ 国外支配株主等に対する負債が</text>
    <text x="25" y="98" font-size="11.5" fill="#333">  自己資本の3倍を超える場合（Debt/Equity &gt; 3:1）</text>
    <text x="20" y="122" font-size="11.5" fill="#333">■ 超過部分に対応する支払利子を損金不算入</text>
    <text x="20" y="150" font-size="12" fill="#0d47a1" font-weight="bold">対象：関連者間の借入利子のみ</text>
    <text x="25" y="170" font-size="11.5" fill="#333">（第三者からの借入は対象外）</text>
    <text x="20" y="198" font-size="11.5" fill="#bf360c" font-weight="bold">※ 過大支払利子税制との重複適用排除</text>
    <text x="25" y="218" font-size="11.5" fill="#333">  → いずれか大きい方のみ適用（①項ただし書）</text>
  </g>

  <!-- 適用順序フロー -->
  <g transform="translate(640, 1885)">
    <rect width="880" height="240" rx="10" fill="white" stroke="#c62828" stroke-width="2" filter="url(#shadow)"/>
    <rect width="880" height="34" rx="10" fill="url(#gRedHeader)"/>
    <rect x="0" y="17" width="880" height="17" fill="url(#gRedHeader)"/>
    <text x="440" y="24" text-anchor="middle" fill="white" font-size="13" font-weight="bold">適用順序と重複調整（措法66条の5の2①ただし書）</text>

    <!-- 過少資本算定 -->
    <rect x="30" y="52" width="240" height="60" rx="8" fill="url(#gBlue)" stroke="#1a73b5" stroke-width="1.5"/>
    <text x="150" y="74" text-anchor="middle" font-size="11.5" fill="#333" font-weight="bold">① 過少資本税制（66の5）</text>
    <text x="150" y="94" text-anchor="middle" font-size="11" fill="#555">損金不算入額 ＝ α</text>

    <!-- 過大支払利子算定 -->
    <rect x="30" y="130" width="240" height="60" rx="8" fill="url(#gRed)" stroke="#c62828" stroke-width="1.5"/>
    <text x="150" y="152" text-anchor="middle" font-size="11.5" fill="#333" font-weight="bold">② 過大支払利子税制（66の5の2）</text>
    <text x="150" y="172" text-anchor="middle" font-size="11" fill="#555">損金不算入額 ＝ β</text>

    <!-- 比較 -->
    <line x1="270" y1="82" x2="340" y2="130" stroke="#c62828" stroke-width="2"/>
    <line x1="270" y1="160" x2="340" y2="130" stroke="#c62828" stroke-width="2"/>

    <polygon points="410,100 480,130 410,160 340,130" fill="url(#gRed)" stroke="#c62828" stroke-width="2"/>
    <text x="410" y="126" text-anchor="middle" font-size="12" fill="#b71c1c" font-weight="bold">α と β</text>
    <text x="410" y="144" text-anchor="middle" font-size="11" fill="#333">比較</text>

    <!-- α≧β -->
    <line x1="480" y1="115" x2="560" y2="82" stroke="#1a73b5" stroke-width="2" marker-end="url(#arrowBlue)"/>
    <text x="520" y="90" font-size="10" fill="#1a73b5" font-weight="bold">α ≧ β</text>
    <rect x="565" y="55" width="280" height="55" rx="8" fill="url(#gBlue)" stroke="#1a73b5" stroke-width="2"/>
    <text x="705" y="76" text-anchor="middle" font-size="12" fill="#0d47a1" font-weight="bold">過少資本税制のみ適用</text>
    <text x="705" y="96" text-anchor="middle" font-size="11" fill="#333">損金不算入額 ＝ α</text>

    <!-- α＜β -->
    <line x1="480" y1="145" x2="560" y2="175" stroke="#c62828" stroke-width="2" marker-end="url(#arrowRed)"/>
    <text x="520" y="170" font-size="10" fill="#c62828" font-weight="bold">α ＜ β</text>
    <rect x="565" y="148" width="280" height="55" rx="8" fill="url(#gRed)" stroke="#c62828" stroke-width="2"/>
    <text x="705" y="169" text-anchor="middle" font-size="12" fill="#b71c1c" font-weight="bold">過大支払利子税制を適用</text>
    <text x="705" y="189" text-anchor="middle" font-size="11" fill="#333">損金不算入額 ＝ β</text>

    <text x="440" y="228" text-anchor="middle" font-size="11.5" fill="#c62828" font-weight="bold">⇒ いずれか大きい方の損金不算入額のみ適用（重複排除）</text>
  </g>

  <!-- ==================== 全体構造の俯瞰図（下段） ==================== -->
  <g transform="translate(50, 2170)">
    <rect width="1500" height="48" rx="10" fill="url(#gPurpleHeader)" filter="url(#shadow)"/>
    <text x="750" y="32" text-anchor="middle" fill="white" font-size="16" font-weight="bold">▼ 条文体系の全体構造と BEPS 行動4 との対応関係</text>
  </g>

  <!-- 全体構造 -->
  <g transform="translate(80, 2245)">
    <!-- BEPS行動4 -->
    <rect x="0" y="0" width="280" height="280" rx="10" fill="url(#gPurple)" stroke="#8e24aa" stroke-width="2" filter="url(#shadow)"/>
    <rect width="280" height="32" rx="10" fill="url(#gPurpleHeader)"/>
    <rect x="0" y="16" width="280" height="16" fill="url(#gPurpleHeader)"/>
    <text x="140" y="23" text-anchor="middle" fill="white" font-size="12" font-weight="bold">BEPS 行動4</text>
    <text x="20" y="52" font-size="11" fill="#4a148c" font-weight="bold">固定比率ルール</text>
    <text x="140" y="72" text-anchor="middle" font-size="10.5" fill="#333">↓</text>
    <text x="20" y="90" font-size="11" fill="#333">措法66の5の2（本則）</text>
    <line x1="20" y1="100" x2="260" y2="100" stroke="#ce93d8" stroke-width="0.5"/>
    <text x="20" y="120" font-size="11" fill="#4a148c" font-weight="bold">超過利子の繰越</text>
    <text x="140" y="140" text-anchor="middle" font-size="10.5" fill="#333">↓</text>
    <text x="20" y="158" font-size="11" fill="#333">措法66の5の3（繰越控除）</text>
    <line x1="20" y1="168" x2="260" y2="168" stroke="#ce93d8" stroke-width="0.5"/>
    <text x="20" y="188" font-size="11" fill="#4a148c" font-weight="bold">デミニマス基準</text>
    <text x="140" y="208" text-anchor="middle" font-size="10.5" fill="#333">↓</text>
    <text x="20" y="226" font-size="11" fill="#333">2,000万円基準（⑥〜⑧項）</text>
    <line x1="20" y1="236" x2="260" y2="236" stroke="#ce93d8" stroke-width="0.5"/>
    <text x="20" y="256" font-size="11" fill="#4a148c" font-weight="bold">関連者ルールとの併存</text>
    <text x="20" y="272" font-size="10.5" fill="#333">→ 過少資本税制（66の5）</text>
  </g>

  <!-- 本則 -->
  <g transform="translate(400, 2245)">
    <rect x="0" y="0" width="440" height="280" rx="10" fill="url(#gBlue)" stroke="#1a73b5" stroke-width="2" filter="url(#shadow)"/>
    <rect width="440" height="32" rx="10" fill="url(#gBlueHeader)"/>
    <rect x="0" y="16" width="440" height="16" fill="url(#gBlueHeader)"/>
    <text x="220" y="23" text-anchor="middle" fill="white" font-size="12" font-weight="bold">措置法（本則）</text>

    <rect x="15" y="44" width="410" height="65" rx="6" fill="white" fill-opacity="0.7" stroke="#1a73b5" stroke-width="1"/>
    <text x="220" y="62" text-anchor="middle" font-size="12" fill="#0d47a1" font-weight="bold">措法66条の5の2（8項構成）</text>
    <text x="30" y="80" font-size="10.5" fill="#333">①損金不算入 ②対象純支払利子 ③〜⑤調整所得</text>
    <text x="30" y="96" font-size="10.5" fill="#333">⑥〜⑧適用除外（デミニマス）</text>

    <rect x="15" y="118" width="410" height="50" rx="6" fill="white" fill-opacity="0.7" stroke="#1a73b5" stroke-width="1"/>
    <text x="220" y="137" text-anchor="middle" font-size="12" fill="#0d47a1" font-weight="bold">措法66条の5の3（5項構成）</text>
    <text x="30" y="155" font-size="10.5" fill="#333">①繰越控除 ②FIFO順 ③〜⑤要件（申告書・明細書保存）</text>

    <rect x="15" y="178" width="410" height="50" rx="6" fill="white" fill-opacity="0.5" stroke="#1565c0" stroke-width="1" stroke-dasharray="4,2"/>
    <text x="220" y="197" text-anchor="middle" font-size="12" fill="#1565c0" font-weight="bold">措法66条の5（過少資本税制）</text>
    <text x="30" y="215" font-size="10.5" fill="#333">D/E比率3:1基準、関連者間借入のみ、重複排除</text>

    <text x="15" y="250" font-size="11" fill="#0d47a1" font-weight="bold">適用順序整理：</text>
    <text x="15" y="268" font-size="10.5" fill="#333">66の5 と 66の5の2 の大きい方を適用 → 66の5の3で繰越控除</text>
  </g>

  <!-- 施行令 -->
  <g transform="translate(880, 2245)">
    <rect x="0" y="0" width="310" height="280" rx="10" fill="url(#gOrange)" stroke="#e65100" stroke-width="2" filter="url(#shadow)"/>
    <rect width="310" height="32" rx="10" fill="url(#gOrangeHeader)"/>
    <rect x="0" y="16" width="310" height="16" fill="url(#gOrangeHeader)"/>
    <text x="155" y="23" text-anchor="middle" fill="white" font-size="12" font-weight="bold">施行令（政令）</text>

    <rect x="15" y="44" width="280" height="80" rx="6" fill="white" fill-opacity="0.7" stroke="#e65100" stroke-width="1"/>
    <text x="155" y="62" text-anchor="middle" font-size="11.5" fill="#bf360c" font-weight="bold">措令39条の13の2</text>
    <text x="25" y="80" font-size="10.5" fill="#333">• 対象支払利子等の範囲</text>
    <text x="25" y="96" font-size="10.5" fill="#333">• 調整所得金額の計算細則</text>
    <text x="25" y="112" font-size="10.5" fill="#333">• 適用除外の詳細基準</text>

    <rect x="15" y="136" width="280" height="65" rx="6" fill="white" fill-opacity="0.7" stroke="#e65100" stroke-width="1"/>
    <text x="155" y="154" text-anchor="middle" font-size="11.5" fill="#bf360c" font-weight="bold">措令39条の13の3</text>
    <text x="25" y="172" font-size="10.5" fill="#333">• 超過利子額の繰越管理</text>
    <text x="25" y="188" font-size="10.5" fill="#333">• グループ通算移行経過措置</text>

    <rect x="15" y="212" width="280" height="50" rx="6" fill="white" fill-opacity="0.5" stroke="#e65100" stroke-width="1" stroke-dasharray="4,2"/>
    <text x="155" y="230" text-anchor="middle" font-size="11.5" fill="#bf360c" font-weight="bold">措令39条の13</text>
    <text x="25" y="248" font-size="10.5" fill="#333">• 過少資本税制の施行令</text>
  </g>

  <!-- 通達等 -->
  <g transform="translate(1230, 2245)">
    <rect x="0" y="0" width="260" height="280" rx="10" fill="#f5f5f5" stroke="#9e9e9e" stroke-width="1.5" filter="url(#shadow)"/>
    <rect width="260" height="32" rx="10" fill="#616161"/>
    <rect x="0" y="16" width="260" height="16" fill="#616161"/>
    <text x="130" y="23" text-anchor="middle" fill="white" font-size="12" font-weight="bold">関連通達・様式等</text>
    <text x="20" y="55" font-size="11" fill="#424242" font-weight="bold">■ 通達</text>
    <text x="25" y="73" font-size="10.5" fill="#333">措通66の5の2-1〜</text>
    <text x="25" y="89" font-size="10.5" fill="#333">措通66の5の3-1〜</text>
    <text x="20" y="115" font-size="11" fill="#424242" font-weight="bold">■ 申告書様式</text>
    <text x="25" y="133" font-size="10.5" fill="#333">別表17の2(1)〜(3)</text>
    <text x="25" y="149" font-size="10.5" fill="#333">（過大支払利子税制）</text>
    <text x="25" y="167" font-size="10.5" fill="#333">別表17(1)</text>
    <text x="25" y="183" font-size="10.5" fill="#333">（過少資本税制）</text>
    <text x="20" y="210" font-size="11" fill="#424242" font-weight="bold">■ 改正経緯</text>
    <text x="25" y="228" font-size="10.5" fill="#333">H24新設（関連者利子）</text>
    <text x="25" y="244" font-size="10.5" fill="#333">H31改正（BEPS対応）</text>
    <text x="25" y="260" font-size="10.5" fill="#333">R4改正（通算制度対応）</text>
  </g>

  <!-- 対応矢印 BEPS↔本則 -->
  <line x1="280" y1="2385" x2="400" y2="2385" stroke="#6a1b9a" stroke-width="2" stroke-dasharray="6,3" marker-end="url(#arrowPurple)"/>
  <text x="340" y="2378" text-anchor="middle" font-size="9" fill="#6a1b9a">対応</text>

  <!-- 対応矢印 本則↔施行令 -->
  <line x1="840" y1="2385" x2="880" y2="2385" stroke="#e65100" stroke-width="2" stroke-dasharray="6,3" marker-end="url(#arrowOrange)"/>
  <text x="860" y="2378" text-anchor="middle" font-size="9" fill="#e65100">委任</text>

  <!-- 対応矢印 施行令↔通達 -->
  <line x1="1190" y1="2385" x2="1230" y2="2385" stroke="#616161" stroke-width="2" stroke-dasharray="6,3" marker-end="url(#arrowGray)"/>
  <text x="1210" y="2378" text-anchor="middle" font-size="9" fill="#616161">解釈</text>

  <!-- ==================== フッター ==================== -->
  <g transform="translate(50, 2560)">
    <rect width="1500" height="195" rx="10" fill="white" stroke="#bdbdbd" stroke-width="1" filter="url(#shadow)"/>
    <text x="20" y="25" font-size="12" fill="#424242" font-weight="bold">【注記】</text>
    <text x="20" y="47" font-size="11" fill="#555">1. 措法66条の5の2は平成24年度税制改正で創設（当初は関連者間利子のみ対象）。平成31年度（令和元年）改正でBEPS行動4に対応し、</text>
    <text x="28" y="65" font-size="11" fill="#555">   第三者を含む全利子に対象を拡大。調整所得金額の20%を基準とする現行の枠組みに改組。</text>
    <text x="20" y="87" font-size="11" fill="#555">2. 過少資本税制（66条の5）は関連者間借入のD/E比率（3:1）を基準とし、過大支払利子税制とは別の観点から利子控除を制限。</text>
    <text x="28" y="105" font-size="11" fill="#555">   両制度の損金不算入額を比較し、大きい方のみ適用（重複排除：66条の5の2①ただし書）。</text>
    <text x="20" y="127" font-size="11" fill="#555">3. 超過利子額の繰越期間は7年間（66条の5の3①）。令和4年4月1日以後はグループ通算制度の下で適用。</text>
    <text x="20" y="149" font-size="11" fill="#555">4. 適用除外のデミニマス基準（2,000万円）は内国法人単体で判定（グループ通算制度下でも各法人単位）。</text>
    <text x="20" y="175" font-size="10" fill="#999">※ 本図は条文構造の概要を示すものであり、個別の適用判断には原文・通達等の確認が必要です。</text>
  </g>

  <text x="800" y="2785" text-anchor="middle" font-size="10" fill="#9e9e9e">過大支払利子税制 条文マップ ── 租税特別措置法66条の5の2・66条の5の3 体系図</text>
</svg>