<svg xmlns="http://www.w3.org/2000/svg" viewBox="0 0 1600 2400" font-family="'Helvetica Neue', Arial, 'Hiragino Kaku Gothic ProN', sans-serif">
  <defs>
    <!-- 青=法人税法 -->
    <linearGradient id="blueFill" x1="0%" y1="0%" x2="0%" y2="100%">
      <stop offset="0%" stop-color="#4A90D9"/>
      <stop offset="100%" stop-color="#2C6CB0"/>
    </linearGradient>
    <linearGradient id="blueLight" x1="0%" y1="0%" x2="0%" y2="100%">
      <stop offset="0%" stop-color="#D6E8FA"/>
      <stop offset="100%" stop-color="#B8D4F0"/>
    </linearGradient>
    <!-- 緑=所得税法 -->
    <linearGradient id="greenFill" x1="0%" y1="0%" x2="0%" y2="100%">
      <stop offset="0%" stop-color="#27AE60"/>
      <stop offset="100%" stop-color="#1E8449"/>
    </linearGradient>
    <linearGradient id="greenLight" x1="0%" y1="0%" x2="0%" y2="100%">
      <stop offset="0%" stop-color="#D5F5E3"/>
      <stop offset="100%" stop-color="#ABEBC6"/>
    </linearGradient>
    <!-- 橙=措置法 -->
    <linearGradient id="orangeFill" x1="0%" y1="0%" x2="0%" y2="100%">
      <stop offset="0%" stop-color="#E67E22"/>
      <stop offset="100%" stop-color="#CA6F1E"/>
    </linearGradient>
    <linearGradient id="orangeLight" x1="0%" y1="0%" x2="0%" y2="100%">
      <stop offset="0%" stop-color="#FDEBD0"/>
      <stop offset="100%" stop-color="#FAD7A0"/>
    </linearGradient>
    <!-- 赤=重要判定 -->
    <linearGradient id="redFill" x1="0%" y1="0%" x2="0%" y2="100%">
      <stop offset="0%" stop-color="#E74C3C"/>
      <stop offset="100%" stop-color="#C0392B"/>
    </linearGradient>
    <linearGradient id="redLight" x1="0%" y1="0%" x2="0%" y2="100%">
      <stop offset="0%" stop-color="#FADBD8"/>
      <stop offset="100%" stop-color="#F5B7B1"/>
    </linearGradient>
    <!-- 影 -->
    <filter id="shadow" x="-3%" y="-3%" width="106%" height="112%">
      <feDropShadow dx="2" dy="3" stdDeviation="3" flood-opacity="0.15"/>
    </filter>
    <filter id="shadowSmall" x="-2%" y="-2%" width="104%" height="108%">
      <feDropShadow dx="1" dy="2" stdDeviation="2" flood-opacity="0.12"/>
    </filter>
    <!-- 矢印マーカー -->
    <marker id="arrowGray" viewBox="0 0 10 10" refX="9" refY="5" markerWidth="8" markerHeight="8" orient="auto-start-reverse">
      <path d="M 0 1 L 10 5 L 0 9 z" fill="#7F8C8D"/>
    </marker>
    <marker id="arrowRed" viewBox="0 0 10 10" refX="9" refY="5" markerWidth="8" markerHeight="8" orient="auto-start-reverse">
      <path d="M 0 1 L 10 5 L 0 9 z" fill="#E74C3C"/>
    </marker>
    <marker id="arrowBlue" viewBox="0 0 10 10" refX="9" refY="5" markerWidth="8" markerHeight="8" orient="auto-start-reverse">
      <path d="M 0 1 L 10 5 L 0 9 z" fill="#2C6CB0"/>
    </marker>
    <marker id="arrowOrange" viewBox="0 0 10 10" refX="9" refY="5" markerWidth="8" markerHeight="8" orient="auto-start-reverse">
      <path d="M 0 1 L 10 5 L 0 9 z" fill="#E67E22"/>
    </marker>
  </defs>

  <!-- 背景 -->
  <rect width="1600" height="2400" fill="#F7F9FC" rx="8"/>

  <!-- ===== タイトル ===== -->
  <rect x="0" y="0" width="1600" height="90" fill="#2C3E50" rx="0"/>
  <text x="800" y="38" text-anchor="middle" fill="#FFFFFF" font-size="28" font-weight="bold">外国税額控除制度　条文マップ</text>
  <text x="800" y="68" text-anchor="middle" fill="#BDC3C7" font-size="15">法人税法69条 ／ 所得税法95条 ／ 租税特別措置法 ／ 租税条約</text>

  <!-- 凡例 -->
  <g transform="translate(50, 105)">
    <rect x="0" y="0" width="1500" height="42" rx="8" fill="#FFFFFF" stroke="#DEE2E6" stroke-width="1"/>
    <rect x="30" y="12" width="18" height="18" rx="3" fill="url(#blueFill)"/>
    <text x="55" y="26" fill="#2C3E50" font-size="13" font-weight="600">法人税法</text>
    <rect x="180" y="12" width="18" height="18" rx="3" fill="url(#greenFill)"/>
    <text x="205" y="26" fill="#2C3E50" font-size="13" font-weight="600">所得税法</text>
    <rect x="330" y="12" width="18" height="18" rx="3" fill="url(#orangeFill)"/>
    <text x="355" y="26" fill="#2C3E50" font-size="13" font-weight="600">租税特別措置法</text>
    <rect x="530" y="12" width="18" height="18" rx="3" fill="url(#redFill)"/>
    <text x="555" y="26" fill="#2C3E50" font-size="13" font-weight="600">重要判定ポイント</text>
    <line x1="730" y1="21" x2="770" y2="21" stroke="#7F8C8D" stroke-width="2" marker-end="url(#arrowGray)"/>
    <text x="780" y="26" fill="#2C3E50" font-size="13">条文参照・適用関係</text>
    <line x1="960" y1="21" x2="1000" y2="21" stroke="#E74C3C" stroke-width="2" stroke-dasharray="6,3" marker-end="url(#arrowRed)"/>
    <text x="1010" y="26" fill="#2C3E50" font-size="13">重要判定フロー</text>
  </g>

  <!-- ============================= -->
  <!-- SECTION 1: 制度の全体構造      -->
  <!-- ============================= -->
  <text x="800" y="190" text-anchor="middle" fill="#2C3E50" font-size="20" font-weight="bold">━━  第１層：制度の根拠条文と全体構造  ━━</text>

  <!-- 法人税法69条 メインボックス -->
  <g filter="url(#shadow)">
    <rect x="50" y="215" width="720" height="260" rx="12" fill="#FFFFFF" stroke="#2C6CB0" stroke-width="2.5"/>
    <rect x="50" y="215" width="720" height="44" rx="12" fill="url(#blueFill)"/>
    <rect x="50" y="247" width="720" height="12" fill="url(#blueFill)"/>
    <text x="410" y="245" text-anchor="middle" fill="#FFFFFF" font-size="17" font-weight="bold">法人税法 第69条（外国税額の控除）</text>

    <text x="75" y="285" fill="#2C3E50" font-size="13" font-weight="bold">第1項</text>
    <text x="130" y="285" fill="#34495E" font-size="13">内国法人が外国法人税を納付 → 控除限度額の範囲で税額控除</text>
    <text x="75" y="310" fill="#2C3E50" font-size="13" font-weight="bold">第2項</text>
    <text x="130" y="310" fill="#34495E" font-size="13">控除限度超過額 → 3年間の繰越控除（前3年以内に開始した事業年度）</text>
    <text x="75" y="335" fill="#2C3E50" font-size="13" font-weight="bold">第3項</text>
    <text x="130" y="335" fill="#34495E" font-size="13">控除余裕額 → 3年間の繰越（限度超過額を充当可能）</text>
    <text x="75" y="360" fill="#2C3E50" font-size="13" font-weight="bold">第4-16項</text>
    <text x="155" y="360" fill="#34495E" font-size="13">外国法人税の定義、高率負担部分の除外、みなし納付等</text>
    <text x="75" y="385" fill="#2C3E50" font-size="13" font-weight="bold">第17-19項</text>
    <text x="160" y="385" fill="#34495E" font-size="13">繰越控除の順序規定、適用要件、申告書記載要件</text>

    <rect x="70" y="400" width="680" height="58" rx="6" fill="url(#blueLight)" stroke="#2C6CB0" stroke-width="1" stroke-dasharray="4,2"/>
    <text x="410" y="420" text-anchor="middle" fill="#2C6CB0" font-size="12" font-weight="bold">【関連政令】法人税法施行令 第141条〜第148条</text>
    <text x="410" y="440" text-anchor="middle" fill="#2C6CB0" font-size="11">控除限度額の計算方法、国外所得金額の計算、繰越控除の細則</text>
  </g>

  <!-- 所得税法95条 メインボックス -->
  <g filter="url(#shadow)">
    <rect x="830" y="215" width="720" height="260" rx="12" fill="#FFFFFF" stroke="#1E8449" stroke-width="2.5"/>
    <rect x="830" y="215" width="720" height="44" rx="12" fill="url(#greenFill)"/>
    <rect x="830" y="247" width="720" height="12" fill="url(#greenFill)"/>
    <text x="1190" y="245" text-anchor="middle" fill="#FFFFFF" font-size="17" font-weight="bold">所得税法 第95条（外国税額控除）</text>

    <text x="855" y="285" fill="#2C3E50" font-size="13" font-weight="bold">第1項</text>
    <text x="910" y="285" fill="#34495E" font-size="13">居住者が外国所得税を納付 → 控除限度額の範囲で税額控除</text>
    <text x="855" y="310" fill="#2C3E50" font-size="13" font-weight="bold">第2項</text>
    <text x="910" y="310" fill="#34495E" font-size="13">控除限度超過額 → 3年間の繰越控除（前3年以内の各年分）</text>
    <text x="855" y="335" fill="#2C3E50" font-size="13" font-weight="bold">第3項</text>
    <text x="910" y="335" fill="#34495E" font-size="13">控除余裕額 → 3年間の繰越（限度超過額を充当可能）</text>
    <text x="855" y="360" fill="#2C3E50" font-size="13" font-weight="bold">第4-6項</text>
    <text x="935" y="360" fill="#34495E" font-size="13">外国所得税の定義、高率負担部分の除外</text>
    <text x="855" y="385" fill="#2C3E50" font-size="13" font-weight="bold">第7-9項</text>
    <text x="935" y="385" fill="#34495E" font-size="13">繰越の順序、確定申告書への記載要件、更正の請求</text>

    <rect x="850" y="400" width="680" height="58" rx="6" fill="url(#greenLight)" stroke="#1E8449" stroke-width="1" stroke-dasharray="4,2"/>
    <text x="1190" y="420" text-anchor="middle" fill="#1E8449" font-size="12" font-weight="bold">【関連政令】所得税法施行令 第221条〜第222条の2</text>
    <text x="1190" y="440" text-anchor="middle" fill="#1E8449" font-size="11">控除限度額の計算方法、国外所得金額の計算、繰越控除の細則</text>
  </g>

  <!-- 接続矢印（法人税法→所得税法：対応関係） -->
  <line x1="770" y1="345" x2="830" y2="345" stroke="#7F8C8D" stroke-width="1.5" stroke-dasharray="5,3"/>
  <text x="800" y="340" text-anchor="middle" fill="#7F8C8D" font-size="10" font-weight="bold">対応</text>

  <!-- ============================= -->
  <!-- SECTION 2: 控除限度額計算      -->
  <!-- ============================= -->
  <text x="800" y="520" text-anchor="middle" fill="#2C3E50" font-size="20" font-weight="bold">━━  第２層：控除限度額の計算構造  ━━</text>

  <!-- 計算式メインボックス -->
  <g filter="url(#shadow)">
    <rect x="150" y="545" width="1300" height="150" rx="12" fill="#FFFFFF" stroke="#2C3E50" stroke-width="2"/>
    <rect x="150" y="545" width="1300" height="40" rx="12" fill="#2C3E50"/>
    <rect x="150" y="573" width="1300" height="12" fill="#2C3E50"/>
    <text x="800" y="572" text-anchor="middle" fill="#FFFFFF" font-size="16" font-weight="bold">控除限度額の計算式（法令141条／所令221条）</text>

    <!-- 数式 -->
    <text x="800" y="625" text-anchor="middle" fill="#2C3E50" font-size="22" font-weight="bold">控除限度額 ＝ 当期の法人税額（所得税額）×</text>
    <line x1="480" y1="660" x2="1120" y2="660" stroke="#2C3E50" stroke-width="2"/>
    <text x="800" y="655" text-anchor="middle" fill="#2C6CB0" font-size="18" font-weight="bold">調整国外所得金額</text>
    <text x="800" y="685" text-anchor="middle" fill="#2C6CB0" font-size="18" font-weight="bold">全世界所得金額</text>
  </g>

  <!-- 重要判定：国外所得金額 -->
  <g filter="url(#shadowSmall)">
    <rect x="50" y="720" width="460" height="125" rx="10" fill="url(#redLight)" stroke="#E74C3C" stroke-width="2"/>
    <text x="280" y="748" text-anchor="middle" fill="#C0392B" font-size="14" font-weight="bold">★ 重要判定：国外所得金額の算定</text>
    <text x="75" y="775" fill="#34495E" font-size="12">• 国外源泉所得の範囲（法法69④、所法95④）</text>
    <text x="75" y="798" fill="#34495E" font-size="12">• 国内源泉所得との配分計算（共通費用の按分）</text>
    <text x="75" y="821" fill="#34495E" font-size="12">• 上限：全世界所得の90%（法令142③、所令222②）</text>
  </g>

  <!-- 重要判定：外国法人税の範囲 -->
  <g filter="url(#shadowSmall)">
    <rect x="570" y="720" width="460" height="125" rx="10" fill="url(#redLight)" stroke="#E74C3C" stroke-width="2"/>
    <text x="800" y="748" text-anchor="middle" fill="#C0392B" font-size="14" font-weight="bold">★ 重要判定：外国法人税・所得税の範囲</text>
    <text x="595" y="775" fill="#34495E" font-size="12">• 所得を課税標準として課される税（法法69①）</text>
    <text x="595" y="798" fill="#34495E" font-size="12">• 高率負担部分（税率35%超）の除外（法令142の2）</text>
    <text x="595" y="821" fill="#34495E" font-size="12">• 附帯税・加算税は対象外</text>
  </g>

  <!-- 法人税額の算出 -->
  <g filter="url(#shadowSmall)">
    <rect x="1090" y="720" width="460" height="125" rx="10" fill="url(#blueLight)" stroke="#2C6CB0" stroke-width="2"/>
    <text x="1320" y="748" text-anchor="middle" fill="#2C6CB0" font-size="14" font-weight="bold">当期の法人税額（所得税額）</text>
    <text x="1115" y="775" fill="#34495E" font-size="12">• 法人：各事業年度の所得に対する法人税額</text>
    <text x="1115" y="798" fill="#34495E" font-size="12">• 個人：配当控除後・住宅ローン控除前の所得税額</text>
    <text x="1115" y="821" fill="#34495E" font-size="12">• 地方税の控除限度額は別途計算</text>
  </g>

  <!-- 矢印：計算式 → 各要素 -->
  <line x1="280" y1="695" x2="280" y2="720" stroke="#E74C3C" stroke-width="2" marker-end="url(#arrowRed)"/>
  <line x1="800" y1="695" x2="800" y2="720" stroke="#E74C3C" stroke-width="2" marker-end="url(#arrowRed)"/>
  <line x1="1320" y1="695" x2="1320" y2="720" stroke="#2C6CB0" stroke-width="2" marker-end="url(#arrowBlue)"/>

  <!-- ============================= -->
  <!-- SECTION 3: 繰越制度            -->
  <!-- ============================= -->
  <text x="800" y="895" text-anchor="middle" fill="#2C3E50" font-size="20" font-weight="bold">━━  第３層：繰越制度（3年間）  ━━</text>

  <!-- 繰越の全体フロー -->
  <g filter="url(#shadow)">
    <rect x="50" y="920" width="1500" height="250" rx="12" fill="#FFFFFF" stroke="#2C3E50" stroke-width="2"/>

    <!-- 当年度の判定 -->
    <rect x="100" y="945" width="260" height="80" rx="10" fill="url(#redLight)" stroke="#E74C3C" stroke-width="2"/>
    <text x="230" y="975" text-anchor="middle" fill="#C0392B" font-size="14" font-weight="bold">当期の判定</text>
    <text x="230" y="1000" text-anchor="middle" fill="#34495E" font-size="12">外国税額 vs 控除限度額</text>

    <!-- 超過パターン -->
    <rect x="480" y="940" width="300" height="70" rx="10" fill="url(#blueLight)" stroke="#2C6CB0" stroke-width="2"/>
    <text x="630" y="968" text-anchor="middle" fill="#2C6CB0" font-size="13" font-weight="bold">外国税額 ＞ 控除限度額</text>
    <text x="630" y="990" text-anchor="middle" fill="#34495E" font-size="12">→ 控除限度超過額が発生</text>

    <!-- 余裕パターン -->
    <rect x="480" y="1025" width="300" height="70" rx="10" fill="url(#greenLight)" stroke="#1E8449" stroke-width="2"/>
    <text x="630" y="1053" text-anchor="middle" fill="#1E8449" font-size="13" font-weight="bold">外国税額 ＜ 控除限度額</text>
    <text x="630" y="1075" text-anchor="middle" fill="#34495E" font-size="12">→ 控除余裕額が発生</text>

    <!-- 矢印 -->
    <line x1="360" y1="970" x2="480" y2="975" stroke="#7F8C8D" stroke-width="1.5" marker-end="url(#arrowGray)"/>
    <line x1="360" y1="1000" x2="480" y2="1055" stroke="#7F8C8D" stroke-width="1.5" marker-end="url(#arrowGray)"/>

    <!-- 繰越のタイムライン -->
    <rect x="870" y="940" width="620" height="130" rx="8" fill="#F8F9FA" stroke="#BDC3C7" stroke-width="1"/>
    <text x="1180" y="965" text-anchor="middle" fill="#2C3E50" font-size="14" font-weight="bold">3年間の繰越メカニズム</text>

    <!-- タイムライン -->
    <line x1="920" y1="1000" x2="1430" y2="1000" stroke="#7F8C8D" stroke-width="2"/>
    <circle cx="950" cy="1000" r="6" fill="#E74C3C"/>
    <circle cx="1100" cy="1000" r="6" fill="#E67E22"/>
    <circle cx="1250" cy="1000" r="6" fill="#E67E22"/>
    <circle cx="1400" cy="1000" r="6" fill="#27AE60"/>

    <text x="950" y="1025" text-anchor="middle" fill="#34495E" font-size="11" font-weight="bold">発生年度</text>
    <text x="1100" y="1025" text-anchor="middle" fill="#34495E" font-size="11">1年目繰越</text>
    <text x="1250" y="1025" text-anchor="middle" fill="#34495E" font-size="11">2年目繰越</text>
    <text x="1400" y="1025" text-anchor="middle" fill="#34495E" font-size="11">3年目繰越</text>

    <text x="1180" y="1055" text-anchor="middle" fill="#C0392B" font-size="11" font-weight="bold">超過額 → 翌期以降の余裕額と相殺 ／ 余裕額 → 翌期以降の超過額を吸収</text>

    <!-- 矢印：パターン→繰越 -->
    <line x1="780" y1="975" x2="870" y2="975" stroke="#7F8C8D" stroke-width="1.5" marker-end="url(#arrowGray)"/>
    <line x1="780" y1="1060" x2="870" y2="1040" stroke="#7F8C8D" stroke-width="1.5" marker-end="url(#arrowGray)"/>

    <!-- 注記 -->
    <text x="100" y="1150" fill="#7F8C8D" font-size="11">※ 法人税法69条②③／所得税法95条②③：古い年度の超過額・余裕額から順に充当（先入先出）</text>
    <text x="780" y="1150" fill="#7F8C8D" font-size="11">※ 繰越適用には確定申告書への明細記載＋連続申告が要件（法法69⑰⑱、所法95⑦⑧）</text>
  </g>

  <!-- ============================= -->
  <!-- SECTION 4: 控除の類型          -->
  <!-- ============================= -->
  <text x="800" y="1220" text-anchor="middle" fill="#2C3E50" font-size="20" font-weight="bold">━━  第４層：控除の三類型  ━━</text>

  <!-- 直接控除 -->
  <g filter="url(#shadow)">
    <rect x="50" y="1250" width="470" height="280" rx="12" fill="#FFFFFF" stroke="#2C6CB0" stroke-width="2.5"/>
    <rect x="50" y="1250" width="470" height="44" rx="12" fill="url(#blueFill)"/>
    <rect x="50" y="1282" width="470" height="12" fill="url(#blueFill)"/>
    <text x="285" y="1280" text-anchor="middle" fill="#FFFFFF" font-size="16" font-weight="bold">① 直接控除（Direct Credit）</text>

    <text x="75" y="1315" fill="#2C3E50" font-size="13" font-weight="bold">根拠</text>
    <text x="120" y="1315" fill="#34495E" font-size="13">法法69①／所法95①</text>

    <rect x="70" y="1335" width="430" height="80" rx="6" fill="#F0F7FF" stroke="#2C6CB0" stroke-width="1"/>
    <text x="285" y="1358" text-anchor="middle" fill="#2C3E50" font-size="12" font-weight="bold">内国法人・居住者が直接納付した外国税額</text>
    <text x="285" y="1380" text-anchor="middle" fill="#34495E" font-size="11">源泉地国で課された所得税・法人税等</text>
    <text x="285" y="1400" text-anchor="middle" fill="#34495E" font-size="11">（源泉徴収税を含む）</text>

    <text x="75" y="1440" fill="#34495E" font-size="12">【対象者】法人・個人の両方</text>
    <text x="75" y="1462" fill="#34495E" font-size="12">【最も基本的な類型】</text>
    <text x="75" y="1484" fill="#34495E" font-size="12">外国で自ら申告・納付した税＋源泉徴収された税</text>
    <text x="75" y="1510" fill="#7F8C8D" font-size="11">※ 損金算入方式との選択適用（法法41、所法46）</text>
  </g>

  <!-- 間接控除 -->
  <g filter="url(#shadow)">
    <rect x="565" y="1250" width="470" height="280" rx="12" fill="#FFFFFF" stroke="#2C6CB0" stroke-width="2.5"/>
    <rect x="565" y="1250" width="470" height="44" rx="12" fill="url(#blueFill)"/>
    <rect x="565" y="1282" width="470" height="12" fill="url(#blueFill)"/>
    <text x="800" y="1280" text-anchor="middle" fill="#FFFFFF" font-size="16" font-weight="bold">② 間接控除（Indirect Credit）</text>

    <text x="590" y="1315" fill="#2C3E50" font-size="13" font-weight="bold">根拠</text>
    <text x="635" y="1315" fill="#34495E" font-size="13">法法69⑧〜⑯（旧：外国子会社配当）</text>

    <rect x="585" y="1335" width="430" height="80" rx="6" fill="#F0F7FF" stroke="#2C6CB0" stroke-width="1"/>
    <text x="800" y="1358" text-anchor="middle" fill="#2C3E50" font-size="12" font-weight="bold">外国子会社が納付した外国法人税のうち</text>
    <text x="800" y="1380" text-anchor="middle" fill="#34495E" font-size="11">配当に対応する部分を親法人で控除</text>
    <text x="800" y="1400" text-anchor="middle" fill="#34495E" font-size="11">（みなし納付：法法69⑧）</text>

    <text x="590" y="1440" fill="#34495E" font-size="12">【対象者】法人のみ</text>
    <text x="590" y="1462" fill="#34495E" font-size="12">【要件】25%以上・6月以上保有の外国子会社</text>
    <text x="590" y="1484" fill="#34495E" font-size="12">孫会社（2層目）まで認められる場合あり</text>
    <text x="590" y="1510" fill="#C0392B" font-size="11" font-weight="bold">※ H21改正で外国子会社配当益金不算入制度創設</text>
  </g>

  <!-- みなし外国税額控除 -->
  <g filter="url(#shadow)">
    <rect x="1080" y="1250" width="470" height="280" rx="12" fill="#FFFFFF" stroke="#E67E22" stroke-width="2.5"/>
    <rect x="1080" y="1250" width="470" height="44" rx="12" fill="url(#orangeFill)"/>
    <rect x="1080" y="1282" width="470" height="12" fill="url(#orangeFill)"/>
    <text x="1315" y="1280" text-anchor="middle" fill="#FFFFFF" font-size="16" font-weight="bold">③ みなし外国税額控除（Tax Sparing）</text>

    <text x="1105" y="1315" fill="#2C3E50" font-size="13" font-weight="bold">根拠</text>
    <text x="1150" y="1315" fill="#34495E" font-size="13">租税条約＋措法66条の7・措法41条の9</text>

    <rect x="1100" y="1335" width="430" height="80" rx="6" fill="url(#orangeLight)" stroke="#E67E22" stroke-width="1"/>
    <text x="1315" y="1358" text-anchor="middle" fill="#2C3E50" font-size="12" font-weight="bold">租税条約相手国が開発途上国等の優遇税制で</text>
    <text x="1315" y="1380" text-anchor="middle" fill="#34495E" font-size="11">減免された税額を「納付したものとみなして」控除</text>
    <text x="1315" y="1400" text-anchor="middle" fill="#34495E" font-size="11">（タックス・スペアリング・クレジット）</text>

    <text x="1105" y="1440" fill="#34495E" font-size="12">【対象者】法人・個人</text>
    <text x="1105" y="1462" fill="#34495E" font-size="12">【要件】租税条約に明示規定があること</text>
    <text x="1105" y="1484" fill="#34495E" font-size="12">対象国：中国・タイ・インド・ブラジル等</text>
    <text x="1105" y="1510" fill="#C0392B" font-size="11" font-weight="bold">※ 近年の条約改定で廃止・縮小傾向</text>
  </g>

  <!-- 矢印：間接控除→H21改正 -->
  <g filter="url(#shadowSmall)">
    <rect x="565" y="1545" width="470" height="55" rx="8" fill="url(#redLight)" stroke="#E74C3C" stroke-width="2"/>
    <text x="800" y="1568" text-anchor="middle" fill="#C0392B" font-size="12" font-weight="bold">★ H21年度改正：外国子会社配当益金不算入制度（法法23条の2）導入</text>
    <text x="800" y="1588" text-anchor="middle" fill="#34495E" font-size="11">→ 間接控除は原則廃止、95%益金不算入に移行（配当に係る源泉税は直接控除で対応）</text>
  </g>
  <line x1="800" y1="1530" x2="800" y2="1545" stroke="#E74C3C" stroke-width="2" stroke-dasharray="5,3" marker-end="url(#arrowRed)"/>

  <!-- ============================= -->
  <!-- SECTION 5: 租税条約との関係     -->
  <!-- ============================= -->
  <text x="800" y="1650" text-anchor="middle" fill="#2C3E50" font-size="20" font-weight="bold">━━  第５層：租税条約との関係  ━━</text>

  <g filter="url(#shadow)">
    <rect x="50" y="1675" width="1500" height="310" rx="12" fill="#FFFFFF" stroke="#2C3E50" stroke-width="2"/>

    <!-- 上位規範：租税条約 -->
    <rect x="500" y="1695" width="600" height="55" rx="10" fill="#2C3E50"/>
    <text x="800" y="1728" text-anchor="middle" fill="#FFFFFF" font-size="16" font-weight="bold">租税条約（二重課税排除条項：通常23条A/B）</text>

    <!-- 矢印 -->
    <line x1="650" y1="1750" x2="350" y2="1790" stroke="#7F8C8D" stroke-width="2" marker-end="url(#arrowGray)"/>
    <line x1="800" y1="1750" x2="800" y2="1790" stroke="#7F8C8D" stroke-width="2" marker-end="url(#arrowGray)"/>
    <line x1="950" y1="1750" x2="1250" y2="1790" stroke="#7F8C8D" stroke-width="2" marker-end="url(#arrowGray)"/>

    <!-- 条約23条A（免除方式） -->
    <rect x="100" y="1790" width="380" height="80" rx="8" fill="url(#greenLight)" stroke="#1E8449" stroke-width="1.5"/>
    <text x="290" y="1815" text-anchor="middle" fill="#1E8449" font-size="13" font-weight="bold">23条A：免除方式（Exemption）</text>
    <text x="290" y="1838" text-anchor="middle" fill="#34495E" font-size="11">源泉地国所得を居住地国で免除</text>
    <text x="290" y="1855" text-anchor="middle" fill="#34495E" font-size="11">日本は原則として採用せず</text>

    <!-- 条約23条B（税額控除方式） -->
    <rect x="610" y="1790" width="380" height="80" rx="8" fill="url(#blueLight)" stroke="#2C6CB0" stroke-width="1.5"/>
    <text x="800" y="1815" text-anchor="middle" fill="#2C6CB0" font-size="13" font-weight="bold">23条B：税額控除方式（Credit）</text>
    <text x="800" y="1838" text-anchor="middle" fill="#34495E" font-size="11">外国税額を自国の税額から控除</text>
    <text x="800" y="1855" text-anchor="middle" fill="#34495E" font-size="11">日本の基本的立場 → 法法69条・所法95条</text>

    <!-- みなし外国税額控除 -->
    <rect x="1120" y="1790" width="380" height="80" rx="8" fill="url(#orangeLight)" stroke="#E67E22" stroke-width="1.5"/>
    <text x="1310" y="1815" text-anchor="middle" fill="#CA6F1E" font-size="13" font-weight="bold">Tax Sparing条項</text>
    <text x="1310" y="1838" text-anchor="middle" fill="#34495E" font-size="11">開発途上国への投資促進目的</text>
    <text x="1310" y="1855" text-anchor="middle" fill="#34495E" font-size="11">措法66条の7・41条の9で国内法受け</text>

    <!-- 条約と国内法の関係 -->
    <rect x="100" y="1895" width="1400" height="72" rx="8" fill="#FEF9E7" stroke="#F39C12" stroke-width="1.5"/>
    <text x="800" y="1920" text-anchor="middle" fill="#2C3E50" font-size="14" font-weight="bold">租税条約と国内法の適用関係</text>
    <text x="150" y="1946" fill="#34495E" font-size="12">① 租税条約は国内法に優先（憲法98条②）  ② 条約で限度税率が定められる場合、国内法の税率を上書き  ③ 条約上の控除方法≠国内法の控除方法の場合は条約が優先</text>
  </g>

  <!-- ============================= -->
  <!-- SECTION 6: 適用フロー          -->
  <!-- ============================= -->
  <text x="800" y="2030" text-anchor="middle" fill="#2C3E50" font-size="20" font-weight="bold">━━  第６層：適用判定フローチャート  ━━</text>

  <!-- フローチャート -->
  <g filter="url(#shadow)">
    <rect x="50" y="2055" width="1500" height="310" rx="12" fill="#FFFFFF" stroke="#2C3E50" stroke-width="2"/>

    <!-- Step 1 -->
    <rect x="100" y="2080" width="200" height="55" rx="8" fill="url(#redFill)"/>
    <text x="200" y="2105" text-anchor="middle" fill="#FFFFFF" font-size="12" font-weight="bold">STEP 1</text>
    <text x="200" y="2122" text-anchor="middle" fill="#FFFFFF" font-size="11">外国税額の発生？</text>
    <line x1="300" y1="2107" x2="345" y2="2107" stroke="#E74C3C" stroke-width="2" marker-end="url(#arrowRed)"/>

    <!-- Step 2 -->
    <rect x="350" y="2080" width="200" height="55" rx="8" fill="url(#redFill)"/>
    <text x="450" y="2105" text-anchor="middle" fill="#FFFFFF" font-size="12" font-weight="bold">STEP 2</text>
    <text x="450" y="2122" text-anchor="middle" fill="#FFFFFF" font-size="11">「外国法人税」該当？</text>
    <line x1="550" y1="2107" x2="595" y2="2107" stroke="#E74C3C" stroke-width="2" marker-end="url(#arrowRed)"/>

    <!-- Step 3 -->
    <rect x="600" y="2080" width="200" height="55" rx="8" fill="url(#blueFill)"/>
    <text x="700" y="2105" text-anchor="middle" fill="#FFFFFF" font-size="12" font-weight="bold">STEP 3</text>
    <text x="700" y="2122" text-anchor="middle" fill="#FFFFFF" font-size="11">高率負担部分の除外</text>
    <line x1="800" y1="2107" x2="845" y2="2107" stroke="#2C6CB0" stroke-width="2" marker-end="url(#arrowBlue)"/>

    <!-- Step 4 -->
    <rect x="850" y="2080" width="200" height="55" rx="8" fill="url(#blueFill)"/>
    <text x="950" y="2105" text-anchor="middle" fill="#FFFFFF" font-size="12" font-weight="bold">STEP 4</text>
    <text x="950" y="2122" text-anchor="middle" fill="#FFFFFF" font-size="11">控除限度額の計算</text>
    <line x1="1050" y1="2107" x2="1095" y2="2107" stroke="#2C6CB0" stroke-width="2" marker-end="url(#arrowBlue)"/>

    <!-- Step 5 -->
    <rect x="1100" y="2080" width="200" height="55" rx="8" fill="url(#redFill)"/>
    <text x="1200" y="2105" text-anchor="middle" fill="#FFFFFF" font-size="12" font-weight="bold">STEP 5</text>
    <text x="1200" y="2122" text-anchor="middle" fill="#FFFFFF" font-size="11">超過 or 余裕？</text>
    <line x1="1300" y1="2107" x2="1345" y2="2107" stroke="#E74C3C" stroke-width="2" marker-end="url(#arrowRed)"/>

    <!-- Step 6 -->
    <rect x="1350" y="2080" width="150" height="55" rx="8" fill="#27AE60"/>
    <text x="1425" y="2105" text-anchor="middle" fill="#FFFFFF" font-size="12" font-weight="bold">STEP 6</text>
    <text x="1425" y="2122" text-anchor="middle" fill="#FFFFFF" font-size="11">繰越 or 申告</text>

    <!-- 補足説明 -->
    <!-- Step2補足 -->
    <rect x="350" y="2155" width="200" height="65" rx="6" fill="url(#redLight)" stroke="#E74C3C" stroke-width="1"/>
    <text x="450" y="2175" text-anchor="middle" fill="#C0392B" font-size="10" font-weight="bold">判定基準</text>
    <text x="450" y="2192" text-anchor="middle" fill="#34495E" font-size="10">法法69④・所法95④</text>
    <text x="450" y="2207" text-anchor="middle" fill="#34495E" font-size="10">所得基準で課税される税</text>
    <line x1="450" y1="2135" x2="450" y2="2155" stroke="#E74C3C" stroke-width="1" stroke-dasharray="3,2"/>

    <!-- Step3補足 -->
    <rect x="600" y="2155" width="200" height="65" rx="6" fill="url(#blueLight)" stroke="#2C6CB0" stroke-width="1"/>
    <text x="700" y="2175" text-anchor="middle" fill="#2C6CB0" font-size="10" font-weight="bold">法令142条の2</text>
    <text x="700" y="2192" text-anchor="middle" fill="#34495E" font-size="10">税率35%超の部分を</text>
    <text x="700" y="2207" text-anchor="middle" fill="#34495E" font-size="10">控除対象から除外</text>
    <line x1="700" y1="2135" x2="700" y2="2155" stroke="#2C6CB0" stroke-width="1" stroke-dasharray="3,2"/>

    <!-- Step4補足 -->
    <rect x="850" y="2155" width="200" height="65" rx="6" fill="url(#blueLight)" stroke="#2C6CB0" stroke-width="1"/>
    <text x="950" y="2175" text-anchor="middle" fill="#2C6CB0" font-size="10" font-weight="bold">法令141条・所令221条</text>
    <text x="950" y="2192" text-anchor="middle" fill="#34495E" font-size="10">税額 × 国外所得/全世界所得</text>
    <text x="950" y="2207" text-anchor="middle" fill="#34495E" font-size="10">上限90%規制あり</text>
    <line x1="950" y1="2135" x2="950" y2="2155" stroke="#2C6CB0" stroke-width="1" stroke-dasharray="3,2"/>

    <!-- Step5補足 -->
    <rect x="1100" y="2155" width="200" height="65" rx="6" fill="url(#redLight)" stroke="#E74C3C" stroke-width="1"/>
    <text x="1200" y="2175" text-anchor="middle" fill="#C0392B" font-size="10" font-weight="bold">法法69②③・所法95②③</text>
    <text x="1200" y="2192" text-anchor="middle" fill="#34495E" font-size="10">超過額 → 3年繰越</text>
    <text x="1200" y="2207" text-anchor="middle" fill="#34495E" font-size="10">余裕額 → 3年繰越</text>
    <line x1="1200" y1="2135" x2="1200" y2="2155" stroke="#E74C3C" stroke-width="1" stroke-dasharray="3,2"/>

    <!-- 租税条約チェック -->
    <rect x="100" y="2245" width="1400" height="50" rx="8" fill="url(#orangeLight)" stroke="#E67E22" stroke-width="1.5"/>
    <text x="800" y="2270" text-anchor="middle" fill="#CA6F1E" font-size="13" font-weight="bold">【並行チェック】租税条約の有無 → 限度税率の確認 → みなし外国税額控除（Tax Sparing）の適用可否 → 措法66条の7・41条の9</text>
    <text x="800" y="2288" text-anchor="middle" fill="#7F8C8D" font-size="11">条約相手国ごとに適用条件が異なるため、個別条約の確認が必須（日中・日タイ・日印・日伯等）</text>

    <!-- 矢印：全体→条約チェック -->
    <line x1="800" y1="2225" x2="800" y2="2245" stroke="#E67E22" stroke-width="1.5" stroke-dasharray="4,2" marker-end="url(#arrowOrange)"/>
  </g>

  <!-- フッター -->
  <rect x="50" y="2378" width="1500" height="16" rx="0" fill="none"/>
  <text x="800" y="2390" text-anchor="middle" fill="#95A5A6" font-size="11">外国税額控除制度 条文マップ ｜ 法人税法69条・所得税法95条・措法66条の7/41条の9 ｜ 条文番号は参照用（最新の改正状況を確認してください）</text>
</svg>