<svg xmlns="http://www.w3.org/2000/svg" viewBox="0 0 1600 2800"
     font-family="'Helvetica Neue', Arial, 'Hiragino Kaku Gothic ProN', sans-serif">

  <defs>
    <!-- 青=国内法 -->
    <linearGradient id="gBlue" x1="0%" y1="0%" x2="0%" y2="100%">
      <stop offset="0%" stop-color="#4A90D9"/>
      <stop offset="100%" stop-color="#2C5F99"/>
    </linearGradient>
    <!-- 橙=IIR -->
    <linearGradient id="gOrange" x1="0%" y1="0%" x2="0%" y2="100%">
      <stop offset="0%" stop-color="#F5A623"/>
      <stop offset="100%" stop-color="#D4861A"/>
    </linearGradient>
    <!-- 緑=UTPR -->
    <linearGradient id="gGreen" x1="0%" y1="0%" x2="0%" y2="100%">
      <stop offset="0%" stop-color="#50C878"/>
      <stop offset="100%" stop-color="#2E8B57"/>
    </linearGradient>
    <!-- 紫=QDMTT -->
    <linearGradient id="gPurple" x1="0%" y1="0%" x2="0%" y2="100%">
      <stop offset="0%" stop-color="#9B59B6"/>
      <stop offset="100%" stop-color="#6C3483"/>
    </linearGradient>
    <!-- 赤=重要判定 -->
    <linearGradient id="gRed" x1="0%" y1="0%" x2="0%" y2="100%">
      <stop offset="0%" stop-color="#E74C3C"/>
      <stop offset="100%" stop-color="#C0392B"/>
    </linearGradient>
    <!-- 灰=経過措置 -->
    <linearGradient id="gGray" x1="0%" y1="0%" x2="0%" y2="100%">
      <stop offset="0%" stop-color="#7F8C8D"/>
      <stop offset="100%" stop-color="#566573"/>
    </linearGradient>

    <filter id="shadow" x="-2%" y="-2%" width="104%" height="104%">
      <feDropShadow dx="2" dy="3" stdDeviation="3" flood-opacity="0.18"/>
    </filter>

    <marker id="arrowBlue" markerWidth="10" markerHeight="7" refX="10" refY="3.5" orient="auto">
      <polygon points="0 0, 10 3.5, 0 7" fill="#2C5F99"/>
    </marker>
    <marker id="arrowOrange" markerWidth="10" markerHeight="7" refX="10" refY="3.5" orient="auto">
      <polygon points="0 0, 10 3.5, 0 7" fill="#D4861A"/>
    </marker>
    <marker id="arrowGreen" markerWidth="10" markerHeight="7" refX="10" refY="3.5" orient="auto">
      <polygon points="0 0, 10 3.5, 0 7" fill="#2E8B57"/>
    </marker>
    <marker id="arrowPurple" markerWidth="10" markerHeight="7" refX="10" refY="3.5" orient="auto">
      <polygon points="0 0, 10 3.5, 0 7" fill="#6C3483"/>
    </marker>
    <marker id="arrowRed" markerWidth="10" markerHeight="7" refX="10" refY="3.5" orient="auto">
      <polygon points="0 0, 10 3.5, 0 7" fill="#C0392B"/>
    </marker>
    <marker id="arrowGray" markerWidth="10" markerHeight="7" refX="10" refY="3.5" orient="auto">
      <polygon points="0 0, 10 3.5, 0 7" fill="#566573"/>
    </marker>
  </defs>

  <!-- ===== 背景 ===== -->
  <rect width="1600" height="2800" fill="#F7F9FC" rx="12"/>

  <!-- ===== タイトル ===== -->
  <rect x="40" y="20" width="1520" height="90" rx="12" fill="url(#gBlue)" filter="url(#shadow)"/>
  <text x="800" y="58" text-anchor="middle" fill="#fff" font-size="28" font-weight="bold">グローバル・ミニマム課税（第2の柱 / GloBE）条文マップ</text>
  <text x="800" y="88" text-anchor="middle" fill="#E8F0FE" font-size="16">OECD Pillar 2 — 日本国内法制化の全体構造（法人税法 令和7年度改正後）</text>

  <!-- ===== 凡例 ===== -->
  <rect x="40" y="125" width="1520" height="48" rx="8" fill="#fff" stroke="#D5D8DC" stroke-width="1" filter="url(#shadow)"/>
  <rect x="60" y="137" width="22" height="22" rx="4" fill="url(#gBlue)"/>
  <text x="90" y="154" fill="#333" font-size="13" font-weight="600">国内法（総則）</text>
  <rect x="230" y="137" width="22" height="22" rx="4" fill="url(#gOrange)"/>
  <text x="260" y="154" fill="#333" font-size="13" font-weight="600">IIR（所得合算ルール）</text>
  <rect x="460" y="137" width="22" height="22" rx="4" fill="url(#gGreen)"/>
  <text x="490" y="154" fill="#333" font-size="13" font-weight="600">UTPR（軽課税所得ルール）</text>
  <rect x="730" y="137" width="22" height="22" rx="4" fill="url(#gPurple)"/>
  <text x="760" y="154" fill="#333" font-size="13" font-weight="600">QDMTT（国内ミニマム課税）</text>
  <rect x="1000" y="137" width="22" height="22" rx="4" fill="url(#gRed)"/>
  <text x="1030" y="154" fill="#333" font-size="13" font-weight="600">重要判定ポイント</text>
  <rect x="1200" y="137" width="22" height="22" rx="4" fill="url(#gGray)"/>
  <text x="1230" y="154" fill="#333" font-size="13" font-weight="600">経過措置・セーフハーバー</text>

  <!-- ============================================================ -->
  <!-- SECTION 1: 適用対象判定 -->
  <!-- ============================================================ -->
  <text x="60" y="210" fill="#2C5F99" font-size="20" font-weight="bold">■ STEP 0　適用対象の判定</text>

  <!-- 適用対象 赤ダイヤ -->
  <polygon points="800,240 1020,310 800,380 580,310" fill="url(#gRed)" filter="url(#shadow)" stroke="#fff" stroke-width="2"/>
  <text x="800" y="298" text-anchor="middle" fill="#fff" font-size="15" font-weight="bold">年間連結総収入 ≥ 7.5億ユーロ？</text>
  <text x="800" y="318" text-anchor="middle" fill="#FFE0DD" font-size="12">（直前4対象会計年度中2年度以上）</text>
  <text x="800" y="338" text-anchor="middle" fill="#FFE0DD" font-size="12">法法82④ — 特定多国籍企業グループ等</text>

  <!-- No arrow -->
  <line x1="580" y1="310" x2="420" y2="310" stroke="#C0392B" stroke-width="2.5" marker-end="url(#arrowRed)"/>
  <rect x="220" y="280" width="190" height="58" rx="8" fill="#fff" stroke="#C0392B" stroke-width="2"/>
  <text x="315" y="306" text-anchor="middle" fill="#C0392B" font-size="14" font-weight="bold">対象外</text>
  <text x="315" y="324" text-anchor="middle" fill="#666" font-size="11">GloBE課税なし</text>
  <text x="500" y="298" text-anchor="middle" fill="#C0392B" font-size="13" font-weight="bold">No</text>

  <!-- Yes arrow -->
  <line x1="800" y1="380" x2="800" y2="430" stroke="#C0392B" stroke-width="2.5" marker-end="url(#arrowRed)"/>
  <text x="820" y="410" fill="#C0392B" font-size="13" font-weight="bold">Yes</text>

  <!-- 複数国判定 -->
  <polygon points="800,430 980,490 800,550 620,490" fill="url(#gRed)" filter="url(#shadow)" stroke="#fff" stroke-width="2"/>
  <text x="800" y="485" text-anchor="middle" fill="#fff" font-size="14" font-weight="bold">複数国・地域に構成会社等？</text>
  <text x="800" y="505" text-anchor="middle" fill="#FFE0DD" font-size="11">法法82② — 構成会社等（連結対象）</text>

  <line x1="620" y1="490" x2="420" y2="490" stroke="#C0392B" stroke-width="2.5" marker-end="url(#arrowRed)"/>
  <rect x="220" y="460" width="190" height="58" rx="8" fill="#fff" stroke="#C0392B" stroke-width="2"/>
  <text x="315" y="486" text-anchor="middle" fill="#C0392B" font-size="14" font-weight="bold">QDMTT のみ検討</text>
  <text x="315" y="504" text-anchor="middle" fill="#666" font-size="11">単一国内グループ</text>
  <text x="530" y="478" text-anchor="middle" fill="#C0392B" font-size="13" font-weight="bold">No</text>

  <line x1="800" y1="550" x2="800" y2="600" stroke="#C0392B" stroke-width="2.5" marker-end="url(#arrowRed)"/>
  <text x="820" y="580" fill="#C0392B" font-size="13" font-weight="bold">Yes</text>

  <!-- ============================================================ -->
  <!-- SECTION 2: 基本計算（ETR) -->
  <!-- ============================================================ -->
  <rect x="40" y="600" width="1520" height="4" rx="2" fill="#D5D8DC"/>
  <text x="60" y="638" fill="#2C5F99" font-size="20" font-weight="bold">■ STEP 1　構成会社等単位の所得・租税の計算</text>

  <!-- GloBE所得計算ブロック -->
  <rect x="100" y="660" width="640" height="200" rx="12" fill="#fff" stroke="#2C5F99" stroke-width="2" filter="url(#shadow)"/>
  <rect x="100" y="660" width="640" height="38" rx="12" fill="url(#gBlue)"/>
  <rect x="100" y="680" width="640" height="18" fill="url(#gBlue)"/>
  <text x="420" y="686" text-anchor="middle" fill="#fff" font-size="16" font-weight="bold">個別計算所得等の金額（GloBE所得）</text>
  <text x="120" y="722" fill="#444" font-size="13">① 当期純損益金額（個別財務諸表ベース）</text>
  <text x="120" y="746" fill="#444" font-size="13">② ＋調整項目（国際海運所得除外、配当除外、株式損益除外等）</text>
  <text x="120" y="770" fill="#444" font-size="13">③ ＝個別計算所得金額（正）or 個別計算損失金額（ゼロ以下）</text>
  <text x="120" y="800" fill="#2C5F99" font-size="12" font-weight="600">法法82㉖㉗㉘ / 法令155の28〜155の34</text>
  <text x="120" y="822" fill="#888" font-size="11">連結等財務諸表（法法82①）を基礎とする最終親会社等（法法82⑩）の会計基準に準拠</text>
  <text x="120" y="842" fill="#888" font-size="11">対象会計年度＝最終親会社等の連結等財務諸表の作成期間（法法15の2）</text>

  <!-- 対象租税計算ブロック -->
  <rect x="860" y="660" width="640" height="200" rx="12" fill="#fff" stroke="#2C5F99" stroke-width="2" filter="url(#shadow)"/>
  <rect x="860" y="660" width="640" height="38" rx="12" fill="url(#gBlue)"/>
  <rect x="860" y="680" width="640" height="18" fill="url(#gBlue)"/>
  <text x="1180" y="686" text-anchor="middle" fill="#fff" font-size="16" font-weight="bold">調整後対象租税額</text>
  <text x="880" y="722" fill="#444" font-size="13">① 対象租税の特定（法人所得税、CFC税制配分額等）</text>
  <text x="880" y="746" fill="#444" font-size="13">② 税効果会計の調整（繰延税金資産・負債の考慮）</text>
  <text x="880" y="770" fill="#444" font-size="13">③ ＝調整後対象租税額</text>
  <text x="880" y="800" fill="#2C5F99" font-size="12" font-weight="600">法法82㉙㉚ / 法令155の35</text>
  <text x="880" y="822" fill="#888" font-size="11">対象租税＝法人の所得に対して課される税（法法82㉙）</text>
  <text x="880" y="842" fill="#888" font-size="11">CFC税制による他の構成会社等の税額の加算調整を含む</text>

  <!-- 下矢印 -->
  <line x1="420" y1="860" x2="420" y2="920" stroke="#2C5F99" stroke-width="2.5" marker-end="url(#arrowBlue)"/>
  <line x1="1180" y1="860" x2="1180" y2="920" stroke="#2C5F99" stroke-width="2.5" marker-end="url(#arrowBlue)"/>

  <!-- ============================================================ -->
  <!-- SECTION 3: 国別実効税率 -->
  <!-- ============================================================ -->
  <text x="60" y="950" fill="#2C5F99" font-size="20" font-weight="bold">■ STEP 2　国別実効税率（ETR）の計算と15%判定</text>

  <rect x="250" y="970" width="1100" height="130" rx="12" fill="#fff" stroke="#E74C3C" stroke-width="2.5" filter="url(#shadow)"/>
  <rect x="250" y="970" width="1100" height="38" rx="12" fill="url(#gRed)"/>
  <rect x="250" y="990" width="1100" height="18" fill="url(#gRed)"/>
  <text x="800" y="996" text-anchor="middle" fill="#fff" font-size="16" font-weight="bold">国別実効税率 ＝ 国別調整後対象租税額 ÷ 国別グループ純所得の金額</text>

  <text x="280" y="1036" fill="#444" font-size="14">国別グループ純所得 ＝ Σ（個別計算所得金額 − 個別計算損失金額）… 所在地国ごとにネット集計</text>
  <text x="280" y="1058" fill="#444" font-size="14">国別調整後対象租税額 ＝ Σ 調整後対象租税額 … 同一所在地国の構成会社等を合算</text>
  <text x="280" y="1082" fill="#E74C3C" font-size="13" font-weight="600">法法82の3②一イ(3) ─ 基準税率15%（法法82㉛）との比較が核心判定</text>

  <!-- 判定ダイヤ -->
  <line x1="800" y1="1100" x2="800" y2="1140" stroke="#C0392B" stroke-width="2.5" marker-end="url(#arrowRed)"/>

  <polygon points="800,1140 1000,1200 800,1260 600,1200" fill="url(#gRed)" filter="url(#shadow)" stroke="#fff" stroke-width="2"/>
  <text x="800" y="1195" text-anchor="middle" fill="#fff" font-size="15" font-weight="bold">ETR &lt; 15% ？</text>
  <text x="800" y="1215" text-anchor="middle" fill="#FFE0DD" font-size="12">（所在地国ごとに判定）</text>

  <!-- No -->
  <line x1="1000" y1="1200" x2="1200" y2="1200" stroke="#C0392B" stroke-width="2.5" marker-end="url(#arrowRed)"/>
  <rect x="1210" y="1170" width="240" height="58" rx="8" fill="#fff" stroke="#27AE60" stroke-width="2"/>
  <text x="1330" y="1196" text-anchor="middle" fill="#27AE60" font-size="14" font-weight="bold">トップアップ税なし</text>
  <text x="1330" y="1214" text-anchor="middle" fill="#666" font-size="11">当該所在地国について課税不要</text>
  <text x="1100" y="1188" fill="#C0392B" font-size="13" font-weight="bold">No（≥15%）</text>

  <!-- Yes -->
  <line x1="800" y1="1260" x2="800" y2="1310" stroke="#C0392B" stroke-width="2.5" marker-end="url(#arrowRed)"/>
  <text x="820" y="1290" fill="#C0392B" font-size="13" font-weight="bold">Yes（&lt;15%）</text>

  <!-- ============================================================ -->
  <!-- SECTION 4: Substance-based Carve-out + Top-up Tax -->
  <!-- ============================================================ -->
  <text x="60" y="1340" fill="#2C5F99" font-size="20" font-weight="bold">■ STEP 3　適格所得除外（Substance-based Carve-out）とトップアップ税計算</text>

  <rect x="250" y="1360" width="1100" height="180" rx="12" fill="#fff" stroke="#2C5F99" stroke-width="2" filter="url(#shadow)"/>
  <rect x="250" y="1360" width="1100" height="38" rx="12" fill="url(#gBlue)"/>
  <rect x="250" y="1380" width="1100" height="18" fill="url(#gBlue)"/>
  <text x="800" y="1386" text-anchor="middle" fill="#fff" font-size="16" font-weight="bold">当期国別国際最低課税額（トップアップ税）の計算式</text>

  <text x="280" y="1425" fill="#333" font-size="15" font-weight="600">トップアップ税 ＝</text>
  <rect x="460" y="1407" width="850" height="55" rx="8" fill="#FEF9E7" stroke="#F39C12" stroke-width="1.5"/>
  <text x="470" y="1429" fill="#333" font-size="14">（国別グループ純所得 − 給与適用除外額 − 有形資産適用除外額）× （15% − 国別ETR）</text>
  <text x="470" y="1451" fill="#333" font-size="14">　 − QDMTT税額（当該所在地国のQDMTT導入国の場合）</text>

  <text x="280" y="1478" fill="#444" font-size="13">● 給与適用除外額：適格給与費用 × 所定割合（経過措置あり）</text>
  <text x="280" y="1500" fill="#444" font-size="13">● 有形資産適用除外額：適格有形資産簿価 × 所定割合（経過措置あり）</text>
  <text x="280" y="1522" fill="#2C5F99" font-size="12" font-weight="600">法法82の3②一イ / 法令155の36 — 基準税率15%（法法82㉛）</text>

  <!-- ============================================================ -->
  <!-- SECTION 5: 3ルールの適用順序（分岐） -->
  <!-- ============================================================ -->
  <rect x="40" y="1560" width="1520" height="4" rx="2" fill="#D5D8DC"/>
  <text x="60" y="1600" fill="#2C5F99" font-size="20" font-weight="bold">■ STEP 4　3つのルールの適用順序（QDMTT → IIR → UTPR）</text>

  <!-- 適用順序の中央フロー -->
  <line x1="800" y1="1540" x2="800" y2="1630" stroke="#666" stroke-width="2" stroke-dasharray="6,4"/>

  <!-- ===== QDMTT (紫)  —  最優先 ===== -->
  <rect x="50" y="1630" width="460" height="310" rx="12" fill="#fff" stroke="#9B59B6" stroke-width="2.5" filter="url(#shadow)"/>
  <rect x="50" y="1630" width="460" height="42" rx="12" fill="url(#gPurple)"/>
  <rect x="50" y="1652" width="460" height="20" fill="url(#gPurple)"/>
  <text x="280" y="1658" text-anchor="middle" fill="#fff" font-size="16" font-weight="bold">❶ QDMTT（最優先）</text>
  <text x="70" y="1695" fill="#6C3483" font-size="14" font-weight="bold">各対象会計年度の国内最低課税額に対する法人税</text>
  <text x="70" y="1718" fill="#444" font-size="12">法人税法 第二編第二章第一節・第四節</text>
  <text x="70" y="1738" fill="#444" font-size="12">法人税法 第三編第三章第二節</text>

  <line x1="70" y1="1750" x2="490" y2="1750" stroke="#E8DAEF" stroke-width="1"/>
  <text x="70" y="1772" fill="#444" font-size="12">① 国内実効税率の計算（法法82の19②一イ(3)）</text>
  <text x="70" y="1794" fill="#444" font-size="12">② 当期グループ国内最低課税額の算定</text>
  <text x="70" y="1816" fill="#444" font-size="12">③ 国内調整後対象租税額による個社配分</text>
  <text x="70" y="1838" fill="#444" font-size="12">④ 構成会社等に係る国内最低課税額（法令155の62①）</text>
  <line x1="70" y1="1852" x2="490" y2="1852" stroke="#E8DAEF" stroke-width="1"/>
  <text x="70" y="1872" fill="#6C3483" font-size="12" font-weight="600">自国課税を防衛 → 他国IIR/UTPRに先行</text>
  <text x="70" y="1894" fill="#888" font-size="11">適用：2026年4月1日以後開始の対象会計年度</text>
  <text x="70" y="1914" fill="#888" font-size="11">法法82の19〜82の23 / 法令155の60〜155の67</text>

  <!-- ===== IIR (橙) — 第2優先 ===== -->
  <rect x="570" y="1630" width="460" height="310" rx="12" fill="#fff" stroke="#F5A623" stroke-width="2.5" filter="url(#shadow)"/>
  <rect x="570" y="1630" width="460" height="42" rx="12" fill="url(#gOrange)"/>
  <rect x="570" y="1652" width="460" height="20" fill="url(#gOrange)"/>
  <text x="800" y="1658" text-anchor="middle" fill="#fff" font-size="16" font-weight="bold">❷ IIR（第2優先）</text>
  <text x="590" y="1695" fill="#D4861A" font-size="14" font-weight="bold">各対象会計年度の国際最低課税額に対する法人税</text>
  <text x="590" y="1718" fill="#444" font-size="12">法人税法 第二編第二章（内国法人）</text>
  <text x="590" y="1738" fill="#444" font-size="12">法人税法 第三編第三章（外国法人）</text>

  <line x1="590" y1="1750" x2="1010" y2="1750" stroke="#FDEBD0" stroke-width="1"/>
  <text x="590" y="1772" fill="#444" font-size="12">① 国別グループ純所得・国別ETRの計算</text>
  <text x="590" y="1794" fill="#444" font-size="12">② グループ国際最低課税額（法法82の3①）</text>
  <text x="590" y="1816" fill="#444" font-size="12">③ 会社等別国際最低課税額（持分割合で配分）</text>
  <text x="590" y="1838" fill="#444" font-size="12">④ 最終親会社等 or 中間親会社等が納税（法法82の3①一イ）</text>
  <line x1="590" y1="1852" x2="1010" y2="1852" stroke="#FDEBD0" stroke-width="1"/>
  <text x="590" y="1872" fill="#D4861A" font-size="12" font-weight="600">親会社側で軽課税子会社の不足分を課税</text>
  <text x="590" y="1894" fill="#888" font-size="11">適用：2024年4月1日以後開始の対象会計年度</text>
  <text x="590" y="1914" fill="#888" font-size="11">法法82〜82の10 / 法令155の24〜155の43</text>

  <!-- ===== UTPR (緑) — 補完 ===== -->
  <rect x="1090" y="1630" width="460" height="310" rx="12" fill="#fff" stroke="#50C878" stroke-width="2.5" filter="url(#shadow)"/>
  <rect x="1090" y="1630" width="460" height="42" rx="12" fill="url(#gGreen)"/>
  <rect x="1090" y="1652" width="460" height="20" fill="url(#gGreen)"/>
  <text x="1320" y="1658" text-anchor="middle" fill="#fff" font-size="16" font-weight="bold">❸ UTPR（IIR補完）</text>
  <text x="1110" y="1695" fill="#2E8B57" font-size="14" font-weight="bold">各対象会計年度の国際最低課税残余額に対する法人税</text>
  <text x="1110" y="1718" fill="#444" font-size="12">法人税法 第二編第二章（内国法人）</text>
  <text x="1110" y="1738" fill="#444" font-size="12">法人税法 第三編第三章（外国法人）</text>

  <line x1="1110" y1="1750" x2="1530" y2="1750" stroke="#D5F5E3" stroke-width="1"/>
  <text x="1110" y="1772" fill="#444" font-size="12">① グループ国際最低課税残余額（法法82の11②）</text>
  <text x="1110" y="1794" fill="#444" font-size="12">② 従業員数＋有形資産額で各国配分</text>
  <text x="1110" y="1816" fill="#444" font-size="12">③ 国内グループ国際最低課税残余額の算定</text>
  <text x="1110" y="1838" fill="#444" font-size="12">④ 構成会社等単位で更に配分（法法82の11①）</text>
  <line x1="1110" y1="1852" x2="1530" y2="1852" stroke="#D5F5E3" stroke-width="1"/>
  <text x="1110" y="1872" fill="#2E8B57" font-size="12" font-weight="600">IIR課税されなかった残額を子会社側で分担</text>
  <text x="1110" y="1894" fill="#888" font-size="11">適用：2026年4月1日以後開始の対象会計年度</text>
  <text x="1110" y="1914" fill="#888" font-size="11">法法82の11〜82の18 / 法令155の44〜155の59</text>

  <!-- 適用順序の矢印 -->
  <line x1="510" y1="1785" x2="560" y2="1785" stroke="#9B59B6" stroke-width="3" marker-end="url(#arrowPurple)"/>
  <text x="535" y="1775" text-anchor="middle" fill="#9B59B6" font-size="10" font-weight="bold">控除</text>
  <line x1="1030" y1="1785" x2="1080" y2="1785" stroke="#F5A623" stroke-width="3" marker-end="url(#arrowOrange)"/>
  <text x="1055" y="1775" text-anchor="middle" fill="#D4861A" font-size="10" font-weight="bold">残額</text>

  <!-- ============================================================ -->
  <!-- SECTION 6: 課税標準・税率・申告 -->
  <!-- ============================================================ -->
  <rect x="40" y="1960" width="1520" height="4" rx="2" fill="#D5D8DC"/>
  <text x="60" y="2000" fill="#2C5F99" font-size="20" font-weight="bold">■ STEP 5　課税標準・税率・申告</text>

  <rect x="100" y="2020" width="440" height="145" rx="12" fill="#fff" stroke="#F5A623" stroke-width="2" filter="url(#shadow)"/>
  <rect x="100" y="2020" width="440" height="34" rx="12" fill="url(#gOrange)"/>
  <rect x="100" y="2038" width="440" height="16" fill="url(#gOrange)"/>
  <text x="320" y="2044" text-anchor="middle" fill="#fff" font-size="14" font-weight="bold">IIR 課税標準・税率</text>
  <text x="120" y="2080" fill="#444" font-size="12">課税標準：課税標準国際最低課税額（法法82の4①）</text>
  <text x="120" y="2100" fill="#444" font-size="12">税率：90.7%（法法82の5）</text>
  <text x="120" y="2120" fill="#444" font-size="12">申告：国際最低課税額確定申告書（法法82の6）</text>
  <text x="120" y="2140" fill="#444" font-size="12">期限：対象会計年度終了の日の翌日から</text>
  <text x="120" y="2155" fill="#444" font-size="12">　　　1年3月以内（初年度は1年6月以内）</text>

  <rect x="580" y="2020" width="440" height="145" rx="12" fill="#fff" stroke="#50C878" stroke-width="2" filter="url(#shadow)"/>
  <rect x="580" y="2020" width="440" height="34" rx="12" fill="url(#gGreen)"/>
  <rect x="580" y="2038" width="440" height="16" fill="url(#gGreen)"/>
  <text x="800" y="2044" text-anchor="middle" fill="#fff" font-size="14" font-weight="bold">UTPR 課税標準・税率</text>
  <text x="600" y="2080" fill="#444" font-size="12">課税標準：課税標準国際最低課税残余額（法法82の12①）</text>
  <text x="600" y="2100" fill="#444" font-size="12">税率：90.7%（法法82の13）</text>
  <text x="600" y="2120" fill="#444" font-size="12">申告：国際最低課税残余額確定申告書（法法82の14）</text>
  <text x="600" y="2140" fill="#444" font-size="12">期限：同上</text>

  <rect x="1060" y="2020" width="440" height="145" rx="12" fill="#fff" stroke="#9B59B6" stroke-width="2" filter="url(#shadow)"/>
  <rect x="1060" y="2020" width="440" height="34" rx="12" fill="url(#gPurple)"/>
  <rect x="1060" y="2038" width="440" height="16" fill="url(#gPurple)"/>
  <text x="1280" y="2044" text-anchor="middle" fill="#fff" font-size="14" font-weight="bold">QDMTT 課税標準・税率</text>
  <text x="1080" y="2080" fill="#444" font-size="12">課税標準：課税標準国内最低課税額（法法82の20①）</text>
  <text x="1080" y="2100" fill="#444" font-size="12">税率：90.7%（法法82の21）</text>
  <text x="1080" y="2120" fill="#444" font-size="12">申告：国内最低課税額確定申告書（法法82の22）</text>
  <text x="1080" y="2140" fill="#444" font-size="12">期限：同上</text>

  <!-- ============================================================ -->
  <!-- SECTION 7: セーフハーバー・経過措置 -->
  <!-- ============================================================ -->
  <rect x="40" y="2190" width="1520" height="4" rx="2" fill="#D5D8DC"/>
  <text x="60" y="2230" fill="#566573" font-size="20" font-weight="bold">■ 経過措置・セーフハーバー</text>

  <!-- 移行期間CbCRセーフハーバー -->
  <rect x="50" y="2250" width="480" height="220" rx="12" fill="#fff" stroke="#7F8C8D" stroke-width="2" filter="url(#shadow)"/>
  <rect x="50" y="2250" width="480" height="38" rx="12" fill="url(#gGray)"/>
  <rect x="50" y="2270" width="480" height="18" fill="url(#gGray)"/>
  <text x="290" y="2276" text-anchor="middle" fill="#fff" font-size="14" font-weight="bold">移行期間CbCRセーフハーバー</text>
  <text x="70" y="2312" fill="#444" font-size="12">● 2026年12月31日以前開始かつ</text>
  <text x="80" y="2332" fill="#444" font-size="12">2028年6月30日までに終了する対象会計年度</text>
  <text x="70" y="2358" fill="#444" font-size="12">● 3要件（いずれか充足で免除）：</text>
  <text x="80" y="2378" fill="#444" font-size="12">① デ・ミニマステスト（総収入1,000万EUR未満＋</text>
  <text x="94" y="2396" fill="#444" font-size="12">税引前利益100万EUR未満）</text>
  <text x="80" y="2416" fill="#444" font-size="12">② 簡素ETRテスト（簡易ETR ≥ 移行税率）</text>
  <text x="80" y="2436" fill="#444" font-size="12">③ ルーティン利益テスト</text>
  <text x="70" y="2458" fill="#566573" font-size="11" font-weight="600">法人税法附則14の3 / 改正法附則</text>

  <!-- QDMTTセーフハーバー -->
  <rect x="560" y="2250" width="480" height="220" rx="12" fill="#fff" stroke="#9B59B6" stroke-width="2" filter="url(#shadow)"/>
  <rect x="560" y="2250" width="480" height="38" rx="12" fill="url(#gPurple)"/>
  <rect x="560" y="2270" width="480" height="18" fill="url(#gPurple)"/>
  <text x="800" y="2276" text-anchor="middle" fill="#fff" font-size="14" font-weight="bold">QDMTTセーフハーバー</text>
  <text x="580" y="2312" fill="#444" font-size="12">● 他国の適格QDMTTにより課された税額は</text>
  <text x="590" y="2332" fill="#444" font-size="12">IIR/UTPRの計算において控除</text>
  <text x="580" y="2358" fill="#444" font-size="12">● QDMTTがGloBEモデルルールと整合的で</text>
  <text x="590" y="2378" fill="#444" font-size="12">あると認められる場合、当該所在地国の</text>
  <text x="590" y="2398" fill="#444" font-size="12">トップアップ税はゼロとみなせる</text>
  <text x="580" y="2428" fill="#444" font-size="12">● ピア・レビューを通じた適格性確認</text>
  <text x="580" y="2458" fill="#6C3483" font-size="11" font-weight="600">法法82の3②一ニ / GloBE Model Rules Art.5.2.3</text>

  <!-- 適格所得除外の経過率 -->
  <rect x="1070" y="2250" width="480" height="220" rx="12" fill="#fff" stroke="#7F8C8D" stroke-width="2" filter="url(#shadow)"/>
  <rect x="1070" y="2250" width="480" height="38" rx="12" fill="url(#gGray)"/>
  <rect x="1070" y="2270" width="480" height="18" fill="url(#gGray)"/>
  <text x="1310" y="2276" text-anchor="middle" fill="#fff" font-size="14" font-weight="bold">Substance Carve-out 経過措置</text>
  <text x="1090" y="2312" fill="#444" font-size="12">● 給与適用除外率：</text>
  <text x="1100" y="2332" fill="#444" font-size="12">初年度10.0% → 段階的に5.0%へ（10年間）</text>
  <text x="1090" y="2358" fill="#444" font-size="12">● 有形資産適用除外率：</text>
  <text x="1100" y="2378" fill="#444" font-size="12">初年度8.0% → 段階的に5.0%へ（10年間）</text>
  <text x="1090" y="2408" fill="#444" font-size="12">● 経過期間中は恒久的水準より高い除外率を適用</text>
  <text x="1100" y="2428" fill="#444" font-size="12">→ 実体ある経済活動のある国は影響が緩和</text>
  <text x="1090" y="2458" fill="#566573" font-size="11" font-weight="600">GloBE Model Rules Art.9.2 / 法令155の36関連</text>

  <!-- ============================================================ -->
  <!-- SECTION 8: 情報申告・報告制度 -->
  <!-- ============================================================ -->
  <rect x="40" y="2490" width="1520" height="4" rx="2" fill="#D5D8DC"/>
  <text x="60" y="2530" fill="#2C5F99" font-size="20" font-weight="bold">■ 情報申告・報告制度</text>

  <rect x="100" y="2550" width="1400" height="100" rx="12" fill="#fff" stroke="#2C5F99" stroke-width="2" filter="url(#shadow)"/>
  <rect x="100" y="2550" width="1400" height="38" rx="12" fill="url(#gBlue)"/>
  <rect x="100" y="2570" width="1400" height="18" fill="url(#gBlue)"/>
  <text x="800" y="2576" text-anchor="middle" fill="#fff" font-size="15" font-weight="bold">特定多国籍企業グループ等に係る報告事項等の提供制度（GIR: GloBE Information Return）</text>
  <text x="120" y="2614" fill="#444" font-size="13">● 法法150の3 — 最終親会社等が所在する国の構成会社等が、グループの全体像・GloBE計算明細を税務当局に提供</text>
  <text x="120" y="2638" fill="#444" font-size="13">● 各国間での情報交換（CbCR制度との連携） — 国別報告書（法法150の5〜150の12）も引き続き重要</text>

  <!-- ============================================================ -->
  <!-- フッター注記 -->
  <!-- ============================================================ -->
  <rect x="40" y="2680" width="1520" height="100" rx="10" fill="#EBF5FB" stroke="#AED6F1" stroke-width="1"/>
  <text x="60" y="2705" fill="#2C5F99" font-size="13" font-weight="bold">注記</text>
  <text x="60" y="2725" fill="#555" font-size="11">● 本図は令和7年度税制改正後（2025年改正法）の法人税法に基づく。IIRは令和6年4月1日以後開始の対象会計年度から適用済。UTPR・QDMTTは令和8年4月1日以後開始の対象会計年度から適用。</text>
  <text x="60" y="2745" fill="#555" font-size="11">● 条文番号は「法法」＝法人税法、「法令」＝法人税法施行令。主要条文を抜粋して記載しており、全ての関連条文を網羅するものではない。</text>
  <text x="60" y="2765" fill="#555" font-size="11">● OECDモデルルール（GloBE Model Rules / Pillar Two）および各種Administrative Guidance、Commentary との対照関係は概略的なものである。</text>

  <text x="1540" y="2790" text-anchor="end" fill="#AAB7B8" font-size="10">作成：2026-03-05 / Source: 財務省「グローバル・ミニマム課税の法制化について」(2025.7)、国税庁、OECD GloBE Rules</text>

</svg>