<svg xmlns="http://www.w3.org/2000/svg" viewBox="0 0 1800 2800" font-family="'Helvetica Neue',Arial,'Hiragino Kaku Gothic ProN','Hiragino Sans',Meiryo,sans-serif">
<defs>
  <linearGradient id="bg" x1="0%" y1="0%" x2="0%" y2="100%"><stop offset="0%" stop-color="#080e1a"/><stop offset="100%" stop-color="#101c34"/></linearGradient>
  <linearGradient id="gRed" x1="0%" y1="0%" x2="100%" y2="100%"><stop offset="0%" stop-color="#b92b27"/><stop offset="100%" stop-color="#d44040"/></linearGradient>
  <linearGradient id="gBlue" x1="0%" y1="0%" x2="0%" y2="100%"><stop offset="0%" stop-color="#18355a"/><stop offset="100%" stop-color="#1f4e80"/></linearGradient>
  <linearGradient id="gGreen" x1="0%" y1="0%" x2="0%" y2="100%"><stop offset="0%" stop-color="#1a4035"/><stop offset="100%" stop-color="#1e6048"/></linearGradient>
  <linearGradient id="gPurp" x1="0%" y1="0%" x2="0%" y2="100%"><stop offset="0%" stop-color="#3a1a5a"/><stop offset="100%" stop-color="#522a7a"/></linearGradient>
  <linearGradient id="gAmber" x1="0%" y1="0%" x2="0%" y2="100%"><stop offset="0%" stop-color="#5a4010"/><stop offset="100%" stop-color="#7a6020"/></linearGradient>
  <linearGradient id="gTeal" x1="0%" y1="0%" x2="0%" y2="100%"><stop offset="0%" stop-color="#1a3a4a"/><stop offset="100%" stop-color="#205060"/></linearGradient>
  <linearGradient id="gDRed" x1="0%" y1="0%" x2="0%" y2="100%"><stop offset="0%" stop-color="#5a1a1a"/><stop offset="100%" stop-color="#7a2a2a"/></linearGradient>
  <linearGradient id="gGold" x1="0%" y1="0%" x2="100%" y2="0%"><stop offset="0%" stop-color="#b8860b"/><stop offset="100%" stop-color="#daa520"/></linearGradient>
  <filter id="s"><feDropShadow dx="2" dy="3" stdDeviation="5" flood-color="#000" flood-opacity=".55"/></filter>
  <filter id="gl"><feGaussianBlur stdDeviation="6" result="b"/><feMerge><feMergeNode in="b"/><feMergeNode in="SourceGraphic"/></feMerge></filter>
  <marker id="a" markerWidth="10" markerHeight="7" refX="9" refY="3.5" orient="auto"><polygon points="0 0,10 3.5,0 7" fill="#5599cc"/></marker>
  <marker id="aG" markerWidth="10" markerHeight="7" refX="9" refY="3.5" orient="auto"><polygon points="0 0,10 3.5,0 7" fill="#44bb66"/></marker>
  <marker id="aR" markerWidth="10" markerHeight="7" refX="9" refY="3.5" orient="auto"><polygon points="0 0,10 3.5,0 7" fill="#cc5555"/></marker>
  <marker id="aY" markerWidth="10" markerHeight="7" refX="9" refY="3.5" orient="auto"><polygon points="0 0,10 3.5,0 7" fill="#ccaa33"/></marker>
  <marker id="aP" markerWidth="10" markerHeight="7" refX="9" refY="3.5" orient="auto"><polygon points="0 0,10 3.5,0 7" fill="#9966cc"/></marker>
  <marker id="aT" markerWidth="10" markerHeight="7" refX="9" refY="3.5" orient="auto"><polygon points="0 0,10 3.5,0 7" fill="#44aaaa"/></marker>
</defs>

<!-- ===== BACKGROUND ===== -->
<rect width="1800" height="2800" fill="url(#bg)"/>

<!-- ===== TITLE ===== -->
<rect x="40" y="25" width="1720" height="85" rx="14" fill="url(#gRed)" filter="url(#s)"/>
<text x="900" y="62" text-anchor="middle" fill="#fff" font-size="30" font-weight="bold">法人の外国税額控除 ── 全体構造図</text>
<text x="900" y="92" text-anchor="middle" fill="#fcc" font-size="14">法人税法69条 / 施行令141〜147条 ─ 条文カッコ書に基づく定義・計算・参照の全体像</text>

<!-- ===== LEGEND ===== -->
<rect x="40" y="125" width="1720" height="52" rx="6" fill="#0c162a" stroke="#2a3a55" stroke-width="1"/>
<line x1="70" y1="155" x2="120" y2="155" stroke="#44bb66" stroke-width="2.5" marker-end="url(#aG)"/>
<text x="130" y="159" fill="#88cc99" font-size="11">計算フロー</text>
<line x1="250" y1="155" x2="300" y2="155" stroke="#cc5555" stroke-width="2.5" stroke-dasharray="7,3" marker-end="url(#aR)"/>
<text x="310" y="159" fill="#dd9999" font-size="11">除外・制限</text>
<line x1="430" y1="155" x2="480" y2="155" stroke="#5599cc" stroke-width="2" marker-end="url(#a)"/>
<text x="490" y="159" fill="#88bbdd" font-size="11">定義参照</text>
<line x1="600" y1="155" x2="650" y2="155" stroke="#ccaa33" stroke-width="2" stroke-dasharray="5,3" marker-end="url(#aY)"/>
<text x="660" y="159" fill="#ddcc77" font-size="11">繰越し</text>
<line x1="760" y1="155" x2="810" y2="155" stroke="#9966cc" stroke-width="2" stroke-dasharray="4,4" marker-end="url(#aP)"/>
<text x="820" y="159" fill="#bb99dd" font-size="11">組織再編</text>
<line x1="940" y1="155" x2="990" y2="155" stroke="#44aaaa" stroke-width="2" stroke-dasharray="3,3" marker-end="url(#aT)"/>
<text x="1000" y="159" fill="#88cccc" font-size="11">通算制度</text>
<rect x="1130" y="145" width="16" height="16" rx="3" fill="url(#gBlue)"/><text x="1152" y="158" fill="#88bbdd" font-size="11">中核</text>
<rect x="1210" y="145" width="16" height="16" rx="3" fill="url(#gGreen)"/><text x="1232" y="158" fill="#88ccaa" font-size="11">国外源泉</text>
<rect x="1320" y="145" width="16" height="16" rx="3" fill="url(#gPurp)"/><text x="1342" y="158" fill="#bb99dd" font-size="11">計算</text>
<rect x="1410" y="145" width="16" height="16" rx="3" fill="url(#gDRed)"/><text x="1432" y="158" fill="#dd9999" font-size="11">除外</text>
<rect x="1500" y="145" width="16" height="16" rx="3" fill="url(#gAmber)"/><text x="1522" y="158" fill="#ddcc88" font-size="11">繰越</text>
<rect x="1590" y="145" width="16" height="16" rx="3" fill="url(#gTeal)"/><text x="1612" y="158" fill="#88cccc" font-size="11">通算/再編</text>

<!-- ============================================================ -->
<!-- LAYER 1: 起点 ─ 外国法人税の確定 (上段) -->
<!-- ============================================================ -->
<text x="70" y="215" fill="#5599cc" font-size="17" font-weight="bold" opacity=".7">STEP 1</text>
<text x="160" y="215" fill="#aaccee" font-size="15" font-weight="bold">外国法人税の確定（令141条）</text>

<!-- 外国法人税 (メインボックス) -->
<rect x="80" y="230" width="440" height="140" rx="12" fill="url(#gBlue)" stroke="#3388cc" stroke-width="2.5" filter="url(#s)"/>
<text x="300" y="260" text-anchor="middle" fill="#55ccff" font-size="20" font-weight="bold">外国法人税</text>
<text x="300" y="280" text-anchor="middle" fill="#88aabb" font-size="11">法69① / 令141①</text>
<line x1="110" y1="295" x2="490" y2="295" stroke="#2a4a6a" stroke-width="1"/>
<text x="100" y="315" fill="#cde" font-size="12">外国の法令に基づき外国又はその地方公共団体に</text>
<text x="100" y="333" fill="#cde" font-size="12">より法人の所得を課税標準として課される税</text>
<text x="100" y="358" fill="#99aabb" font-size="10">超過利潤税・附加税・収入金額課税代替・QDMTT含む（令141②）</text>

<!-- 含まれないもの -->
<rect x="560" y="230" width="380" height="140" rx="12" fill="url(#gDRed)" stroke="#aa5555" stroke-width="2" filter="url(#s)"/>
<text x="750" y="260" text-anchor="middle" fill="#ffaaaa" font-size="16" font-weight="bold">外国法人税に含まれない</text>
<text x="750" y="278" text-anchor="middle" fill="#cc8888" font-size="10">令141③各号</text>
<line x1="580" y1="290" x2="920" y2="290" stroke="#5a3030" stroke-width="1"/>
<text x="580" y="310" fill="#ecc" font-size="11">① 任意還付請求可能な税</text>
<text x="580" y="328" fill="#ecc" font-size="11">② 猶予期間を任意に定められる税</text>
<text x="580" y="346" fill="#ecc" font-size="11">③ 合意で税率決定する税（最低税率超過部分）</text>
<text x="580" y="364" fill="#ecc" font-size="11">④ IIR相当税 ⑥ 附帯税相当</text>

<!-- Arrow: 外国法人税 → 含まれない -->
<line x1="520" y1="300" x2="558" y2="300" stroke="#cc5555" stroke-width="2" stroke-dasharray="7,3" marker-end="url(#aR)"/>

<!-- 租税条約（上部に浮遊） -->
<rect x="1000" y="230" width="350" height="80" rx="10" fill="url(#gGreen)" stroke="#44aa77" stroke-width="1.5" filter="url(#s)"/>
<text x="1175" y="258" text-anchor="middle" fill="#88ffbb" font-size="15" font-weight="bold">租税条約</text>
<text x="1175" y="276" text-anchor="middle" fill="#99bbaa" font-size="10">法2⑫の十九但書 / 法69④⑮ / ⑥〜⑧</text>
<text x="1020" y="300" fill="#bbddcc" font-size="11">国外源泉所得の定めが異なる場合→条約優先（⑥）</text>

<!-- みなし納付 -->
<rect x="1400" y="230" width="350" height="80" rx="10" fill="url(#gDRed)" stroke="#aa7755" stroke-width="1.5" filter="url(#s)"/>
<text x="1575" y="255" text-anchor="middle" fill="#ffcc88" font-size="14" font-weight="bold">みなし納付外国法人税の額</text>
<text x="1575" y="273" text-anchor="middle" fill="#bb9977" font-size="10">令142の2③ タックス・スペアリング</text>
<text x="1420" y="300" fill="#ddbb99" font-size="11">条約で軽減・免除→納付とみなす額→高率部分に充当</text>

<!-- ============================================================ -->
<!-- LAYER 2: 除外判定 → 控除対象外国法人税の額 -->
<!-- ============================================================ -->
<text x="70" y="415" fill="#cc5555" font-size="17" font-weight="bold" opacity=".7">STEP 2</text>
<text x="160" y="415" fill="#dd9999" font-size="15" font-weight="bold">除外判定（令142の2） → 控除対象外国法人税の額の確定</text>

<!-- 大きな除外ゾーン -->
<rect x="80" y="430" width="1000" height="175" rx="12" fill="url(#gDRed)" stroke="#aa5555" stroke-width="2" filter="url(#s)"/>
<text x="100" y="458" fill="#ffaaaa" font-size="16" font-weight="bold">控除対象から除外される外国法人税の額</text>
<text x="530" y="458" fill="#cc8888" font-size="10">法69①カッコ書 / 令142の2</text>

<!-- 4 exclusion sub-boxes -->
<rect x="100" y="475" width="220" height="115" rx="8" fill="#4a1a1a" stroke="#884444" stroke-width="1"/>
<text x="210" y="498" text-anchor="middle" fill="#ff9999" font-size="12" font-weight="bold">❶ 高率負担部分</text>
<text x="210" y="515" text-anchor="middle" fill="#dd8888" font-size="10">令142の2①</text>
<text x="110" y="535" fill="#dbb" font-size="10">課税標準×35%超過部分</text>
<text x="110" y="550" fill="#dbb" font-size="10">利子等源泉税:所得率で</text>
<text x="110" y="565" fill="#dbb" font-size="10">10%/15%/除外なし（②）</text>
<text x="110" y="580" fill="#c99" font-size="9">みなし税→まず充当（③）</text>

<rect x="340" y="475" width="220" height="115" rx="8" fill="#4a1a1a" stroke="#884444" stroke-width="1"/>
<text x="450" y="498" text-anchor="middle" fill="#ff9999" font-size="12" font-weight="bold">❷ 異常取引</text>
<text x="450" y="515" text-anchor="middle" fill="#dd8888" font-size="10">令142の2⑤</text>
<text x="350" y="535" fill="#dbb" font-size="10">一号:バックトゥバック</text>
<text x="350" y="550" fill="#dbb" font-size="10">ローン（特殊関係者間</text>
<text x="350" y="565" fill="#dbb" font-size="10">の有利条件貸付）</text>
<text x="350" y="580" fill="#dbb" font-size="10">二号:債権譲受利子受取</text>

<rect x="580" y="475" width="230" height="115" rx="8" fill="#4a1a1a" stroke="#884444" stroke-width="1"/>
<text x="695" y="498" text-anchor="middle" fill="#ff9999" font-size="12" font-weight="bold">❸ 法人税非課税部分</text>
<text x="695" y="515" text-anchor="middle" fill="#dd8888" font-size="10">令142の2⑦</text>
<text x="590" y="535" fill="#dbb" font-size="10">みなし配当(取得価額以下)</text>
<text x="590" y="550" fill="#dbb" font-size="10">外国子会社配当(法23の2)</text>
<text x="590" y="565" fill="#dbb" font-size="10">PE→本店支払への源泉税</text>
<text x="590" y="580" fill="#dbb" font-size="10">相互協議の未支払分等</text>

<rect x="830" y="475" width="230" height="115" rx="8" fill="#4a1a1a" stroke="#884444" stroke-width="1"/>
<text x="945" y="498" text-anchor="middle" fill="#ff9999" font-size="12" font-weight="bold">❹ その他</text>
<text x="945" y="515" text-anchor="middle" fill="#dd8888" font-size="10">令142の2⑧</text>
<text x="840" y="535" fill="#dbb" font-size="10">CFC合算課税済配当の</text>
<text x="840" y="550" fill="#dbb" font-size="10">外国法人税（一〜四号）</text>
<text x="840" y="565" fill="#dbb" font-size="10">条約上の軽減免除超過</text>
<text x="840" y="580" fill="#dbb" font-size="10">部分（五号）</text>

<!-- 控除対象外国法人税の額 (結果ボックス) -->
<rect x="1140" y="440" width="610" height="100" rx="14" fill="url(#gBlue)" stroke="#44aadd" stroke-width="3" filter="url(#s)"/>
<text x="1445" y="475" text-anchor="middle" fill="#55ddff" font-size="22" font-weight="bold">控除対象外国法人税の額</text>
<text x="1445" y="498" text-anchor="middle" fill="#88bbdd" font-size="12">法69①後段カッコ書「以下この条において…という」</text>
<text x="1445" y="520" text-anchor="middle" fill="#aaddee" font-size="13">＝ 外国法人税の額 − 上記❶〜❹の除外額</text>

<!-- Arrow: 外国法人税 → 除外ゾーン -->
<line x1="300" y1="370" x2="300" y2="428" stroke="#44bb66" stroke-width="2.5" marker-end="url(#aG)"/>
<!-- Arrow: 除外ゾーン → 控除対象 -->
<line x1="1080" y1="520" x2="1138" y2="495" stroke="#44bb66" stroke-width="2.5" marker-end="url(#aG)"/>
<text x="1088" y="500" fill="#88cc99" font-size="9">除外後</text>

<!-- ============================================================ -->
<!-- LAYER 3: 控除限度額の計算 -->
<!-- ============================================================ -->
<text x="70" y="650" fill="#9966cc" font-size="17" font-weight="bold" opacity=".7">STEP 3</text>
<text x="160" y="650" fill="#bb99dd" font-size="15" font-weight="bold">控除限度額の計算（法69① / 令142条）</text>

<!-- 国外源泉所得 (左上) -->
<rect x="80" y="670" width="470" height="215" rx="12" fill="url(#gGreen)" stroke="#44aa77" stroke-width="2" filter="url(#s)"/>
<text x="315" y="698" text-anchor="middle" fill="#66ffaa" font-size="17" font-weight="bold">国外源泉所得（法69④ 全16号）</text>
<text x="315" y="716" text-anchor="middle" fill="#88bbaa" font-size="10">法69④柱書: 「第一項に規定する国外源泉所得とは、次に掲げるもの」</text>
<line x1="100" y1="725" x2="530" y2="725" stroke="#2a5040" stroke-width="1"/>
<text x="100" y="745" fill="#bdb" font-size="11"> 1号 国外事業所等帰属所得（PE帰属所得）</text>
<text x="100" y="762" fill="#bdb" font-size="11"> 2号 国外資産運用保有   3号 国外資産譲渡</text>
<text x="100" y="779" fill="#bdb" font-size="11"> 4号 国外人的役務提供   5号 国外不動産等賃貸</text>
<text x="100" y="796" fill="#bdb" font-size="11"> 6号 国外源泉利子等     7号 国外源泉配当等</text>
<text x="100" y="813" fill="#bdb" font-size="11"> 8号 国外業務貸付金利子   9号 国外使用料</text>
<text x="100" y="830" fill="#bdb" font-size="11">10号 広告宣伝賞金  11号 保険年金  12号 給付補塡金等</text>
<text x="100" y="847" fill="#bdb" font-size="11">13号 匿名組合利益分配  14号 国際運輸所得</text>
<text x="100" y="864" fill="#bdb" font-size="11">15号 租税条約による課税所得  16号 包括規定</text>
<text x="100" y="880" fill="#889988" font-size="9">※ 2〜13号・15〜16号は1号(PE帰属)該当を除く（令141の2①二）</text>

<!-- PE関連用語 (左サブ) -->
<rect x="80" y="900" width="470" height="118" rx="10" fill="#1a2a3a" stroke="#4477aa" stroke-width="1.5" filter="url(#s)"/>
<text x="100" y="925" fill="#77bbee" font-size="14" font-weight="bold">PE関連用語（法69④⑤ / 令141の3〜7）</text>
<text x="100" y="945" fill="#99bbcc" font-size="11">国外事業所等 ＝ 国外にある恒久的施設に相当するもの等（④一）</text>
<text x="100" y="963" fill="#99bbcc" font-size="11">本店等 ＝ 内国法人の本店・支店・工場等で国外事業所等以外のもの（④一）</text>
<text x="100" y="981" fill="#99bbcc" font-size="11">内部取引 ＝ PE⇔本店等間の資産移転・役務提供等（⑤）</text>
<text x="100" y="999" fill="#99bbcc" font-size="11">帰属資本 ＝ 資本配賦法 or 同業法人比準法で計算（令141の4③）</text>
<text x="100" y="1012" fill="#778899" font-size="9">令141の4:資本に対応する負債利子の損金不算入 / 令141の5:銀行等の特例 / 令141の7:特定内部取引</text>

<!-- Arrow: 国外源泉所得 → 国外所得金額 -->
<line x1="550" y1="775" x2="610" y2="775" stroke="#5599cc" stroke-width="2" marker-end="url(#a)"/>

<!-- 国外所得金額 → 調整国外所得金額 -->
<rect x="620" y="670" width="380" height="105" rx="12" fill="url(#gPurp)" stroke="#8866bb" stroke-width="2" filter="url(#s)"/>
<text x="810" y="698" text-anchor="middle" fill="#ddbbff" font-size="16" font-weight="bold">国外所得金額</text>
<text x="810" y="716" text-anchor="middle" fill="#aa88cc" font-size="10">法69① / 令141の2</text>
<line x1="640" y1="725" x2="980" y2="725" stroke="#3a2050" stroke-width="1"/>
<text x="640" y="745" fill="#ccbbdd" font-size="11">国外源泉所得に係る所得のみにつき</text>
<text x="640" y="762" fill="#ccbbdd" font-size="11">法人税を課すとした場合の課税標準</text>

<rect x="620" y="790" width="380" height="115" rx="12" fill="url(#gPurp)" stroke="#8866bb" stroke-width="2" filter="url(#s)"/>
<text x="810" y="818" text-anchor="middle" fill="#ddbbff" font-size="16" font-weight="bold">調整国外所得金額</text>
<text x="810" y="836" text-anchor="middle" fill="#aa88cc" font-size="10">令142③（控除限度額の分子）</text>
<line x1="640" y1="845" x2="980" y2="845" stroke="#3a2050" stroke-width="1"/>
<text x="640" y="865" fill="#ccbbdd" font-size="11">＝国外所得金額 − 外国法人税が</text>
<text x="640" y="882" fill="#ccbbdd" font-size="11">　課されない国外源泉所得の金額</text>
<text x="640" y="899" fill="#ffcc77" font-size="12" font-weight="bold">上限: 所得金額 × 90%</text>

<!-- Arrow: 国外所得 → 調整国外所得 -->
<line x1="810" y1="775" x2="810" y2="788" stroke="#44bb66" stroke-width="2" marker-end="url(#aG)"/>

<!-- 所得金額 (分母) -->
<rect x="1060" y="790" width="320" height="110" rx="12" fill="url(#gPurp)" stroke="#8866bb" stroke-width="2" filter="url(#s)"/>
<text x="1220" y="818" text-anchor="middle" fill="#ddbbff" font-size="16" font-weight="bold">所得金額（分母）</text>
<text x="1220" y="836" text-anchor="middle" fill="#aa88cc" font-size="10">令142②</text>
<line x1="1080" y1="845" x2="1360" y2="845" stroke="#3a2050" stroke-width="1"/>
<text x="1080" y="865" fill="#ccbbdd" font-size="11">法57（欠損金繰越）等を</text>
<text x="1080" y="882" fill="#ccbbdd" font-size="11">適用しないで計算した所得の金額</text>

<!-- 法人税の額 -->
<rect x="1060" y="670" width="320" height="100" rx="12" fill="url(#gPurp)" stroke="#8866bb" stroke-width="2" filter="url(#s)"/>
<text x="1220" y="698" text-anchor="middle" fill="#ddbbff" font-size="16" font-weight="bold">法人税の額（基礎）</text>
<text x="1220" y="716" text-anchor="middle" fill="#aa88cc" font-size="10">令142①</text>
<line x1="1080" y1="725" x2="1360" y2="725" stroke="#3a2050" stroke-width="1"/>
<text x="1080" y="745" fill="#ccbbdd" font-size="11">法67〜70等を適用せず計算した</text>
<text x="1080" y="762" fill="#ccbbdd" font-size="11">法人税額（附帯税除く）</text>

<!-- ===== 控除限度額（結果） ===== -->
<rect x="1440" y="700" width="310" height="130" rx="14" fill="url(#gBlue)" stroke="#44aadd" stroke-width="3" filter="url(#s)"/>
<text x="1595" y="733" text-anchor="middle" fill="#55ddff" font-size="20" font-weight="bold">控除限度額</text>
<text x="1595" y="755" text-anchor="middle" fill="#88bbdd" font-size="11">法69①「以下この条において…という」</text>
<line x1="1460" y1="768" x2="1730" y2="768" stroke="#1a3a5a" stroke-width="1"/>
<text x="1460" y="790" fill="#aaddee" font-size="13">法人税額 ×</text>
<text x="1460" y="812" fill="#aaddee" font-size="13">  調整国外所得金額</text>
<text x="1460" y="826" fill="#aaddee" font-size="13">  ÷ 所得金額</text>

<!-- Arrows to 控除限度額 -->
<line x1="1380" y1="720" x2="1438" y2="740" stroke="#44bb66" stroke-width="2" marker-end="url(#aG)"/>
<line x1="1000" y1="845" x2="1058" y2="845" stroke="#44bb66" stroke-width="2" marker-end="url(#aG)"/>
<line x1="1380" y1="845" x2="1438" y2="810" stroke="#44bb66" stroke-width="2" marker-end="url(#aG)"/>

<!-- ============================================================ -->
<!-- LAYER 4: 比較・控除 -->
<!-- ============================================================ -->
<text x="70" y="1068" fill="#44bb66" font-size="17" font-weight="bold" opacity=".7">STEP 4</text>
<text x="160" y="1068" fill="#88cc99" font-size="15" font-weight="bold">比較・控除（法69①〜③）</text>

<!-- 比較ボックス (中央) -->
<rect x="520" y="1085" width="760" height="145" rx="14" fill="#0e1e30" stroke="#44aadd" stroke-width="2.5" filter="url(#s)"/>
<text x="900" y="1115" text-anchor="middle" fill="#ffffff" font-size="18" font-weight="bold">控除対象外国法人税の額 vs 控除限度額（＋地方法人税＋地方税限度額）</text>
<text x="900" y="1135" text-anchor="middle" fill="#88aabb" font-size="11">法69① = 当期控除 / 法69② = 余裕額繰越 / 法69③ = 超過額繰越</text>

<!-- 3 scenarios inside -->
<rect x="545" y="1148" width="220" height="68" rx="6" fill="#1a3a2a" stroke="#44aa66" stroke-width="1.5"/>
<text x="655" y="1170" text-anchor="middle" fill="#66ff99" font-size="13" font-weight="bold">税額 ≦ 限度額</text>
<text x="655" y="1190" text-anchor="middle" fill="#aaddbb" font-size="10">→ 全額控除（法69①）</text>
<text x="655" y="1206" text-anchor="middle" fill="#88bb99" font-size="10">→ 余裕額→翌年度以後に繰越</text>

<rect x="790" y="1148" width="230" height="68" rx="6" fill="#3a3a1a" stroke="#aaaa44" stroke-width="1.5"/>
<text x="905" y="1170" text-anchor="middle" fill="#ffee77" font-size="13" font-weight="bold">税額 ＞ 全限度額合計</text>
<text x="905" y="1190" text-anchor="middle" fill="#ddcc88" font-size="10">→ 限度額まで控除（法69①）</text>
<text x="905" y="1206" text-anchor="middle" fill="#ddcc88" font-size="10">→ 超過額の繰越控除（法69②）</text>

<rect x="1045" y="1148" width="220" height="68" rx="6" fill="#3a1a3a" stroke="#aa66aa" stroke-width="1.5"/>
<text x="1155" y="1170" text-anchor="middle" fill="#ffaaff" font-size="13" font-weight="bold">税額 ＜ 限度額</text>
<text x="1155" y="1190" text-anchor="middle" fill="#ddaadd" font-size="10">→ 全額控除 ＋</text>
<text x="1155" y="1206" text-anchor="middle" fill="#ddaadd" font-size="10">→ 前3年超過額の繰越控除（③）</text>

<!-- Arrows from STEP 2 & 3 into comparison -->
<path d="M1445,540 L1445,580 Q1445,600 1425,600 L910,600 Q900,600 900,620 L900,1083" fill="none" stroke="#44bb66" stroke-width="2.5" marker-end="url(#aG)"/>
<text x="920" y="610" fill="#66cc88" font-size="10">控除対象外国法人税の額</text>
<path d="M1595,830 L1595,1000 Q1595,1020 1575,1020 L910,1020 Q900,1020 900,1040 L900,1083" fill="none" stroke="#44bb66" stroke-width="2.5" marker-end="url(#aG)"/>
<text x="1350" y="1010" fill="#66cc88" font-size="10">控除限度額</text>

<!-- Tax Credit Result -->
<rect x="610" y="1260" width="580" height="65" rx="30" fill="#1a4a2a" stroke="#44dd66" stroke-width="3" filter="url(#s)"/>
<text x="900" y="1292" text-anchor="middle" fill="#ffffff" font-size="22" font-weight="bold">法人税の額から控除</text>
<text x="900" y="1315" text-anchor="middle" fill="#aaffbb" font-size="11">法69①：当該事業年度の所得に対する法人税の額から控除する</text>
<line x1="900" y1="1230" x2="900" y2="1258" stroke="#44bb66" stroke-width="3" marker-end="url(#aG)"/>

<!-- ============================================================ -->
<!-- LAYER 5: 繰越制度 -->
<!-- ============================================================ -->
<text x="70" y="1375" fill="#ccaa33" font-size="17" font-weight="bold" opacity=".7">STEP 5</text>
<text x="160" y="1375" fill="#ddcc77" font-size="15" font-weight="bold">繰越制度（法69②③ / 令144〜145）</text>

<!-- 繰越控除限度額 (左) -->
<rect x="80" y="1395" width="780" height="190" rx="12" fill="url(#gAmber)" stroke="#aa9944" stroke-width="2" filter="url(#s)"/>
<text x="470" y="1425" text-anchor="middle" fill="#ffee88" font-size="17" font-weight="bold">繰越控除限度額 ─ 余裕額の繰越（法69②）</text>
<text x="470" y="1443" text-anchor="middle" fill="#ccbb77" font-size="10">税額が全限度額合計を超過する場合</text>
<line x1="100" y1="1455" x2="840" y2="1455" stroke="#4a3a10" stroke-width="1"/>
<text x="100" y="1478" fill="#eedd99" font-size="12">前三年内事業年度（法69②カッコ書）＝「当該事業年度開始の日前三年以内に開始した各事業年度」</text>

<rect x="100" y="1495" width="340" height="75" rx="6" fill="#3a3010" stroke="#887733" stroke-width="1"/>
<text x="270" y="1518" text-anchor="middle" fill="#ffee88" font-size="13" font-weight="bold">国税の控除余裕額（令144⑤）</text>
<text x="110" y="1540" fill="#ddcc88" font-size="11">＝法人税の控除限度額 −</text>
<text x="110" y="1558" fill="#ddcc88" font-size="11">　控除対象外国法人税の額（余り分）</text>

<rect x="460" y="1495" width="380" height="75" rx="6" fill="#3a3010" stroke="#887733" stroke-width="1"/>
<text x="650" y="1518" text-anchor="middle" fill="#ffee88" font-size="13" font-weight="bold">地方税の控除余裕額（令144⑥）</text>
<text x="470" y="1540" fill="#ddcc88" font-size="11">税額≦法人税+地方法人税限度額→地方税限度額全額</text>
<text x="470" y="1558" fill="#ddcc88" font-size="11">超えるが地方税限度額未満→差額</text>

<!-- 繰越控除対象外国法人税額 (右) -->
<rect x="920" y="1395" width="830" height="190" rx="12" fill="url(#gAmber)" stroke="#aa9944" stroke-width="2" filter="url(#s)"/>
<text x="1335" y="1425" text-anchor="middle" fill="#ffee88" font-size="17" font-weight="bold">繰越控除対象外国法人税額 ─ 超過額の繰越（法69③）</text>
<text x="1335" y="1443" text-anchor="middle" fill="#ccbb77" font-size="10">税額が控除限度額に満たない場合</text>
<line x1="940" y1="1455" x2="1730" y2="1455" stroke="#4a3a10" stroke-width="1"/>

<rect x="940" y="1470" width="370" height="75" rx="6" fill="#3a3010" stroke="#887733" stroke-width="1"/>
<text x="1125" y="1493" text-anchor="middle" fill="#ffee88" font-size="13" font-weight="bold">控除限度超過額（令144⑦）</text>
<text x="950" y="1515" fill="#ddcc88" font-size="11">＝控除対象外国法人税の額が法人税</text>
<text x="950" y="1533" fill="#ddcc88" font-size="11">＋地方法人税＋地方税の各限度額合計を超える額</text>

<rect x="1330" y="1470" width="400" height="75" rx="6" fill="#3a3010" stroke="#887733" stroke-width="1"/>
<text x="1530" y="1493" text-anchor="middle" fill="#ffee88" font-size="13" font-weight="bold">地方税控除限度額（令143）</text>
<text x="1340" y="1515" fill="#ddcc88" font-size="11">＝道府県民税の限度額（地方税法施行令§9の7④）</text>
<text x="1340" y="1533" fill="#ddcc88" font-size="11">＋市町村民税の限度額（同令§48の13⑤）の合計額</text>

<text x="100" y="1578" fill="#bbaa66" font-size="10">※損金算入選択した事業年度以前の余裕額・超過額は繰越不可（令144② / 令145②）</text>
<text x="940" y="1560" fill="#bbaa66" font-size="10">最も古い事業年度から順次充当（令145①）</text>

<!-- Arrows: Carry -->
<line x1="470" y1="1325" x2="470" y2="1393" stroke="#ccaa33" stroke-width="2" stroke-dasharray="5,3" marker-end="url(#aY)"/>
<text x="380" y="1360" fill="#ddcc77" font-size="10">余裕額 繰越</text>
<line x1="1335" y1="1325" x2="1335" y2="1393" stroke="#ccaa33" stroke-width="2" stroke-dasharray="5,3" marker-end="url(#aY)"/>
<text x="1250" y="1360" fill="#ddcc77" font-size="10">超過額 繰越</text>

<!-- ============================================================ -->
<!-- LAYER 6: 通算制度 / 組織再編 / 減額 -->
<!-- ============================================================ -->
<text x="70" y="1640" fill="#44aaaa" font-size="17" font-weight="bold" opacity=".7">STEP 6</text>
<text x="160" y="1640" fill="#88cccc" font-size="15" font-weight="bold">通算制度・組織再編・事後的減額（法69⑨〜㉔ / 令146〜147）</text>

<!-- 通算制度 -->
<rect x="80" y="1660" width="540" height="290" rx="12" fill="url(#gTeal)" stroke="#44aaaa" stroke-width="2" filter="url(#s)"/>
<text x="350" y="1690" text-anchor="middle" fill="#66eeff" font-size="17" font-weight="bold">通算制度の特例</text>
<text x="350" y="1708" text-anchor="middle" fill="#88bbcc" font-size="10">法69⑭〜⑳</text>
<line x1="100" y1="1718" x2="600" y2="1718" stroke="#1a3a4a" stroke-width="1"/>

<rect x="100" y="1728" width="500" height="52" rx="6" fill="#1a3040" stroke="#3388aa" stroke-width="1"/>
<text x="110" y="1750" fill="#aaddee" font-size="12" font-weight="bold">⑭ 通算法人の控除限度額</text>
<text x="110" y="1770" fill="#99bbcc" font-size="10">グループ全体の法人税額合計のうち当該通算法人の国外所得金額に対応する額</text>

<rect x="100" y="1790" width="500" height="52" rx="6" fill="#1a3040" stroke="#3388aa" stroke-width="1"/>
<text x="110" y="1812" fill="#aaddee" font-size="12" font-weight="bold">⑮ 遮断措置（当初申告固定）</text>
<text x="110" y="1832" fill="#99bbcc" font-size="10">税額控除額≠当初申告税額控除額→当初申告額をみなし採用</text>

<rect x="100" y="1852" width="500" height="52" rx="6" fill="#1a3040" stroke="#3388aa" stroke-width="1"/>
<text x="110" y="1874" fill="#aaddee" font-size="12" font-weight="bold">⑱⑲ 事後調整（税額控除不足額/超過額相当額）</text>
<text x="110" y="1894" fill="#99bbcc" font-size="10">過去の遮断による不足→控除 / 過大→加算 で精算</text>

<text x="100" y="1925" fill="#88aacc" font-size="11">⑯ 除外: 隠蔽仮装 / 損益通算§64の5⑧適用</text>
<text x="100" y="1942" fill="#88aacc" font-size="11">⑳ 不足額/超過額も当初申告固定（二重遮断）</text>

<!-- 組織再編 -->
<rect x="660" y="1660" width="540" height="290" rx="12" fill="url(#gTeal)" stroke="#55aa88" stroke-width="2" filter="url(#s)"/>
<text x="930" y="1690" text-anchor="middle" fill="#66ffcc" font-size="17" font-weight="bold">組織再編の引継ぎ</text>
<text x="930" y="1708" text-anchor="middle" fill="#88bbaa" font-size="10">法69⑨〜⑪ / 令146</text>
<line x1="680" y1="1718" x2="1180" y2="1718" stroke="#1a4a3a" stroke-width="1"/>

<rect x="680" y="1728" width="500" height="48" rx="6" fill="#1a3a30" stroke="#339966" stroke-width="1"/>
<text x="690" y="1750" fill="#aaeedd" font-size="12" font-weight="bold">適格合併等（法69⑨カッコ書）</text>
<text x="690" y="1768" fill="#99bbaa" font-size="10">＝適格合併、適格分割又は適格現物出資</text>

<rect x="680" y="1786" width="500" height="48" rx="6" fill="#1a3a30" stroke="#339966" stroke-width="1"/>
<text x="690" y="1808" fill="#aaeedd" font-size="12" font-weight="bold">被合併法人等（法69⑨カッコ書）</text>
<text x="690" y="1826" fill="#99bbaa" font-size="10">＝被合併法人、分割法人又は現物出資法人</text>

<rect x="680" y="1844" width="500" height="48" rx="6" fill="#1a3a30" stroke="#339966" stroke-width="1"/>
<text x="690" y="1866" fill="#aaeedd" font-size="12" font-weight="bold">引継ぎ対象（法69⑨一号・二号）</text>
<text x="690" y="1884" fill="#99bbaa" font-size="10">被合併法人等の前3年内事業年度の控除限度額＋控除対象外国法人税額</text>

<text x="680" y="1915" fill="#88bbaa" font-size="11">合併前三年内事業年度（⑨一）＝合併日前3年以内に開始した各事業年度</text>
<text x="680" y="1935" fill="#88bbaa" font-size="11">分割等前三年内事業年度（⑨二）＝分割等日の属する事業年度開始日前3年以内</text>

<!-- 事後的減額 -->
<rect x="1240" y="1660" width="510" height="175" rx="12" fill="url(#gTeal)" stroke="#aa7755" stroke-width="2" filter="url(#s)"/>
<text x="1495" y="1690" text-anchor="middle" fill="#ffcc88" font-size="17" font-weight="bold">事後的減額（法69⑫/令147）</text>
<line x1="1260" y1="1705" x2="1730" y2="1705" stroke="#3a2a1a" stroke-width="1"/>
<text x="1260" y="1725" fill="#ddbb99" font-size="12">適用事業年度開始の日後7年以内に外国法人税が減額された場合</text>
<text x="1260" y="1750" fill="#ddbb99" font-size="12" font-weight="bold">減額控除対象外国法人税額（令147②）</text>
<text x="1260" y="1770" fill="#ccaa88" font-size="11">＝減額のうち控除対象外国法人税が減額された部分</text>
<text x="1260" y="1790" fill="#ccaa88" font-size="11">→ 当期の納付控除対象外国法人税額から控除</text>
<text x="1260" y="1810" fill="#ccaa88" font-size="11">→ 不足なら前3年の控除限度超過額から控除（令147③）</text>
<text x="1260" y="1825" fill="#aa8866" font-size="10">前2年内に控除しきれなかった減額→翌期に繰越し（令147④）</text>

<!-- 公益法人等の除外 -->
<rect x="1240" y="1855" width="510" height="95" rx="10" fill="#1a1a2a" stroke="#666688" stroke-width="1.5" filter="url(#s)"/>
<text x="1260" y="1880" fill="#bbbbdd" font-size="14" font-weight="bold">適用除外・手続要件</text>
<text x="1260" y="1900" fill="#9999bb" font-size="11">⑬ 公益法人等の収益事業以外の所得→不適用</text>
<text x="1260" y="1918" fill="#9999bb" font-size="11">㉕ 確定申告書に明細書添付＋課税証明書保存が必要</text>
<text x="1260" y="1936" fill="#9999bb" font-size="11">㉖ 繰越控除は各年度の書類添付必要 / ㉘ やむを得ない事情で緩和</text>

<!-- ============================================================ -->
<!-- BOTTOM: 統合フロー概念図 -->
<!-- ============================================================ -->
<rect x="40" y="2000" width="1720" height="45" rx="8" fill="url(#gGold)" filter="url(#s)"/>
<text x="900" y="2030" text-anchor="middle" fill="#fff" font-size="20" font-weight="bold">統合フロー ── 全体の流れを一本の線で</text>

<!-- Main flow pipeline -->
<rect x="60" y="2070" width="1680" height="310" rx="14" fill="#0a1220" stroke="#2a3a55" stroke-width="2"/>

<!-- Node 1: 外国法人税 -->
<rect x="90" y="2100" width="165" height="70" rx="30" fill="url(#gBlue)" stroke="#3399cc" stroke-width="2.5"/>
<text x="172" y="2132" text-anchor="middle" fill="#fff" font-size="13" font-weight="bold">外国法人税</text>
<text x="172" y="2152" text-anchor="middle" fill="#88bbdd" font-size="9">令141①②③</text>

<!-- Arrow 1→2 -->
<line x1="255" y1="2135" x2="290" y2="2135" stroke="#44bb66" stroke-width="3" marker-end="url(#aG)"/>

<!-- Node 2: 除外判定 -->
<rect x="300" y="2095" width="150" height="80" rx="10" fill="url(#gDRed)" stroke="#cc6666" stroke-width="2"/>
<text x="375" y="2126" text-anchor="middle" fill="#ffaaaa" font-size="12" font-weight="bold">除外判定</text>
<text x="375" y="2144" text-anchor="middle" fill="#dd9999" font-size="9">令142の2</text>
<text x="375" y="2160" text-anchor="middle" fill="#cc8888" font-size="8">高率/異常/非課税/CFC</text>

<!-- Arrow 2→3 -->
<line x1="450" y1="2135" x2="485" y2="2135" stroke="#44bb66" stroke-width="3" marker-end="url(#aG)"/>

<!-- Node 3: 控除対象外国法人税の額 -->
<rect x="495" y="2093" width="200" height="84" rx="10" fill="url(#gBlue)" stroke="#44bbee" stroke-width="2.5"/>
<text x="595" y="2125" text-anchor="middle" fill="#55ddff" font-size="13" font-weight="bold">控除対象</text>
<text x="595" y="2143" text-anchor="middle" fill="#55ddff" font-size="13" font-weight="bold">外国法人税の額</text>
<text x="595" y="2162" text-anchor="middle" fill="#88bbdd" font-size="9">法69①</text>

<!-- Node 4: 控除限度額 (上から合流) -->
<rect x="595" y="2220" width="195" height="65" rx="10" fill="url(#gPurp)" stroke="#9977cc" stroke-width="2"/>
<text x="692" y="2248" text-anchor="middle" fill="#ddbbff" font-size="13" font-weight="bold">控除限度額</text>
<text x="692" y="2268" text-anchor="middle" fill="#aa88cc" font-size="9">法人税額×(調整国外所得÷所得)</text>

<!-- Arrow into comparison -->
<line x1="695" y1="2135" x2="755" y2="2135" stroke="#44bb66" stroke-width="3" marker-end="url(#aG)"/>
<line x1="790" y1="2245" x2="820" y2="2195" stroke="#44bb66" stroke-width="2" marker-end="url(#aG)"/>

<!-- Sub-nodes for 控除限度額 inputs -->
<rect x="100" y="2230" width="150" height="50" rx="6" fill="url(#gGreen)" stroke="#44aa77" stroke-width="1.5"/>
<text x="175" y="2255" text-anchor="middle" fill="#88ffbb" font-size="11" font-weight="bold">国外源泉所得</text>
<text x="175" y="2272" text-anchor="middle" fill="#88bbaa" font-size="8">法69④(16類型)</text>

<rect x="270" y="2230" width="140" height="50" rx="6" fill="#1a2a3a" stroke="#4477aa" stroke-width="1"/>
<text x="340" y="2255" text-anchor="middle" fill="#77bbee" font-size="11" font-weight="bold">PE帰属所得</text>
<text x="340" y="2272" text-anchor="middle" fill="#7799aa" font-size="8">令141の3〜7</text>

<rect x="430" y="2230" width="145" height="50" rx="6" fill="url(#gPurp)" stroke="#8866bb" stroke-width="1"/>
<text x="502" y="2255" text-anchor="middle" fill="#ddbbff" font-size="11" font-weight="bold">調整国外所得</text>
<text x="502" y="2272" text-anchor="middle" fill="#aa88cc" font-size="8">令142③(90%上限)</text>

<line x1="250" y1="2255" x2="268" y2="2255" stroke="#5599cc" stroke-width="1.5" marker-end="url(#a)"/>
<line x1="410" y1="2255" x2="428" y2="2255" stroke="#5599cc" stroke-width="1.5" marker-end="url(#a)"/>
<line x1="575" y1="2255" x2="593" y2="2252" stroke="#5599cc" stroke-width="1.5" marker-end="url(#a)"/>

<!-- Node 5: 比較 -->
<rect x="765" y="2100" width="130" height="70" rx="35" fill="#0e2a1e" stroke="#44dd66" stroke-width="2.5"/>
<text x="830" y="2132" text-anchor="middle" fill="#66ff99" font-size="15" font-weight="bold">比較</text>
<text x="830" y="2155" text-anchor="middle" fill="#88cc99" font-size="9">法69①②③</text>

<!-- Arrow 5→6 -->
<line x1="895" y1="2135" x2="935" y2="2135" stroke="#44bb66" stroke-width="3" marker-end="url(#aG)"/>

<!-- Node 6: 税額控除 -->
<rect x="945" y="2090" width="190" height="90" rx="14" fill="#1a4a2a" stroke="#44dd66" stroke-width="3"/>
<text x="1040" y="2125" text-anchor="middle" fill="#ffffff" font-size="18" font-weight="bold">税額控除</text>
<text x="1040" y="2150" text-anchor="middle" fill="#aaffbb" font-size="11">法人税額から控除</text>
<text x="1040" y="2168" text-anchor="middle" fill="#88cc99" font-size="9">法69①本文</text>

<!-- Branch: 繰越 (下) -->
<line x1="830" y1="2170" x2="830" y2="2220" stroke="#ccaa33" stroke-width="2" stroke-dasharray="5,3"/>

<rect x="100" y="2300" width="210" height="55" rx="8" fill="url(#gAmber)" stroke="#aa9944" stroke-width="1.5"/>
<text x="205" y="2325" text-anchor="middle" fill="#ffee88" font-size="11" font-weight="bold">繰越控除限度額</text>
<text x="205" y="2345" text-anchor="middle" fill="#ccbb77" font-size="9">法69②/令144 余裕額繰越</text>

<rect x="340" y="2300" width="230" height="55" rx="8" fill="url(#gAmber)" stroke="#aa9944" stroke-width="1.5"/>
<text x="455" y="2325" text-anchor="middle" fill="#ffee88" font-size="11" font-weight="bold">繰越控除対象外国法人税額</text>
<text x="455" y="2345" text-anchor="middle" fill="#ccbb77" font-size="9">法69③/令145 超過額繰越</text>

<line x1="830" y1="2220" x2="310" y2="2325" stroke="#ccaa33" stroke-width="1.5" stroke-dasharray="5,3" marker-end="url(#aY)"/>
<line x1="830" y1="2220" x2="455" y2="2298" stroke="#ccaa33" stroke-width="1.5" stroke-dasharray="5,3" marker-end="url(#aY)"/>
<text x="700" y="2250" fill="#ddcc77" font-size="9">余裕/超過</text>

<!-- Branch: 通算 (右上) -->
<rect x="1200" y="2090" width="175" height="80" rx="10" fill="url(#gTeal)" stroke="#44aaaa" stroke-width="1.5"/>
<text x="1287" y="2120" text-anchor="middle" fill="#66eeff" font-size="12" font-weight="bold">通算制度</text>
<text x="1287" y="2140" text-anchor="middle" fill="#88bbcc" font-size="9">法69⑭〜⑳</text>
<text x="1287" y="2156" text-anchor="middle" fill="#88bbcc" font-size="8">遮断＋事後調整</text>
<line x1="1135" y1="2130" x2="1198" y2="2130" stroke="#44aaaa" stroke-width="2" stroke-dasharray="3,3" marker-end="url(#aT)"/>

<!-- Branch: 組織再編 (右中) -->
<rect x="1420" y="2090" width="175" height="80" rx="10" fill="url(#gTeal)" stroke="#55aa88" stroke-width="1.5"/>
<text x="1507" y="2120" text-anchor="middle" fill="#66ffcc" font-size="12" font-weight="bold">組織再編引継ぎ</text>
<text x="1507" y="2140" text-anchor="middle" fill="#88bbaa" font-size="9">法69⑨〜⑪/令146</text>
<text x="1507" y="2156" text-anchor="middle" fill="#88bbaa" font-size="8">控除限度額+税額を承継</text>
<line x1="1375" y1="2130" x2="1418" y2="2130" stroke="#9966cc" stroke-width="2" stroke-dasharray="4,4" marker-end="url(#aP)"/>

<!-- Branch: 減額 (右下) -->
<rect x="1200" y="2200" width="175" height="70" rx="10" fill="#2a2020" stroke="#aa7755" stroke-width="1.5"/>
<text x="1287" y="2228" text-anchor="middle" fill="#ffcc88" font-size="12" font-weight="bold">事後的減額</text>
<text x="1287" y="2248" text-anchor="middle" fill="#cc9977" font-size="9">法69⑫/令147</text>
<text x="1287" y="2262" text-anchor="middle" fill="#cc9977" font-size="8">7年以内の減額処理</text>
<line x1="1135" y1="2160" x2="1200" y2="2220" stroke="#cc5555" stroke-width="1.5" stroke-dasharray="7,3" marker-end="url(#aR)"/>

<!-- Branch: 条約 (左上float) -->
<rect x="1420" y="2200" width="175" height="70" rx="10" fill="url(#gGreen)" stroke="#44aa77" stroke-width="1.5"/>
<text x="1507" y="2228" text-anchor="middle" fill="#88ffbb" font-size="12" font-weight="bold">租税条約による修正</text>
<text x="1507" y="2248" text-anchor="middle" fill="#99bbaa" font-size="9">法69⑥〜⑧</text>
<text x="1507" y="2262" text-anchor="middle" fill="#99bbaa" font-size="8">国外源泉所得の定めを修正</text>

<!-- Branch: 分配時調整 -->
<rect x="1630" y="2130" width="100" height="60" rx="8" fill="url(#gBlue)" stroke="#3388bb" stroke-width="1"/>
<text x="1680" y="2156" text-anchor="middle" fill="#88bbdd" font-size="10" font-weight="bold">法69の2</text>
<text x="1680" y="2172" text-anchor="middle" fill="#88bbdd" font-size="8">分配時調整</text>

<!-- ============================================================ -->
<!-- 条文マップ (法令番号→用語 対応表) -->
<!-- ============================================================ -->
<rect x="40" y="2405" width="1720" height="370" rx="12" fill="#0c162a" stroke="#2a3a55" stroke-width="2"/>
<text x="900" y="2440" text-anchor="middle" fill="#ffffff" font-size="18" font-weight="bold">条文 → 用語 対応マップ</text>

<!-- Column headers -->
<text x="80" y="2478" fill="#55aadd" font-size="14" font-weight="bold">法人税法69条</text>
<text x="630" y="2478" fill="#55aadd" font-size="14" font-weight="bold">施行令</text>
<text x="1200" y="2478" fill="#55aadd" font-size="14" font-weight="bold">定義される用語</text>
<line x1="60" y1="2488" x2="1740" y2="2488" stroke="#2a3a55" stroke-width="1"/>

<!-- Row data -->
<text x="80" y="2510" fill="#aaddee" font-size="12">①前段</text>
<text x="630" y="2510" fill="#ccddee" font-size="12">令141①</text>
<text x="1200" y="2510" fill="#eef" font-size="12" font-weight="bold">外国法人税</text>

<text x="80" y="2530" fill="#aaddee" font-size="12">①後段カッコ書</text>
<text x="630" y="2530" fill="#ccddee" font-size="12">令142の2①⑤⑦⑧</text>
<text x="1200" y="2530" fill="#eef" font-size="12" font-weight="bold">控除対象外国法人税の額</text>
<text x="1530" y="2530" fill="#dd9999" font-size="10">（4種の除外を定義）</text>

<text x="80" y="2550" fill="#aaddee" font-size="12">①「控除限度額」</text>
<text x="630" y="2550" fill="#ccddee" font-size="12">令142①②③</text>
<text x="1200" y="2550" fill="#eef" font-size="12" font-weight="bold">控除限度額 / 所得金額 / 調整国外所得金額</text>

<text x="80" y="2570" fill="#aaddee" font-size="12">①「国外所得金額」</text>
<text x="630" y="2570" fill="#ccddee" font-size="12">令141の2</text>
<text x="1200" y="2570" fill="#eef" font-size="12" font-weight="bold">国外所得金額</text>

<text x="80" y="2590" fill="#aaddee" font-size="12">④柱書・各号</text>
<text x="630" y="2590" fill="#ccddee" font-size="12">（各号でさらに政令委任）</text>
<text x="1200" y="2590" fill="#eef" font-size="12" font-weight="bold">国外源泉所得（全16号） / 国外事業所等 / 本店等</text>

<text x="80" y="2610" fill="#aaddee" font-size="12">⑤</text>
<text x="630" y="2610" fill="#ccddee" font-size="12">令141の3〜7</text>
<text x="1200" y="2610" fill="#eef" font-size="12" font-weight="bold">内部取引 / 国外事業所等帰属所得 / 帰属資本</text>

<text x="80" y="2630" fill="#aaddee" font-size="12">②カッコ書</text>
<text x="630" y="2630" fill="#ccddee" font-size="12">令143 / 令144</text>
<text x="1200" y="2630" fill="#eef" font-size="12" font-weight="bold">前三年内事業年度 / 繰越控除限度額 / 地方税控除限度額</text>

<text x="80" y="2650" fill="#aaddee" font-size="12">③カッコ書</text>
<text x="630" y="2650" fill="#ccddee" font-size="12">令144⑤⑥⑦ / 令145</text>
<text x="1200" y="2650" fill="#eef" font-size="12" font-weight="bold">繰越控除対象外国法人税額 / 国税の控除余裕額 / 控除限度超過額</text>

<text x="80" y="2670" fill="#aaddee" font-size="12">⑨カッコ書</text>
<text x="630" y="2670" fill="#ccddee" font-size="12">令146</text>
<text x="1200" y="2670" fill="#eef" font-size="12" font-weight="bold">適格合併等 / 被合併法人等 / 合併前三年内事業年度 / 分割等前三年内事業年度</text>

<text x="80" y="2690" fill="#aaddee" font-size="12">⑫</text>
<text x="630" y="2690" fill="#ccddee" font-size="12">令147</text>
<text x="1200" y="2690" fill="#eef" font-size="12" font-weight="bold">適用事業年度 / 減額控除対象外国法人税額</text>

<text x="80" y="2710" fill="#aaddee" font-size="12">⑭〜⑳</text>
<text x="630" y="2710" fill="#ccddee" font-size="12">（条文内で完結）</text>
<text x="1200" y="2710" fill="#eef" font-size="12" font-weight="bold">税額控除額 / 当初申告税額控除額 / 調整後過去税額控除額</text>

<text x="80" y="2730" fill="#aaddee" font-size="12">⑱⑲</text>
<text x="630" y="2730" fill="#ccddee" font-size="12">（条文内で完結）</text>
<text x="1200" y="2730" fill="#eef" font-size="12" font-weight="bold">税額控除不足額相当額 / 税額控除超過額相当額 / 過去当初申告税額控除額</text>

<text x="80" y="2750" fill="#aaddee" font-size="12">法69の2①</text>
<text x="630" y="2750" fill="#ccddee" font-size="12">（所法176③参照）</text>
<text x="1200" y="2750" fill="#eef" font-size="12" font-weight="bold">分配時調整外国税相当額</text>

<!-- Footer -->
<rect x="40" y="2785" width="1720" height="10" rx="3" fill="url(#gRed)" opacity=".4"/>
</svg>