<svg xmlns="http://www.w3.org/2000/svg" viewBox="0 0 1600 2400" font-family="'Helvetica Neue', Arial, 'Hiragino Kaku Gothic ProN', sans-serif">
  <defs>
    <!-- 青=国内法 -->
    <linearGradient id="blueBg" x1="0%" y1="0%" x2="0%" y2="100%">
      <stop offset="0%" style="stop-color:#E3F2FD"/>
      <stop offset="100%" style="stop-color:#BBDEFB"/>
    </linearGradient>
    <!-- 橙=条約 -->
    <linearGradient id="orangeBg" x1="0%" y1="0%" x2="0%" y2="100%">
      <stop offset="0%" style="stop-color:#FFF3E0"/>
      <stop offset="100%" style="stop-color:#FFE0B2"/>
    </linearGradient>
    <!-- 緑=BEPS -->
    <linearGradient id="greenBg" x1="0%" y1="0%" x2="0%" y2="100%">
      <stop offset="0%" style="stop-color:#E8F5E9"/>
      <stop offset="100%" style="stop-color:#C8E6C9"/>
    </linearGradient>
    <!-- 赤=重要判定 -->
    <linearGradient id="redBg" x1="0%" y1="0%" x2="0%" y2="100%">
      <stop offset="0%" style="stop-color:#FFEBEE"/>
      <stop offset="100%" style="stop-color:#FFCDD2"/>
    </linearGradient>
    <linearGradient id="headerBg" x1="0%" y1="0%" x2="100%" y2="0%">
      <stop offset="0%" style="stop-color:#1A237E"/>
      <stop offset="50%" style="stop-color:#283593"/>
      <stop offset="100%" style="stop-color:#1A237E"/>
    </linearGradient>
    <filter id="shadow" x="-3%" y="-3%" width="106%" height="108%">
      <feDropShadow dx="2" dy="3" stdDeviation="4" flood-opacity="0.15"/>
    </filter>
    <filter id="shadowSmall" x="-2%" y="-2%" width="104%" height="106%">
      <feDropShadow dx="1" dy="2" stdDeviation="2" flood-opacity="0.12"/>
    </filter>
    <marker id="arrowBlue" markerWidth="10" markerHeight="7" refX="10" refY="3.5" orient="auto">
      <polygon points="0 0, 10 3.5, 0 7" fill="#1565C0"/>
    </marker>
    <marker id="arrowOrange" markerWidth="10" markerHeight="7" refX="10" refY="3.5" orient="auto">
      <polygon points="0 0, 10 3.5, 0 7" fill="#E65100"/>
    </marker>
    <marker id="arrowGreen" markerWidth="10" markerHeight="7" refX="10" refY="3.5" orient="auto">
      <polygon points="0 0, 10 3.5, 0 7" fill="#2E7D32"/>
    </marker>
    <marker id="arrowRed" markerWidth="10" markerHeight="7" refX="10" refY="3.5" orient="auto">
      <polygon points="0 0, 10 3.5, 0 7" fill="#C62828"/>
    </marker>
    <marker id="arrowGray" markerWidth="10" markerHeight="7" refX="10" refY="3.5" orient="auto">
      <polygon points="0 0, 10 3.5, 0 7" fill="#546E7A"/>
    </marker>
  </defs>

  <!-- 背景 -->
  <rect width="1600" height="2400" fill="#F5F7FA" rx="0"/>

  <!-- ===== ヘッダー ===== -->
  <rect x="0" y="0" width="1600" height="100" fill="url(#headerBg)"/>
  <text x="800" y="45" text-anchor="middle" fill="#FFFFFF" font-size="32" font-weight="bold">恒久的施設（PE: Permanent Establishment）課税の全体像</text>
  <text x="800" y="78" text-anchor="middle" fill="#90CAF5" font-size="16">国内法 × 租税条約 × BEPS — 総合図解</text>

  <!-- 凡例 -->
  <g transform="translate(50, 85)">
    <rect x="0" y="0" width="14" height="14" rx="3" fill="#1565C0"/>
    <text x="20" y="12" fill="#fff" font-size="12" font-weight="bold">青＝国内法</text>
    <rect x="130" y="0" width="14" height="14" rx="3" fill="#E65100"/>
    <text x="150" y="12" fill="#fff" font-size="12" font-weight="bold">橙＝租税条約</text>
    <rect x="280" y="0" width="14" height="14" rx="3" fill="#2E7D32"/>
    <text x="300" y="12" fill="#fff" font-size="12" font-weight="bold">緑＝BEPS</text>
    <rect x="400" y="0" width="14" height="14" rx="3" fill="#C62828"/>
    <text x="420" y="12" fill="#fff" font-size="12" font-weight="bold">赤＝重要判定</text>
  </g>

  <!-- ===== セクション1: PE定義の4類型 ===== -->
  <text x="800" y="145" text-anchor="middle" fill="#263238" font-size="24" font-weight="bold">◆ PEの4類型（定義）</text>

  <!-- 支店PE -->
  <g filter="url(#shadow)">
    <rect x="50" y="170" width="350" height="200" rx="14" fill="url(#orangeBg)" stroke="#E65100" stroke-width="2"/>
    <rect x="50" y="170" width="350" height="40" rx="14" fill="#E65100"/>
    <rect x="50" y="196" width="350" height="14" fill="#E65100"/>
    <text x="225" y="197" text-anchor="middle" fill="#fff" font-size="17" font-weight="bold">① 支店PE（事業を行う一定の場所）</text>
    <text x="70" y="237" fill="#37474F" font-size="14">
      <tspan x="70" dy="0">■ OECDモデル第5条1項</tspan>
      <tspan x="70" dy="22">　事業が行われる固定的な場所</tspan>
      <tspan x="70" dy="22">■ 典型例:</tspan>
      <tspan x="70" dy="22">　支店・事務所・工場・作業場・鉱山</tspan>
      <tspan x="70" dy="22">■ 国内法: 所法2①八の四イ / 法法2十二の十八イ</tspan>
    </text>
  </g>

  <!-- 建設PE -->
  <g filter="url(#shadow)">
    <rect x="425" y="170" width="350" height="200" rx="14" fill="url(#orangeBg)" stroke="#E65100" stroke-width="2"/>
    <rect x="425" y="170" width="350" height="40" rx="14" fill="#E65100"/>
    <rect x="425" y="196" width="350" height="14" fill="#E65100"/>
    <text x="600" y="197" text-anchor="middle" fill="#fff" font-size="17" font-weight="bold">② 建設PE（建設作業場）</text>
    <text x="445" y="237" fill="#37474F" font-size="14">
      <tspan x="445" dy="0">■ OECDモデル第5条3項</tspan>
      <tspan x="445" dy="22">　建設工事・据付工事で12か月超</tspan>
      <tspan x="445" dy="22">■ 国内法: 所法2①八の四ロ / 法法2十二の十八ロ</tspan>
      <tspan x="445" dy="22">　→ 国内法は1年超（条約で短縮あり）</tspan>
      <tspan x="445" dy="22">■ 期間計算が重要判定ポイント</tspan>
    </text>
  </g>

  <!-- 代理人PE -->
  <g filter="url(#shadow)">
    <rect x="800" y="170" width="370" height="200" rx="14" fill="url(#orangeBg)" stroke="#E65100" stroke-width="2"/>
    <rect x="800" y="170" width="370" height="40" rx="14" fill="#E65100"/>
    <rect x="800" y="196" width="370" height="14" fill="#E65100"/>
    <text x="985" y="197" text-anchor="middle" fill="#fff" font-size="17" font-weight="bold">③ 代理人PE</text>
    <text x="820" y="237" fill="#37474F" font-size="14">
      <tspan x="820" dy="0">■ OECDモデル第5条5項・6項</tspan>
      <tspan x="820" dy="22">　契約締結権限を有する従属代理人</tspan>
      <tspan x="820" dy="22">■ 独立代理人は除外（5条6項）</tspan>
      <tspan x="820" dy="22">■ 国内法: 所法2①八の四ハ / 法法2十二の十八ハ</tspan>
      <tspan x="820" dy="22">■ BEPS行動7で大幅拡大 →</tspan>
    </text>
  </g>

  <!-- サービスPE -->
  <g filter="url(#shadow)">
    <rect x="1195" y="170" width="360" height="200" rx="14" fill="url(#greenBg)" stroke="#2E7D32" stroke-width="2"/>
    <rect x="1195" y="170" width="360" height="40" rx="14" fill="#2E7D32"/>
    <rect x="1195" y="196" width="360" height="14" fill="#2E7D32"/>
    <text x="1375" y="197" text-anchor="middle" fill="#fff" font-size="17" font-weight="bold">④ サービスPE</text>
    <text x="1215" y="237" fill="#37474F" font-size="14">
      <tspan x="1215" dy="0">■ 国連モデル第5条3(b)項</tspan>
      <tspan x="1215" dy="22">　役務提供が一定期間を超える場合</tspan>
      <tspan x="1215" dy="22">■ OECDモデルには原則なし</tspan>
      <tspan x="1215" dy="22">　→ 一部の日本の租税条約に導入</tspan>
      <tspan x="1215" dy="22">■ 183日テスト等の期間要件</tspan>
    </text>
  </g>

  <!-- ===== セクション2: 国内法 (青) ===== -->
  <text x="800" y="420" text-anchor="middle" fill="#1565C0" font-size="24" font-weight="bold">◆ 国内法上のPE課税根拠</text>

  <!-- 所得税法164条 -->
  <g filter="url(#shadow)">
    <rect x="80" y="445" width="680" height="260" rx="14" fill="url(#blueBg)" stroke="#1565C0" stroke-width="2.5"/>
    <rect x="80" y="445" width="680" height="42" rx="14" fill="#1565C0"/>
    <rect x="80" y="473" width="680" height="14" fill="#1565C0"/>
    <text x="420" y="474" text-anchor="middle" fill="#fff" font-size="18" font-weight="bold">所得税法 第164条（非居住者の課税標準）</text>

    <text x="105" y="515" fill="#1A237E" font-size="15" font-weight="bold">PE帰属所得の区分と課税方式</text>
    <text x="105" y="545" fill="#37474F" font-size="13.5">
      <tspan x="105" dy="0">第1号（PE有＋PE帰属所得）: 総合課税 — すべてのPE帰属所得</tspan>
      <tspan x="105" dy="24">第2号（PE有＋PE非帰属の国内源泉所得）: 源泉分離等</tspan>
      <tspan x="105" dy="24">第3号（PE無＋国内源泉所得）: 源泉徴収のみ（申告不要原則）</tspan>
    </text>

    <line x1="105" y1="625" x2="735" y2="625" stroke="#1565C0" stroke-width="1" stroke-dasharray="4,3"/>

    <text x="105" y="648" fill="#1A237E" font-size="14" font-weight="bold">関連条文</text>
    <text x="105" y="672" fill="#37474F" font-size="13">
      <tspan x="105" dy="0">所法161条（国内源泉所得の定義）/ 所法2条①八の四（PE定義）</tspan>
      <tspan x="105" dy="20">所法165条（総合課税に係る所得税の課税標準・税額計算）</tspan>
    </text>
  </g>

  <!-- 法人税法141条 -->
  <g filter="url(#shadow)">
    <rect x="810" y="445" width="720" height="260" rx="14" fill="url(#blueBg)" stroke="#1565C0" stroke-width="2.5"/>
    <rect x="810" y="445" width="720" height="42" rx="14" fill="#1565C0"/>
    <rect x="810" y="473" width="720" height="14" fill="#1565C0"/>
    <text x="1170" y="474" text-anchor="middle" fill="#fff" font-size="18" font-weight="bold">法人税法 第141条（外国法人の課税標準）</text>

    <text x="835" y="515" fill="#1A237E" font-size="15" font-weight="bold">PE帰属所得の区分と課税方式</text>
    <text x="835" y="545" fill="#37474F" font-size="13.5">
      <tspan x="835" dy="0">第1号（PE有の外国法人）:</tspan>
      <tspan x="855" dy="24">各事業年度のPE帰属所得 → 法人税申告義務あり</tspan>
      <tspan x="835" dy="24">第2号（PE無の外国法人）:</tspan>
      <tspan x="855" dy="24">国内源泉所得のうち源泉徴収対象のみ</tspan>
    </text>

    <line x1="835" y1="635" x2="1505" y2="635" stroke="#1565C0" stroke-width="1" stroke-dasharray="4,3"/>

    <text x="835" y="658" fill="#1A237E" font-size="14" font-weight="bold">関連条文</text>
    <text x="835" y="682" fill="#37474F" font-size="13">
      <tspan x="835" dy="0">法法138条（国内源泉所得）/ 法法2条十二の十八（PE定義）</tspan>
      <tspan x="835" dy="20">法法142条（PE帰属所得の計算）/ 法法142条の2〜10（内部取引）</tspan>
    </text>
  </g>

  <!-- ===== セクション3: 租税条約 (橙) ===== -->
  <text x="800" y="760" text-anchor="middle" fill="#E65100" font-size="24" font-weight="bold">◆ 租税条約上の規定（OECDモデル）</text>

  <!-- 第5条 PE定義 -->
  <g filter="url(#shadow)">
    <rect x="80" y="785" width="700" height="310" rx="14" fill="url(#orangeBg)" stroke="#E65100" stroke-width="2.5"/>
    <rect x="80" y="785" width="700" height="42" rx="14" fill="#E65100"/>
    <rect x="80" y="813" width="700" height="14" fill="#E65100"/>
    <text x="430" y="814" text-anchor="middle" fill="#fff" font-size="18" font-weight="bold">OECDモデル 第5条 — 恒久的施設の定義</text>

    <text x="105" y="855" fill="#BF360C" font-size="14" font-weight="bold">条文構造:</text>
    <text x="105" y="880" fill="#37474F" font-size="13.5">
      <tspan x="120" dy="0">1項　一般的定義（事業を行う一定の場所）</tspan>
      <tspan x="120" dy="22">2項　PEの例示（支店、事務所、工場、作業場等）</tspan>
      <tspan x="120" dy="22">3項　建設PE（12か月超の建設工事等）</tspan>
      <tspan x="120" dy="22">4項　PEに含まれない活動（準備的・補助的活動）</tspan>
      <tspan x="120" dy="22">5項　従属代理人PE（契約締結代理人）</tspan>
      <tspan x="120" dy="22">6項　独立代理人の除外</tspan>
      <tspan x="120" dy="22">7項　子会社 ≠ PE（支配関係だけでは不十分）</tspan>
    </text>

    <rect x="105" y="1050" width="650" height="30" rx="6" fill="#FFF3E0" stroke="#E65100" stroke-width="1"/>
    <text x="430" y="1070" text-anchor="middle" fill="#BF360C" font-size="13" font-weight="bold">⚠ 条約のPE定義 ≦ 国内法のPE定義 → 条約が制限的に機能</text>
  </g>

  <!-- 第7条 事業利得 -->
  <g filter="url(#shadow)">
    <rect x="830" y="785" width="700" height="310" rx="14" fill="url(#orangeBg)" stroke="#E65100" stroke-width="2.5"/>
    <rect x="830" y="785" width="700" height="42" rx="14" fill="#E65100"/>
    <rect x="830" y="813" width="700" height="14" fill="#E65100"/>
    <text x="1180" y="814" text-anchor="middle" fill="#fff" font-size="18" font-weight="bold">OECDモデル 第7条 — 事業利得</text>

    <text x="855" y="855" fill="#BF360C" font-size="14" font-weight="bold">AOA（Authorised OECD Approach）:</text>
    <text x="855" y="880" fill="#37474F" font-size="13.5">
      <tspan x="870" dy="0">2010年改訂 第7条で採用された帰属所得算定方法</tspan>
      <tspan x="870" dy="26">Step 1: 機能・事実分析</tspan>
      <tspan x="890" dy="20">PEに帰属する機能・資産・リスクを特定</tspan>
      <tspan x="870" dy="26">Step 2: 独立企業原則の適用</tspan>
      <tspan x="890" dy="20">PE＝独立企業とみなし、内部取引を認識</tspan>
      <tspan x="890" dy="20">本店⇔PE間の利子・使用料も認識</tspan>
    </text>

    <rect x="855" y="1020" width="650" height="55" rx="8" fill="#FFF8E1" stroke="#F57F17" stroke-width="1.5"/>
    <text x="1180" y="1040" text-anchor="middle" fill="#E65100" font-size="13" font-weight="bold">日本の国内法も2014年度改正でAOAを全面採用</text>
    <text x="1180" y="1060" text-anchor="middle" fill="#795548" font-size="12">法法142条の2〜10（内部取引の認識・移転価格税制の準用）</text>
  </g>

  <!-- ===== セクション4: AOA詳細 ===== -->
  <text x="800" y="1150" text-anchor="middle" fill="#E65100" font-size="24" font-weight="bold">◆ AOA（帰属所得算定）の詳細フロー</text>

  <g filter="url(#shadow)">
    <rect x="130" y="1175" width="300" height="80" rx="12" fill="#E65100" stroke="#BF360C" stroke-width="2"/>
    <text x="280" y="1210" text-anchor="middle" fill="#fff" font-size="15" font-weight="bold">Step 1-A</text>
    <text x="280" y="1235" text-anchor="middle" fill="#FFE0B2" font-size="13">重要な人的機能の特定</text>
  </g>
  <line x1="430" y1="1215" x2="490" y2="1215" stroke="#E65100" stroke-width="2" marker-end="url(#arrowOrange)"/>

  <g filter="url(#shadow)">
    <rect x="500" y="1175" width="300" height="80" rx="12" fill="#E65100" stroke="#BF360C" stroke-width="2"/>
    <text x="650" y="1210" text-anchor="middle" fill="#fff" font-size="15" font-weight="bold">Step 1-B</text>
    <text x="650" y="1235" text-anchor="middle" fill="#FFE0B2" font-size="13">資産・リスクの帰属決定</text>
  </g>
  <line x1="800" y1="1215" x2="860" y2="1215" stroke="#E65100" stroke-width="2" marker-end="url(#arrowOrange)"/>

  <g filter="url(#shadow)">
    <rect x="870" y="1175" width="300" height="80" rx="12" fill="#E65100" stroke="#BF360C" stroke-width="2"/>
    <text x="1020" y="1210" text-anchor="middle" fill="#fff" font-size="15" font-weight="bold">Step 1-C</text>
    <text x="1020" y="1235" text-anchor="middle" fill="#FFE0B2" font-size="13">所要自己資本の算定</text>
  </g>
  <line x1="1170" y1="1215" x2="1230" y2="1215" stroke="#E65100" stroke-width="2" marker-end="url(#arrowOrange)"/>

  <g filter="url(#shadow)">
    <rect x="1240" y="1175" width="300" height="80" rx="12" fill="#FF7043" stroke="#BF360C" stroke-width="2"/>
    <text x="1390" y="1210" text-anchor="middle" fill="#fff" font-size="15" font-weight="bold">Step 2</text>
    <text x="1390" y="1235" text-anchor="middle" fill="#FFF3E0" font-size="13">独立企業原則で利得算定</text>
  </g>

  <!-- ===== セクション5: BEPS行動7 (緑) ===== -->
  <text x="800" y="1320" text-anchor="middle" fill="#2E7D32" font-size="24" font-weight="bold">◆ BEPS行動7 — PE定義の人為的回避防止</text>

  <g filter="url(#shadow)">
    <rect x="80" y="1345" width="460" height="280" rx="14" fill="url(#greenBg)" stroke="#2E7D32" stroke-width="2.5"/>
    <rect x="80" y="1345" width="460" height="42" rx="14" fill="#2E7D32"/>
    <rect x="80" y="1373" width="460" height="14" fill="#2E7D32"/>
    <text x="310" y="1374" text-anchor="middle" fill="#fff" font-size="17" font-weight="bold">コミッショネア・アレンジメント対策</text>

    <text x="105" y="1415" fill="#1B5E20" font-size="14" font-weight="bold">改正前の問題:</text>
    <text x="105" y="1440" fill="#37474F" font-size="13">
      <tspan x="120" dy="0">代理人が「本人の名で」契約締結しない場合</tspan>
      <tspan x="120" dy="20">→ 従来の第5条5項では代理人PEに該当せず</tspan>
    </text>

    <text x="105" y="1500" fill="#1B5E20" font-size="14" font-weight="bold">BEPS後の改正（MLI第12条）:</text>
    <text x="105" y="1525" fill="#37474F" font-size="13">
      <tspan x="120" dy="0">「契約の締結に主要な役割を果たす者」</tspan>
      <tspan x="120" dy="20">→ 本人名義でなくても代理人PE認定</tspan>
      <tspan x="120" dy="20">→「habitual conclusion」要件の拡大解釈</tspan>
      <tspan x="120" dy="20">→ 独立代理人の除外要件も厳格化</tspan>
    </text>
  </g>

  <!-- 準備的・補助的活動の例外濫用防止 -->
  <g filter="url(#shadow)">
    <rect x="570" y="1345" width="460" height="280" rx="14" fill="url(#greenBg)" stroke="#2E7D32" stroke-width="2.5"/>
    <rect x="570" y="1345" width="460" height="42" rx="14" fill="#2E7D32"/>
    <rect x="570" y="1373" width="460" height="14" fill="#2E7D32"/>
    <text x="800" y="1374" text-anchor="middle" fill="#fff" font-size="17" font-weight="bold">準備的・補助的活動の除外制限</text>

    <text x="595" y="1415" fill="#1B5E20" font-size="14" font-weight="bold">改正前の問題:</text>
    <text x="595" y="1440" fill="#37474F" font-size="13">
      <tspan x="610" dy="0">倉庫・配送センター等を「準備的・補助的」</tspan>
      <tspan x="610" dy="20">として PE 認定を回避（例: Eコマース）</tspan>
    </text>

    <text x="595" y="1500" fill="#1B5E20" font-size="14" font-weight="bold">BEPS後の改正（MLI第13条）:</text>
    <text x="595" y="1525" fill="#37474F" font-size="13">
      <tspan x="610" dy="0">第5条4項の各活動に「準備的・補助的」</tspan>
      <tspan x="610" dy="20">要件を個別に追加</tspan>
      <tspan x="610" dy="20">細分化防止規定（anti-fragmentation）</tspan>
      <tspan x="610" dy="20">→ 関連企業の活動を合算して判定</tspan>
    </text>
  </g>

  <!-- 契約分割スキーム対策 -->
  <g filter="url(#shadow)">
    <rect x="1060" y="1345" width="460" height="280" rx="14" fill="url(#greenBg)" stroke="#2E7D32" stroke-width="2.5"/>
    <rect x="1060" y="1345" width="460" height="42" rx="14" fill="#2E7D32"/>
    <rect x="1060" y="1373" width="460" height="14" fill="#2E7D32"/>
    <text x="1290" y="1374" text-anchor="middle" fill="#fff" font-size="17" font-weight="bold">建設PE期間の分割スキーム対策</text>

    <text x="1085" y="1415" fill="#1B5E20" font-size="14" font-weight="bold">改正前の問題:</text>
    <text x="1085" y="1440" fill="#37474F" font-size="13">
      <tspan x="1100" dy="0">建設契約を関連企業間で分割し</tspan>
      <tspan x="1100" dy="20">各企業の滞在期間を12か月未満に抑制</tspan>
    </text>

    <text x="1085" y="1500" fill="#1B5E20" font-size="14" font-weight="bold">BEPS後の改正:</text>
    <text x="1085" y="1525" fill="#37474F" font-size="13">
      <tspan x="1100" dy="0">PPT（主要目的テスト）による否認</tspan>
      <tspan x="1100" dy="20">関連企業の期間を通算する規定</tspan>
      <tspan x="1100" dy="20">MLI第14条による対応</tspan>
      <tspan x="1100" dy="20">日本: 条約相手国との個別交渉で対応</tspan>
    </text>
  </g>

  <!-- ===== セクション6: PE判定フロー (赤) ===== -->
  <text x="800" y="1690" text-anchor="middle" fill="#C62828" font-size="24" font-weight="bold">◆ PE該当性の判定フロー</text>

  <!-- フロー: Step 1 -->
  <g filter="url(#shadowSmall)">
    <rect x="580" y="1715" width="440" height="50" rx="25" fill="#C62828"/>
    <text x="800" y="1747" text-anchor="middle" fill="#fff" font-size="16" font-weight="bold">外国法人/非居住者が日本で活動しているか？</text>
  </g>
  <line x1="800" y1="1765" x2="800" y2="1790" stroke="#C62828" stroke-width="2" marker-end="url(#arrowRed)"/>

  <!-- フロー: Step 2 国内法判定 -->
  <g filter="url(#shadowSmall)">
    <rect x="520" y="1795" width="560" height="50" rx="10" fill="url(#blueBg)" stroke="#1565C0" stroke-width="2"/>
    <text x="800" y="1827" text-anchor="middle" fill="#1565C0" font-size="15" font-weight="bold">【国内法】所法2①八の四 / 法法2十二の十八 でPE該当？</text>
  </g>
  <text x="1095" y="1825" fill="#C62828" font-size="14" font-weight="bold">NO →</text>
  <g filter="url(#shadowSmall)">
    <rect x="1140" y="1800" width="200" height="40" rx="8" fill="#ECEFF1" stroke="#78909C" stroke-width="1.5"/>
    <text x="1240" y="1826" text-anchor="middle" fill="#37474F" font-size="14" font-weight="bold">PE非該当（課税なし）</text>
  </g>
  <text x="795" y="1862" fill="#2E7D32" font-size="14" font-weight="bold">YES ↓</text>
  <line x1="800" y1="1845" x2="800" y2="1875" stroke="#C62828" stroke-width="2" marker-end="url(#arrowRed)"/>

  <!-- フロー: Step 3 条約判定 -->
  <g filter="url(#shadowSmall)">
    <rect x="520" y="1880" width="560" height="50" rx="10" fill="url(#orangeBg)" stroke="#E65100" stroke-width="2"/>
    <text x="800" y="1912" text-anchor="middle" fill="#E65100" font-size="15" font-weight="bold">【租税条約】第5条の定義でPE該当？（条約が制限）</text>
  </g>
  <text x="1095" y="1910" fill="#C62828" font-size="14" font-weight="bold">NO →</text>
  <g filter="url(#shadowSmall)">
    <rect x="1140" y="1885" width="200" height="40" rx="8" fill="#ECEFF1" stroke="#78909C" stroke-width="1.5"/>
    <text x="1240" y="1911" text-anchor="middle" fill="#37474F" font-size="14" font-weight="bold">条約によりPE否認</text>
  </g>
  <text x="795" y="1947" fill="#2E7D32" font-size="14" font-weight="bold">YES ↓</text>
  <line x1="800" y1="1930" x2="800" y2="1960" stroke="#C62828" stroke-width="2" marker-end="url(#arrowRed)"/>

  <!-- フロー: Step 4 BEPS判定 -->
  <g filter="url(#shadowSmall)">
    <rect x="520" y="1965" width="560" height="50" rx="10" fill="url(#greenBg)" stroke="#2E7D32" stroke-width="2"/>
    <text x="800" y="1997" text-anchor="middle" fill="#2E7D32" font-size="15" font-weight="bold">【BEPS/MLI】行動7の拡大定義で新たにPE該当？</text>
  </g>
  <text x="795" y="2032" fill="#2E7D32" font-size="14" font-weight="bold">YES ↓</text>
  <line x1="800" y1="2015" x2="800" y2="2045" stroke="#C62828" stroke-width="2" marker-end="url(#arrowRed)"/>

  <!-- フロー: Step 5 AOA -->
  <g filter="url(#shadowSmall)">
    <rect x="560" y="2050" width="480" height="50" rx="10" fill="url(#orangeBg)" stroke="#E65100" stroke-width="2"/>
    <text x="800" y="2082" text-anchor="middle" fill="#E65100" font-size="15" font-weight="bold">AOA（第7条）によりPE帰属所得を算定</text>
  </g>
  <line x1="800" y1="2100" x2="800" y2="2130" stroke="#C62828" stroke-width="2" marker-end="url(#arrowRed)"/>

  <!-- フロー: Step 6 申告 -->
  <g filter="url(#shadowSmall)">
    <rect x="560" y="2135" width="480" height="50" rx="10" fill="#C62828"/>
    <text x="800" y="2167" text-anchor="middle" fill="#fff" font-size="16" font-weight="bold">確定申告義務の発生 → 下記参照</text>
  </g>

  <!-- 左側に補足: 判定の優先関係 -->
  <g filter="url(#shadowSmall)">
    <rect x="100" y="1800" width="380" height="225" rx="12" fill="#FFF8E1" stroke="#F9A825" stroke-width="2"/>
    <text x="290" y="1830" text-anchor="middle" fill="#E65100" font-size="15" font-weight="bold">判定の優先関係</text>
    <text x="120" y="1860" fill="#37474F" font-size="13">
      <tspan x="120" dy="0">❶ まず国内法でPE該当性を判定</tspan>
      <tspan x="120" dy="24">❷ 国内法でPE該当 → 条約で制限されるか</tspan>
      <tspan x="120" dy="24">❸ 条約は国内法を「制限」する方向のみ機能</tspan>
      <tspan x="120" dy="24">　（条約で課税権を拡大することは不可）</tspan>
      <tspan x="120" dy="24">❹ BEPS/MLI経由で条約のPE定義が拡大</tspan>
      <tspan x="120" dy="24">　→ 国内法の手当てが別途必要な場合あり</tspan>
      <tspan x="120" dy="24">❺ 国内法 ∩ 条約 = 実際の課税範囲</tspan>
    </text>
  </g>

  <!-- ===== セクション7: 申告義務 ===== -->
  <text x="800" y="2240" text-anchor="middle" fill="#263238" font-size="24" font-weight="bold">◆ 申告義務・届出・手続</text>

  <g filter="url(#shadow)">
    <rect x="80" y="2260" width="460" height="120" rx="12" fill="url(#blueBg)" stroke="#1565C0" stroke-width="2"/>
    <text x="310" y="2290" text-anchor="middle" fill="#1565C0" font-size="16" font-weight="bold">外国法人（法人税）</text>
    <text x="100" y="2315" fill="#37474F" font-size="13">
      <tspan x="100" dy="0">■ PE設置届出書の提出（法法149条）</tspan>
      <tspan x="100" dy="20">■ 法人税確定申告（PE帰属所得）法法141条①</tspan>
      <tspan x="100" dy="20">■ 消費税・地方税の申告義務も発生</tspan>
    </text>
  </g>

  <g filter="url(#shadow)">
    <rect x="570" y="2260" width="460" height="120" rx="12" fill="url(#blueBg)" stroke="#1565C0" stroke-width="2"/>
    <text x="800" y="2290" text-anchor="middle" fill="#1565C0" font-size="16" font-weight="bold">非居住者（所得税）</text>
    <text x="590" y="2315" fill="#37474F" font-size="13">
      <tspan x="590" dy="0">■ 開業届出書等の提出</tspan>
      <tspan x="590" dy="20">■ 確定申告（総合課税）所法164条①一</tspan>
      <tspan x="590" dy="20">■ 納税管理人の届出（所法117条）</tspan>
    </text>
  </g>

  <g filter="url(#shadow)">
    <rect x="1060" y="2260" width="460" height="120" rx="12" fill="url(#redBg)" stroke="#C62828" stroke-width="2"/>
    <text x="1290" y="2290" text-anchor="middle" fill="#C62828" font-size="16" font-weight="bold">重要ポイント</text>
    <text x="1080" y="2315" fill="#37474F" font-size="13">
      <tspan x="1080" dy="0">■ PE認定 → 申告義務＋帳簿保存義務</tspan>
      <tspan x="1080" dy="20">■ 移転価格文書化（ローカルファイル等）</tspan>
      <tspan x="1080" dy="20">■ 相互協議（MAP）による二重課税排除</tspan>
    </text>
  </g>

  <!-- フッター -->
  <rect x="0" y="2395" width="1600" height="5" fill="url(#headerBg)"/>
</svg>