<svg xmlns="http://www.w3.org/2000/svg" viewBox="0 0 1400 2800" font-family="'Helvetica Neue', Arial, sans-serif">
  <defs>
    <linearGradient id="headerGrad" x1="0%" y1="0%" x2="100%" y2="0%">
      <stop offset="0%" style="stop-color:#1a237e;stop-opacity:1" />
      <stop offset="100%" style="stop-color:#283593;stop-opacity:1" />
    </linearGradient>
    <linearGradient id="seisanGrad" x1="0%" y1="0%" x2="0%" y2="100%">
      <stop offset="0%" style="stop-color:#e8eaf6;stop-opacity:1" />
      <stop offset="100%" style="stop-color:#c5cae9;stop-opacity:1" />
    </linearGradient>
    <linearGradient id="rekinenGrad" x1="0%" y1="0%" x2="0%" y2="100%">
      <stop offset="0%" style="stop-color:#fff3e0;stop-opacity:1" />
      <stop offset="100%" style="stop-color:#ffe0b2;stop-opacity:1" />
    </linearGradient>
    <linearGradient id="flowGrad" x1="0%" y1="0%" x2="0%" y2="100%">
      <stop offset="0%" style="stop-color:#e3f2fd;stop-opacity:1" />
      <stop offset="100%" style="stop-color:#bbdefb;stop-opacity:1" />
    </linearGradient>
    <filter id="shadow" x="-2%" y="-2%" width="104%" height="104%">
      <feDropShadow dx="2" dy="3" stdDeviation="3" flood-opacity="0.15"/>
    </filter>
    <marker id="arrowBlue" viewBox="0 0 10 10" refX="10" refY="5" markerWidth="8" markerHeight="8" orient="auto">
      <path d="M 0 0 L 10 5 L 0 10 z" fill="#1565c0"/>
    </marker>
    <marker id="arrowOrange" viewBox="0 0 10 10" refX="10" refY="5" markerWidth="8" markerHeight="8" orient="auto">
      <path d="M 0 0 L 10 5 L 0 10 z" fill="#e65100"/>
    </marker>
    <marker id="arrowGreen" viewBox="0 0 10 10" refX="10" refY="5" markerWidth="8" markerHeight="8" orient="auto">
      <path d="M 0 0 L 10 5 L 0 10 z" fill="#2e7d32"/>
    </marker>
    <marker id="arrowRed" viewBox="0 0 10 10" refX="10" refY="5" markerWidth="8" markerHeight="8" orient="auto">
      <path d="M 0 0 L 10 5 L 0 10 z" fill="#c62828"/>
    </marker>
    <marker id="arrowGray" viewBox="0 0 10 10" refX="10" refY="5" markerWidth="8" markerHeight="8" orient="auto">
      <path d="M 0 0 L 10 5 L 0 10 z" fill="#546e7a"/>
    </marker>
  </defs>

  <!-- Background -->
  <rect width="1400" height="2800" fill="#f5f5f5" rx="0"/>

  <!-- ===== HEADER ===== -->
  <rect x="0" y="0" width="1400" height="100" fill="url(#headerGrad)"/>
  <text x="700" y="42" text-anchor="middle" fill="#fff" font-size="28" font-weight="bold">令和5年度 相続税及び贈与税の税制改正 ― 全体構造図解</text>
  <text x="700" y="72" text-anchor="middle" fill="#bbdefb" font-size="16">令和6年1月1日施行 ｜ 国税庁「相続税及び贈与税の税制改正のあらまし」（令和5年6月）に基づく</text>
  <text x="700" y="92" text-anchor="middle" fill="#90caf9" font-size="13">改正1〜4の全体像・判定フロー・計算構造・適用要件を網羅</text>

  <!-- ===== SECTION 1: 判定フロー ===== -->
  <rect x="30" y="120" width="1340" height="520" rx="16" fill="#fff" filter="url(#shadow)"/>
  <rect x="30" y="120" width="1340" height="50" rx="16" fill="#37474f"/>
  <rect x="30" y="145" width="1340" height="25" fill="#37474f"/>
  <text x="700" y="152" text-anchor="middle" fill="#fff" font-size="20" font-weight="bold">STEP 1 ─ 課税方式の判定フロー（暦年課税 vs 相続時精算課税）</text>

  <!-- Start -->
  <rect x="530" y="195" width="340" height="50" rx="25" fill="#1565c0" filter="url(#shadow)"/>
  <text x="700" y="226" text-anchor="middle" fill="#fff" font-size="16" font-weight="bold">贈与が発生（贈与者→受贈者）</text>

  <!-- Arrow down -->
  <line x1="700" y1="245" x2="700" y2="275" stroke="#546e7a" stroke-width="2.5" marker-end="url(#arrowGray)"/>

  <!-- Decision 1 -->
  <polygon points="700,275 900,320 700,365 500,320" fill="#fff9c4" stroke="#f9a825" stroke-width="2"/>
  <text x="700" y="316" text-anchor="middle" font-size="13" font-weight="bold" fill="#333">贈与者：60歳以上（1/1時点）</text>
  <text x="700" y="333" text-anchor="middle" font-size="13" font-weight="bold" fill="#333">受贈者：18歳以上の直系卑属（推定相続人又は孫）</text>
  <text x="700" y="350" text-anchor="middle" font-size="11" fill="#666">※ 要件判定</text>

  <!-- YES arrow -->
  <line x1="700" y1="365" x2="700" y2="395" stroke="#2e7d32" stroke-width="2.5" marker-end="url(#arrowGreen)"/>
  <text x="715" y="385" font-size="13" fill="#2e7d32" font-weight="bold">YES</text>

  <!-- NO arrow to right -->
  <line x1="900" y1="320" x2="1050" y2="320" stroke="#c62828" stroke-width="2.5" marker-end="url(#arrowRed)"/>
  <text x="960" y="312" font-size="13" fill="#c62828" font-weight="bold">NO</text>

  <!-- NO → 暦年課税のみ -->
  <rect x="1050" y="295" width="260" height="50" rx="12" fill="#ffe0b2" stroke="#e65100" stroke-width="2" filter="url(#shadow)"/>
  <text x="1180" y="318" text-anchor="middle" font-size="14" font-weight="bold" fill="#e65100">暦年課税のみ適用可</text>
  <text x="1180" y="335" text-anchor="middle" font-size="11" fill="#bf360c">（選択の余地なし）</text>

  <!-- Decision 2 -->
  <polygon points="700,395 880,435 700,475 520,435" fill="#fff9c4" stroke="#f9a825" stroke-width="2"/>
  <text x="700" y="432" text-anchor="middle" font-size="14" font-weight="bold" fill="#333">精算課税選択届出書</text>
  <text x="700" y="450" text-anchor="middle" font-size="14" font-weight="bold" fill="#333">を提出するか？</text>

  <!-- YES left -->
  <line x1="520" y1="435" x2="370" y2="435" stroke="#1565c0" stroke-width="2.5" marker-end="url(#arrowBlue)"/>
  <text x="430" y="427" font-size="13" fill="#1565c0" font-weight="bold">提出する</text>

  <!-- NO right -->
  <line x1="880" y1="435" x2="1050" y2="435" stroke="#e65100" stroke-width="2.5" marker-end="url(#arrowOrange)"/>
  <text x="950" y="427" font-size="13" fill="#e65100" font-weight="bold">提出しない</text>

  <!-- 相続時精算課税 box -->
  <rect x="100" y="405" width="270" height="65" rx="14" fill="url(#seisanGrad)" stroke="#3949ab" stroke-width="2.5" filter="url(#shadow)"/>
  <text x="235" y="432" text-anchor="middle" font-size="17" font-weight="bold" fill="#1a237e">相続時精算課税</text>
  <text x="235" y="455" text-anchor="middle" font-size="12" fill="#283593">（一度選択すると暦年課税に戻れない）</text>

  <!-- 暦年課税 box -->
  <rect x="1050" y="405" width="260" height="65" rx="14" fill="url(#rekinenGrad)" stroke="#e65100" stroke-width="2.5" filter="url(#shadow)"/>
  <text x="1180" y="432" text-anchor="middle" font-size="17" font-weight="bold" fill="#bf360c">暦年課税</text>
  <text x="1180" y="455" text-anchor="middle" font-size="12" fill="#e65100">（デフォルト・従来方式）</text>

  <!-- 注意書き -->
  <rect x="440" y="500" width="520" height="55" rx="10" fill="#ffebee" stroke="#ef9a9a" stroke-width="1.5"/>
  <text x="700" y="520" text-anchor="middle" font-size="13" font-weight="bold" fill="#c62828">⚠ 重要注意</text>
  <text x="700" y="540" text-anchor="middle" font-size="12" fill="#b71c1c">相続時精算課税を一度選択すると、同じ贈与者からの贈与については</text>
  <text x="700" y="555" text-anchor="middle" font-size="12" fill="#b71c1c">暦年課税に変更することは不可（不可逆の選択）</text>

  <!-- Arrows down from both boxes -->
  <line x1="235" y1="470" x2="235" y2="580" stroke="#3949ab" stroke-width="2" stroke-dasharray="6,4"/>
  <line x1="1180" y1="470" x2="1180" y2="580" stroke="#e65100" stroke-width="2" stroke-dasharray="6,4"/>
  <text x="235" y="595" text-anchor="middle" font-size="13" fill="#3949ab" font-weight="bold">▼ 改正1・2へ</text>
  <text x="1180" y="595" text-anchor="middle" font-size="13" fill="#e65100" font-weight="bold">▼ 改正3・4へ</text>

  <!-- ===== SECTION 2: 改正1 相続時精算課税の基礎控除創設 ===== -->
  <rect x="30" y="660" width="660" height="700" rx="16" fill="#fff" filter="url(#shadow)"/>
  <rect x="30" y="660" width="660" height="50" rx="16" fill="#1a237e"/>
  <rect x="30" y="685" width="660" height="25" fill="#1a237e"/>
  <rect x="45" y="672" width="90" height="28" rx="6" fill="#ffab00"/>
  <text x="90" y="692" text-anchor="middle" fill="#1a237e" font-size="14" font-weight="bold">改正1</text>
  <text x="420" y="692" text-anchor="middle" fill="#fff" font-size="18" font-weight="bold">相続時精算課税に係る基礎控除の創設</text>

  <!-- 新設ポイント -->
  <rect x="55" y="725" width="615" height="45" rx="10" fill="#e8eaf6" stroke="#5c6bc0" stroke-width="1.5"/>
  <text x="362" y="745" text-anchor="middle" font-size="14" font-weight="bold" fill="#1a237e">【新設】特定贈与者ごとに年110万円の基礎控除を創設</text>
  <text x="362" y="762" text-anchor="middle" font-size="12" fill="#3949ab">適用：令和6年1月1日以後の贈与 ｜ 暦年課税の110万円とは別枠</text>

  <!-- 贈与税計算フロー -->
  <text x="62" y="800" font-size="15" font-weight="bold" fill="#1a237e">■ 贈与税の計算構造</text>

  <rect x="62" y="812" width="250" height="40" rx="8" fill="#c5cae9"/>
  <text x="187" y="837" text-anchor="middle" font-size="13" font-weight="bold" fill="#1a237e">年間贈与財産の合計額</text>

  <line x1="187" y1="852" x2="187" y2="870" stroke="#3949ab" stroke-width="2" marker-end="url(#arrowBlue)"/>
  <text x="320" y="868" font-size="13" fill="#c62828" font-weight="bold">ー 基礎控除 110万円（新設）</text>

  <rect x="62" y="878" width="250" height="40" rx="8" fill="#c5cae9"/>
  <text x="187" y="903" text-anchor="middle" font-size="13" font-weight="bold" fill="#1a237e">基礎控除後の課税価格</text>

  <line x1="187" y1="918" x2="187" y2="936" stroke="#3949ab" stroke-width="2" marker-end="url(#arrowBlue)"/>
  <text x="320" y="934" font-size="13" fill="#c62828" font-weight="bold">ー 特別控除 最高2,500万円（累積枠）</text>

  <rect x="62" y="944" width="250" height="40" rx="8" fill="#c5cae9"/>
  <text x="187" y="969" text-anchor="middle" font-size="13" font-weight="bold" fill="#1a237e">課税残額</text>

  <line x1="187" y1="984" x2="187" y2="1002" stroke="#3949ab" stroke-width="2" marker-end="url(#arrowBlue)"/>
  <text x="320" y="1000" font-size="13" fill="#c62828" font-weight="bold">× 税率 一律20％</text>

  <rect x="62" y="1010" width="250" height="40" rx="8" fill="#3949ab"/>
  <text x="187" y="1035" text-anchor="middle" font-size="14" font-weight="bold" fill="#fff">贈与税額</text>

  <!-- 相続税計算 -->
  <text x="62" y="1080" font-size="15" font-weight="bold" fill="#1a237e">■ 相続時の加算ルール</text>

  <rect x="62" y="1095" width="608" height="80" rx="10" fill="#e8eaf6" stroke="#7986cb" stroke-width="1.5"/>
  <text x="366" y="1115" text-anchor="middle" font-size="13" fill="#1a237e">相続税の課税価格に加算される贈与財産の価額：</text>
  <text x="366" y="1140" text-anchor="middle" font-size="14" font-weight="bold" fill="#c62828">各年の贈与時の価額 ー 基礎控除額110万円 ＝ 加算額</text>
  <text x="366" y="1162" text-anchor="middle" font-size="12" fill="#3949ab">→ 基礎控除以下（年110万円以下）の贈与は相続税の加算対象にもならない</text>

  <!-- 申告不要ケース -->
  <rect x="62" y="1190" width="608" height="55" rx="10" fill="#e8f5e9" stroke="#66bb6a" stroke-width="1.5"/>
  <text x="366" y="1210" text-anchor="middle" font-size="13" font-weight="bold" fill="#2e7d32">✓ 申告不要ケース</text>
  <text x="366" y="1230" text-anchor="middle" font-size="12" fill="#1b5e20">特定贈与者からの年間贈与額 ≦ 110万円 の場合 → 贈与税の申告不要</text>

  <!-- 2人以上の場合 -->
  <rect x="62" y="1260" width="608" height="55" rx="10" fill="#fff8e1" stroke="#ffa000" stroke-width="1.5"/>
  <text x="366" y="1280" text-anchor="middle" font-size="13" font-weight="bold" fill="#e65100">⚠ 複数の特定贈与者がいる場合</text>
  <text x="366" y="1300" text-anchor="middle" font-size="12" fill="#bf360c">110万円は特定贈与者ごとの課税価格で按分（合計110万円が上限）</text>

  <!-- 届出書 -->
  <rect x="62" y="1325" width="608" height="30" rx="6" fill="#f3e5f5" stroke="#ab47bc" stroke-width="1"/>
  <text x="366" y="1345" text-anchor="middle" font-size="12" fill="#6a1b9a">手続：「相続時精算課税選択届出書」を納税地の所轄税務署長に提出（申告期間内）</text>


  <!-- ===== SECTION 3: 改正2 土地・建物の被災特例 ===== -->
  <rect x="710" y="660" width="660" height="700" rx="16" fill="#fff" filter="url(#shadow)"/>
  <rect x="710" y="660" width="660" height="50" rx="16" fill="#004d40"/>
  <rect x="710" y="685" width="660" height="25" fill="#004d40"/>
  <rect x="725" y="672" width="90" height="28" rx="6" fill="#ffab00"/>
  <text x="770" y="692" text-anchor="middle" fill="#1a237e" font-size="14" font-weight="bold">改正2</text>
  <text x="1100" y="692" text-anchor="middle" fill="#fff" font-size="18" font-weight="bold">精算課税 ─ 土地・建物の被災価額再計算特例</text>

  <!-- 概要 -->
  <rect x="730" y="725" width="620" height="70" rx="10" fill="#e0f2f1" stroke="#4db6ac" stroke-width="1.5"/>
  <text x="1040" y="745" text-anchor="middle" font-size="13" font-weight="bold" fill="#004d40">【新設】贈与後に災害で被災した土地・建物の価額を再計算</text>
  <text x="1040" y="765" text-anchor="middle" font-size="12" fill="#00695c">相続税の加算価額 ＝ 贈与時の価額 ー 被災価額</text>
  <text x="1040" y="783" text-anchor="middle" font-size="11" fill="#00695c">適用：令和6年1月1日以後に発生した災害</text>

  <!-- 適用要件 -->
  <text x="740" y="820" font-size="15" font-weight="bold" fill="#004d40">■ 適用要件（すべて満たす必要あり）</text>

  <rect x="740" y="835" width="580" height="180" rx="10" fill="#f1f8e9" stroke="#aed581" stroke-width="1.5"/>

  <text x="760" y="860" font-size="13" fill="#33691e" font-weight="bold">❶ 対象者</text>
  <text x="830" y="860" font-size="12" fill="#333">相続時精算課税適用者であること</text>

  <text x="760" y="888" font-size="13" fill="#33691e" font-weight="bold">❷ 対象財産</text>
  <text x="850" y="888" font-size="12" fill="#333">特定贈与者から贈与により取得した土地又は建物</text>

  <text x="760" y="916" font-size="13" fill="#33691e" font-weight="bold">❸ 被災時期</text>
  <text x="850" y="916" font-size="12" fill="#333">贈与日〜相続税申告書提出期限までの間</text>

  <text x="760" y="944" font-size="13" fill="#33691e" font-weight="bold">❹ 被害程度</text>
  <text x="850" y="944" font-size="12" fill="#333">被災価額 ÷ 贈与時価額（土地）又は想定価額（建物） ≧ 10%</text>

  <text x="760" y="972" font-size="13" fill="#33691e" font-weight="bold">❺ 所有継続</text>
  <text x="850" y="972" font-size="12" fill="#333">贈与日から災害発生日まで引き続き所有していること</text>

  <text x="760" y="1000" font-size="13" fill="#33691e" font-weight="bold">❻ 災害の定義</text>
  <text x="855" y="1000" font-size="12" fill="#333">震災・風水害・火災・噴火等の自然災害及び人為災害</text>

  <!-- 計算イメージ -->
  <text x="740" y="1045" font-size="15" font-weight="bold" fill="#004d40">■ 計算イメージ（建物の例）</text>

  <!-- Timeline -->
  <line x1="760" y1="1070" x2="1300" y2="1070" stroke="#004d40" stroke-width="2"/>
  <circle cx="810" cy="1070" r="6" fill="#004d40"/>
  <circle cx="1040" cy="1070" r="6" fill="#c62828"/>
  <circle cx="1260" cy="1070" r="6" fill="#004d40"/>
  <text x="810" y="1095" text-anchor="middle" font-size="12" font-weight="bold" fill="#004d40">贈与時</text>
  <text x="1040" y="1095" text-anchor="middle" font-size="12" font-weight="bold" fill="#c62828">災害発生</text>
  <text x="1260" y="1095" text-anchor="middle" font-size="12" font-weight="bold" fill="#004d40">相続時</text>

  <text x="810" y="1115" text-anchor="middle" font-size="11" fill="#333">価額Ⓐ 2,000万</text>
  <text x="1040" y="1115" text-anchor="middle" font-size="11" fill="#333">想定価額Ⓑ 1,600万</text>
  <text x="1040" y="1130" text-anchor="middle" font-size="11" fill="#c62828">被災価額Ⓒ 300万</text>

  <rect x="740" y="1145" width="580" height="55" rx="8" fill="#e0f2f1" stroke="#26a69a" stroke-width="1.5"/>
  <text x="1040" y="1165" text-anchor="middle" font-size="13" font-weight="bold" fill="#004d40">被害判定： Ⓒ300万 ÷ Ⓑ1,600万 = 18.75% ≧ 10% → 適用可</text>
  <text x="1040" y="1185" text-anchor="middle" font-size="13" font-weight="bold" fill="#c62828">加算価額： Ⓐ2,000万 ー Ⓒ300万 ＝ 1,700万円</text>

  <!-- 手続 -->
  <text x="740" y="1225" font-size="15" font-weight="bold" fill="#004d40">■ 手続</text>
  <rect x="740" y="1240" width="580" height="70" rx="8" fill="#fce4ec" stroke="#ef9a9a" stroke-width="1"/>
  <text x="1040" y="1260" text-anchor="middle" font-size="12" fill="#880e4f">・災害発生日から3年以内に申請書＋り災証明書等を所轄税務署長に提出</text>
  <text x="1040" y="1278" text-anchor="middle" font-size="12" fill="#880e4f">・承認後に保険金等で被災価額に異動 → 遅滞なく届出書を提出</text>
  <text x="1040" y="1296" text-anchor="middle" font-size="12" fill="#880e4f">・災害減免法の適用を受ける（受けた）場合は本特例の適用不可</text>


  <!-- ===== SECTION 4: 改正3・4 暦年課税の加算期間延長 ===== -->
  <rect x="30" y="1390" width="1340" height="750" rx="16" fill="#fff" filter="url(#shadow)"/>
  <rect x="30" y="1390" width="1340" height="50" rx="16" fill="#bf360c"/>
  <rect x="30" y="1415" width="1340" height="25" fill="#bf360c"/>
  <rect x="45" y="1402" width="130" height="28" rx="6" fill="#ffab00"/>
  <text x="110" y="1422" text-anchor="middle" fill="#1a237e" font-size="14" font-weight="bold">改正3・4</text>
  <text x="730" y="1422" text-anchor="middle" fill="#fff" font-size="20" font-weight="bold">暦年課税 ─ 生前贈与の加算対象期間等の見直し</text>

  <!-- 改正概要 -->
  <rect x="55" y="1460" width="600" height="55" rx="10" fill="#fff3e0" stroke="#ff8f00" stroke-width="1.5"/>
  <text x="355" y="1480" text-anchor="middle" font-size="14" font-weight="bold" fill="#e65100">【改正3】加算対象期間：3年 → 7年に延長</text>
  <text x="355" y="1500" text-anchor="middle" font-size="12" fill="#bf360c">相続開始前7年以内の暦年課税贈与を相続財産に加算</text>

  <rect x="685" y="1460" width="660" height="55" rx="10" fill="#fbe9e7" stroke="#ff5722" stroke-width="1.5"/>
  <text x="1015" y="1480" text-anchor="middle" font-size="14" font-weight="bold" fill="#bf360c">【改正4】延長4年間の贈与は総額100万円まで加算対象外</text>
  <text x="1015" y="1500" text-anchor="middle" font-size="12" fill="#d84315">3年超〜7年以内の贈与分は合計から100万円を控除可</text>

  <!-- タイムラインの視覚表現 -->
  <text x="700" y="1545" text-anchor="middle" font-size="16" font-weight="bold" fill="#37474f">■ 加算対象期間のイメージ（相続開始日から遡る）</text>

  <!-- Timeline bar -->
  <rect x="100" y="1570" width="1200" height="50" rx="8" fill="#eceff1" stroke="#90a4ae" stroke-width="1"/>

  <!-- 7年前〜4年前 (延長4年間) -->
  <rect x="100" y="1570" width="685" height="50" rx="8" fill="#ffe0b2" stroke="#ff9800" stroke-width="2"/>
  <text x="442" y="1593" text-anchor="middle" font-size="14" font-weight="bold" fill="#e65100">延長された4年間の贈与</text>
  <text x="442" y="1610" text-anchor="middle" font-size="12" fill="#bf360c">→ 総額100万円を控除した残額を加算</text>

  <!-- 3年以内 -->
  <rect x="785" y="1570" width="515" height="50" rx="8" fill="#ffccbc" stroke="#e64a19" stroke-width="2"/>
  <text x="1042" y="1593" text-anchor="middle" font-size="14" font-weight="bold" fill="#bf360c">相続開始前3年以内の贈与</text>
  <text x="1042" y="1610" text-anchor="middle" font-size="12" fill="#d84315">→ 全額を加算（従来どおり）</text>

  <!-- Labels -->
  <text x="100" y="1560" font-size="11" fill="#546e7a">7年前</text>
  <text x="785" y="1560" font-size="11" fill="#546e7a">3年前</text>
  <text x="1270" y="1560" font-size="11" fill="#546e7a">相続開始日</text>
  <line x1="1300" y1="1565" x2="1300" y2="1625" stroke="#c62828" stroke-width="2.5"/>

  <!-- 経過措置 -->
  <text x="700" y="1670" text-anchor="middle" font-size="16" font-weight="bold" fill="#37474f">■ 経過措置（段階的移行）</text>

  <!-- Table header -->
  <rect x="100" y="1690" width="400" height="35" rx="0" fill="#37474f"/>
  <rect x="500" y="1690" width="400" height="35" rx="0" fill="#37474f"/>
  <rect x="900" y="1690" width="400" height="35" rx="0" fill="#37474f"/>
  <text x="300" y="1713" text-anchor="middle" fill="#fff" font-size="14" font-weight="bold">贈与者の相続開始日</text>
  <text x="700" y="1713" text-anchor="middle" fill="#fff" font-size="14" font-weight="bold">加算対象となる贈与の時期</text>
  <text x="1100" y="1713" text-anchor="middle" fill="#fff" font-size="14" font-weight="bold">実質的な加算期間</text>

  <!-- Row 1 -->
  <rect x="100" y="1725" width="400" height="40" fill="#f5f5f5" stroke="#e0e0e0" stroke-width="1"/>
  <rect x="500" y="1725" width="400" height="40" fill="#f5f5f5" stroke="#e0e0e0" stroke-width="1"/>
  <rect x="900" y="1725" width="400" height="40" fill="#f5f5f5" stroke="#e0e0e0" stroke-width="1"/>
  <text x="300" y="1750" text-anchor="middle" font-size="13" fill="#333">〜令和8年12月31日</text>
  <text x="700" y="1750" text-anchor="middle" font-size="13" fill="#333">相続開始前3年間</text>
  <text x="1100" y="1750" text-anchor="middle" font-size="13" font-weight="bold" fill="#1565c0">3年（従来通り）</text>

  <!-- Row 2 -->
  <rect x="100" y="1765" width="400" height="40" fill="#fff" stroke="#e0e0e0" stroke-width="1"/>
  <rect x="500" y="1765" width="400" height="40" fill="#fff" stroke="#e0e0e0" stroke-width="1"/>
  <rect x="900" y="1765" width="400" height="40" fill="#fff" stroke="#e0e0e0" stroke-width="1"/>
  <text x="300" y="1790" text-anchor="middle" font-size="13" fill="#333">令和9年1月1日〜令和12年12月31日</text>
  <text x="700" y="1790" text-anchor="middle" font-size="13" fill="#333">令和6年1月1日〜相続開始日</text>
  <text x="1100" y="1790" text-anchor="middle" font-size="13" font-weight="bold" fill="#e65100">3年超〜7年未満（段階的拡大）</text>

  <!-- Row 3 -->
  <rect x="100" y="1805" width="400" height="40" fill="#fff3e0" stroke="#e0e0e0" stroke-width="1"/>
  <rect x="500" y="1805" width="400" height="40" fill="#fff3e0" stroke="#e0e0e0" stroke-width="1"/>
  <rect x="900" y="1805" width="400" height="40" fill="#fff3e0" stroke="#e0e0e0" stroke-width="1"/>
  <text x="300" y="1830" text-anchor="middle" font-size="13" font-weight="bold" fill="#bf360c">令和13年1月1日〜</text>
  <text x="700" y="1830" text-anchor="middle" font-size="13" font-weight="bold" fill="#bf360c">相続開始前7年間</text>
  <text x="1100" y="1830" text-anchor="middle" font-size="13" font-weight="bold" fill="#c62828">7年（完全移行）</text>

  <!-- 具体例 -->
  <text x="700" y="1885" text-anchor="middle" font-size="16" font-weight="bold" fill="#37474f">■ 具体的計算例（令和10年4月1日相続開始の場合）</text>

  <rect x="55" y="1905" width="1290" height="210" rx="12" fill="#fafafa" stroke="#bdbdbd" stroke-width="1.5"/>

  <text x="80" y="1935" font-size="14" font-weight="bold" fill="#37474f">前提：加算対象期間は令和6年1月1日〜令和10年4月1日（相続開始日）</text>
  <text x="80" y="1958" font-size="13" fill="#333">　　　①R5.4（200万）→ 令和5年のため対象外　　②R6.3（200万）→ 対象（3年超）　　③R7.3（100万）→ 対象（3年超）</text>
  <text x="80" y="1978" font-size="13" fill="#333">　　　④R7.5（100万）→ 対象（3年以内）　　　　⑤R8.5（200万）→ 対象（3年以内）</text>

  <line x1="80" y1="1995" x2="1310" y2="1995" stroke="#bdbdbd" stroke-width="1"/>

  <text x="80" y="2020" font-size="14" font-weight="bold" fill="#1565c0">長男の加算額：</text>
  <text x="80" y="2042" font-size="13" fill="#1a237e">　〔3年超〕（②200万＋③100万）ー 100万 ＝ 200万　＋　〔3年以内〕④100万＋⑤200万 ＝ 300万</text>
  <text x="80" y="2062" font-size="14" font-weight="bold" fill="#c62828">　合計加算額 ＝ 500万円</text>

  <text x="80" y="2088" font-size="14" font-weight="bold" fill="#1565c0">長女の加算額：</text>
  <text x="80" y="2108" font-size="13" fill="#1a237e">　〔3年超〕（②150万＋③300万）ー 100万 ＝ 350万　＋　〔3年以内〕④200万＋⑤200万 ＝ 400万</text>
  <text x="80" y="2128" font-size="14" font-weight="bold" fill="#c62828">　合計加算額 ＝ 750万円</text>


  <!-- ===== SECTION 5: 全体比較表 ===== -->
  <rect x="30" y="2170" width="1340" height="580" rx="16" fill="#fff" filter="url(#shadow)"/>
  <rect x="30" y="2170" width="1340" height="50" rx="16" fill="#263238"/>
  <rect x="30" y="2195" width="1340" height="25" fill="#263238"/>
  <text x="700" y="2202" text-anchor="middle" fill="#fff" font-size="20" font-weight="bold">総合比較 ─ 相続時精算課税 vs 暦年課税（改正後）</text>

  <!-- Table -->
  <!-- Header -->
  <rect x="55" y="2240" width="280" height="40" fill="#37474f"/>
  <rect x="335" y="2240" width="480" height="40" fill="#1a237e"/>
  <rect x="815" y="2240" width="530" height="40" fill="#bf360c"/>
  <text x="195" y="2265" text-anchor="middle" fill="#fff" font-size="14" font-weight="bold">項目</text>
  <text x="575" y="2265" text-anchor="middle" fill="#fff" font-size="14" font-weight="bold">相続時精算課税（改正後）</text>
  <text x="1080" y="2265" text-anchor="middle" fill="#fff" font-size="14" font-weight="bold">暦年課税（改正後）</text>

  <!-- Row: 基礎控除 -->
  <rect x="55" y="2280" width="280" height="50" fill="#eceff1" stroke="#cfd8dc" stroke-width="1"/>
  <rect x="335" y="2280" width="480" height="50" fill="#e8eaf6" stroke="#c5cae9" stroke-width="1"/>
  <rect x="815" y="2280" width="530" height="50" fill="#fff3e0" stroke="#ffe0b2" stroke-width="1"/>
  <text x="195" y="2310" text-anchor="middle" font-size="13" font-weight="bold" fill="#333">贈与税の基礎控除</text>
  <text x="575" y="2300" text-anchor="middle" font-size="13" fill="#1a237e" font-weight="bold">年110万円（新設）</text>
  <text x="575" y="2320" text-anchor="middle" font-size="11" fill="#3949ab">特定贈与者ごとに按分</text>
  <text x="1080" y="2310" text-anchor="middle" font-size="13" fill="#bf360c" font-weight="bold">年110万円（従来通り）</text>

  <!-- Row: 特別控除 -->
  <rect x="55" y="2330" width="280" height="50" fill="#f5f5f5" stroke="#cfd8dc" stroke-width="1"/>
  <rect x="335" y="2330" width="480" height="50" fill="#f5f5f5" stroke="#c5cae9" stroke-width="1"/>
  <rect x="815" y="2330" width="530" height="50" fill="#f5f5f5" stroke="#ffe0b2" stroke-width="1"/>
  <text x="195" y="2360" text-anchor="middle" font-size="13" font-weight="bold" fill="#333">特別控除</text>
  <text x="575" y="2360" text-anchor="middle" font-size="13" fill="#1a237e">累積2,500万円（基礎控除後）</text>
  <text x="1080" y="2360" text-anchor="middle" font-size="13" fill="#bf360c">なし</text>

  <!-- Row: 税率 -->
  <rect x="55" y="2380" width="280" height="50" fill="#eceff1" stroke="#cfd8dc" stroke-width="1"/>
  <rect x="335" y="2380" width="480" height="50" fill="#e8eaf6" stroke="#c5cae9" stroke-width="1"/>
  <rect x="815" y="2380" width="530" height="50" fill="#fff3e0" stroke="#ffe0b2" stroke-width="1"/>
  <text x="195" y="2410" text-anchor="middle" font-size="13" font-weight="bold" fill="#333">贈与税率</text>
  <text x="575" y="2410" text-anchor="middle" font-size="13" fill="#1a237e">一律20%</text>
  <text x="1080" y="2410" text-anchor="middle" font-size="13" fill="#bf360c">累進税率（10%〜55%）</text>

  <!-- Row: 相続加算期間 -->
  <rect x="55" y="2430" width="280" height="60" fill="#f5f5f5" stroke="#cfd8dc" stroke-width="1"/>
  <rect x="335" y="2430" width="480" height="60" fill="#f5f5f5" stroke="#c5cae9" stroke-width="1"/>
  <rect x="815" y="2430" width="530" height="60" fill="#f5f5f5" stroke="#ffe0b2" stroke-width="1"/>
  <text x="195" y="2455" text-anchor="middle" font-size="13" font-weight="bold" fill="#333">相続税への加算</text>
  <text x="195" y="2475" text-anchor="middle" font-size="13" font-weight="bold" fill="#333">対象期間</text>
  <text x="575" y="2455" text-anchor="middle" font-size="13" fill="#1a237e" font-weight="bold">選択後のすべての贈与</text>
  <text x="575" y="2475" text-anchor="middle" font-size="11" fill="#3949ab">（ただし基礎控除後の残額のみ）</text>
  <text x="1080" y="2455" text-anchor="middle" font-size="13" fill="#bf360c" font-weight="bold">相続開始前7年以内（3年→7年に延長）</text>
  <text x="1080" y="2475" text-anchor="middle" font-size="11" fill="#d84315">（延長4年間は100万円控除あり）</text>

  <!-- Row: 加算額 -->
  <rect x="55" y="2490" width="280" height="50" fill="#eceff1" stroke="#cfd8dc" stroke-width="1"/>
  <rect x="335" y="2490" width="480" height="50" fill="#e8eaf6" stroke="#c5cae9" stroke-width="1"/>
  <rect x="815" y="2490" width="530" height="50" fill="#fff3e0" stroke="#ffe0b2" stroke-width="1"/>
  <text x="195" y="2520" text-anchor="middle" font-size="13" font-weight="bold" fill="#333">加算時の評価額</text>
  <text x="575" y="2510" text-anchor="middle" font-size="13" fill="#1a237e">贈与時の価額ー基礎控除110万円</text>
  <text x="575" y="2530" text-anchor="middle" font-size="11" fill="#3949ab">（被災特例適用時はさらに被災価額を控除）</text>
  <text x="1080" y="2520" text-anchor="middle" font-size="13" fill="#bf360c">贈与時の価額（そのまま）</text>

  <!-- Row: 撤回可否 -->
  <rect x="55" y="2540" width="280" height="40" fill="#f5f5f5" stroke="#cfd8dc" stroke-width="1"/>
  <rect x="335" y="2540" width="480" height="40" fill="#f5f5f5" stroke="#c5cae9" stroke-width="1"/>
  <rect x="815" y="2540" width="530" height="40" fill="#f5f5f5" stroke="#ffe0b2" stroke-width="1"/>
  <text x="195" y="2565" text-anchor="middle" font-size="13" font-weight="bold" fill="#333">方式の変更</text>
  <text x="575" y="2565" text-anchor="middle" font-size="13" fill="#c62828" font-weight="bold">不可（不可逆）</text>
  <text x="1080" y="2565" text-anchor="middle" font-size="13" fill="#2e7d32" font-weight="bold">デフォルト（届出不要）</text>

  <!-- Row: 改正メリット -->
  <rect x="55" y="2580" width="280" height="60" fill="#eceff1" stroke="#cfd8dc" stroke-width="1"/>
  <rect x="335" y="2580" width="480" height="60" fill="#e8eaf6" stroke="#c5cae9" stroke-width="1"/>
  <rect x="815" y="2580" width="530" height="60" fill="#fff3e0" stroke="#ffe0b2" stroke-width="1"/>
  <text x="195" y="2610" text-anchor="middle" font-size="13" font-weight="bold" fill="#333">改正による</text>
  <text x="195" y="2630" text-anchor="middle" font-size="13" font-weight="bold" fill="#333">主な影響</text>
  <text x="575" y="2605" text-anchor="middle" font-size="12" fill="#2e7d32" font-weight="bold">✓ 基礎控除で少額贈与が有利に</text>
  <text x="575" y="2625" text-anchor="middle" font-size="12" fill="#2e7d32" font-weight="bold">✓ 被災時の価額再計算で負担軽減</text>
  <text x="575" y="2640" text-anchor="middle" font-size="12" fill="#2e7d32" font-weight="bold">✓ 110万以下は申告不要</text>
  <text x="1080" y="2605" text-anchor="middle" font-size="12" fill="#c62828" font-weight="bold">✗ 加算期間延長で相続税負担増</text>
  <text x="1080" y="2625" text-anchor="middle" font-size="12" fill="#e65100">　ただし延長4年分は100万円控除</text>
  <text x="1080" y="2640" text-anchor="middle" font-size="12" fill="#e65100">　令和13年以降に完全適用</text>

  <!-- Footer -->
  <rect x="55" y="2670" width="1290" height="60" rx="10" fill="#eceff1" stroke="#90a4ae" stroke-width="1"/>
  <text x="700" y="2690" text-anchor="middle" font-size="12" fill="#546e7a">出典：国税庁「令和５年度 相続税及び贈与税の税制改正のあらまし」（令和5年6月発行）・令和5年4月1日現在の法令に基づく</text>
  <text x="700" y="2710" text-anchor="middle" font-size="12" fill="#546e7a">施行日：令和6年1月1日 ｜ 本図は改正1〜4の全体構造を視覚的に整理したものです</text>
  <text x="700" y="2730" text-anchor="middle" font-size="11" fill="#78909c">※ 個別の税務判断については、税理士等の専門家又は最寄りの税務署にご相談ください</text>

  <!-- 改正番号のバッジ群 -->
  <rect x="55" y="2755" width="90" height="25" rx="5" fill="#ffab00"/>
  <text x="100" y="2773" text-anchor="middle" font-size="11" font-weight="bold" fill="#1a237e">改正1</text>
  <text x="165" y="2773" font-size="11" fill="#333">精算課税の基礎控除創設</text>

  <rect x="370" y="2755" width="90" height="25" rx="5" fill="#66bb6a"/>
  <text x="415" y="2773" text-anchor="middle" font-size="11" font-weight="bold" fill="#fff">改正2</text>
  <text x="480" y="2773" font-size="11" fill="#333">被災土地・建物の価額再計算</text>

  <rect x="720" y="2755" width="90" height="25" rx="5" fill="#ff7043"/>
  <text x="765" y="2773" text-anchor="middle" font-size="11" font-weight="bold" fill="#fff">改正3</text>
  <text x="830" y="2773" font-size="11" fill="#333">加算期間3年→7年延長</text>

  <rect x="1050" y="2755" width="90" height="25" rx="5" fill="#ef5350"/>
  <text x="1095" y="2773" text-anchor="middle" font-size="11" font-weight="bold" fill="#fff">改正4</text>
  <text x="1160" y="2773" font-size="11" fill="#333">延長4年間の100万円控除</text>

</svg>