<svg xmlns="http://www.w3.org/2000/svg" viewBox="0 0 1400 2850" font-family="'Noto Serif JP','Georgia',serif">
<defs>
  <linearGradient id="headerGrad" x1="0" y1="0" x2="1" y2="0">
    <stop offset="0%" stop-color="#1a3a5c"/>
    <stop offset="100%" stop-color="#2c5f8a"/>
  </linearGradient>
  <linearGradient id="kenpoGrad" x1="0" y1="0" x2="1" y2="0">
    <stop offset="0%" stop-color="#1a365d"/>
    <stop offset="100%" stop-color="#2a4a7f"/>
  </linearGradient>
  <linearGradient id="treatyGrad" x1="0" y1="0" x2="1" y2="0">
    <stop offset="0%" stop-color="#7b341e"/>
    <stop offset="100%" stop-color="#c05621"/>
  </linearGradient>
  <linearGradient id="lawGrad" x1="0" y1="0" x2="1" y2="0">
    <stop offset="0%" stop-color="#2c5f8a"/>
    <stop offset="100%" stop-color="#3182ce"/>
  </linearGradient>
  <linearGradient id="seireiGrad" x1="0" y1="0" x2="1" y2="0">
    <stop offset="0%" stop-color="#2f855a"/>
    <stop offset="100%" stop-color="#38a169"/>
  </linearGradient>
  <linearGradient id="kisokuGrad" x1="0" y1="0" x2="1" y2="0">
    <stop offset="0%" stop-color="#6b46c1"/>
    <stop offset="100%" stop-color="#805ad5"/>
  </linearGradient>
  <linearGradient id="tsutatsuGrad" x1="0" y1="0" x2="1" y2="0">
    <stop offset="0%" stop-color="#b7791f"/>
    <stop offset="100%" stop-color="#d69e2e"/>
  </linearGradient>
  <linearGradient id="beppyoGrad" x1="0" y1="0" x2="1" y2="0">
    <stop offset="0%" stop-color="#718096"/>
    <stop offset="100%" stop-color="#a0aec0"/>
  </linearGradient>
  <linearGradient id="flowGrad" x1="0" y1="0" x2="0" y2="1">
    <stop offset="0%" stop-color="#1a3a5c"/>
    <stop offset="100%" stop-color="#2c5f8a"/>
  </linearGradient>
  <linearGradient id="alertGrad" x1="0" y1="0" x2="1" y2="0">
    <stop offset="0%" stop-color="#c53030"/>
    <stop offset="100%" stop-color="#e53e3e"/>
  </linearGradient>
  <filter id="shadow">
    <feDropShadow dx="2" dy="3" stdDeviation="4" flood-opacity="0.12"/>
  </filter>
  <filter id="shadowLight">
    <feDropShadow dx="1" dy="2" stdDeviation="2" flood-opacity="0.08"/>
  </filter>
  <marker id="arrowDown" markerWidth="12" markerHeight="8" refX="6" refY="4" orient="auto">
    <polygon points="0 0, 12 4, 0 8" fill="#4a5568"/>
  </marker>
  <marker id="arrowOrange" markerWidth="12" markerHeight="8" refX="6" refY="4" orient="auto">
    <polygon points="0 0, 12 4, 0 8" fill="#c05621"/>
  </marker>
  <marker id="arrowBlue" markerWidth="12" markerHeight="8" refX="6" refY="4" orient="auto">
    <polygon points="0 0, 12 4, 0 8" fill="#2c5f8a"/>
  </marker>
  <marker id="arrowGreen" markerWidth="12" markerHeight="8" refX="6" refY="4" orient="auto">
    <polygon points="0 0, 12 4, 0 8" fill="#38a169"/>
  </marker>
  <marker id="arrowRed" markerWidth="12" markerHeight="8" refX="6" refY="4" orient="auto">
    <polygon points="0 0, 12 4, 0 8" fill="#c53030"/>
  </marker>
</defs>

<!-- Background -->
<rect width="1400" height="2850" fill="#f7fafc"/>

<!-- ================================================================ -->
<!-- HEADER -->
<!-- ================================================================ -->
<rect width="1400" height="90" rx="0" fill="url(#headerGrad)"/>
<text x="700" y="38" text-anchor="middle" fill="white" font-size="28" font-weight="800">みなし外国税額控除（Tax Sparing）── 条文構造の全体像</text>
<text x="700" y="65" text-anchor="middle" fill="#a8d8ea" font-size="14">中国からの使用料に対する tax sparing credit の憲法から別表までの法的根拠チェーン</text>
<text x="700" y="82" text-anchor="middle" fill="#a0aec0" font-size="11">jplawdb4 DR成果物 | 2026-03-08</text>

<!-- ================================================================ -->
<!-- ALERT BOX: 専用法が存在しない -->
<!-- ================================================================ -->
<rect x="60" y="110" width="1280" height="56" rx="8" fill="#fff5f5" stroke="#fc8181" stroke-width="2" filter="url(#shadowLight)"/>
<rect x="60" y="110" width="8" height="56" rx="4" fill="#c53030"/>
<text x="90" y="135" fill="#c53030" font-size="16" font-weight="800">★ 構造的特徴</text>
<text x="90" y="155" fill="#742a2a" font-size="12">みなし外国税額控除には専用の国内法が存在しない。条約の自動執行力（憲法98条2項）に完全依拠し、国内法は「受け皿」として機能するのみ。</text>

<!-- ================================================================ -->
<!-- LAYER 1: 憲法 -->
<!-- ================================================================ -->
<text x="60" y="210" fill="#1a365d" font-size="20" font-weight="700">第1層 ── 憲法（最高法規）</text>
<line x1="60" y1="218" x2="350" y2="218" stroke="#c05621" stroke-width="3"/>

<!-- 憲法30条 -->
<rect x="60" y="235" width="400" height="105" rx="8" fill="white" stroke="#e2e8f0" stroke-width="2" filter="url(#shadow)"/>
<rect x="60" y="235" width="400" height="34" rx="8" fill="url(#kenpoGrad)"/>
<rect x="60" y="261" width="400" height="8" fill="#1a365d"/>
<text x="260" y="258" text-anchor="middle" fill="white" font-size="13" font-weight="700">憲法30条（納税義務）</text>
<text x="80" y="290" fill="#4a5568" font-size="11">「国民は、法律の定めるところにより、</text>
<text x="80" y="306" fill="#4a5568" font-size="11">　納税の義務を負ふ」</text>
<text x="80" y="328" fill="#718096" font-size="10">→ 課税には法律上の根拠が必要</text>

<!-- 憲法84条 -->
<rect x="500" y="235" width="400" height="105" rx="8" fill="white" stroke="#e2e8f0" stroke-width="2" filter="url(#shadow)"/>
<rect x="500" y="235" width="400" height="34" rx="8" fill="url(#kenpoGrad)"/>
<rect x="500" y="261" width="400" height="8" fill="#1a365d"/>
<text x="700" y="258" text-anchor="middle" fill="white" font-size="13" font-weight="700">憲法84条（租税法律主義）</text>
<text x="520" y="290" fill="#4a5568" font-size="11">「あらたに租税を課し、又は現行の租税を</text>
<text x="520" y="306" fill="#4a5568" font-size="11">　変更するには、法律又は法律の定める</text>
<text x="520" y="322" fill="#4a5568" font-size="11">　条件によることを必要とする」</text>

<!-- 憲法98条2項（★最重要） -->
<rect x="940" y="235" width="400" height="105" rx="8" fill="#fff5f5" stroke="#fc8181" stroke-width="2.5" filter="url(#shadow)"/>
<rect x="940" y="235" width="400" height="34" rx="8" fill="url(#kenpoGrad)"/>
<rect x="940" y="261" width="400" height="8" fill="#1a365d"/>
<text x="1140" y="258" text-anchor="middle" fill="white" font-size="13" font-weight="700">★ 憲法98条2項（条約遵守義務）</text>
<text x="960" y="290" fill="#4a5568" font-size="11">「日本国が締結した条約及び確立された</text>
<text x="960" y="306" fill="#4a5568" font-size="11">　国際法規は、これを誠実に遵守する</text>
<text x="960" y="322" fill="#4a5568" font-size="11">　ことを必要とする」</text>
<text x="960" y="338" fill="#c53030" font-size="10" font-weight="700">→ 条約の国内法的効力＝自動執行力の根拠</text>

<!-- Arrow from 98(2) down to Treaty -->
<line x1="1140" y1="340" x2="1140" y2="370" stroke="#c05621" stroke-width="2.5" marker-end="url(#arrowOrange)"/>
<line x1="1140" y1="370" x2="700" y2="370" stroke="#c05621" stroke-width="2.5"/>
<line x1="700" y1="370" x2="700" y2="395" stroke="#c05621" stroke-width="2.5" marker-end="url(#arrowOrange)"/>
<text x="920" y="385" fill="#c05621" font-size="11" font-weight="700">条約に国内法的効力を付与</text>

<!-- ================================================================ -->
<!-- LAYER 2: 日中租税条約 -->
<!-- ================================================================ -->
<text x="60" y="420" fill="#7b341e" font-size="20" font-weight="700">第2層 ── 日中租税条約（1983年署名・1984年発効）</text>
<line x1="60" y1="428" x2="520" y2="428" stroke="#c05621" stroke-width="3"/>

<!-- 第12条 -->
<rect x="60" y="445" width="400" height="130" rx="8" fill="white" stroke="#e2e8f0" stroke-width="2" filter="url(#shadow)"/>
<rect x="60" y="445" width="400" height="34" rx="8" fill="url(#treatyGrad)"/>
<rect x="60" y="471" width="400" height="8" fill="#7b341e"/>
<text x="260" y="468" text-anchor="middle" fill="white" font-size="13" font-weight="700">第12条（使用料）</text>
<text x="80" y="500" fill="#4a5568" font-size="11">2項：使用料の源泉地国課税上限</text>
<rect x="80" y="510" width="120" height="30" rx="6" fill="#fff5f5" stroke="#fc8181" stroke-width="1.5"/>
<text x="140" y="531" text-anchor="middle" fill="#c53030" font-size="18" font-weight="800">10%</text>
<text x="220" y="531" fill="#4a5568" font-size="12">← 中国が課す実際の源泉税率</text>
<text x="80" y="562" fill="#718096" font-size="10">中国の使用料源泉税率は条約上限と一致（10%）</text>

<!-- 第23条3項(c) ★ -->
<rect x="500" y="445" width="460" height="130" rx="8" fill="#fffaf0" stroke="#ed8936" stroke-width="2.5" filter="url(#shadow)"/>
<rect x="500" y="445" width="460" height="34" rx="8" fill="url(#treatyGrad)"/>
<rect x="500" y="471" width="460" height="8" fill="#7b341e"/>
<text x="730" y="468" text-anchor="middle" fill="white" font-size="13" font-weight="700">★ 第23条3項(c)（みなし外国税額控除）</text>
<text x="520" y="500" fill="#4a5568" font-size="11">使用料について：</text>
<text x="520" y="520" fill="#7b341e" font-size="13" font-weight="700">「20%の税率で租税が課されたものとみなす」</text>
<rect x="520" y="535" width="120" height="30" rx="6" fill="#fefcbf" stroke="#d69e2e" stroke-width="1.5"/>
<text x="580" y="556" text-anchor="middle" fill="#744210" font-size="18" font-weight="800">20%</text>
<text x="660" y="556" fill="#744210" font-size="12" font-weight="700">← みなし税率（実際の2倍）</text>

<!-- 第23条4項 -->
<rect x="1000" y="445" width="340" height="130" rx="8" fill="white" stroke="#e2e8f0" stroke-width="2" filter="url(#shadow)"/>
<rect x="1000" y="445" width="340" height="34" rx="8" fill="url(#treatyGrad)"/>
<rect x="1000" y="471" width="340" height="8" fill="#7b341e"/>
<text x="1170" y="468" text-anchor="middle" fill="white" font-size="13" font-weight="700">第23条4項（拡張条項）</text>
<text x="1020" y="500" fill="#4a5568" font-size="11">中国が奨励法令で免税・軽減した</text>
<text x="1020" y="516" fill="#4a5568" font-size="11">場合にも、3項のみなし税率を適用</text>
<text x="1020" y="540" fill="#718096" font-size="10">catch-all条項：両国の権限ある当局が</text>
<text x="1020" y="556" fill="#718096" font-size="10">合意するその他の規定にも適用</text>

<!-- Arrow down from Treaty to Law -->
<line x1="700" y1="575" x2="700" y2="620" stroke="#2c5f8a" stroke-width="2.5" marker-end="url(#arrowBlue)"/>
<text x="715" y="600" fill="#2c5f8a" font-size="11" font-weight="700">「みなし納付」を注入</text>

<!-- ================================================================ -->
<!-- LAYER 3: 法人税法 -->
<!-- ================================================================ -->
<text x="60" y="648" fill="#2c5f8a" font-size="20" font-weight="700">第3層 ── 法人税法</text>
<line x1="60" y1="656" x2="250" y2="656" stroke="#c05621" stroke-width="3"/>

<rect x="60" y="670" width="880" height="120" rx="8" fill="white" stroke="#e2e8f0" stroke-width="2" filter="url(#shadow)"/>
<rect x="60" y="670" width="880" height="34" rx="8" fill="url(#lawGrad)"/>
<rect x="60" y="696" width="880" height="8" fill="#2c5f8a"/>
<text x="500" y="693" text-anchor="middle" fill="white" font-size="14" font-weight="700">法人税法69条1項（外国税額の控除）</text>
<text x="80" y="725" fill="#4a5568" font-size="12">「内国法人が各事業年度において外国法人税を<tspan fill="#1a365d" font-weight="700">納付する</tspan>こととなる場合には…</text>
<text x="80" y="745" fill="#4a5568" font-size="12">　当該事業年度の所得に対する法人税の額…から<tspan fill="#1a365d" font-weight="700">控除する</tspan>」</text>
<text x="80" y="775" fill="#c53030" font-size="11" font-weight="700">★ 条文上「納付」とあるが、条約によるみなし納付額も含まれる（憲法98条2項 → 条約優位）</text>

<!-- Key insight box -->
<rect x="980" y="670" width="360" height="120" rx="8" fill="#ebf8ff" stroke="#63b3ed" stroke-width="1.5" filter="url(#shadowLight)"/>
<text x="1000" y="700" fill="#2b6cb0" font-size="13" font-weight="700">法的メカニズム</text>
<text x="1000" y="722" fill="#4a5568" font-size="11">法法69条の「納付」の文言に</text>
<text x="1000" y="738" fill="#4a5568" font-size="11">条約が「みなし納付」概念を注入</text>
<line x1="1000" y1="748" x2="1320" y2="748" stroke="#e2e8f0" stroke-width="1"/>
<text x="1000" y="768" fill="#2b6cb0" font-size="11" font-weight="600">条約 → 法律の文言を拡張解釈</text>
<text x="1000" y="784" fill="#718096" font-size="10">（専用の国内法規定は不要）</text>

<!-- Arrow down -->
<line x1="500" y1="790" x2="500" y2="835" stroke="#38a169" stroke-width="2.5" marker-end="url(#arrowGreen)"/>

<!-- ================================================================ -->
<!-- LAYER 4: 施行令 -->
<!-- ================================================================ -->
<text x="60" y="860" fill="#2f855a" font-size="20" font-weight="700">第4層 ── 法人税法施行令</text>
<line x1="60" y1="868" x2="310" y2="868" stroke="#c05621" stroke-width="3"/>

<!-- 法令141条 -->
<rect x="60" y="885" width="370" height="100" rx="8" fill="white" stroke="#e2e8f0" stroke-width="2" filter="url(#shadow)"/>
<rect x="60" y="885" width="370" height="34" rx="8" fill="url(#seireiGrad)"/>
<rect x="60" y="911" width="370" height="8" fill="#2f855a"/>
<text x="245" y="908" text-anchor="middle" fill="white" font-size="13" font-weight="700">法令141条（外国法人税の範囲）</text>
<text x="80" y="940" fill="#4a5568" font-size="11">外国法人税の定義規定</text>
<text x="80" y="960" fill="#718096" font-size="10">みなし納付は条約の自動執行力により</text>
<text x="80" y="976" fill="#718096" font-size="10">外国法人税として扱われる</text>

<!-- 法令142条 -->
<rect x="460" y="885" width="370" height="100" rx="8" fill="white" stroke="#e2e8f0" stroke-width="2" filter="url(#shadow)"/>
<rect x="460" y="885" width="370" height="34" rx="8" fill="url(#seireiGrad)"/>
<rect x="460" y="911" width="370" height="8" fill="#2f855a"/>
<text x="645" y="908" text-anchor="middle" fill="white" font-size="13" font-weight="700">法令142条（控除限度額の計算）</text>
<text x="480" y="940" fill="#4a5568" font-size="11">控除限度額 ＝</text>
<text x="480" y="960" fill="#2f855a" font-size="13" font-weight="700">法人税額 ×（国外所得 ÷ 全世界所得）</text>

<!-- 法令142条の2第3項 ★ -->
<rect x="860" y="885" width="480" height="130" rx="8" fill="#f0fff4" stroke="#48bb78" stroke-width="2.5" filter="url(#shadow)"/>
<rect x="860" y="885" width="480" height="34" rx="8" fill="url(#seireiGrad)"/>
<rect x="860" y="911" width="480" height="8" fill="#2f855a"/>
<text x="1100" y="908" text-anchor="middle" fill="white" font-size="13" font-weight="700">★ 法令142条の2第3項（順序規定）</text>
<text x="880" y="940" fill="#4a5568" font-size="11" font-weight="600">みなし納付外国法人税の35%高率排除ルール</text>
<text x="880" y="962" fill="#4a5568" font-size="11">実際納付額 + みなし納付額の合計が35%超の場合：</text>
<rect x="880" y="970" width="440" height="36" rx="6" fill="#fff5f5" stroke="#fc8181" stroke-width="1.5"/>
<text x="1100" y="994" text-anchor="middle" fill="#c53030" font-size="13" font-weight="700">みなし納付額を「先に」除外する（濫用防止）</text>

<!-- Arrow down -->
<line x1="500" y1="1015" x2="500" y2="1055" stroke="#805ad5" stroke-width="2.5" marker-end="url(#arrowDown)"/>

<!-- ================================================================ -->
<!-- LAYER 5: 実特法施行規則 -->
<!-- ================================================================ -->
<text x="60" y="1080" fill="#6b46c1" font-size="20" font-weight="700">第5層 ── 租税条約実施特例法施行規則</text>
<line x1="60" y1="1088" x2="430" y2="1088" stroke="#c05621" stroke-width="3"/>

<rect x="60" y="1105" width="580" height="100" rx="8" fill="white" stroke="#e2e8f0" stroke-width="2" filter="url(#shadow)"/>
<rect x="60" y="1105" width="580" height="34" rx="8" fill="url(#kisokuGrad)"/>
<rect x="60" y="1131" width="580" height="8" fill="#6b46c1"/>
<text x="350" y="1128" text-anchor="middle" fill="white" font-size="13" font-weight="700">実特法施行規則1条9号（みなし外国税額の定義）</text>
<text x="80" y="1160" fill="#4a5568" font-size="11">「租税条約の規定により外国法人税を</text>
<text x="80" y="1176" fill="#6b46c1" font-size="12" font-weight="700">　納付したものとみなされる額」</text>
<text x="80" y="1196" fill="#718096" font-size="10">→ みなし外国税額の法令上の定義規定</text>

<rect x="680" y="1105" width="580" height="100" rx="8" fill="white" stroke="#e2e8f0" stroke-width="2" filter="url(#shadow)"/>
<rect x="680" y="1105" width="580" height="34" rx="8" fill="url(#kisokuGrad)"/>
<rect x="680" y="1131" width="580" height="8" fill="#6b46c1"/>
<text x="970" y="1128" text-anchor="middle" fill="white" font-size="13" font-weight="700">実特法施行規則10条（申告記載要件）</text>
<text x="700" y="1160" fill="#4a5568" font-size="11">確定申告書に記載すべき事項：</text>
<text x="700" y="1178" fill="#4a5568" font-size="11">・控除を受ける金額</text>
<text x="700" y="1196" fill="#4a5568" font-size="11">・みなし納付の対象となった所得の明細</text>

<!-- Arrow down -->
<line x1="500" y1="1205" x2="500" y2="1245" stroke="#d69e2e" stroke-width="2.5" marker-end="url(#arrowDown)"/>

<!-- ================================================================ -->
<!-- LAYER 6: 通達 -->
<!-- ================================================================ -->
<text x="60" y="1270" fill="#b7791f" font-size="20" font-weight="700">第6層 ── 法人税基本通達</text>
<line x1="60" y1="1278" x2="310" y2="1278" stroke="#c05621" stroke-width="3"/>

<rect x="60" y="1295" width="880" height="100" rx="8" fill="#fffaf0" stroke="#ed8936" stroke-width="1.5" filter="url(#shadow)"/>
<rect x="60" y="1295" width="880" height="34" rx="8" fill="url(#tsutatsuGrad)"/>
<rect x="60" y="1321" width="880" height="8" fill="#b7791f"/>
<text x="500" y="1318" text-anchor="middle" fill="white" font-size="13" font-weight="700">通達16-3-21（みなし控除対象所得の取扱い）</text>
<text x="80" y="1352" fill="#4a5568" font-size="12">みなし外国税額控除の対象所得を、控除限度額計算の分子（国外所得金額）から<tspan fill="#b7791f" font-weight="700">除外しない</tspan></text>
<text x="80" y="1375" fill="#718096" font-size="11">→ これがなければ、みなし控除対象所得が国外所得から除かれ、控除限度額が縮小してしまう（不利益防止）</text>

<!-- Arrow down -->
<line x1="500" y1="1395" x2="500" y2="1435" stroke="#718096" stroke-width="2.5" marker-end="url(#arrowDown)"/>

<!-- ================================================================ -->
<!-- LAYER 7: 別表 -->
<!-- ================================================================ -->
<text x="60" y="1460" fill="#4a5568" font-size="20" font-weight="700">第7層 ── 確定申告書別表</text>
<line x1="60" y1="1468" x2="310" y2="1468" stroke="#c05621" stroke-width="3"/>

<rect x="60" y="1485" width="370" height="110" rx="8" fill="white" stroke="#e2e8f0" stroke-width="2" filter="url(#shadow)"/>
<rect x="60" y="1485" width="370" height="34" rx="8" fill="url(#beppyoGrad)"/>
<rect x="60" y="1511" width="370" height="8" fill="#718096"/>
<text x="245" y="1508" text-anchor="middle" fill="white" font-size="13" font-weight="700">別表六(二)</text>
<text x="80" y="1540" fill="#4a5568" font-size="11" font-weight="600">外国税額控除の控除限度額の計算</text>
<text x="80" y="1560" fill="#4a5568" font-size="11">1欄：みなし納付を含む外国法人税額</text>
<text x="80" y="1580" fill="#718096" font-size="10">→ 控除限度額の全体計算を行う表</text>

<rect x="460" y="1485" width="370" height="110" rx="8" fill="white" stroke="#e2e8f0" stroke-width="2" filter="url(#shadow)"/>
<rect x="460" y="1485" width="370" height="34" rx="8" fill="url(#beppyoGrad)"/>
<rect x="460" y="1511" width="370" height="8" fill="#718096"/>
<text x="645" y="1508" text-anchor="middle" fill="white" font-size="13" font-weight="700">別表六(二の二)</text>
<text x="480" y="1540" fill="#4a5568" font-size="11" font-weight="600">国外所得金額の計算</text>
<text x="480" y="1560" fill="#4a5568" font-size="11">5欄：みなし控除対象所得の取扱い</text>
<text x="480" y="1580" fill="#718096" font-size="10">→ 通達16-3-21を反映（除外しない）</text>

<rect x="860" y="1485" width="480" height="110" rx="8" fill="#f0fff4" stroke="#48bb78" stroke-width="2" filter="url(#shadow)"/>
<rect x="860" y="1485" width="480" height="34" rx="8" fill="url(#beppyoGrad)"/>
<rect x="860" y="1511" width="480" height="8" fill="#718096"/>
<text x="1100" y="1508" text-anchor="middle" fill="white" font-size="13" font-weight="700">★ 別表六(四)（みなし納付専用）</text>
<text x="880" y="1540" fill="#4a5568" font-size="11" font-weight="600">外国税額の繰越控除余裕額又は繰越控除限度超過額等の計算</text>
<text x="880" y="1562" fill="#38a169" font-size="12" font-weight="700">12〜18欄：みなし納付外国法人税額の計算明細</text>
<text x="880" y="1582" fill="#718096" font-size="10">→ みなし納付額の計算・記載が集約される専用欄</text>

<!-- ================================================================ -->
<!-- SECTION: 数値フロー -->
<!-- ================================================================ -->
<rect x="0" y="1640" width="1400" height="50" fill="url(#headerGrad)"/>
<text x="700" y="1672" text-anchor="middle" fill="white" font-size="22" font-weight="700">使用料100の数値フロー ── 中国子会社 → 日本親会社</text>

<!-- Flow diagram -->
<rect x="60" y="1720" width="1280" height="520" rx="12" fill="white" stroke="#e2e8f0" stroke-width="2" filter="url(#shadow)"/>

<!-- Step 1: 使用料支払い -->
<rect x="100" y="1740" width="300" height="70" rx="10" fill="#ebf8ff" stroke="#63b3ed" stroke-width="2"/>
<text x="250" y="1770" text-anchor="middle" fill="#2b6cb0" font-size="14" font-weight="700">中国子会社</text>
<text x="250" y="1795" text-anchor="middle" fill="#4a5568" font-size="13">使用料 100 を日本親会社へ支払い</text>

<line x1="400" y1="1775" x2="500" y2="1775" stroke="#4a5568" stroke-width="2" marker-end="url(#arrowDown)"/>

<!-- Step 2: 中国源泉税 -->
<rect x="500" y="1740" width="340" height="70" rx="10" fill="#fff5f5" stroke="#fc8181" stroke-width="2"/>
<text x="670" y="1765" text-anchor="middle" fill="#c53030" font-size="14" font-weight="700">中国で源泉徴収</text>
<text x="670" y="1795" text-anchor="middle" fill="#c53030" font-size="18" font-weight="800">100 × 10% = 10</text>

<text x="880" y="1775" fill="#718096" font-size="11" font-weight="600">← 条約12条2項の上限税率</text>

<!-- Arrow down -->
<line x1="670" y1="1810" x2="670" y2="1850" stroke="#c05621" stroke-width="2.5" marker-end="url(#arrowOrange)"/>

<!-- Step 3: 条約みなし -->
<rect x="420" y="1850" width="500" height="80" rx="10" fill="#fffaf0" stroke="#ed8936" stroke-width="2.5"/>
<text x="670" y="1878" text-anchor="middle" fill="#7b341e" font-size="14" font-weight="700">条約23条3項(c)：みなし税率適用</text>
<text x="670" y="1905" text-anchor="middle" fill="#7b341e" font-size="20" font-weight="800">100 × 20% = 20（みなし納付額）</text>
<text x="960" y="1895" fill="#718096" font-size="11" font-weight="600">← 実際の税率10%を</text>
<text x="960" y="1912" fill="#718096" font-size="11" font-weight="600">　 20%に嵩上げ</text>

<!-- Arrow down -->
<line x1="670" y1="1930" x2="670" y2="1970" stroke="#2c5f8a" stroke-width="2.5" marker-end="url(#arrowBlue)"/>

<!-- Step 4: 日本での控除計算 -->
<rect x="320" y="1970" width="700" height="110" rx="10" fill="#ebf8ff" stroke="#3182ce" stroke-width="2"/>
<text x="670" y="1998" text-anchor="middle" fill="#1a365d" font-size="14" font-weight="700">日本での外国税額控除（法法69条）</text>

<!-- 実際納付 -->
<rect x="350" y="2010" width="180" height="50" rx="6" fill="#fed7d7" stroke="#fc8181" stroke-width="1.5"/>
<text x="440" y="2030" text-anchor="middle" fill="#742a2a" font-size="11">実際納付</text>
<text x="440" y="2050" text-anchor="middle" fill="#c53030" font-size="18" font-weight="800">10</text>

<text x="548" y="2042" text-anchor="middle" fill="#1a365d" font-size="22" font-weight="800">+</text>

<!-- みなし上乗せ -->
<rect x="570" y="2010" width="180" height="50" rx="6" fill="#fefcbf" stroke="#d69e2e" stroke-width="1.5"/>
<text x="660" y="2030" text-anchor="middle" fill="#744210" font-size="11">みなし上乗せ</text>
<text x="660" y="2050" text-anchor="middle" fill="#b7791f" font-size="18" font-weight="800">10</text>

<text x="768" y="2042" text-anchor="middle" fill="#1a365d" font-size="22" font-weight="800">=</text>

<!-- 控除可能額 -->
<rect x="790" y="2010" width="200" height="50" rx="6" fill="#c6f6d5" stroke="#48bb78" stroke-width="2"/>
<text x="890" y="2030" text-anchor="middle" fill="#276749" font-size="11">控除可能額</text>
<text x="890" y="2050" text-anchor="middle" fill="#2f855a" font-size="18" font-weight="800">20</text>

<!-- Arrow down -->
<line x1="670" y1="2080" x2="670" y2="2110" stroke="#38a169" stroke-width="2.5" marker-end="url(#arrowGreen)"/>

<!-- Step 5: 結果 -->
<rect x="370" y="2110" width="600" height="110" rx="10" fill="url(#seireiGrad)" filter="url(#shadow)"/>
<text x="670" y="2140" text-anchor="middle" fill="white" font-size="15" font-weight="700">実質的効果</text>
<text x="670" y="2170" text-anchor="middle" fill="white" font-size="13">中国に実際に納付した税額は 10 だが、日本で 20 の控除を受ける</text>
<rect x="570" y="2180" width="200" height="32" rx="6" fill="white" opacity="0.9"/>
<text x="670" y="2203" text-anchor="middle" fill="#2f855a" font-size="16" font-weight="800">減税効果 = 10</text>

<!-- ================================================================ -->
<!-- SECTION: 7層の参照関係マップ -->
<!-- ================================================================ -->
<rect x="0" y="2280" width="1400" height="50" fill="url(#headerGrad)"/>
<text x="700" y="2312" text-anchor="middle" fill="white" font-size="22" font-weight="700">7層構造の参照関係 ── 各層の機能と連結</text>

<!-- Vertical chain -->
<rect x="120" y="2360" width="260" height="44" rx="22" fill="url(#kenpoGrad)" filter="url(#shadowLight)"/>
<text x="250" y="2388" text-anchor="middle" fill="white" font-size="13" font-weight="700">第1層  憲法</text>
<text x="400" y="2388" fill="#1a365d" font-size="11" font-weight="600">効力の根拠（98条2項）</text>

<line x1="250" y1="2404" x2="250" y2="2425" stroke="#4a5568" stroke-width="2" marker-end="url(#arrowDown)"/>

<rect x="120" y="2425" width="260" height="44" rx="22" fill="url(#treatyGrad)" filter="url(#shadowLight)"/>
<text x="250" y="2453" text-anchor="middle" fill="white" font-size="13" font-weight="700">第2層  租税条約</text>
<text x="400" y="2453" fill="#7b341e" font-size="11" font-weight="600">みなし控除の創設（23条3項）</text>

<line x1="250" y1="2469" x2="250" y2="2490" stroke="#4a5568" stroke-width="2" marker-end="url(#arrowDown)"/>

<rect x="120" y="2490" width="260" height="44" rx="22" fill="url(#lawGrad)" filter="url(#shadowLight)"/>
<text x="250" y="2518" text-anchor="middle" fill="white" font-size="13" font-weight="700">第3層  法人税法</text>
<text x="400" y="2518" fill="#2c5f8a" font-size="11" font-weight="600">控除メカニズム（69条）</text>

<line x1="250" y1="2534" x2="250" y2="2555" stroke="#4a5568" stroke-width="2" marker-end="url(#arrowDown)"/>

<rect x="120" y="2555" width="260" height="44" rx="22" fill="url(#seireiGrad)" filter="url(#shadowLight)"/>
<text x="250" y="2583" text-anchor="middle" fill="white" font-size="13" font-weight="700">第4層  施行令</text>
<text x="400" y="2583" fill="#2f855a" font-size="11" font-weight="600">限度額計算・順序規定（142条の2③）</text>

<line x1="250" y1="2599" x2="250" y2="2620" stroke="#4a5568" stroke-width="2" marker-end="url(#arrowDown)"/>

<rect x="120" y="2620" width="260" height="44" rx="22" fill="url(#kisokuGrad)" filter="url(#shadowLight)"/>
<text x="250" y="2648" text-anchor="middle" fill="white" font-size="13" font-weight="700">第5層  施行規則</text>
<text x="400" y="2648" fill="#6b46c1" font-size="11" font-weight="600">定義・申告要件（実特規1条9号・10条）</text>

<line x1="250" y1="2664" x2="250" y2="2685" stroke="#4a5568" stroke-width="2" marker-end="url(#arrowDown)"/>

<rect x="120" y="2685" width="260" height="44" rx="22" fill="url(#tsutatsuGrad)" filter="url(#shadowLight)"/>
<text x="250" y="2713" text-anchor="middle" fill="white" font-size="13" font-weight="700">第6層  通達</text>
<text x="400" y="2713" fill="#b7791f" font-size="11" font-weight="600">解釈補完（16-3-21）</text>

<line x1="250" y1="2729" x2="250" y2="2750" stroke="#4a5568" stroke-width="2" marker-end="url(#arrowDown)"/>

<rect x="120" y="2750" width="260" height="44" rx="22" fill="url(#beppyoGrad)" filter="url(#shadowLight)"/>
<text x="250" y="2778" text-anchor="middle" fill="white" font-size="13" font-weight="700">第7層  別表</text>
<text x="400" y="2778" fill="#718096" font-size="11" font-weight="600">計算・記載（別表六(四) 12〜18欄）</text>

<!-- Right side: functional labels -->
<rect x="700" y="2365" width="620" height="90" rx="8" fill="#fff5f5" stroke="#fc8181" stroke-width="1.5"/>
<text x="720" y="2390" fill="#c53030" font-size="13" font-weight="700">権利の創設（条約レベル）</text>
<text x="720" y="2412" fill="#4a5568" font-size="11">みなし控除の権利は条約のみが創設。</text>
<text x="720" y="2430" fill="#4a5568" font-size="11">国内法に「みなし控除を認める」という条文は存在しない。</text>
<line x1="680" y1="2410" x2="700" y2="2410" stroke="#fc8181" stroke-width="1.5" stroke-dasharray="4,3"/>

<rect x="700" y="2475" width="620" height="90" rx="8" fill="#ebf8ff" stroke="#63b3ed" stroke-width="1.5"/>
<text x="720" y="2500" fill="#2b6cb0" font-size="13" font-weight="700">受け皿としての国内法（第3〜5層）</text>
<text x="720" y="2522" fill="#4a5568" font-size="11">法法69条が「控除」の器を提供し、施行令が限度額と</text>
<text x="720" y="2540" fill="#4a5568" font-size="11">濫用防止を規定。施行規則が定義と申告要件を整備。</text>
<line x1="680" y1="2520" x2="700" y2="2520" stroke="#63b3ed" stroke-width="1.5" stroke-dasharray="4,3"/>

<rect x="700" y="2585" width="620" height="90" rx="8" fill="#fefcbf" stroke="#d69e2e" stroke-width="1.5"/>
<text x="720" y="2610" fill="#744210" font-size="13" font-weight="700">運用・実務レベル（第6〜7層）</text>
<text x="720" y="2632" fill="#4a5568" font-size="11">通達が解釈を補完し（国外所得から除外しない）、</text>
<text x="720" y="2650" fill="#4a5568" font-size="11">別表六(四)で具体的な計算・記載欄を提供。</text>
<line x1="680" y1="2630" x2="700" y2="2630" stroke="#d69e2e" stroke-width="1.5" stroke-dasharray="4,3"/>

<!-- ================================================================ -->
<!-- FOOTER -->
<!-- ================================================================ -->
<rect x="0" y="2810" width="1400" height="40" fill="url(#headerGrad)"/>
<text x="700" y="2835" text-anchor="middle" fill="#a0aec0" font-size="11">みなし外国税額控除（Tax Sparing）条文構造図 | jplawdb4 DR成果物 | 2026-03-08</text>

</svg>