<svg xmlns="http://www.w3.org/2000/svg" viewBox="0 0 1800 3000" role="img" aria-labelledby="title desc">
  <title id="title">特定同族会社の留保金課税 詳細フロー</title>
  <desc id="desc">法人税法67条と別表三一を中心に、特定同族会社の留保金課税の判定、欄9から欄21までの計算、留保控除額、3段階税率、期末配当等のタイムラインを一枚で示した図解。</desc>
  <defs>
    <linearGradient id="bg" x1="0%" y1="0%" x2="0%" y2="100%">
      <stop offset="0%" stop-color="#f9fbfd"/>
      <stop offset="100%" stop-color="#edf3f7"/>
    </linearGradient>
    <linearGradient id="navy" x1="0%" y1="0%" x2="0%" y2="100%">
      <stop offset="0%" stop-color="#244a68"/>
      <stop offset="100%" stop-color="#17354e"/>
    </linearGradient>
    <linearGradient id="blue" x1="0%" y1="0%" x2="0%" y2="100%">
      <stop offset="0%" stop-color="#4f8fc5"/>
      <stop offset="100%" stop-color="#2d658f"/>
    </linearGradient>
    <linearGradient id="green" x1="0%" y1="0%" x2="0%" y2="100%">
      <stop offset="0%" stop-color="#58a176"/>
      <stop offset="100%" stop-color="#35724d"/>
    </linearGradient>
    <linearGradient id="amber" x1="0%" y1="0%" x2="0%" y2="100%">
      <stop offset="0%" stop-color="#d4a14a"/>
      <stop offset="100%" stop-color="#a56d1e"/>
    </linearGradient>
    <linearGradient id="rose" x1="0%" y1="0%" x2="0%" y2="100%">
      <stop offset="0%" stop-color="#ca6862"/>
      <stop offset="100%" stop-color="#934842"/>
    </linearGradient>
    <filter id="shadow" x="-5%" y="-5%" width="110%" height="115%">
      <feDropShadow dx="0" dy="5" stdDeviation="6" flood-color="#19324a" flood-opacity=".16"/>
    </filter>
    <marker id="arrowBlue" markerWidth="12" markerHeight="12" refX="10" refY="6" orient="auto">
      <path d="M0,0 L12,6 L0,12 z" fill="#2d658f"/>
    </marker>
    <marker id="arrowGreen" markerWidth="12" markerHeight="12" refX="10" refY="6" orient="auto">
      <path d="M0,0 L12,6 L0,12 z" fill="#35724d"/>
    </marker>
    <marker id="arrowAmber" markerWidth="12" markerHeight="12" refX="10" refY="6" orient="auto">
      <path d="M0,0 L12,6 L0,12 z" fill="#a56d1e"/>
    </marker>
    <style>
      .title{font:700 34px 'Hiragino Sans','Yu Gothic',sans-serif;fill:#fff}
      .subtitle{font:500 16px 'Hiragino Sans','Yu Gothic',sans-serif;fill:#d6e5ef}
      .legend{font:600 14px 'Hiragino Sans','Yu Gothic',sans-serif;fill:#294153}
      .panel-title{font:700 24px 'Hiragino Sans','Yu Gothic',sans-serif;fill:#17354e}
      .panel-sub{font:500 14px 'Hiragino Sans','Yu Gothic',sans-serif;fill:#607688}
      .node-title{font:700 20px 'Hiragino Sans','Yu Gothic',sans-serif;fill:#17354e}
      .node-text{font:500 14px 'Hiragino Sans','Yu Gothic',sans-serif;fill:#31495b}
      .small{font:500 12px 'Hiragino Sans','Yu Gothic',sans-serif;fill:#5c7284}
      .mini{font:600 13px 'Hiragino Sans','Yu Gothic',sans-serif;fill:#31495b}
      .rate{font:700 26px 'Hiragino Sans','Yu Gothic',sans-serif;fill:#17354e}
      .yes{font:700 16px 'Hiragino Sans','Yu Gothic',sans-serif;fill:#35724d}
      .no{font:700 16px 'Hiragino Sans','Yu Gothic',sans-serif;fill:#934842}
      .white{fill:#fff}
    </style>
  </defs>

  <rect width="1800" height="3000" fill="url(#bg)"/>

  <rect x="40" y="28" width="1720" height="104" rx="18" fill="url(#navy)" filter="url(#shadow)"/>
  <text x="900" y="72" text-anchor="middle" class="title">特定同族会社の留保金課税 詳細フロー</text>
  <text x="900" y="102" text-anchor="middle" class="subtitle">法人税法67条 / 別表三(一) / 付表一 / B01欄9外書 までを一枚で接続</text>

  <rect x="40" y="152" width="1720" height="58" rx="12" fill="#ffffff" stroke="#cedae4"/>
  <rect x="78" y="170" width="22" height="22" rx="5" fill="url(#blue)"/>
  <text x="110" y="186" class="legend">本流の算式</text>
  <rect x="252" y="170" width="22" height="22" rx="5" fill="url(#green)"/>
  <text x="284" y="186" class="legend">別表・上流ソース</text>
  <rect x="470" y="170" width="22" height="22" rx="5" fill="url(#amber)"/>
  <text x="502" y="186" class="legend">実務注意</text>
  <rect x="658" y="170" width="22" height="22" rx="5" fill="url(#rose)"/>
  <text x="690" y="186" class="legend">対象外・停止点</text>
  <line x1="930" y1="181" x2="1000" y2="181" stroke="#2d658f" stroke-width="3" marker-end="url(#arrowBlue)"/>
  <text x="1016" y="186" class="legend">転記・計算の流れ</text>
  <line x1="1206" y1="181" x2="1276" y2="181" stroke="#35724d" stroke-width="3" marker-end="url(#arrowGreen)"/>
  <text x="1292" y="186" class="legend">別表からの参照</text>

  <rect x="40" y="236" width="1720" height="158" rx="18" fill="#fff5f4" stroke="#e5b6b2" filter="url(#shadow)"/>
  <text x="72" y="274" class="panel-title">STEP 0　入口判定</text>
  <text x="72" y="304" class="node-text">この図は、すでに別表二で「特定同族会社」に該当するかを確認した後の計算図である。</text>
  <rect x="72" y="326" width="470" height="46" rx="12" fill="url(#green)"/>
  <text x="307" y="355" text-anchor="middle" class="white" style="font:700 16px 'Hiragino Sans','Yu Gothic',sans-serif;">B02 判定結果18 = 特定同族会社</text>
  <rect x="570" y="326" width="460" height="46" rx="12" fill="url(#rose)"/>
  <text x="800" y="355" text-anchor="middle" class="white" style="font:700 16px 'Hiragino Sans','Yu Gothic',sans-serif;">非該当なら B03(一) は不要</text>
  <text x="1080" y="344" class="node-text">判定の中身は、被支配会社判定・被支配会社でない法人株主等の除外再判定・1億円基準・法66条5項2号〜5号及び6項で決まる。</text>
  <text x="1080" y="368" class="small">別ページ「特定同族会社の判定表」とセットで使うと、入口と計算の両方が揃う。</text>

  <rect x="40" y="430" width="340" height="1450" rx="18" fill="#eef8f1" stroke="#b8d8c0" filter="url(#shadow)"/>
  <text x="66" y="470" class="panel-title">上流別表・参照元</text>
  <text x="66" y="498" class="panel-sub">左から中央へ矢印で転記される。</text>

  <rect x="66" y="532" width="286" height="118" rx="16" fill="#ffffff" stroke="#6faa81" stroke-width="2"/>
  <text x="88" y="566" class="node-title">別表二（B02）</text>
  <text x="88" y="593" class="node-text">判定結果18が「特定同族会社」なら</text>
  <text x="88" y="615" class="node-text">はじめて B03(一) に進む。</text>

  <rect x="66" y="678" width="286" height="152" rx="16" fill="#ffffff" stroke="#6faa81" stroke-width="2"/>
  <text x="88" y="712" class="node-title">別表四（B04）</text>
  <text x="88" y="740" class="node-text">欄52の② = 留保所得金額</text>
  <text x="88" y="762" class="node-text">これが B03(一) 欄9 の直送元。</text>
  <text x="88" y="784" class="small">総額欄ではなく「留保列②」を使う。</text>

  <rect x="66" y="858" width="286" height="196" rx="16" fill="#ffffff" stroke="#6faa81" stroke-width="2"/>
  <text x="88" y="892" class="node-title">別表三(一)付表一</text>
  <text x="88" y="920" class="node-text">欄19 → B03(一) 欄18</text>
  <text x="88" y="942" class="node-text">欄34 → B03(一) 欄20</text>
  <text x="88" y="964" class="node-text">留保控除額の3基準をここで計算。</text>
  <text x="88" y="986" class="small">所得基準40% / 定額基準2,000万円 /</text>
  <text x="88" y="1008" class="small">積立金基準の最大値を採る。</text>

  <rect x="66" y="1082" width="286" height="150" rx="16" fill="#ffffff" stroke="#6faa81" stroke-width="2"/>
  <text x="88" y="1116" class="node-title">別表三(一)付表二</text>
  <text x="88" y="1144" class="node-text">欄5 → 欄16 加算</text>
  <text x="88" y="1166" class="node-text">欄10 → 欄17 控除</text>
  <text x="88" y="1188" class="small">通算法人のみ。通常は 0 のことが多い。</text>

  <rect x="66" y="1260" width="286" height="176" rx="16" fill="#ffffff" stroke="#6faa81" stroke-width="2"/>
  <text x="88" y="1294" class="node-title">別表五(一) / 法2条十七の三</text>
  <text x="88" y="1322" class="node-text">期末利益積立金額と資本金等の額は</text>
  <text x="88" y="1344" class="node-text">付表一の積立金基準で使用。</text>
  <text x="88" y="1366" class="small">マイナス利益積立金額なら、その絶対値を</text>
  <text x="88" y="1388" class="small">25%基準へ上乗せする場面がある。</text>

  <rect x="66" y="1464" width="286" height="184" rx="16" fill="#ffffff" stroke="#6faa81" stroke-width="2"/>
  <text x="88" y="1498" class="node-title">B01 / B06系 / B17(三の六)</text>
  <text x="88" y="1526" class="node-text">法人税額・地方法人税額・住民税額・</text>
  <text x="88" y="1548" class="node-text">外国関係会社等の控除対象所得税額等</text>
  <text x="88" y="1570" class="node-text">が欄12〜15の材料になる。</text>
  <text x="88" y="1592" class="small">税額控除後の税額で見る点が落とし穴。</text>

  <rect x="66" y="1676" width="286" height="168" rx="16" fill="#ffffff" stroke="#6faa81" stroke-width="2"/>
  <text x="88" y="1710" class="node-title">最終転記先</text>
  <text x="88" y="1738" class="node-text">B03(一) 欄8 の税額は</text>
  <text x="88" y="1760" class="node-text">B01 欄9外書へ加算。</text>
  <text x="88" y="1782" class="small">通常の法人税額に「留保金課税分」が</text>
  <text x="88" y="1804" class="small">乗る構造である。</text>

  <rect x="420" y="430" width="780" height="1450" rx="18" fill="#f3f8fc" stroke="#c7d9e8" filter="url(#shadow)"/>
  <text x="450" y="470" class="panel-title">別表三(一) の本流</text>
  <text x="450" y="498" class="panel-sub">欄9から欄21までを順に作る。その後に欄1から欄8の税額へ戻る。</text>

  <rect x="460" y="540" width="700" height="118" rx="18" fill="#ffffff" stroke="#4f8fc5" stroke-width="2.4"/>
  <text x="488" y="574" class="node-title">欄9　留保所得金額</text>
  <text x="488" y="602" class="node-text">B04 欄52の②を転記。総額ではなく「留保列」の最終値を使う。</text>
  <text x="488" y="626" class="small">ここを起点に、配当調整と税負担控除を掛けて「当期留保金額」へ進む。</text>

  <line x1="810" y1="658" x2="810" y2="708" stroke="#2d658f" stroke-width="4" marker-end="url(#arrowBlue)"/>

  <rect x="460" y="720" width="700" height="150" rx="18" fill="#ffffff" stroke="#4f8fc5" stroke-width="2.4"/>
  <text x="488" y="754" class="node-title">欄10・欄11　配当調整</text>
  <text x="488" y="782" class="node-text">欄10 = 前期末配当等の額（前期の欄11を受ける）</text>
  <text x="488" y="804" class="node-text">欄11 = 当期末配当等の額（法67条4項の期末配当等）</text>
  <text x="488" y="828" class="small">当期中の支払配当総額ではなく、基準日等が当期にあり、決議が翌日から決算確定日までのものだけを見る。</text>

  <line x1="810" y1="870" x2="810" y2="920" stroke="#2d658f" stroke-width="4" marker-end="url(#arrowBlue)"/>

  <rect x="460" y="932" width="700" height="176" rx="18" fill="#ffffff" stroke="#4f8fc5" stroke-width="2.4"/>
  <text x="488" y="966" class="node-title">欄12〜欄15　税負担調整</text>
  <text x="488" y="994" class="node-text">欄12 = 法人税額 + 地方法人税額</text>
  <text x="488" y="1016" class="node-text">欄13 = 住民税額（欄28から転記）</text>
  <text x="488" y="1038" class="node-text">欄14 = 外国関係会社等に係る控除対象所得税額等相当額</text>
  <text x="488" y="1062" class="node-text">欄15 = 欄12 + 欄13 - 欄14（マイナスなら 0）</text>
  <text x="488" y="1086" class="small">留保金課税は、社内に残った利益から税負担を控除して課税対象を絞る構造である。</text>

  <line x1="810" y1="1108" x2="810" y2="1158" stroke="#2d658f" stroke-width="4" marker-end="url(#arrowBlue)"/>

  <rect x="460" y="1170" width="700" height="176" rx="18" fill="#ffffff" stroke="#4f8fc5" stroke-width="2.4"/>
  <text x="488" y="1204" class="node-title">欄16〜欄18　追加・控除の枝</text>
  <text x="488" y="1232" class="node-text">欄16 = 通算法人の留保金加算額</text>
  <text x="488" y="1254" class="node-text">欄17 = 通算法人の留保金控除額</text>
  <text x="488" y="1276" class="node-text">欄18 = 他法人株式等の帳簿価額から減算される金額</text>
  <text x="488" y="1300" class="small">通算制度がなければ欄16・17は0になりやすいが、欄18は付表一から来るため見落としやすい。</text>
  <text x="488" y="1322" class="small">ここまで整えて、ようやく「当期留保金額」に到達する。</text>

  <line x1="810" y1="1346" x2="810" y2="1396" stroke="#2d658f" stroke-width="4" marker-end="url(#arrowBlue)"/>

  <rect x="460" y="1408" width="700" height="110" rx="18" fill="#dff0fb" stroke="#4f8fc5" stroke-width="2.8"/>
  <text x="488" y="1444" class="node-title">欄19　当期留保金額</text>
  <text x="488" y="1474" class="node-text">欄19 = 欄9 + 欄10 - 欄11 - 欄15 + 欄16 - 欄17 - 欄18</text>
  <text x="488" y="1498" class="small">留保控除額と比べる前の、いわば「税引後に社内へ残った利益の本体」。</text>

  <line x1="810" y1="1518" x2="810" y2="1568" stroke="#2d658f" stroke-width="4" marker-end="url(#arrowBlue)"/>

  <rect x="460" y="1580" width="700" height="188" rx="18" fill="#e8f6ed" stroke="#58a176" stroke-width="2.8"/>
  <text x="488" y="1616" class="node-title">欄20　留保控除額</text>
  <text x="488" y="1646" class="node-text">付表一で求めた 3 基準のうち最も多い金額を採る。</text>
  <text x="488" y="1670" class="node-text">1. 所得基準 = 所得等の金額 × 40%</text>
  <text x="488" y="1692" class="node-text">2. 定額基準 = 年2,000万円（短期事業年度は月数按分）</text>
  <text x="488" y="1714" class="node-text">3. 積立金基準 = 期末利益積立金額が資本金等の25%に満たない不足額</text>
  <text x="488" y="1738" class="small">「最大値」である。最小値や平均ではない。</text>

  <line x1="810" y1="1768" x2="810" y2="1818" stroke="#2d658f" stroke-width="4" marker-end="url(#arrowBlue)"/>

  <rect x="460" y="1830" width="700" height="136" rx="18" fill="#fff3de" stroke="#d4a14a" stroke-width="2.8"/>
  <text x="488" y="1866" class="node-title">欄21　課税留保金額</text>
  <text x="488" y="1896" class="node-text">欄21 = 欄19 - 欄20（1,000円未満切捨て、マイナスなら 0）</text>
  <text x="488" y="1920" class="node-text">ここが 0 なら B03(一) を作っても税額欄は 0 で終わる。</text>
  <text x="488" y="1944" class="small">欄21 がプラスなら、次に欄1〜欄8へ戻って特別税率を掛ける。</text>

  <rect x="1240" y="430" width="520" height="720" rx="18" fill="#fff8ea" stroke="#dcc18b" filter="url(#shadow)"/>
  <text x="1268" y="470" class="panel-title">欄1〜欄8　3段階税率</text>
  <text x="1268" y="498" class="panel-sub">欄21 を 3 つの帯に切って 10% / 15% / 20% を掛ける。</text>

  <rect x="1270" y="540" width="460" height="116" rx="16" fill="#ffffff" stroke="#d4a14a" stroke-width="2"/>
  <text x="1300" y="576" class="node-title">第1帯　欄1・欄5</text>
  <text x="1300" y="606" class="rate">年3,000万円相当額 以下 × 10%</text>
  <text x="1300" y="632" class="small">欄1 = 欄21 と 3,000万円相当額のいずれか少ない金額</text>

  <rect x="1270" y="684" width="460" height="116" rx="16" fill="#ffffff" stroke="#d4a14a" stroke-width="2"/>
  <text x="1300" y="720" class="node-title">第2帯　欄2・欄6</text>
  <text x="1300" y="750" class="rate">3,000万円超〜1億円相当額 以下 × 15%</text>
  <text x="1300" y="776" class="small">欄2 = 残額と 1億円相当額の残り枠のいずれか少ない金額</text>

  <rect x="1270" y="828" width="460" height="116" rx="16" fill="#ffffff" stroke="#d4a14a" stroke-width="2"/>
  <text x="1300" y="864" class="node-title">第3帯　欄3・欄7</text>
  <text x="1300" y="894" class="rate">1億円相当額 超 × 20%</text>
  <text x="1300" y="920" class="small">欄3 = 欄21 - 欄1 - 欄2</text>

  <rect x="1270" y="972" width="460" height="144" rx="16" fill="#fff" stroke="#d4a14a" stroke-dasharray="6,4"/>
  <text x="1300" y="1008" class="node-title">短期事業年度の補正</text>
  <text x="1300" y="1036" class="node-text">3,000万円・1億円・2,000万円は</text>
  <text x="1300" y="1058" class="node-text">いずれも「月数 / 12」で按分する。</text>
  <text x="1300" y="1082" class="small">法67条6項。1月未満は切り上げ。</text>

  <line x1="1160" y1="1898" x2="1238" y2="1898" stroke="#a56d1e" stroke-width="4" marker-end="url(#arrowAmber)"/>
  <line x1="1500" y1="1116" x2="1500" y2="1184" stroke="#a56d1e" stroke-width="4" marker-end="url(#arrowAmber)"/>
  <rect x="1240" y="1188" width="520" height="328" rx="18" fill="#ffffff" stroke="#d8dfe6" filter="url(#shadow)"/>
  <text x="1268" y="1228" class="panel-title">なぜ「所得0」でも留保金課税が残るか</text>
  <text x="1268" y="1258" class="node-text">法67条3項は、通常の所得金額に次の調整を掛けて「所得等の金額」を作る。</text>
  <text x="1268" y="1290" class="mini">・受取配当等の益金不算入</text>
  <text x="1268" y="1314" class="mini">・外国子会社配当の益金不算入</text>
  <text x="1268" y="1338" class="mini">・受贈益の益金不算入</text>
  <text x="1268" y="1362" class="mini">・還付金等の益金不算入</text>
  <text x="1268" y="1386" class="mini">・繰越欠損金や会社更生等の欠損金控除</text>
  <text x="1268" y="1410" class="mini">・中間申告の災害損失戻入の反映</text>
  <text x="1268" y="1442" class="small">さらに NTA 手引は、措置法上の特別控除や超過利子額損金算入などがあると、</text>
  <text x="1268" y="1464" class="small">会計上の所得が 0 でも、留保金課税の土台が残りうると注意喚起している。</text>

  <rect x="1240" y="1540" width="520" height="340" rx="18" fill="#fff2ef" stroke="#e0b7b2" filter="url(#shadow)"/>
  <text x="1268" y="1580" class="panel-title">実務の落とし穴</text>
  <text x="1268" y="1610" class="mini">1. B04 の総額欄を欄9へ入れてしまう。</text>
  <text x="1268" y="1636" class="mini">2. 欄10に当期配当、欄11に中間配当まで混ぜてしまう。</text>
  <text x="1268" y="1662" class="mini">3. 留保控除額で 3 基準の最大値を取らない。</text>
  <text x="1268" y="1688" class="mini">4. 欄12を税額控除前で計算し、欄15が過大になる。</text>
  <text x="1268" y="1714" class="mini">5. 短期事業年度なのに 3,000万円・1億円・2,000万円を按分しない。</text>
  <text x="1268" y="1740" class="mini">6. 欄8を B01 欄9外書へ転記し忘れる。</text>
  <text x="1268" y="1770" class="small">特に 2 と 6 は、会計資料をそのまま写すだけだと起こりやすい。</text>

  <line x1="350" y1="590" x2="458" y2="590" stroke="#35724d" stroke-width="3.5" marker-end="url(#arrowGreen)"/>
  <line x1="350" y1="754" x2="458" y2="598" stroke="#35724d" stroke-width="3.5" marker-end="url(#arrowGreen)"/>
  <line x1="350" y1="954" x2="458" y2="1674" stroke="#35724d" stroke-width="3.5" marker-end="url(#arrowGreen)"/>
  <line x1="350" y1="1152" x2="458" y2="1260" stroke="#35724d" stroke-width="3.5" marker-end="url(#arrowGreen)"/>
  <line x1="350" y1="1350" x2="458" y2="1674" stroke="#35724d" stroke-width="3.5" marker-end="url(#arrowGreen)"/>
  <line x1="350" y1="1554" x2="458" y2="1022" stroke="#35724d" stroke-width="3.5" marker-end="url(#arrowGreen)"/>

  <rect x="40" y="1920" width="1720" height="458" rx="18" fill="#ffffff" stroke="#ced8e1" filter="url(#shadow)"/>
  <text x="70" y="1962" class="panel-title">法67条4項のキモ　期末配当等のタイムライン</text>
  <text x="70" y="1992" class="panel-sub">「どの配当を欄11へ入れるか」で誤りやすい。法文は、基準日等と決議日の両方を見る。</text>

  <line x1="130" y1="2090" x2="1660" y2="2090" stroke="#2d658f" stroke-width="6" marker-end="url(#arrowBlue)"/>
  <circle cx="240" cy="2090" r="14" fill="#2d658f"/>
  <circle cx="770" cy="2090" r="14" fill="#2d658f"/>
  <circle cx="920" cy="2090" r="14" fill="#d4a14a"/>
  <circle cx="1350" cy="2090" r="14" fill="#35724d"/>
  <text x="214" y="2050" class="node-title">期首</text>
  <text x="720" y="2050" class="node-title">事業年度末</text>
  <text x="876" y="2050" class="node-title">翌日</text>
  <text x="1272" y="2050" class="node-title">決算確定日</text>

  <rect x="166" y="2142" width="420" height="132" rx="16" fill="#eef8f1" stroke="#6faa81"/>
  <text x="192" y="2178" class="node-title">基準日等が当期中にあるか</text>
  <text x="192" y="2206" class="node-text">剰余金配当の基準日や、それに準ずる日が</text>
  <text x="192" y="2228" class="node-text">当期に属していることが出発点。</text>
  <text x="192" y="2252" class="small">基準日等が前期なら、原則として今期欄11には入らない。</text>

  <rect x="676" y="2142" width="462" height="132" rx="16" fill="#fff8ea" stroke="#d4a14a"/>
  <text x="702" y="2178" class="node-title">決議日は「翌日〜決算確定日」か</text>
  <text x="702" y="2206" class="node-text">この期間に決議された期末配当等だけが</text>
  <text x="702" y="2228" class="node-text">欄11の対象になる。</text>
  <text x="702" y="2252" class="small">当期中の中間配当や、単に支払済みの配当総額をそのまま入れてはいけない。</text>

  <rect x="1228" y="2142" width="452" height="132" rx="16" fill="#e9f4fb" stroke="#4f8fc5"/>
  <text x="1254" y="2178" class="node-title">前期欄11 → 当期欄10 へ受け継ぐ</text>
  <text x="1254" y="2206" class="node-text">欄10は「前期末配当等の額」。つまり、</text>
  <text x="1254" y="2228" class="node-text">前期の欄11が今期の欄10へ来る構造。</text>
  <text x="1254" y="2252" class="small">初年度だけは前期末の利益処分配当額などを確認する。</text>

  <rect x="140" y="2304" width="1540" height="46" rx="12" fill="#fff2ef" stroke="#d9ada6"/>
  <text x="910" y="2334" text-anchor="middle" class="mini">会計の「当期中支払配当」と税務の「期末配当等」は一致しないことがある。株主資本等変動計算書の数字をそのまま写さない。</text>

  <rect x="40" y="2410" width="1720" height="530" rx="18" fill="#ffffff" stroke="#ced8e1" filter="url(#shadow)"/>
  <text x="70" y="2452" class="panel-title">出口　B01 欄9外書へ載せて、通常の法人税に上乗せする</text>
  <text x="70" y="2482" class="panel-sub">留保金課税は独立税目ではなく、法人税額の加算項目である。</text>

  <rect x="92" y="2532" width="720" height="142" rx="18" fill="#f3f8fc" stroke="#4f8fc5"/>
  <text x="118" y="2568" class="node-title">設例</text>
  <text x="118" y="2596" class="node-text">欄9 = 120,000,000 / 欄10 = 8,000,000 / 欄11 = 18,000,000</text>
  <text x="118" y="2618" class="node-text">欄15 = 29,000,000 / 欄16〜18 = 0 → 欄19 = 81,000,000</text>
  <text x="118" y="2640" class="node-text">留保控除額は 48,000,000 / 20,000,000 / 12,000,000 の最大値 = 48,000,000</text>
  <text x="118" y="2662" class="node-text">欄21 = 33,000,000 → 税額は 30,000,000×10% + 3,000,000×15% = 3,450,000</text>

  <rect x="940" y="2532" width="730" height="142" rx="18" fill="#eef8f1" stroke="#6faa81"/>
  <text x="966" y="2568" class="node-title">転記</text>
  <text x="966" y="2596" class="node-text">欄8 = 留保金額に対する税額 = 3,450,000</text>
  <text x="966" y="2618" class="node-text">この金額を B01 欄9外書へ入れ、通常の所得に対する法人税額へ加算する。</text>
  <text x="966" y="2640" class="node-text">つまり「特定同族会社の特別税率」は、法人税申告全体の最終税額へ直結する。</text>
  <text x="966" y="2662" class="small">B01へ反映しない限り、B03(一) を作っても税額には現れない。</text>

  <rect x="92" y="2708" width="1578" height="192" rx="18" fill="#fff8ea" stroke="#d4a14a"/>
  <text x="118" y="2744" class="node-title">最短の読み順</text>
  <text x="118" y="2772" class="mini">1. B02 で入口判定</text>
  <text x="118" y="2796" class="mini">2. B04 の留保所得金額を欄9へ</text>
  <text x="118" y="2820" class="mini">3. 欄10・11・15・16・17・18を調整して欄19へ</text>
  <text x="610" y="2772" class="mini">4. 付表一から欄20を受け、欄21を出す</text>
  <text x="610" y="2796" class="mini">5. 欄1〜8で 10% / 15% / 20% を掛ける</text>
  <text x="610" y="2820" class="mini">6. 欄8を B01 欄9外書へ転記</text>
  <text x="1088" y="2772" class="mini">7. 期末配当等だけはタイムラインで再確認</text>
  <text x="1088" y="2796" class="mini">8. 短期事業年度なら月数按分も忘れない</text>
  <text x="118" y="2864" class="small">入口判定の細部は「特定同族会社の判定表」、計算の細部はこの図、という分担で使うのが最も速い。</text>
</svg>
