<svg xmlns="http://www.w3.org/2000/svg" viewBox="0 0 1800 3120" role="img" aria-labelledby="title desc">
  <title id="title">特定同族会社の詳細判定フロー</title>
  <desc id="desc">法人税法2条10号、67条1項2項8項、66条5項6項、法人税法施行令139条の7、別表二の判定結果18に基づく特定同族会社判定の詳細フロー図。</desc>
  <defs>
    <linearGradient id="bg" x1="0%" y1="0%" x2="0%" y2="100%">
      <stop offset="0%" stop-color="#f9fbfd"/>
      <stop offset="100%" stop-color="#edf3f7"/>
    </linearGradient>
    <linearGradient id="navy" x1="0%" y1="0%" x2="0%" y2="100%">
      <stop offset="0%" stop-color="#244a68"/>
      <stop offset="100%" stop-color="#17354e"/>
    </linearGradient>
    <linearGradient id="blue" x1="0%" y1="0%" x2="0%" y2="100%">
      <stop offset="0%" stop-color="#4f8fc5"/>
      <stop offset="100%" stop-color="#2d658f"/>
    </linearGradient>
    <linearGradient id="green" x1="0%" y1="0%" x2="0%" y2="100%">
      <stop offset="0%" stop-color="#58a176"/>
      <stop offset="100%" stop-color="#35724d"/>
    </linearGradient>
    <linearGradient id="amber" x1="0%" y1="0%" x2="0%" y2="100%">
      <stop offset="0%" stop-color="#d4a14a"/>
      <stop offset="100%" stop-color="#a56d1e"/>
    </linearGradient>
    <linearGradient id="rose" x1="0%" y1="0%" x2="0%" y2="100%">
      <stop offset="0%" stop-color="#cb6d68"/>
      <stop offset="100%" stop-color="#964b45"/>
    </linearGradient>
    <filter id="shadow" x="-5%" y="-5%" width="110%" height="115%">
      <feDropShadow dx="0" dy="5" stdDeviation="6" flood-color="#19324a" flood-opacity=".16"/>
    </filter>
    <marker id="arrowBlue" markerWidth="12" markerHeight="12" refX="10" refY="6" orient="auto">
      <path d="M0,0 L12,6 L0,12 z" fill="#2d658f"/>
    </marker>
    <marker id="arrowGreen" markerWidth="12" markerHeight="12" refX="10" refY="6" orient="auto">
      <path d="M0,0 L12,6 L0,12 z" fill="#35724d"/>
    </marker>
    <marker id="arrowAmber" markerWidth="12" markerHeight="12" refX="10" refY="6" orient="auto">
      <path d="M0,0 L12,6 L0,12 z" fill="#a56d1e"/>
    </marker>
    <marker id="arrowRose" markerWidth="12" markerHeight="12" refX="10" refY="6" orient="auto">
      <path d="M0,0 L12,6 L0,12 z" fill="#964b45"/>
    </marker>
    <style>
      .title{font:700 34px 'Hiragino Sans','Yu Gothic',sans-serif;fill:#fff}
      .subtitle{font:500 16px 'Hiragino Sans','Yu Gothic',sans-serif;fill:#d6e5ef}
      .legend{font:600 14px 'Hiragino Sans','Yu Gothic',sans-serif;fill:#294153}
      .panel-title{font:700 24px 'Hiragino Sans','Yu Gothic',sans-serif;fill:#17354e}
      .panel-sub{font:500 14px 'Hiragino Sans','Yu Gothic',sans-serif;fill:#607688}
      .node-title{font:700 20px 'Hiragino Sans','Yu Gothic',sans-serif;fill:#17354e}
      .node-text{font:500 14px 'Hiragino Sans','Yu Gothic',sans-serif;fill:#31495b}
      .small{font:500 12px 'Hiragino Sans','Yu Gothic',sans-serif;fill:#5c7284}
      .mini{font:600 13px 'Hiragino Sans','Yu Gothic',sans-serif;fill:#31495b}
      .white{fill:#fff}
      .yes{font:700 16px 'Hiragino Sans','Yu Gothic',sans-serif;fill:#35724d}
      .no{font:700 16px 'Hiragino Sans','Yu Gothic',sans-serif;fill:#964b45}
    </style>
  </defs>

  <rect width="1800" height="3120" fill="url(#bg)"/>

  <rect x="40" y="28" width="1720" height="104" rx="18" fill="url(#navy)" filter="url(#shadow)"/>
  <text x="900" y="72" text-anchor="middle" class="title">特定同族会社の詳細判定フロー</text>
  <text x="900" y="102" text-anchor="middle" class="subtitle">法2条十 / 法67条1項・2項・8項 / 法66条5項・6項 / 令139条の7 / 別表二18欄</text>

  <rect x="40" y="152" width="1720" height="58" rx="12" fill="#ffffff" stroke="#cedae4"/>
  <rect x="78" y="170" width="22" height="22" rx="5" fill="url(#blue)"/>
  <text x="110" y="186" class="legend">本流の判定</text>
  <rect x="238" y="170" width="22" height="22" rx="5" fill="url(#green)"/>
  <text x="270" y="186" class="legend">入力・定義</text>
  <rect x="430" y="170" width="22" height="22" rx="5" fill="url(#amber)"/>
  <text x="462" y="186" class="legend">実務注意</text>
  <rect x="624" y="170" width="22" height="22" rx="5" fill="url(#rose)"/>
  <text x="656" y="186" class="legend">対象外・停止点</text>
  <line x1="920" y1="181" x2="990" y2="181" stroke="#2d658f" stroke-width="3" marker-end="url(#arrowBlue)"/>
  <text x="1006" y="186" class="legend">条文の流れ</text>
  <line x1="1170" y1="181" x2="1240" y2="181" stroke="#35724d" stroke-width="3" marker-end="url(#arrowGreen)"/>
  <text x="1256" y="186" class="legend">補助情報</text>

  <rect x="40" y="236" width="1720" height="142" rx="18" fill="#fff5f4" stroke="#e5b6b2" filter="url(#shadow)"/>
  <text x="72" y="274" class="panel-title">STEP 0　判定時点を固定する</text>
  <text x="72" y="304" class="node-text">法67条8項により、特定同族会社かどうかの判定は <tspan font-weight="700">各事業年度終了の時の現況</tspan> で行う。</text>
  <text x="72" y="328" class="small">途中の株主構成や資本金額ではなく、期末の現況が基準。ここを外すと後続の全部がずれる。</text>
  <rect x="1180" y="270" width="520" height="70" rx="14" fill="url(#blue)"/>
  <text x="1440" y="300" text-anchor="middle" class="white" style="font:700 17px 'Hiragino Sans','Yu Gothic',sans-serif;">期末現在で B02 と法67条判定を行う</text>
  <text x="1440" y="324" text-anchor="middle" class="white" style="font:500 13px 'Hiragino Sans','Yu Gothic',sans-serif;">途中経過ではなく end-of-year snapshot</text>

  <rect x="40" y="420" width="340" height="1500" rx="18" fill="#eef8f1" stroke="#b8d8c0" filter="url(#shadow)"/>
  <text x="66" y="462" class="panel-title">入力・定義</text>
  <text x="66" y="490" class="panel-sub">左の材料を中央の本流へ当てる。</text>

  <rect x="66" y="524" width="286" height="166" rx="16" fill="#ffffff" stroke="#6faa81" stroke-width="2"/>
  <text x="88" y="558" class="node-title">法2条十　同族会社の土台</text>
  <text x="88" y="586" class="node-text">上位3株主グループで 50%超なら</text>
  <text x="88" y="608" class="node-text">同族会社。ここが B02 の 10欄系。</text>
  <text x="88" y="632" class="small">ただし特定同族会社は、この先の</text>
  <text x="88" y="654" class="small">「上位1グループ + 法67条補正」で決まる。</text>

  <rect x="66" y="718" width="286" height="176" rx="16" fill="#ffffff" stroke="#6faa81" stroke-width="2"/>
  <text x="88" y="752" class="node-title">令139条の7第1項</text>
  <text x="88" y="780" class="node-text">特殊関係個人:</text>
  <text x="88" y="802" class="mini">親族 / 事実婚 / 使用人 / 生計維持者 /</text>
  <text x="88" y="824" class="mini">これらと生計を一にする親族</text>
  <text x="88" y="848" class="small">一人の株主に紐づく人的クラスターを作る。</text>

  <rect x="66" y="922" width="286" height="196" rx="16" fill="#ffffff" stroke="#6faa81" stroke-width="2"/>
  <text x="88" y="956" class="node-title">令139条の7第2項〜4項</text>
  <text x="88" y="984" class="node-text">特殊関係法人:</text>
  <text x="88" y="1006" class="mini">その株主等が支配する会社</text>
  <text x="88" y="1028" class="mini">その特殊関係法人が支配する会社</text>
  <text x="88" y="1050" class="mini">さらにその連鎖先</text>
  <text x="88" y="1072" class="small">支配連鎖で広がる。相互に特殊関係とみなす</text>
  <text x="88" y="1094" class="small">調整もある。</text>

  <rect x="66" y="1146" width="286" height="200" rx="16" fill="#ffffff" stroke="#6faa81" stroke-width="2"/>
  <text x="88" y="1180" class="node-title">令139条の7第3項・5項</text>
  <text x="88" y="1208" class="node-text">支配の3ルート:</text>
  <text x="88" y="1230" class="mini">1. 株式又は出資の総数・総額の 50%超</text>
  <text x="88" y="1252" class="mini">2. 特定議決権の 50%超</text>
  <text x="88" y="1274" class="mini">3. 持分会社社員の過半</text>
  <text x="88" y="1298" class="small">種類株式や持分会社では、株式数だけで終わらない。</text>
  <text x="88" y="1320" class="small">中央フローは常にこの 3 ルートで再点検する。</text>

  <rect x="66" y="1374" width="286" height="168" rx="16" fill="#ffffff" stroke="#6faa81" stroke-width="2"/>
  <text x="88" y="1408" class="node-title">令139条の7第6項</text>
  <text x="88" y="1436" class="node-text">同意議決権は、同意を受ける者へ寄せる。</text>
  <text x="88" y="1458" class="node-text">B02の外書「外同意」がここ。</text>
  <text x="88" y="1482" class="small">行使できない議決権は分母から控除し、</text>
  <text x="88" y="1504" class="small">同意議決権は本書に加算して判定へ戻す。</text>

  <rect x="66" y="1570" width="286" height="170" rx="16" fill="#ffffff" stroke="#6faa81" stroke-width="2"/>
  <text x="88" y="1604" class="node-title">B02 別表二の出口</text>
  <text x="88" y="1632" class="node-text">10欄 = 同族会社判定割合</text>
  <text x="88" y="1654" class="node-text">17欄 = 特定同族会社判定割合</text>
  <text x="88" y="1676" class="node-text">18欄 = 判定結果</text>
  <text x="88" y="1700" class="small">ガイドは「17欄が50%超なら特定同族会社」。</text>

  <rect x="66" y="1768" width="286" height="128" rx="16" fill="#ffffff" stroke="#6faa81" stroke-width="2"/>
  <text x="88" y="1802" class="node-title">被支配会社でない法人株主等欄</text>
  <text x="88" y="1830" class="node-text">非被支配会社である法人株主等を書き出し、</text>
  <text x="88" y="1852" class="node-text">中央の「除外再判定」へつなぐ。</text>

  <rect x="420" y="420" width="780" height="1500" rx="18" fill="#f3f8fc" stroke="#c7d9e8" filter="url(#shadow)"/>
  <text x="450" y="462" class="panel-title">条文に沿った本流</text>
  <text x="450" y="490" class="panel-sub">中央を上から下へ辿ると、法67条の「特定同族会社」に到達する。</text>

  <rect x="460" y="530" width="700" height="102" rx="18" fill="#ffffff" stroke="#4f8fc5" stroke-width="2.4"/>
  <text x="488" y="566" class="node-title">1　自己株式・行使不能議決権・業務執行社員を整える</text>
  <text x="488" y="594" class="node-text">B02の分母から自己株式を控除し、行使不能議決権を除き、持分会社なら必要に応じて業務執行社員ベースへ揃える。</text>
  <text x="488" y="616" class="small">ここで分母を誤ると、その後の50%判定が全部ずれる。</text>
  <line x1="810" y1="632" x2="810" y2="682" stroke="#2d658f" stroke-width="4" marker-end="url(#arrowBlue)"/>

  <rect x="460" y="694" width="700" height="122" rx="18" fill="#ffffff" stroke="#4f8fc5" stroke-width="2.4"/>
  <text x="488" y="730" class="node-title">2　一人の株主等を起点に「1グループ」を作る</text>
  <text x="488" y="758" class="node-text">その一人に、令139条の7第1項の特殊関係個人と、第2項〜4項の特殊関係法人をぶら下げ、必要なら同意議決権も加える。</text>
  <text x="488" y="782" class="small">特定同族会社判定は「上位1グループ」。同族会社判定の「上位3グループ」と混同しない。</text>
  <line x1="810" y1="816" x2="810" y2="866" stroke="#2d658f" stroke-width="4" marker-end="url(#arrowBlue)"/>

  <rect x="460" y="878" width="700" height="148" rx="18" fill="#ffffff" stroke="#4f8fc5" stroke-width="2.4"/>
  <text x="488" y="914" class="node-title">3　法67条2項 + 令139条の7で「被支配会社」か</text>
  <text x="488" y="942" class="node-text">1グループが、株式・出資 / 特定議決権 / 持分会社社員数 のいずれかで 50%超なら被支配会社。</text>
  <text x="488" y="966" class="node-text">どれでも 50%超にならなければ、特定同族会社ではない。</text>
  <text x="488" y="990" class="small">B02 17欄が50%超になるのは、この被支配会社判定が基礎にある。</text>

  <line x1="460" y1="952" x2="352" y2="952" stroke="#964b45" stroke-width="4" marker-end="url(#arrowRose)"/>
  <rect x="84" y="900" width="250" height="104" rx="16" fill="#fff1f1" stroke="#cf8d87"/>
  <text x="209" y="936" text-anchor="middle" class="node-title" style="fill:#964b45">ここで50%超にならない</text>
  <text x="209" y="964" text-anchor="middle" class="node-text">B02 17欄は50%以下</text>
  <text x="209" y="988" text-anchor="middle" class="small">特定同族会社ではない</text>

  <line x1="810" y1="1026" x2="810" y2="1076" stroke="#2d658f" stroke-width="4" marker-end="url(#arrowBlue)"/>

  <rect x="460" y="1088" width="700" height="152" rx="18" fill="#ffffff" stroke="#4f8fc5" stroke-width="2.4"/>
  <text x="488" y="1124" class="node-title">4　判定基礎に「被支配会社でない法人」が混じるか</text>
  <text x="488" y="1152" class="node-text">法67条1項は、被支配会社判定の基礎となった株主等のうちに「被支配会社でない法人」があるとき、これを除外して再判定せよと命じる。</text>
  <text x="488" y="1176" class="node-text">B02 の「被支配会社でない法人株主等」欄が、この再判定の入口になる。</text>
  <text x="488" y="1200" class="small">通達16-1-3は、相互持合いでも双方について除外再判定が必要だと補足する。</text>
  <line x1="810" y1="1240" x2="810" y2="1290" stroke="#2d658f" stroke-width="4" marker-end="url(#arrowBlue)"/>

  <rect x="460" y="1302" width="700" height="138" rx="18" fill="#ffffff" stroke="#4f8fc5" stroke-width="2.4"/>
  <text x="488" y="1338" class="node-title">5　除外後もなお被支配会社か</text>
  <text x="488" y="1366" class="node-text">非被支配会社法人株主等を外しても、なお 50%超なら次へ進む。50%以下に落ちるなら特定同族会社ではない。</text>
  <text x="488" y="1390" class="small">ここが最も落としやすい「再判定」。単なる同族会社判定ではここまで行かない。</text>

  <line x1="1162" y1="1372" x2="1300" y2="1372" stroke="#2d658f" stroke-width="4" marker-end="url(#arrowBlue)"/>
  <rect x="1318" y="1318" width="376" height="118" rx="16" fill="#eef8f1" stroke="#6faa81"/>
  <text x="1506" y="1352" text-anchor="middle" class="node-title">除外後も50%超</text>
  <text x="1506" y="1380" text-anchor="middle" class="node-text">被支配会社判定を維持</text>
  <text x="1506" y="1404" text-anchor="middle" class="small">次は法67条1項ただし書の小規模分岐へ</text>

  <line x1="460" y1="1372" x2="352" y2="1372" stroke="#964b45" stroke-width="4" marker-end="url(#arrowRose)"/>
  <rect x="84" y="1320" width="250" height="108" rx="16" fill="#fff1f1" stroke="#cf8d87"/>
  <text x="209" y="1354" text-anchor="middle" class="node-title" style="fill:#964b45">除外後に50%以下</text>
  <text x="209" y="1382" text-anchor="middle" class="node-text">B02 18欄は特定同族会社にならない</text>
  <text x="209" y="1406" text-anchor="middle" class="small">留保金課税の入口で落ちる</text>

  <line x1="810" y1="1440" x2="810" y2="1490" stroke="#2d658f" stroke-width="4" marker-end="url(#arrowBlue)"/>

  <rect x="460" y="1502" width="700" height="112" rx="18" fill="#ffffff" stroke="#4f8fc5" stroke-width="2.4"/>
  <text x="488" y="1538" class="node-title">6　清算中か</text>
  <text x="488" y="1566" class="node-text">法67条1項は「清算中のものを除く」。したがって清算中ならここで終了。</text>
  <text x="488" y="1590" class="small">B02 17欄が50%超でも、法67条1項上の特定同族会社ではない。</text>

  <line x1="460" y1="1558" x2="352" y2="1558" stroke="#964b45" stroke-width="4" marker-end="url(#arrowRose)"/>
  <rect x="84" y="1508" width="250" height="98" rx="16" fill="#fff1f1" stroke="#cf8d87"/>
  <text x="209" y="1542" text-anchor="middle" class="node-title" style="fill:#964b45">清算中</text>
  <text x="209" y="1570" text-anchor="middle" class="node-text">特定同族会社ではない</text>
  <text x="209" y="1592" text-anchor="middle" class="small">法67条1項で除外</text>

  <line x1="810" y1="1614" x2="810" y2="1664" stroke="#2d658f" stroke-width="4" marker-end="url(#arrowBlue)"/>

  <rect x="460" y="1676" width="700" height="142" rx="18" fill="#ffffff" stroke="#4f8fc5" stroke-width="2.4"/>
  <text x="488" y="1712" class="node-title">7　資本金の額又は出資金の額が1億円以下か</text>
  <text x="488" y="1740" class="node-text">1億円超なら、そのまま法67条1項の特定同族会社へ到達する。</text>
  <text x="488" y="1762" class="node-text">1億円以下なら、さらに法66条5項2号〜5号又は6項の限定列挙へ進む。</text>
  <text x="488" y="1788" class="small">「1億円以下なら全部対象外」ではない。ここが実務上の誤解ポイント。</text>

  <line x1="1162" y1="1748" x2="1300" y2="1748" stroke="#2d658f" stroke-width="4" marker-end="url(#arrowBlue)"/>
  <rect x="1318" y="1692" width="376" height="112" rx="16" fill="#eef8f1" stroke="#6faa81"/>
  <text x="1506" y="1726" text-anchor="middle" class="node-title">1億円超</text>
  <text x="1506" y="1754" text-anchor="middle" class="node-text">そのまま特定同族会社へ</text>
  <text x="1506" y="1778" text-anchor="middle" class="small">法67条1項のかっこ書き制限を受けない</text>

  <line x1="810" y1="1818" x2="810" y2="1868" stroke="#2d658f" stroke-width="4" marker-end="url(#arrowBlue)"/>

  <rect x="460" y="1880" width="700" height="170" rx="18" fill="#fff8ea" stroke="#d4a14a" stroke-width="2.8"/>
  <text x="488" y="1916" class="node-title">8　法66条5項2号〜5号 又は 6項に当たるか</text>
  <text x="488" y="1944" class="node-text">大法人の完全子法人等 / 複数大法人で全部保有される法人 / 投資法人 / 特定目的会社 / 受託法人 / 大通算法人なら、1億円以下でも特定同族会社になり得る。</text>
  <text x="488" y="1970" class="node-text">これに当たらなければ、法67条1項の特定同族会社から外れる。</text>
  <text x="488" y="1996" class="small">法66条の軽減税率が外れる法人群を、法67条1項がそのまま拾っている構造。</text>

  <line x1="460" y1="1960" x2="352" y2="1960" stroke="#964b45" stroke-width="4" marker-end="url(#arrowRose)"/>
  <rect x="84" y="1906" width="250" height="110" rx="16" fill="#fff1f1" stroke="#cf8d87"/>
  <text x="209" y="1940" text-anchor="middle" class="node-title" style="fill:#964b45">1億円以下かつ非該当</text>
  <text x="209" y="1968" text-anchor="middle" class="node-text">特定同族会社ではない</text>
  <text x="209" y="1992" text-anchor="middle" class="small">B02 17欄が高くても法67条1項で落ちる</text>

  <line x1="810" y1="2050" x2="810" y2="2100" stroke="#2d658f" stroke-width="4" marker-end="url(#arrowBlue)"/>

  <rect x="460" y="2112" width="700" height="130" rx="18" fill="#dff0fb" stroke="#4f8fc5" stroke-width="2.8"/>
  <text x="488" y="2148" class="node-title">9　結論</text>
  <text x="488" y="2178" class="node-text">被支配会社で、非被支配会社法人株主等の除外再判定も通り、清算中でなく、1億円以下なら法66条5項2号〜5号又は6項に該当するもの = 法67条1項の特定同族会社。</text>
  <text x="488" y="2202" class="small">B02 18欄で「特定同族会社」とし、留保金課税の別表三(一)へ進む。</text>

  <rect x="1220" y="420" width="540" height="1500" rx="18" fill="#fff8ea" stroke="#dcc18b" filter="url(#shadow)"/>
  <text x="1248" y="462" class="panel-title">補助論点・実務注意</text>
  <text x="1248" y="490" class="panel-sub">右側は図の読み違いを防ぐための注記。</text>

  <rect x="1248" y="530" width="484" height="154" rx="16" fill="#ffffff" stroke="#d4a14a" stroke-width="2"/>
  <text x="1276" y="564" class="node-title">B02 の3つの判定面</text>
  <text x="1276" y="592" class="mini">1. 株式数又は出資金額</text>
  <text x="1276" y="616" class="mini">2. 議決権の数（種類株式があるとき）</text>
  <text x="1276" y="640" class="mini">3. 社員の数（持分会社）</text>
  <text x="1276" y="664" class="small">どれかで 50%超になれば、その面で判定が立つ。</text>

  <rect x="1248" y="712" width="484" height="174" rx="16" fill="#ffffff" stroke="#d4a14a" stroke-width="2"/>
  <text x="1276" y="746" class="node-title">同族会社と特定同族会社の違い</text>
  <text x="1276" y="774" class="mini">同族会社 = 上位3グループで 50%超</text>
  <text x="1276" y="798" class="mini">特定同族会社 = 上位1グループで 50%超</text>
  <text x="1276" y="822" class="mini">さらに法67条1項の除外再判定と 1億円分岐が乗る</text>
  <text x="1276" y="850" class="small">つまり B02 17欄が高いだけでは足りず、法67条1項のかっこ書きを通る必要がある。</text>

  <rect x="1248" y="914" width="484" height="170" rx="16" fill="#ffffff" stroke="#d4a14a" stroke-width="2"/>
  <text x="1276" y="948" class="node-title">相互持合いの注意</text>
  <text x="1276" y="976" class="node-text">通達16-1-3は、相互に株式を持ち合う場合でも、双方について「非被支配会社法人株主等の除外再判定」をやり直すとする。</text>
  <text x="1276" y="1000" class="small">一方だけ再判定して終わりではない。</text>
  <text x="1276" y="1022" class="small">議決権基準・社員数基準も同じ発想で見る。</text>

  <rect x="1248" y="1112" width="484" height="196" rx="16" fill="#ffffff" stroke="#d4a14a" stroke-width="2"/>
  <text x="1276" y="1146" class="node-title">1億円以下の誤解を防ぐメモ</text>
  <text x="1276" y="1174" class="mini">誤解: 1億円以下なら絶対に特定同族会社ではない</text>
  <text x="1276" y="1198" class="mini">正解: 大法人完全子法人等や大通算法人なら残る</text>
  <text x="1276" y="1222" class="mini">法67条1項が法66条5項2号〜5号・6項を参照</text>
  <text x="1276" y="1250" class="small">No.5800 でも、大法人の100%子法人等では留保金課税不適用が外れると説明されている。</text>

  <rect x="1248" y="1336" width="484" height="196" rx="16" fill="#ffffff" stroke="#d4a14a" stroke-width="2"/>
  <text x="1276" y="1370" class="node-title">B02 で見落としやすい点</text>
  <text x="1276" y="1398" class="mini">・自己株式は分母から控除</text>
  <text x="1276" y="1422" class="mini">・行使不能議決権も分母調整</text>
  <text x="1276" y="1446" class="mini">・同意議決権は外書で本書へ寄せる</text>
  <text x="1276" y="1470" class="mini">・持分会社は社員又は業務執行社員で判定</text>
  <text x="1276" y="1498" class="small">50%ラインは薄い差でひっくり返るため、入力補正の段階が重要。</text>

  <rect x="1248" y="1560" width="484" height="208" rx="16" fill="#ffffff" stroke="#d4a14a" stroke-width="2"/>
  <text x="1276" y="1594" class="node-title">別表二の読替え</text>
  <text x="1276" y="1622" class="mini">10欄が50%超 → 同族会社</text>
  <text x="1276" y="1646" class="mini">17欄が50%超 → 特定同族会社候補</text>
  <text x="1276" y="1670" class="mini">18欄 → 最終結果</text>
  <text x="1276" y="1694" class="mini">「被支配会社でない法人株主等」欄 → 除外再判定の材料</text>
  <text x="1276" y="1722" class="small">ガイドは 17欄と 18欄を明示しているので、実務上はここを軸に読むと速い。</text>

  <rect x="40" y="1964" width="1720" height="520" rx="18" fill="#ffffff" stroke="#ced8e1" filter="url(#shadow)"/>
  <text x="70" y="2006" class="panel-title">ミニ設例　「除外再判定」で結論が変わる</text>
  <text x="70" y="2036" class="panel-sub">法67条1項のかっこ書きは、判定の本体そのもの。単なる注記ではない。</text>

  <rect x="92" y="2084" width="776" height="334" rx="18" fill="#eef8f1" stroke="#6faa81"/>
  <text x="118" y="2120" class="node-title">ケースA　除外後も50%超を維持</text>
  <text x="118" y="2148" class="node-text">個人A 32%、Aの配偶者 12%、Aが支配する法人B 10%、Aが支配するが被支配会社ではない法人C 8%、その他 38%</text>
  <text x="118" y="2172" class="node-text">初回判定: Aグループ 62% → 被支配会社</text>
  <text x="118" y="2196" class="node-text">除外再判定: 非被支配会社法人 C の 8% を外す → 54%</text>
  <text x="118" y="2220" class="node-text">それでも 50%超なので、他の要件も満たせば特定同族会社へ進む。</text>
  <text x="118" y="2246" class="small">ポイントは「Cを含めて終わり」ではなく、「Cを外してなお超えるか」まで見ること。</text>
  <line x1="140" y1="2288" x2="800" y2="2288" stroke="#35724d" stroke-width="4" marker-end="url(#arrowGreen)"/>
  <text x="470" y="2272" text-anchor="middle" class="yes">62% → 54% でも生き残る</text>

  <rect x="906" y="2084" width="762" height="334" rx="18" fill="#fff1f1" stroke="#cf8d87"/>
  <text x="932" y="2120" class="node-title" style="fill:#964b45">ケースB　除外後に50%以下へ落ちる</text>
  <text x="932" y="2148" class="node-text">個人A 29%、Aの配偶者 11%、Aが支配するが被支配会社ではない法人C 12%、その他 48%</text>
  <text x="932" y="2172" class="node-text">初回判定: Aグループ 52% → いったん被支配会社</text>
  <text x="932" y="2196" class="node-text">除外再判定: C の 12% を外す → 40%</text>
  <text x="932" y="2220" class="node-text">50%以下に落ちるので、特定同族会社にはならない。</text>
  <text x="932" y="2246" class="small">B02 17欄だけを見て即断すると、このケースを誤判定しやすい。</text>
  <line x1="954" y1="2288" x2="1638" y2="2288" stroke="#964b45" stroke-width="4" marker-end="url(#arrowRose)"/>
  <text x="1296" y="2272" text-anchor="middle" class="no">52% → 40% に落ちて失格</text>

  <rect x="40" y="2524" width="1720" height="556" rx="18" fill="#ffffff" stroke="#ced8e1" filter="url(#shadow)"/>
  <text x="70" y="2566" class="panel-title">最短の読み順</text>
  <text x="70" y="2596" class="panel-sub">判定フローを迷わず使うなら、この順で確認する。</text>

  <rect x="92" y="2644" width="1578" height="376" rx="18" fill="#fff8ea" stroke="#d4a14a"/>
  <text x="118" y="2680" class="mini">1. 期末現在で判定する（法67条8項）</text>
  <text x="118" y="2706" class="mini">2. 自己株式・行使不能議決権・持分会社の分母補正を行う</text>
  <text x="118" y="2732" class="mini">3. 一人の株主等を起点に、特殊関係個人・特殊関係法人・同意議決権を束ねて 1 グループを作る</text>
  <text x="118" y="2758" class="mini">4. 株式 / 特定議決権 / 社員数 のどれかで 50%超かを確認し、被支配会社判定を立てる</text>
  <text x="118" y="2784" class="mini">5. 非被支配会社法人株主等が混じるなら、その法人を除外してもう一度 50%超かを見る</text>
  <text x="118" y="2810" class="mini">6. 清算中なら終了</text>
  <text x="118" y="2836" class="mini">7. 1億円超ならそのまま特定同族会社、1億円以下なら法66条5項2号〜5号・6項を確認</text>
  <text x="118" y="2862" class="mini">8. 最後に B02 18欄で「特定同族会社」とし、B03(一)へ進む</text>
  <text x="118" y="2900" class="small">入口をざっくり掴むだけなら既存の判定表でも足りるが、相互持合い・同意議決権・1億円以下例外まで安全に処理するなら、この詳細版の順番が実務向きである。</text>
</svg>
