<svg xmlns="http://www.w3.org/2000/svg" viewBox="0 0 1400 2800" font-family="'Helvetica Neue', Arial, 'Hiragino Kaku Gothic ProN', 'Hiragino Sans', Meiryo, sans-serif">
  <defs>
    <linearGradient id="headerGrad" x1="0%" y1="0%" x2="100%" y2="0%">
      <stop offset="0%" style="stop-color:#1a237e;stop-opacity:1"/>
      <stop offset="100%" style="stop-color:#283593;stop-opacity:1"/>
    </linearGradient>
    <linearGradient id="localGrad" x1="0%" y1="0%" x2="0%" y2="100%">
      <stop offset="0%" style="stop-color:#1565c0;stop-opacity:1"/>
      <stop offset="100%" style="stop-color:#1976d2;stop-opacity:1"/>
    </linearGradient>
    <linearGradient id="masterGrad" x1="0%" y1="0%" x2="0%" y2="100%">
      <stop offset="0%" style="stop-color:#00838f;stop-opacity:1"/>
      <stop offset="100%" style="stop-color:#0097a7;stop-opacity:1"/>
    </linearGradient>
    <linearGradient id="cbcrGrad" x1="0%" y1="0%" x2="0%" y2="100%">
      <stop offset="0%" style="stop-color:#4527a0;stop-opacity:1"/>
      <stop offset="100%" style="stop-color:#5e35b1;stop-opacity:1"/>
    </linearGradient>
    <linearGradient id="penaltyGrad" x1="0%" y1="0%" x2="0%" y2="100%">
      <stop offset="0%" style="stop-color:#b71c1c;stop-opacity:1"/>
      <stop offset="100%" style="stop-color:#c62828;stop-opacity:1"/>
    </linearGradient>
    <linearGradient id="flowGrad" x1="0%" y1="0%" x2="0%" y2="100%">
      <stop offset="0%" style="stop-color:#e8eaf6;stop-opacity:1"/>
      <stop offset="100%" style="stop-color:#c5cae9;stop-opacity:1"/>
    </linearGradient>
    <filter id="shadow" x="-3%" y="-3%" width="106%" height="106%">
      <feDropShadow dx="2" dy="3" stdDeviation="4" flood-color="#000" flood-opacity="0.15"/>
    </filter>
    <filter id="shadowSmall" x="-2%" y="-2%" width="104%" height="104%">
      <feDropShadow dx="1" dy="2" stdDeviation="2" flood-color="#000" flood-opacity="0.12"/>
    </filter>
  </defs>

  <!-- ===== 背景 ===== -->
  <rect width="1400" height="2800" fill="#f5f5f5" rx="0"/>

  <!-- ===== メインタイトル ===== -->
  <rect x="40" y="20" width="1320" height="100" rx="12" fill="url(#headerGrad)" filter="url(#shadow)"/>
  <text x="700" y="60" text-anchor="middle" fill="#fff" font-size="28" font-weight="bold">移転価格税制に係る文書化制度　全体構造図</text>
  <text x="700" y="90" text-anchor="middle" fill="#bbdefb" font-size="14">出典：国税庁「移転価格税制に係る文書化制度（FAQ）」令和6年6月 ／ BEPS行動13（平成28年度税制改正）</text>

  <!-- ===== セクション1：3層構造の概念図 ===== -->
  <rect x="40" y="140" width="1320" height="60" rx="8" fill="#37474f" filter="url(#shadowSmall)"/>
  <text x="700" y="178" text-anchor="middle" fill="#fff" font-size="20" font-weight="bold">■ BEPS行動13に基づく移転価格文書の3層構造（Three-tiered Approach）</text>

  <!-- 3層ピラミッド風レイアウト -->
  <!-- Layer 3: CbCR (top) -->
  <rect x="380" y="220" width="640" height="120" rx="10" fill="url(#cbcrGrad)" filter="url(#shadow)"/>
  <text x="700" y="250" text-anchor="middle" fill="#fff" font-size="18" font-weight="bold">第3層：国別報告事項（CbC レポート / CbCR）</text>
  <text x="700" y="275" text-anchor="middle" fill="#e8eaf6" font-size="13">Country-by-Country Report</text>
  <text x="700" y="298" text-anchor="middle" fill="#e8eaf6" font-size="12">多国籍企業グループの国別の活動状況（収入・税額・従業員数等）</text>
  <text x="700" y="318" text-anchor="middle" fill="#ede7f6" font-size="11">措法第66条の4の4</text>

  <!-- Layer 2: Master File (middle) -->
  <rect x="250" y="360" width="900" height="120" rx="10" fill="url(#masterGrad)" filter="url(#shadow)"/>
  <text x="700" y="390" text-anchor="middle" fill="#fff" font-size="18" font-weight="bold">第2層：事業概況報告事項（マスターファイル）</text>
  <text x="700" y="415" text-anchor="middle" fill="#e0f7fa" font-size="13">Master File</text>
  <text x="700" y="438" text-anchor="middle" fill="#e0f7fa" font-size="12">多国籍企業グループの組織構造・事業概要・財務状況等のグローバル全体像</text>
  <text x="700" y="458" text-anchor="middle" fill="#e0f7fa" font-size="11">措法第66条の4の5</text>

  <!-- Layer 1: Local File (bottom/base) -->
  <rect x="120" y="500" width="1160" height="120" rx="10" fill="url(#localGrad)" filter="url(#shadow)"/>
  <text x="700" y="530" text-anchor="middle" fill="#fff" font-size="18" font-weight="bold">第1層：独立企業間価格算定書類（ローカルファイル）</text>
  <text x="700" y="555" text-anchor="middle" fill="#bbdefb" font-size="13">Local File</text>
  <text x="700" y="578" text-anchor="middle" fill="#bbdefb" font-size="12">個々の国外関連取引における独立企業間価格（ALP）算定のための詳細情報</text>
  <text x="700" y="598" text-anchor="middle" fill="#bbdefb" font-size="11">措法第66条の4第6項・第7項</text>

  <!-- 矢印（ピラミッド構造を示す） -->
  <polygon points="340,230 360,230 350,210" fill="#7e57c2" opacity="0.6"/>
  <polygon points="1040,230 1060,230 1050,210" fill="#7e57c2" opacity="0.6"/>
  <polygon points="210,370 230,370 220,350" fill="#00acc1" opacity="0.6"/>
  <polygon points="1170,370 1190,370 1180,350" fill="#00acc1" opacity="0.6"/>

  <!-- 右側に補足：スコープの違い -->
  <rect x="1060" y="225" width="280" height="100" rx="6" fill="#fff" stroke="#7e57c2" stroke-width="1.5" filter="url(#shadowSmall)"/>
  <text x="1200" y="248" text-anchor="middle" fill="#4527a0" font-size="11" font-weight="bold">【スコープの違い】</text>
  <text x="1200" y="268" text-anchor="middle" fill="#333" font-size="10">CbCR → グループ全体（国別集計）</text>
  <text x="1200" y="286" text-anchor="middle" fill="#333" font-size="10">マスターファイル → グループ全体（記述）</text>
  <text x="1200" y="304" text-anchor="middle" fill="#333" font-size="10">ローカルファイル → 個別取引（詳細分析）</text>

  <!-- ===== セクション2：作成義務の判定基準フローチャート ===== -->
  <rect x="40" y="650" width="1320" height="60" rx="8" fill="#37474f" filter="url(#shadowSmall)"/>
  <text x="700" y="688" text-anchor="middle" fill="#fff" font-size="20" font-weight="bold">■ 作成・提供義務の判定基準（免除基準）</text>

  <!-- CbCR / Master File 判定 -->
  <rect x="60" y="730" width="620" height="460" rx="10" fill="#fff" stroke="#5e35b1" stroke-width="2" filter="url(#shadow)"/>
  <rect x="60" y="730" width="620" height="45" rx="10" fill="#5e35b1"/>
  <rect x="60" y="755" width="620" height="20" fill="#5e35b1"/>
  <text x="370" y="760" text-anchor="middle" fill="#fff" font-size="16" font-weight="bold">CbCR ＋ マスターファイル（共通基準）</text>

  <!-- フローチャート -->
  <rect x="160" y="790" width="420" height="38" rx="6" fill="url(#flowGrad)" stroke="#5c6bc0" stroke-width="1.5"/>
  <text x="370" y="814" text-anchor="middle" fill="#1a237e" font-size="12" font-weight="bold">企業グループ（連結財務諸表作成）に該当するか？</text>

  <line x1="370" y1="828" x2="370" y2="848" stroke="#5c6bc0" stroke-width="2" marker-end="url(#arrowBlue)"/>
  <text x="384" y="843" fill="#1b5e20" font-size="10" font-weight="bold">YES</text>

  <rect x="160" y="848" width="420" height="38" rx="6" fill="url(#flowGrad)" stroke="#5c6bc0" stroke-width="1.5"/>
  <text x="370" y="872" text-anchor="middle" fill="#1a237e" font-size="12" font-weight="bold">多国籍企業グループ（2カ国以上）に該当するか？</text>

  <line x1="370" y1="886" x2="370" y2="906" stroke="#5c6bc0" stroke-width="2"/>
  <text x="384" y="901" fill="#1b5e20" font-size="10" font-weight="bold">YES</text>

  <rect x="110" y="906" width="520" height="52" rx="8" fill="#ede7f6" stroke="#4527a0" stroke-width="2"/>
  <text x="370" y="928" text-anchor="middle" fill="#4527a0" font-size="14" font-weight="bold">直前の最終親会計年度の連結総収入金額</text>
  <text x="370" y="948" text-anchor="middle" fill="#b71c1c" font-size="16" font-weight="bold">≧ 1,000億円 → 特定多国籍企業グループ</text>

  <line x1="370" y1="958" x2="370" y2="978" stroke="#4527a0" stroke-width="2"/>
  <text x="384" y="973" fill="#1b5e20" font-size="10" font-weight="bold">YES</text>

  <rect x="160" y="978" width="420" height="38" rx="6" fill="url(#flowGrad)" stroke="#5c6bc0" stroke-width="1.5"/>
  <text x="370" y="1002" text-anchor="middle" fill="#1a237e" font-size="12" font-weight="bold">自社は構成会社等（連結対象等）に該当するか？</text>

  <line x1="370" y1="1016" x2="370" y2="1040" stroke="#5c6bc0" stroke-width="2"/>
  <text x="384" y="1035" fill="#1b5e20" font-size="10" font-weight="bold">YES</text>

  <rect x="180" y="1040" width="380" height="42" rx="8" fill="#4527a0"/>
  <text x="370" y="1065" text-anchor="middle" fill="#fff" font-size="14" font-weight="bold">✓ CbCR・MFの提供義務あり</text>

  <!-- NO分岐 -->
  <text x="600" y="814" fill="#c62828" font-size="10" font-weight="bold">NO →</text>
  <text x="600" y="872" fill="#c62828" font-size="10" font-weight="bold">NO →</text>
  <text x="600" y="1002" fill="#c62828" font-size="10" font-weight="bold">NO →</text>

  <rect x="500" y="1100" width="160" height="34" rx="6" fill="#ffebee" stroke="#c62828" stroke-width="1.5"/>
  <text x="580" y="1122" text-anchor="middle" fill="#c62828" font-size="12" font-weight="bold">提供義務なし</text>
  <line x1="620" y1="812" x2="650" y2="812" stroke="#c62828" stroke-width="1" stroke-dasharray="4"/>
  <line x1="650" y1="812" x2="650" y2="1100" stroke="#c62828" stroke-width="1" stroke-dasharray="4"/>
  <line x1="650" y1="1100" x2="660" y2="1100" stroke="#c62828" stroke-width="1" stroke-dasharray="4"/>
  <line x1="620" y1="870" x2="650" y2="870" stroke="#c62828" stroke-width="1" stroke-dasharray="4"/>
  <line x1="620" y1="1000" x2="650" y2="1000" stroke="#c62828" stroke-width="1" stroke-dasharray="4"/>

  <!-- 補足注 -->
  <text x="90" y="1158" fill="#555" font-size="10">※ 連結総収入金額1,000億円 ≒ OECD勧告の7.5億ユーロ（FAQ問6）</text>
  <text x="90" y="1175" fill="#555" font-size="10">※ 連結対象外の小規模子会社も構成会社等に含まれうる（FAQ問8）</text>

  <!-- ローカルファイル判定 -->
  <rect x="720" y="730" width="620" height="460" rx="10" fill="#fff" stroke="#1565c0" stroke-width="2" filter="url(#shadow)"/>
  <rect x="720" y="730" width="620" height="45" rx="10" fill="#1565c0"/>
  <rect x="720" y="755" width="620" height="20" fill="#1565c0"/>
  <text x="1030" y="760" text-anchor="middle" fill="#fff" font-size="16" font-weight="bold">ローカルファイル（同時文書化義務）</text>

  <rect x="780" y="790" width="500" height="38" rx="6" fill="url(#flowGrad)" stroke="#42a5f5" stroke-width="1.5"/>
  <text x="1030" y="814" text-anchor="middle" fill="#0d47a1" font-size="12" font-weight="bold">国外関連者との取引（国外関連取引）があるか？</text>

  <line x1="1030" y1="828" x2="1030" y2="855" stroke="#42a5f5" stroke-width="2"/>
  <text x="1044" y="848" fill="#1b5e20" font-size="10" font-weight="bold">YES</text>

  <rect x="760" y="855" width="540" height="80" rx="8" fill="#e3f2fd" stroke="#1565c0" stroke-width="2"/>
  <text x="1030" y="878" text-anchor="middle" fill="#0d47a1" font-size="12" font-weight="bold">一の国外関連者との前事業年度の取引について：</text>
  <text x="1030" y="900" text-anchor="middle" fill="#b71c1c" font-size="14" font-weight="bold">① 取引金額（受払合計）≧ 50億円</text>
  <text x="1030" y="922" text-anchor="middle" fill="#b71c1c" font-size="14" font-weight="bold">② 無形資産取引金額（受払合計）≧ 3億円</text>

  <text x="1030" y="952" text-anchor="middle" fill="#1a237e" font-size="12" font-weight="bold">上記①または②に該当するか？</text>

  <!-- YES分岐 -->
  <line x1="880" y1="958" x2="880" y2="990" stroke="#1565c0" stroke-width="2"/>
  <text x="893" y="982" fill="#1b5e20" font-size="10" font-weight="bold">YES</text>
  <rect x="770" y="990" width="220" height="52" rx="8" fill="#1565c0"/>
  <text x="880" y="1012" text-anchor="middle" fill="#fff" font-size="12" font-weight="bold">✓ 同時文書化義務あり</text>
  <text x="880" y="1030" text-anchor="middle" fill="#bbdefb" font-size="10">確定申告期限までに作成・保存</text>

  <!-- NO分岐 -->
  <line x1="1180" y1="958" x2="1180" y2="990" stroke="#e65100" stroke-width="2"/>
  <text x="1193" y="982" fill="#c62828" font-size="10" font-weight="bold">NO</text>
  <rect x="1060" y="990" width="230" height="52" rx="8" fill="#e65100"/>
  <text x="1175" y="1012" text-anchor="middle" fill="#fff" font-size="12" font-weight="bold">同時文書化義務は免除</text>
  <text x="1175" y="1030" text-anchor="middle" fill="#ffe0b2" font-size="10">ただしLF作成義務自体は残る</text>

  <!-- 下部注釈 -->
  <rect x="760" y="1060" width="540" height="110" rx="6" fill="#fff3e0" stroke="#e65100" stroke-width="1.2"/>
  <text x="780" y="1082" fill="#e65100" font-size="11" font-weight="bold">【重要】同時文書化免除 ≠ 文書化不要</text>
  <text x="780" y="1100" fill="#333" font-size="10">• 免除取引でも調査時に書類提出を求められた場合</text>
  <text x="790" y="1115" fill="#333" font-size="10">→ 求められた日から60日以内に提出（FAQ問69）</text>
  <text x="780" y="1133" fill="#333" font-size="10">• 同時文書化義務がある取引の場合</text>
  <text x="790" y="1148" fill="#333" font-size="10">→ 求められた日から45日以内に提出（FAQ問66）</text>
  <text x="780" y="1165" fill="#b71c1c" font-size="10" font-weight="bold">※ 期限内に提出できない場合 → 推定課税・質問検査権の発動リスク</text>

  <!-- ===== セクション3：各文書の詳細比較表 ===== -->
  <rect x="40" y="1210" width="1320" height="60" rx="8" fill="#37474f" filter="url(#shadowSmall)"/>
  <text x="700" y="1248" text-anchor="middle" fill="#fff" font-size="20" font-weight="bold">■ 3文書の詳細比較（提供義務者・記載事項・提出期限・使用言語・罰則）</text>

  <!-- 比較表 -->
  <rect x="40" y="1290" width="1320" height="680" rx="8" fill="#fff" stroke="#bdbdbd" stroke-width="1" filter="url(#shadow)"/>

  <!-- ヘッダー行 -->
  <rect x="40" y="1290" width="200" height="50" fill="#455a64"/>
  <rect x="240" y="1290" width="390" height="50" fill="#1565c0"/>
  <rect x="630" y="1290" width="370" height="50" fill="#00838f"/>
  <rect x="1000" y="1290" width="360" height="50" fill="#4527a0"/>
  <text x="140" y="1320" text-anchor="middle" fill="#fff" font-size="13" font-weight="bold">項目</text>
  <text x="435" y="1312" text-anchor="middle" fill="#fff" font-size="14" font-weight="bold">ローカルファイル</text>
  <text x="435" y="1330" text-anchor="middle" fill="#bbdefb" font-size="10">Local File（LF）</text>
  <text x="815" y="1312" text-anchor="middle" fill="#fff" font-size="14" font-weight="bold">マスターファイル</text>
  <text x="815" y="1330" text-anchor="middle" fill="#e0f7fa" font-size="10">Master File（MF）</text>
  <text x="1180" y="1312" text-anchor="middle" fill="#fff" font-size="14" font-weight="bold">国別報告事項</text>
  <text x="1180" y="1330" text-anchor="middle" fill="#ede7f6" font-size="10">CbC Report（CbCR）</text>

  <!-- 行1: 根拠法令 -->
  <rect x="40" y="1340" width="200" height="50" fill="#eceff1"/>
  <text x="140" y="1370" text-anchor="middle" fill="#37474f" font-size="11" font-weight="bold">根拠法令</text>
  <rect x="240" y="1340" width="390" height="50" fill="#e3f2fd" stroke="#e0e0e0" stroke-width="0.5"/>
  <text x="435" y="1362" text-anchor="middle" fill="#333" font-size="10">措法第66条の4第6項・第7項</text>
  <text x="435" y="1378" text-anchor="middle" fill="#333" font-size="10">措規第22条の10</text>
  <rect x="630" y="1340" width="370" height="50" fill="#e0f7fa" stroke="#e0e0e0" stroke-width="0.5"/>
  <text x="815" y="1362" text-anchor="middle" fill="#333" font-size="10">措法第66条の4の5</text>
  <text x="815" y="1378" text-anchor="middle" fill="#333" font-size="10">措規第22条の10の5</text>
  <rect x="1000" y="1340" width="360" height="50" fill="#ede7f6" stroke="#e0e0e0" stroke-width="0.5"/>
  <text x="1180" y="1362" text-anchor="middle" fill="#333" font-size="10">措法第66条の4の4</text>
  <text x="1180" y="1378" text-anchor="middle" fill="#333" font-size="10">措規第22条の10の4</text>

  <!-- 行2: 作成義務者 -->
  <rect x="40" y="1390" width="200" height="70" fill="#eceff1"/>
  <text x="140" y="1425" text-anchor="middle" fill="#37474f" font-size="11" font-weight="bold">作成・提供</text>
  <text x="140" y="1442" text-anchor="middle" fill="#37474f" font-size="11" font-weight="bold">義務者</text>
  <rect x="240" y="1390" width="390" height="70" fill="#fff" stroke="#e0e0e0" stroke-width="0.5"/>
  <text x="435" y="1413" text-anchor="middle" fill="#333" font-size="10">国外関連取引を行った法人</text>
  <text x="435" y="1430" text-anchor="middle" fill="#333" font-size="10">（内国法人・PE有外国法人）</text>
  <text x="435" y="1450" text-anchor="middle" fill="#1565c0" font-size="10" font-weight="bold">※ 規模要件なし（全法人対象）</text>
  <rect x="630" y="1390" width="370" height="70" fill="#fff" stroke="#e0e0e0" stroke-width="0.5"/>
  <text x="815" y="1413" text-anchor="middle" fill="#333" font-size="10">特定多国籍企業Gの構成会社等</text>
  <text x="815" y="1430" text-anchor="middle" fill="#333" font-size="10">である内国法人又はPE有外国法人</text>
  <text x="815" y="1450" text-anchor="middle" fill="#00838f" font-size="10" font-weight="bold">※ 代表1社提供の特例あり</text>
  <rect x="1000" y="1390" width="360" height="70" fill="#fff" stroke="#e0e0e0" stroke-width="0.5"/>
  <text x="1180" y="1408" text-anchor="middle" fill="#333" font-size="10">【条約方式】最終親会社等/代理親会社等</text>
  <text x="1180" y="1425" text-anchor="middle" fill="#333" font-size="10">【子会社方式】構成会社等（内国法人等）</text>
  <text x="1180" y="1445" text-anchor="middle" fill="#4527a0" font-size="10" font-weight="bold">※ 子会社方式：代表1社提供の特例あり</text>

  <!-- 行3: 免除基準 -->
  <rect x="40" y="1460" width="200" height="80" fill="#eceff1"/>
  <text x="140" y="1500" text-anchor="middle" fill="#37474f" font-size="11" font-weight="bold">免除基準</text>
  <rect x="240" y="1460" width="390" height="80" fill="#e3f2fd" stroke="#e0e0e0" stroke-width="0.5"/>
  <text x="435" y="1483" text-anchor="middle" fill="#b71c1c" font-size="11" font-weight="bold">【同時文書化義務の免除】</text>
  <text x="435" y="1500" text-anchor="middle" fill="#333" font-size="10">一の国外関連者との前事業年度の取引で</text>
  <text x="435" y="1517" text-anchor="middle" fill="#333" font-size="10">①取引金額＜50億円 かつ</text>
  <text x="435" y="1533" text-anchor="middle" fill="#333" font-size="10">②無形資産取引金額＜3億円</text>
  <rect x="630" y="1460" width="370" height="80" fill="#e0f7fa" stroke="#e0e0e0" stroke-width="0.5"/>
  <text x="815" y="1490" text-anchor="middle" fill="#b71c1c" font-size="11" font-weight="bold">連結総収入金額</text>
  <text x="815" y="1510" text-anchor="middle" fill="#b71c1c" font-size="14" font-weight="bold">＜ 1,000億円</text>
  <text x="815" y="1530" text-anchor="middle" fill="#555" font-size="10">（直前の最終親会計年度）</text>
  <rect x="1000" y="1460" width="360" height="80" fill="#ede7f6" stroke="#e0e0e0" stroke-width="0.5"/>
  <text x="1180" y="1490" text-anchor="middle" fill="#b71c1c" font-size="11" font-weight="bold">連結総収入金額</text>
  <text x="1180" y="1510" text-anchor="middle" fill="#b71c1c" font-size="14" font-weight="bold">＜ 1,000億円</text>
  <text x="1180" y="1530" text-anchor="middle" fill="#555" font-size="10">（直前の最終親会計年度）</text>

  <!-- 行4: 作成・提供期限 -->
  <rect x="40" y="1540" width="200" height="80" fill="#eceff1"/>
  <text x="140" y="1575" text-anchor="middle" fill="#37474f" font-size="11" font-weight="bold">作成・提供</text>
  <text x="140" y="1592" text-anchor="middle" fill="#37474f" font-size="11" font-weight="bold">期限</text>
  <rect x="240" y="1540" width="390" height="80" fill="#fff" stroke="#e0e0e0" stroke-width="0.5"/>
  <text x="435" y="1563" text-anchor="middle" fill="#333" font-size="10" font-weight="bold">【作成・保存】確定申告書の提出期限</text>
  <text x="435" y="1580" text-anchor="middle" fill="#333" font-size="10">【提出】調査時に求められてから</text>
  <text x="435" y="1597" text-anchor="middle" fill="#1565c0" font-size="11" font-weight="bold">同時文書化対象 → 45日以内</text>
  <text x="435" y="1614" text-anchor="middle" fill="#e65100" font-size="11" font-weight="bold">同時文書化免除 → 60日以内</text>
  <rect x="630" y="1540" width="370" height="80" fill="#fff" stroke="#e0e0e0" stroke-width="0.5"/>
  <text x="815" y="1570" text-anchor="middle" fill="#333" font-size="10">最終親会計年度</text>
  <text x="815" y="1590" text-anchor="middle" fill="#00838f" font-size="13" font-weight="bold">終了の日の翌日から1年以内</text>
  <text x="815" y="1610" text-anchor="middle" fill="#555" font-size="10">e-Taxにより所轄税務署長に提供</text>
  <rect x="1000" y="1540" width="360" height="80" fill="#fff" stroke="#e0e0e0" stroke-width="0.5"/>
  <text x="1180" y="1570" text-anchor="middle" fill="#333" font-size="10">最終親会計年度</text>
  <text x="1180" y="1590" text-anchor="middle" fill="#4527a0" font-size="13" font-weight="bold">終了の日の翌日から1年以内</text>
  <text x="1180" y="1610" text-anchor="middle" fill="#555" font-size="10">e-Taxにより所轄税務署長に提供</text>

  <!-- 行5: 使用言語 -->
  <rect x="40" y="1620" width="200" height="50" fill="#eceff1"/>
  <text x="140" y="1650" text-anchor="middle" fill="#37474f" font-size="11" font-weight="bold">使用言語</text>
  <rect x="240" y="1620" width="390" height="50" fill="#e3f2fd" stroke="#e0e0e0" stroke-width="0.5"/>
  <text x="435" y="1650" text-anchor="middle" fill="#333" font-size="11" font-weight="bold">日本語</text>
  <rect x="630" y="1620" width="370" height="50" fill="#e0f7fa" stroke="#e0e0e0" stroke-width="0.5"/>
  <text x="815" y="1645" text-anchor="middle" fill="#333" font-size="11" font-weight="bold">日本語 又は 英語</text>
  <text x="815" y="1662" text-anchor="middle" fill="#555" font-size="9">※英語の場合、翻訳を求められることあり（FAQ問62）</text>
  <rect x="1000" y="1620" width="360" height="50" fill="#ede7f6" stroke="#e0e0e0" stroke-width="0.5"/>
  <text x="1180" y="1650" text-anchor="middle" fill="#333" font-size="11" font-weight="bold">英語</text>

  <!-- 行6: 提供方法 -->
  <rect x="40" y="1670" width="200" height="50" fill="#eceff1"/>
  <text x="140" y="1700" text-anchor="middle" fill="#37474f" font-size="11" font-weight="bold">提供方法</text>
  <rect x="240" y="1670" width="390" height="50" fill="#fff" stroke="#e0e0e0" stroke-width="0.5"/>
  <text x="435" y="1695" text-anchor="middle" fill="#333" font-size="10">調査時に提示又は提出</text>
  <text x="435" y="1712" text-anchor="middle" fill="#555" font-size="9">（紙・電磁的記録）</text>
  <rect x="630" y="1670" width="370" height="50" fill="#fff" stroke="#e0e0e0" stroke-width="0.5"/>
  <text x="815" y="1700" text-anchor="middle" fill="#333" font-size="11" font-weight="bold">e-Tax（電子提供義務）</text>
  <rect x="1000" y="1670" width="360" height="50" fill="#fff" stroke="#e0e0e0" stroke-width="0.5"/>
  <text x="1180" y="1695" text-anchor="middle" fill="#333" font-size="11" font-weight="bold">e-Tax（電子提供義務）</text>
  <text x="1180" y="1712" text-anchor="middle" fill="#555" font-size="9">XML又はCSV形式</text>

  <!-- 行7: 保存期間 -->
  <rect x="40" y="1720" width="200" height="50" fill="#eceff1"/>
  <text x="140" y="1750" text-anchor="middle" fill="#37474f" font-size="11" font-weight="bold">保存期間</text>
  <rect x="240" y="1720" width="390" height="50" fill="#e3f2fd" stroke="#e0e0e0" stroke-width="0.5"/>
  <text x="435" y="1745" text-anchor="middle" fill="#333" font-size="11">確定申告期限の翌日から7年間</text>
  <text x="435" y="1762" text-anchor="middle" fill="#555" font-size="9">国内事務所で保存（措規22条の10②）</text>
  <rect x="630" y="1720" width="370" height="50" fill="#e0f7fa" stroke="#e0e0e0" stroke-width="0.5"/>
  <text x="815" y="1750" text-anchor="middle" fill="#555" font-size="10">（e-Taxで提供するため</text>
  <text x="815" y="1765" text-anchor="middle" fill="#555" font-size="10">別途保存義務の明示規定なし）</text>
  <rect x="1000" y="1720" width="360" height="50" fill="#ede7f6" stroke="#e0e0e0" stroke-width="0.5"/>
  <text x="1180" y="1750" text-anchor="middle" fill="#555" font-size="10">（e-Taxで提供するため</text>
  <text x="1180" y="1765" text-anchor="middle" fill="#555" font-size="10">別途保存義務の明示規定なし）</text>

  <!-- 行8: 適用開始 -->
  <rect x="40" y="1770" width="200" height="50" fill="#eceff1"/>
  <text x="140" y="1800" text-anchor="middle" fill="#37474f" font-size="11" font-weight="bold">適用開始</text>
  <rect x="240" y="1770" width="390" height="50" fill="#fff" stroke="#e0e0e0" stroke-width="0.5"/>
  <text x="435" y="1800" text-anchor="middle" fill="#333" font-size="10">平成29年4月1日以後開始事業年度</text>
  <rect x="630" y="1770" width="370" height="50" fill="#fff" stroke="#e0e0e0" stroke-width="0.5"/>
  <text x="815" y="1800" text-anchor="middle" fill="#333" font-size="10">平成28年4月1日以後開始の最終親会計年度</text>
  <rect x="1000" y="1770" width="360" height="50" fill="#fff" stroke="#e0e0e0" stroke-width="0.5"/>
  <text x="1180" y="1800" text-anchor="middle" fill="#333" font-size="10">平成28年4月1日以後開始の最終親会計年度</text>

  <!-- 行9: 主な記載事項 -->
  <rect x="40" y="1820" width="200" height="150" fill="#eceff1"/>
  <text x="140" y="1890" text-anchor="middle" fill="#37474f" font-size="11" font-weight="bold">主な記載事項</text>
  <rect x="240" y="1820" width="390" height="150" fill="#e3f2fd" stroke="#e0e0e0" stroke-width="0.5"/>
  <text x="260" y="1842" fill="#333" font-size="10">• 対象法人及びグループの概要</text>
  <text x="260" y="1858" fill="#333" font-size="10">• 国外関連者の概要</text>
  <text x="260" y="1874" fill="#333" font-size="10">• 国外関連取引の詳細（取引類型・金額等）</text>
  <text x="260" y="1890" fill="#333" font-size="10">• 対象法人・関連者の機能・リスク分析</text>
  <text x="260" y="1906" fill="#333" font-size="10">• 事業方針、市場分析</text>
  <text x="260" y="1922" fill="#333" font-size="10">• 独立企業間価格の算定方法（ALP算定）</text>
  <text x="260" y="1938" fill="#333" font-size="10">• 比較対象取引の選定・比較可能性分析</text>
  <text x="260" y="1954" fill="#1565c0" font-size="9">（措規22条の10①各号 ／ 例示集参照）</text>

  <rect x="630" y="1820" width="370" height="150" fill="#e0f7fa" stroke="#e0e0e0" stroke-width="0.5"/>
  <text x="650" y="1842" fill="#333" font-size="10">• グループの組織構造図</text>
  <text x="650" y="1858" fill="#333" font-size="10">• 事業の概要・主要な事業活動</text>
  <text x="650" y="1874" fill="#333" font-size="10">• 重要な無形資産の一覧</text>
  <text x="650" y="1890" fill="#333" font-size="10">• グループ内の金融活動</text>
  <text x="650" y="1906" fill="#333" font-size="10">• 連結財務諸表・財務状況</text>
  <text x="650" y="1922" fill="#333" font-size="10">• 事前確認（APA）等の状況</text>
  <text x="650" y="1938" fill="#333" font-size="10">• グループの移転価格ポリシー</text>
  <text x="650" y="1954" fill="#00838f" font-size="9">（措規22条の10の5①各号）</text>

  <rect x="1000" y="1820" width="360" height="150" fill="#ede7f6" stroke="#e0e0e0" stroke-width="0.5"/>
  <text x="1020" y="1842" fill="#333" font-size="10">【表1】居住地国ごとの：</text>
  <text x="1030" y="1858" fill="#333" font-size="10">収入金額、税引前当期利益、</text>
  <text x="1030" y="1874" fill="#333" font-size="10">納付税額、発生税額、資本金、</text>
  <text x="1030" y="1890" fill="#333" font-size="10">利益剰余金、従業員数、有形資産</text>
  <text x="1020" y="1912" fill="#333" font-size="10">【表2】構成会社等の名称・</text>
  <text x="1030" y="1928" fill="#333" font-size="10">居住地国・主要事業活動</text>
  <text x="1020" y="1948" fill="#333" font-size="10">【表3】追加情報（参考事項）</text>
  <text x="1020" y="1964" fill="#4527a0" font-size="9">（措規22条の10の4①）</text>

  <!-- ===== セクション4：ペナルティ・不利益処分 ===== -->
  <rect x="40" y="2000" width="1320" height="60" rx="8" fill="#37474f" filter="url(#shadowSmall)"/>
  <text x="700" y="2038" text-anchor="middle" fill="#fff" font-size="20" font-weight="bold">■ 不提出・不備の場合のペナルティ・不利益処分</text>

  <!-- LFのペナルティ -->
  <rect x="60" y="2080" width="420" height="280" rx="10" fill="#fff" stroke="#c62828" stroke-width="2" filter="url(#shadow)"/>
  <rect x="60" y="2080" width="420" height="40" rx="10" fill="url(#penaltyGrad)"/>
  <rect x="60" y="2100" width="420" height="20" fill="url(#penaltyGrad)"/>
  <text x="270" y="2106" text-anchor="middle" fill="#fff" font-size="14" font-weight="bold">ローカルファイル不提出の場合</text>

  <text x="80" y="2148" fill="#b71c1c" font-size="13" font-weight="bold">❶ 推定課税（みなし規定）</text>
  <text x="90" y="2168" fill="#333" font-size="10">税務当局が独立企業間価格を推定して</text>
  <text x="90" y="2184" fill="#333" font-size="10">課税することが可能（措法66条の4⑧⑨）</text>

  <text x="80" y="2210" fill="#b71c1c" font-size="13" font-weight="bold">❷ 同種事業者への質問検査権</text>
  <text x="90" y="2230" fill="#333" font-size="10">同種の事業を営む者に対して質問検査を</text>
  <text x="90" y="2246" fill="#333" font-size="10">行うことが可能（措法66条の4⑪⑫）</text>

  <text x="80" y="2272" fill="#b71c1c" font-size="13" font-weight="bold">❸ 調査の長期化リスク</text>
  <text x="90" y="2292" fill="#333" font-size="10">ローカルファイルがない場合、調査が</text>
  <text x="90" y="2308" fill="#333" font-size="10">長期化し事業活動への影響大</text>

  <rect x="90" y="2322" width="370" height="28" rx="4" fill="#ffebee" stroke="#c62828" stroke-width="1"/>
  <text x="275" y="2341" text-anchor="middle" fill="#b71c1c" font-size="10" font-weight="bold">※ 罰金等の直接的な罰則規定はないが、実質的な不利益は甚大</text>

  <!-- MF/CbCRのペナルティ -->
  <rect x="520" y="2080" width="420" height="280" rx="10" fill="#fff" stroke="#c62828" stroke-width="2" filter="url(#shadow)"/>
  <rect x="520" y="2080" width="420" height="40" rx="10" fill="url(#penaltyGrad)"/>
  <rect x="520" y="2100" width="420" height="20" fill="url(#penaltyGrad)"/>
  <text x="730" y="2106" text-anchor="middle" fill="#fff" font-size="14" font-weight="bold">MF・CbCR不提供の場合</text>

  <text x="540" y="2148" fill="#b71c1c" font-size="13" font-weight="bold">❶ 30万円以下の罰金</text>
  <text x="550" y="2168" fill="#333" font-size="10">正当な理由なく期限内に提供しなかった場合</text>
  <text x="550" y="2184" fill="#333" font-size="10">（措法66条の4の4⑦、66条の4の5③）</text>

  <text x="540" y="2210" fill="#b71c1c" font-size="13" font-weight="bold">❷ 情報交換への影響</text>
  <text x="550" y="2230" fill="#333" font-size="10">CbCRは租税条約等に基づき各国税務当局へ</text>
  <text x="550" y="2246" fill="#333" font-size="10">自動的に交換されるため、不備は国際的影響</text>

  <text x="540" y="2272" fill="#b71c1c" font-size="13" font-weight="bold">❸ レピュテーションリスク</text>
  <text x="550" y="2292" fill="#333" font-size="10">外国税務当局からの問合せや</text>
  <text x="550" y="2308" fill="#333" font-size="10">グループ全体の信頼性への影響</text>

  <rect x="550" y="2322" width="370" height="28" rx="4" fill="#ffebee" stroke="#c62828" stroke-width="1"/>
  <text x="735" y="2341" text-anchor="middle" fill="#b71c1c" font-size="10" font-weight="bold">※ FAQ問16：CbCR・MFを提供しなかった場合は罰金の対象</text>

  <!-- 最終親会社等届出事項 -->
  <rect x="980" y="2080" width="360" height="280" rx="10" fill="#fff" stroke="#ff8f00" stroke-width="2" filter="url(#shadow)"/>
  <rect x="980" y="2080" width="360" height="40" rx="10" fill="#ff8f00"/>
  <rect x="980" y="2100" width="360" height="20" fill="#ff8f00"/>
  <text x="1160" y="2106" text-anchor="middle" fill="#fff" font-size="14" font-weight="bold">最終親会社等届出事項</text>

  <text x="1000" y="2148" fill="#e65100" font-size="12" font-weight="bold">【概要】</text>
  <text x="1000" y="2168" fill="#333" font-size="10">最終親会社等及び代理親会社等の</text>
  <text x="1000" y="2184" fill="#333" font-size="10">名称・所在地・法人番号等を届出</text>

  <text x="1000" y="2210" fill="#e65100" font-size="12" font-weight="bold">【提供期限】</text>
  <text x="1000" y="2230" fill="#333" font-size="10">最終親会計年度終了の日まで</text>
  <text x="1000" y="2246" fill="#333" font-size="10">（CbCR・MFより早い）</text>

  <text x="1000" y="2272" fill="#e65100" font-size="12" font-weight="bold">【免除基準】</text>
  <text x="1000" y="2292" fill="#333" font-size="10">連結総収入金額1,000億円未満</text>

  <text x="1000" y="2318" fill="#e65100" font-size="12" font-weight="bold">【提供方法】</text>
  <text x="1000" y="2338" fill="#333" font-size="10">e-Tax（代表1社の特例あり）</text>

  <!-- ===== セクション5：提出期限タイムライン ===== -->
  <rect x="40" y="2390" width="1320" height="60" rx="8" fill="#37474f" filter="url(#shadowSmall)"/>
  <text x="700" y="2428" text-anchor="middle" fill="#fff" font-size="20" font-weight="bold">■ 提供・提出期限のタイムライン（3月決算法人の例）</text>

  <rect x="60" y="2470" width="1280" height="300" rx="10" fill="#fff" filter="url(#shadow)"/>

  <!-- タイムライン軸 -->
  <line x1="120" y1="2580" x2="1280" y2="2580" stroke="#455a64" stroke-width="3"/>

  <!-- 最終親会計年度末 -->
  <circle cx="200" cy="2580" r="8" fill="#37474f"/>
  <line x1="200" y1="2530" x2="200" y2="2572" stroke="#37474f" stroke-width="2"/>
  <text x="200" y="2520" text-anchor="middle" fill="#37474f" font-size="12" font-weight="bold">3月31日</text>
  <text x="200" y="2508" text-anchor="middle" fill="#37474f" font-size="10">会計年度末</text>
  <text x="200" y="2610" text-anchor="middle" fill="#37474f" font-size="9">決算日</text>

  <!-- 最終親会社等届出事項 -->
  <circle cx="200" cy="2580" r="12" fill="none" stroke="#ff8f00" stroke-width="3"/>
  <rect x="100" y="2625" width="200" height="35" rx="5" fill="#ff8f00"/>
  <text x="200" y="2647" text-anchor="middle" fill="#fff" font-size="10" font-weight="bold">最終親会社等届出事項</text>
  <text x="200" y="2670" text-anchor="middle" fill="#e65100" font-size="9">3/31まで（年度末まで）</text>

  <!-- 確定申告期限（ローカルファイル） -->
  <circle cx="500" cy="2580" r="8" fill="#1565c0"/>
  <line x1="500" y1="2530" x2="500" y2="2572" stroke="#1565c0" stroke-width="2"/>
  <text x="500" y="2520" text-anchor="middle" fill="#1565c0" font-size="12" font-weight="bold">5月31日</text>
  <text x="500" y="2508" text-anchor="middle" fill="#1565c0" font-size="10">確定申告期限</text>
  <rect x="400" y="2625" width="200" height="35" rx="5" fill="#1565c0"/>
  <text x="500" y="2647" text-anchor="middle" fill="#fff" font-size="10" font-weight="bold">ローカルファイル作成・保存</text>
  <text x="500" y="2670" text-anchor="middle" fill="#1565c0" font-size="9">確定申告期限まで（同時文書化）</text>

  <!-- 調査時の提出期限 -->
  <rect x="530" y="2695" width="280" height="50" rx="5" fill="#fff3e0" stroke="#e65100" stroke-width="1.2"/>
  <text x="670" y="2715" text-anchor="middle" fill="#e65100" font-size="10" font-weight="bold">【調査時の提出期限】</text>
  <text x="670" y="2733" text-anchor="middle" fill="#333" font-size="9">同時文書化対象→45日 ／ 免除→60日</text>

  <!-- CbCR・MF提供期限 -->
  <circle cx="1050" cy="2580" r="8" fill="#4527a0"/>
  <line x1="1050" y1="2530" x2="1050" y2="2572" stroke="#4527a0" stroke-width="2"/>
  <text x="1050" y="2520" text-anchor="middle" fill="#4527a0" font-size="12" font-weight="bold">翌年3月31日</text>
  <text x="1050" y="2508" text-anchor="middle" fill="#4527a0" font-size="10">年度末翌日から1年</text>

  <rect x="910" y="2625" width="130" height="35" rx="5" fill="#4527a0"/>
  <text x="975" y="2647" text-anchor="middle" fill="#fff" font-size="10" font-weight="bold">CbCR提供</text>

  <rect x="1050" y="2625" width="130" height="35" rx="5" fill="#00838f"/>
  <text x="1115" y="2647" text-anchor="middle" fill="#fff" font-size="10" font-weight="bold">MF提供</text>

  <text x="1050" y="2670" text-anchor="middle" fill="#4527a0" font-size="9">翌年3/31まで（e-Tax）</text>

  <!-- 区間表示 -->
  <line x1="200" y1="2490" x2="1050" y2="2490" stroke="#9e9e9e" stroke-width="1" stroke-dasharray="4"/>
  <text x="625" y="2486" text-anchor="middle" fill="#9e9e9e" font-size="10">← 12ヶ月 →</text>

  <!-- ===== フッター注記 ===== -->
  <rect x="40" y="2780" width="1320" height="16" rx="4" fill="none"/>
  <text x="700" y="2792" text-anchor="middle" fill="#9e9e9e" font-size="9">※ 本図は国税庁「移転価格税制に係る文書化制度（FAQ）」令和6年6月 及び「移転価格税制に係る文書化制度に関する改正のあらまし」（平成28年6月）に基づき作成。法令の詳細は原文をご確認ください。</text>

</svg>