<svg xmlns="http://www.w3.org/2000/svg" viewBox="0 0 1400 2200" font-family="'Helvetica Neue', Arial, sans-serif">
  <defs>
    <linearGradient id="headerGrad" x1="0%" y1="0%" x2="100%" y2="0%">
      <stop offset="0%" style="stop-color:#1a237e;stop-opacity:1" />
      <stop offset="100%" style="stop-color:#283593;stop-opacity:1" />
    </linearGradient>
    <linearGradient id="blueGrad" x1="0%" y1="0%" x2="0%" y2="100%">
      <stop offset="0%" style="stop-color:#e3f2fd;stop-opacity:1" />
      <stop offset="100%" style="stop-color:#bbdefb;stop-opacity:1" />
    </linearGradient>
    <linearGradient id="greenGrad" x1="0%" y1="0%" x2="0%" y2="100%">
      <stop offset="0%" style="stop-color:#e8f5e9;stop-opacity:1" />
      <stop offset="100%" style="stop-color:#c8e6c9;stop-opacity:1" />
    </linearGradient>
    <linearGradient id="orangeGrad" x1="0%" y1="0%" x2="0%" y2="100%">
      <stop offset="0%" style="stop-color:#fff3e0;stop-opacity:1" />
      <stop offset="100%" style="stop-color:#ffe0b2;stop-opacity:1" />
    </linearGradient>
    <linearGradient id="purpleGrad" x1="0%" y1="0%" x2="0%" y2="100%">
      <stop offset="0%" style="stop-color:#f3e5f5;stop-opacity:1" />
      <stop offset="100%" style="stop-color:#e1bee7;stop-opacity:1" />
    </linearGradient>
    <linearGradient id="redGrad" x1="0%" y1="0%" x2="0%" y2="100%">
      <stop offset="0%" style="stop-color:#ffebee;stop-opacity:1" />
      <stop offset="100%" style="stop-color:#ffcdd2;stop-opacity:1" />
    </linearGradient>
    <linearGradient id="tealGrad" x1="0%" y1="0%" x2="0%" y2="100%">
      <stop offset="0%" style="stop-color:#e0f2f1;stop-opacity:1" />
      <stop offset="100%" style="stop-color:#b2dfdb;stop-opacity:1" />
    </linearGradient>
    <filter id="shadow" x="-2%" y="-2%" width="104%" height="104%">
      <feDropShadow dx="2" dy="2" stdDeviation="3" flood-color="#00000022"/>
    </filter>
    <marker id="arrowBlue" markerWidth="10" markerHeight="7" refX="10" refY="3.5" orient="auto">
      <polygon points="0 0, 10 3.5, 0 7" fill="#1565c0"/>
    </marker>
    <marker id="arrowGreen" markerWidth="10" markerHeight="7" refX="10" refY="3.5" orient="auto">
      <polygon points="0 0, 10 3.5, 0 7" fill="#2e7d32"/>
    </marker>
    <marker id="arrowOrange" markerWidth="10" markerHeight="7" refX="10" refY="3.5" orient="auto">
      <polygon points="0 0, 10 3.5, 0 7" fill="#e65100"/>
    </marker>
    <marker id="arrowRed" markerWidth="10" markerHeight="7" refX="10" refY="3.5" orient="auto">
      <polygon points="0 0, 10 3.5, 0 7" fill="#c62828"/>
    </marker>
    <marker id="arrowPurple" markerWidth="10" markerHeight="7" refX="10" refY="3.5" orient="auto">
      <polygon points="0 0, 10 3.5, 0 7" fill="#6a1b9a"/>
    </marker>
    <marker id="arrowGray" markerWidth="10" markerHeight="7" refX="10" refY="3.5" orient="auto">
      <polygon points="0 0, 10 3.5, 0 7" fill="#546e7a"/>
    </marker>
  </defs>

  <!-- Background -->
  <rect width="1400" height="2200" fill="#f5f5f5" rx="8"/>

  <!-- Title Banner -->
  <rect x="0" y="0" width="1400" height="90" fill="url(#headerGrad)" rx="8"/>
  <text x="700" y="38" text-anchor="middle" fill="white" font-size="28" font-weight="bold">移転価格税制の全体構造　─　体系マップ</text>
  <text x="700" y="68" text-anchor="middle" fill="#bbdefb" font-size="15">国税庁「移転価格ガイドブック」（2017年）に基づく包括的整理</text>
  <text x="1380" y="75" text-anchor="end" fill="#90caf9" font-size="11">措置法第66条の4</text>

  <!-- ===== SECTION 1: 制度の目的・基本原理 ===== -->
  <rect x="30" y="110" width="1340" height="230" rx="12" fill="url(#blueGrad)" stroke="#1565c0" stroke-width="2" filter="url(#shadow)"/>
  <rect x="30" y="110" width="1340" height="40" rx="12" fill="#1565c0"/>
  <rect x="30" y="138" width="1340" height="12" fill="#1565c0"/>
  <text x="55" y="137" fill="white" font-size="18" font-weight="bold">❶ 制度の目的・基本原理</text>

  <!-- 目的ボックス -->
  <rect x="55" y="165" width="400" height="80" rx="8" fill="white" stroke="#1565c0" stroke-width="1.5"/>
  <text x="255" y="190" text-anchor="middle" fill="#1565c0" font-size="14" font-weight="bold">制度目的</text>
  <text x="255" y="212" text-anchor="middle" fill="#333" font-size="12">国外関連取引を通じた所得の海外移転に対処し</text>
  <text x="255" y="228" text-anchor="middle" fill="#333" font-size="12">適正な国際課税を実現する（1986年導入）</text>

  <!-- 独立企業原則 -->
  <rect x="500" y="165" width="400" height="80" rx="8" fill="white" stroke="#1565c0" stroke-width="1.5"/>
  <text x="700" y="190" text-anchor="middle" fill="#1565c0" font-size="14" font-weight="bold">独立企業原則（Arm's Length Principle）</text>
  <text x="700" y="212" text-anchor="middle" fill="#333" font-size="12">国外関連者との取引価格を、独立した第三者間で</text>
  <text x="700" y="228" text-anchor="middle" fill="#333" font-size="12">行われる取引価格と比較して課税所得を算定</text>

  <!-- 国外関連者定義 -->
  <rect x="945" y="165" width="400" height="80" rx="8" fill="white" stroke="#1565c0" stroke-width="1.5"/>
  <text x="1145" y="190" text-anchor="middle" fill="#1565c0" font-size="14" font-weight="bold">国外関連者の定義</text>
  <text x="1145" y="212" text-anchor="middle" fill="#333" font-size="12">50%以上の株式保有関係等の</text>
  <text x="1145" y="228" text-anchor="middle" fill="#333" font-size="12">特殊の関係のある外国法人</text>

  <!-- 仕組み図（簡易版） -->
  <rect x="55" y="258" width="620" height="68" rx="8" fill="#e8eaf6" stroke="#3f51b5" stroke-width="1" stroke-dasharray="4,2"/>
  <text x="65" y="278" fill="#283593" font-size="12" font-weight="bold">【独立企業間価格の算定イメージ】</text>
  <text x="65" y="298" fill="#333" font-size="11">対象法人 →（移転価格110円）→ 国外関連者 → 第三者（150円）  利益10円</text>
  <text x="65" y="314" fill="#333" font-size="11">比較対象 →（独立企業間価格120円）→ 第三者 → 第三者（150円）  利益20円  ∴ 差額10円を課税</text>

  <!-- OECD基盤 -->
  <rect x="700" y="258" width="645" height="68" rx="8" fill="#e8eaf6" stroke="#3f51b5" stroke-width="1" stroke-dasharray="4,2"/>
  <text x="710" y="278" fill="#283593" font-size="12" font-weight="bold">【国際的基盤】</text>
  <text x="710" y="298" fill="#333" font-size="11">OECD移転価格ガイドラインに沿った算定方法を採用</text>
  <text x="710" y="314" fill="#333" font-size="11">BEPSプロジェクト（2012年〜）の勧告を踏まえた制度整備（2016年度税制改正）</text>

  <!-- ===== SECTION 2: 文書化制度（三層構造） ===== -->
  <rect x="30" y="360" width="1340" height="360" rx="12" fill="url(#greenGrad)" stroke="#2e7d32" stroke-width="2" filter="url(#shadow)"/>
  <rect x="30" y="360" width="1340" height="40" rx="12" fill="#2e7d32"/>
  <rect x="30" y="388" width="1340" height="12" fill="#2e7d32"/>
  <text x="55" y="387" fill="white" font-size="18" font-weight="bold">❷ 移転価格文書化制度（三層構造）── 2016年度税制改正で整備</text>

  <!-- ローカルファイル -->
  <rect x="55" y="415" width="410" height="290" rx="10" fill="white" stroke="#43a047" stroke-width="2"/>
  <rect x="55" y="415" width="410" height="35" rx="10" fill="#43a047"/>
  <rect x="55" y="438" width="410" height="12" fill="#43a047"/>
  <text x="260" y="440" text-anchor="middle" fill="white" font-size="15" font-weight="bold">ローカルファイル（Local File）</text>
  <text x="70" y="472" fill="#1b5e20" font-size="13" font-weight="bold">概要</text>
  <text x="70" y="490" fill="#333" font-size="11">独立企業間価格を算定するための詳細情報</text>
  <text x="70" y="516" fill="#1b5e20" font-size="13" font-weight="bold">同時文書化義務の対象基準</text>
  <text x="70" y="534" fill="#333" font-size="11">・前期の国外関連取引合計額 ≧ 50億円</text>
  <text x="70" y="550" fill="#333" font-size="11">・又は 無形資産取引合計額 ≧ 3億円</text>
  <text x="70" y="576" fill="#1b5e20" font-size="13" font-weight="bold">記載事項</text>
  <text x="70" y="594" fill="#333" font-size="11">・国外関連取引の資産・役務の内容</text>
  <text x="70" y="610" fill="#333" font-size="11">・法人/国外関連者の機能・リスク</text>
  <text x="70" y="626" fill="#333" font-size="11">・損益明細、事業内容・方針</text>
  <text x="70" y="642" fill="#333" font-size="11">・独立企業間価格の算定方法と選定理由</text>
  <text x="70" y="658" fill="#333" font-size="11">・比較対象取引の選定方法・明細</text>
  <text x="70" y="682" fill="#1b5e20" font-size="13" font-weight="bold">期限：確定申告書の提出期限まで</text>
  <text x="70" y="698" fill="#c62828" font-size="11" font-weight="bold">適用：2017年4月1日以後開始事業年度〜</text>

  <!-- CbCレポート -->
  <rect x="495" y="415" width="410" height="290" rx="10" fill="white" stroke="#43a047" stroke-width="2"/>
  <rect x="495" y="415" width="410" height="35" rx="10" fill="#43a047"/>
  <rect x="495" y="438" width="410" height="12" fill="#43a047"/>
  <text x="700" y="440" text-anchor="middle" fill="white" font-size="15" font-weight="bold">CbCレポート（国別報告書）</text>
  <text x="510" y="472" fill="#1b5e20" font-size="13" font-weight="bold">概要</text>
  <text x="510" y="490" fill="#333" font-size="11">多国籍企業Gの国ごとの収入・納税額配分等</text>
  <text x="510" y="506" fill="#333" font-size="11">国ごとの活動状況に関する情報</text>
  <text x="510" y="532" fill="#1b5e20" font-size="13" font-weight="bold">対象基準</text>
  <text x="510" y="550" fill="#333" font-size="11">最終親会社等の直前会計年度</text>
  <text x="510" y="566" fill="#333" font-size="11">連結総収入金額 ≧ 1,000億円</text>
  <text x="510" y="592" fill="#1b5e20" font-size="13" font-weight="bold">提供方法：e-Tax</text>
  <text x="510" y="614" fill="#1b5e20" font-size="13" font-weight="bold">期限</text>
  <text x="510" y="632" fill="#333" font-size="11">最終親会社等の会計年度終了日の</text>
  <text x="510" y="648" fill="#333" font-size="11">翌日から1年以内</text>
  <text x="510" y="674" fill="#1b5e20" font-size="13" font-weight="bold">使用制限（BEPS勧告）</text>
  <text x="510" y="692" fill="#333" font-size="11">所得配分方式の基礎としてはならない</text>
  <text x="510" y="698" fill="#c62828" font-size="11" font-weight="bold">適用：2016年4月1日以後開始会計年度〜</text>

  <!-- マスターファイル -->
  <rect x="935" y="415" width="410" height="290" rx="10" fill="white" stroke="#43a047" stroke-width="2"/>
  <rect x="935" y="415" width="410" height="35" rx="10" fill="#43a047"/>
  <rect x="935" y="438" width="410" height="12" fill="#43a047"/>
  <text x="1140" y="440" text-anchor="middle" fill="white" font-size="15" font-weight="bold">マスターファイル（事業概況報告事項）</text>
  <text x="950" y="472" fill="#1b5e20" font-size="13" font-weight="bold">概要</text>
  <text x="950" y="490" fill="#333" font-size="11">多国籍企業Gの組織構造・事業概要</text>
  <text x="950" y="506" fill="#333" font-size="11">財務状況等グローバルな活動の全体像</text>
  <text x="950" y="532" fill="#1b5e20" font-size="13" font-weight="bold">対象基準</text>
  <text x="950" y="550" fill="#333" font-size="11">CbCレポートと同一</text>
  <text x="950" y="566" fill="#333" font-size="11">連結総収入金額 ≧ 1,000億円</text>
  <text x="950" y="592" fill="#1b5e20" font-size="13" font-weight="bold">提供方法：e-Tax</text>
  <text x="950" y="614" fill="#1b5e20" font-size="13" font-weight="bold">期限</text>
  <text x="950" y="632" fill="#333" font-size="11">CbCレポートと同一</text>
  <text x="950" y="648" fill="#333" font-size="11">（会計年度終了日の翌日から1年以内）</text>
  <text x="950" y="698" fill="#c62828" font-size="11" font-weight="bold">適用：2016年4月1日以後開始会計年度〜</text>

  <!-- ===== SECTION 3: 執行体制 ===== -->
  <rect x="30" y="740" width="650" height="310" rx="12" fill="url(#orangeGrad)" stroke="#e65100" stroke-width="2" filter="url(#shadow)"/>
  <rect x="30" y="740" width="650" height="40" rx="12" fill="#e65100"/>
  <rect x="30" y="768" width="650" height="12" fill="#e65100"/>
  <text x="55" y="767" fill="white" font-size="18" font-weight="bold">❸ 移転価格税制の執行体制</text>

  <!-- 執行体制の階層 -->
  <rect x="55" y="795" width="600" height="42" rx="6" fill="#bf360c" opacity="0.9"/>
  <text x="355" y="822" text-anchor="middle" fill="white" font-size="14" font-weight="bold">国税庁本庁（税務行政を担う官庁）</text>

  <line x1="355" y1="837" x2="355" y2="852" stroke="#e65100" stroke-width="2" marker-end="url(#arrowOrange)"/>

  <rect x="55" y="855" width="290" height="55" rx="6" fill="white" stroke="#e65100" stroke-width="1.5"/>
  <text x="200" y="876" text-anchor="middle" fill="#e65100" font-size="13" font-weight="bold">国税局（11局）・沖縄国税事務所</text>
  <text x="200" y="896" text-anchor="middle" fill="#333" font-size="11">調査部（移転価格専門部署あり）</text>

  <rect x="365" y="855" width="290" height="55" rx="6" fill="white" stroke="#e65100" stroke-width="1.5"/>
  <text x="510" y="876" text-anchor="middle" fill="#e65100" font-size="13" font-weight="bold">税務署（524署）</text>
  <text x="510" y="896" text-anchor="middle" fill="#333" font-size="11">国際税務専門官 / 法人課税部門</text>

  <line x1="200" y1="910" x2="200" y2="925" stroke="#e65100" stroke-width="1.5" marker-end="url(#arrowOrange)"/>

  <rect x="55" y="930" width="600" height="60" rx="6" fill="#fff8e1" stroke="#ff8f00" stroke-width="1" stroke-dasharray="4,2"/>
  <text x="65" y="950" fill="#e65100" font-size="12" font-weight="bold">専門部署の設置（160名程度が移転価格を専担）</text>
  <text x="65" y="968" fill="#333" font-size="11">東京局：国際情報第一課・第二課、主任国際情報審理官 ／ 大阪局：国際情報第一課・第二課</text>
  <text x="65" y="984" fill="#333" font-size="11">名古屋局：国際情報課 ／ 関東信越局：国際調査課</text>

  <rect x="55" y="1002" width="600" height="32" rx="6" fill="#fff8e1" stroke="#ff8f00" stroke-width="1"/>
  <text x="355" y="1023" text-anchor="middle" fill="#bf360c" font-size="12" font-weight="bold">対象：原則として資本金1億円以上の大規模法人</text>

  <!-- ===== SECTION 4: 事前確認制度 ===== -->
  <rect x="720" y="740" width="650" height="310" rx="12" fill="url(#purpleGrad)" stroke="#6a1b9a" stroke-width="2" filter="url(#shadow)"/>
  <rect x="720" y="740" width="650" height="40" rx="12" fill="#6a1b9a"/>
  <rect x="720" y="768" width="650" height="12" fill="#6a1b9a"/>
  <text x="745" y="767" fill="white" font-size="18" font-weight="bold">❹ 事前確認制度（APA）</text>

  <rect x="745" y="795" width="600" height="55" rx="8" fill="white" stroke="#8e24aa" stroke-width="1.5"/>
  <text x="1045" y="816" text-anchor="middle" fill="#6a1b9a" font-size="13" font-weight="bold">事前確認（Advance Pricing Arrangement）とは</text>
  <text x="1045" y="836" text-anchor="middle" fill="#333" font-size="11">納税者の申出に基づき、独立企業間価格の算定方法等を税務署長等が事前に確認する制度</text>

  <line x1="1045" y1="850" x2="1045" y2="865" stroke="#6a1b9a" stroke-width="1.5" marker-end="url(#arrowPurple)"/>

  <rect x="745" y="868" width="290" height="70" rx="8" fill="white" stroke="#8e24aa" stroke-width="1.5"/>
  <text x="890" y="892" text-anchor="middle" fill="#6a1b9a" font-size="13" font-weight="bold">目的</text>
  <text x="890" y="912" text-anchor="middle" fill="#333" font-size="11">移転価格課税に関する</text>
  <text x="890" y="928" text-anchor="middle" fill="#333" font-size="11">納税者の予測可能性を確保</text>

  <rect x="1055" y="868" width="290" height="70" rx="8" fill="white" stroke="#8e24aa" stroke-width="1.5"/>
  <text x="1200" y="892" text-anchor="middle" fill="#6a1b9a" font-size="13" font-weight="bold">沿革</text>
  <text x="1200" y="912" text-anchor="middle" fill="#333" font-size="11">1987年に日本が世界に先駆けて導入</text>
  <text x="1200" y="928" text-anchor="middle" fill="#333" font-size="11">審査体制を継続的に拡充</text>

  <line x1="1045" y1="938" x2="1045" y2="953" stroke="#6a1b9a" stroke-width="1.5" marker-end="url(#arrowPurple)"/>

  <rect x="745" y="958" width="600" height="78" rx="8" fill="#f3e5f5" stroke="#ce93d8" stroke-width="1" stroke-dasharray="4,2"/>
  <text x="755" y="980" fill="#6a1b9a" font-size="12" font-weight="bold">審査体制の拡充経緯</text>
  <text x="755" y="998" fill="#333" font-size="11">2005年 東京局に国際情報第二課新設 → 2008年 大阪局に同課新設</text>
  <text x="755" y="1014" fill="#333" font-size="11">2011年 東京局に主任国際情報審理官新設 → 2013年 名古屋局に国際情報課新設</text>
  <text x="755" y="1030" fill="#333" font-size="11">2016年 東京局に主任国際情報審理官増設</text>

  <!-- ===== SECTION 5: 国税庁の具体的取組 ===== -->
  <rect x="30" y="1070" width="1340" height="380" rx="12" fill="url(#tealGrad)" stroke="#00695c" stroke-width="2" filter="url(#shadow)"/>
  <rect x="30" y="1070" width="1340" height="40" rx="12" fill="#00695c"/>
  <rect x="30" y="1098" width="1340" height="12" fill="#00695c"/>
  <text x="55" y="1097" fill="white" font-size="18" font-weight="bold">❺ 国税庁の具体的取組（2017年7月〜）── 自発的な税務コンプライアンスの維持・向上</text>

  <!-- 取組1 -->
  <rect x="55" y="1125" width="420" height="145" rx="8" fill="white" stroke="#00897b" stroke-width="1.5"/>
  <rect x="55" y="1125" width="420" height="28" rx="8" fill="#00897b"/>
  <rect x="55" y="1145" width="420" height="8" fill="#00897b"/>
  <circle cx="75" cy="1139" r="10" fill="white"/>
  <text x="75" y="1143" text-anchor="middle" fill="#00897b" font-size="11" font-weight="bold">1</text>
  <text x="92" y="1143" fill="white" font-size="12" font-weight="bold">個別照会への対応</text>
  <text x="65" y="1172" fill="#333" font-size="11">同時文書化対象取引に関する</text>
  <text x="65" y="1188" fill="#333" font-size="11">個別照会への回答・相談に積極対応</text>
  <text x="65" y="1210" fill="#333" font-size="11">各国税局に企業来訪の相談窓口を設置</text>
  <text x="65" y="1232" fill="#333" font-size="11">専門部署職員が面談に同席する体制</text>
  <text x="65" y="1258" fill="#00695c" font-size="11" font-weight="bold">→ 適正申告による問題の未然防止</text>

  <!-- 取組2 -->
  <rect x="490" y="1125" width="420" height="145" rx="8" fill="white" stroke="#00897b" stroke-width="1.5"/>
  <rect x="490" y="1125" width="420" height="28" rx="8" fill="#00897b"/>
  <rect x="490" y="1145" width="420" height="8" fill="#00897b"/>
  <circle cx="510" cy="1139" r="10" fill="white"/>
  <text x="510" y="1143" text-anchor="middle" fill="#00897b" font-size="11" font-weight="bold">2</text>
  <text x="527" y="1143" fill="white" font-size="12" font-weight="bold">企業訪問による指導・助言</text>
  <text x="500" y="1172" fill="#333" font-size="11">同時文書化義務対象企業を訪問</text>
  <text x="500" y="1188" fill="#333" font-size="11">ローカルファイルの作成状況を確認</text>
  <text x="500" y="1210" fill="#333" font-size="11">必要に応じて指導・助言を実施</text>
  <text x="500" y="1258" fill="#00695c" font-size="11" font-weight="bold">→ 文書化制度の適正・円滑な実施</text>

  <!-- 取組3 -->
  <rect x="925" y="1125" width="420" height="145" rx="8" fill="white" stroke="#00897b" stroke-width="1.5"/>
  <rect x="925" y="1125" width="420" height="28" rx="8" fill="#00897b"/>
  <rect x="925" y="1145" width="420" height="8" fill="#00897b"/>
  <circle cx="945" cy="1139" r="10" fill="white"/>
  <text x="945" y="1143" text-anchor="middle" fill="#00897b" font-size="11" font-weight="bold">3</text>
  <text x="962" y="1143" fill="white" font-size="12" font-weight="bold">情報発信・適用基準の明確化</text>
  <text x="935" y="1172" fill="#333" font-size="11">法令解釈通達・事務運営指針の改正</text>
  <text x="935" y="1188" fill="#333" font-size="11">OECD移転価格ガイドライン改訂も踏まえ</text>
  <text x="935" y="1210" fill="#333" font-size="11">運用の明確化と有用情報の発信</text>
  <text x="935" y="1232" fill="#333" font-size="11">移転価格ガイドブックの公表</text>
  <text x="935" y="1258" fill="#00695c" font-size="11" font-weight="bold">→ 納税者の予測可能性の向上</text>

  <!-- 取組4 -->
  <rect x="55" y="1285" width="310" height="145" rx="8" fill="white" stroke="#00897b" stroke-width="1.5"/>
  <rect x="55" y="1285" width="310" height="28" rx="8" fill="#00897b"/>
  <rect x="55" y="1305" width="310" height="8" fill="#00897b"/>
  <circle cx="75" cy="1299" r="10" fill="white"/>
  <text x="75" y="1303" text-anchor="middle" fill="#00897b" font-size="11" font-weight="bold">4</text>
  <text x="92" y="1303" fill="white" font-size="12" font-weight="bold">事前確認の適切な処理</text>
  <text x="65" y="1332" fill="#333" font-size="11">APA相談に的確に対応</text>
  <text x="65" y="1350" fill="#333" font-size="11">審査の効率化</text>
  <text x="65" y="1368" fill="#333" font-size="11">適切な処理の推進</text>
  <text x="65" y="1418" fill="#00695c" font-size="11" font-weight="bold">→ 課税権の確保と予測可能性</text>

  <!-- 取組5 -->
  <rect x="385" y="1285" width="310" height="145" rx="8" fill="white" stroke="#00897b" stroke-width="1.5"/>
  <rect x="385" y="1285" width="310" height="28" rx="8" fill="#00897b"/>
  <rect x="385" y="1305" width="310" height="8" fill="#00897b"/>
  <circle cx="405" cy="1299" r="10" fill="white"/>
  <text x="405" y="1303" text-anchor="middle" fill="#00897b" font-size="11" font-weight="bold">5</text>
  <text x="422" y="1303" fill="white" font-size="12" font-weight="bold">TPCG（税務コンプライアンス取組）</text>
  <text x="395" y="1332" fill="#333" font-size="11">移転価格上の税務コンプライアンス</text>
  <text x="395" y="1350" fill="#333" font-size="11">の維持・向上に向けた取組を実施</text>
  <text x="395" y="1368" fill="#333" font-size="11">啓発活動を継続</text>
  <text x="395" y="1418" fill="#00695c" font-size="11" font-weight="bold">→ 協力的手法による啓発</text>

  <!-- 取組6 -->
  <rect x="715" y="1285" width="310" height="145" rx="8" fill="white" stroke="#00897b" stroke-width="1.5"/>
  <rect x="715" y="1285" width="310" height="28" rx="8" fill="#00897b"/>
  <rect x="715" y="1305" width="310" height="8" fill="#00897b"/>
  <circle cx="735" cy="1299" r="10" fill="white"/>
  <text x="735" y="1303" text-anchor="middle" fill="#00897b" font-size="11" font-weight="bold">6</text>
  <text x="752" y="1303" fill="white" font-size="12" font-weight="bold">移転価格調査の適切な実施</text>
  <text x="725" y="1332" fill="#333" font-size="11">あらゆる資料・情報を収集・分析</text>
  <text x="725" y="1350" fill="#333" font-size="11">調査必要度の高い事案を重点調査</text>
  <text x="725" y="1368" fill="#333" font-size="11">海外所得移転が想定される事案</text>
  <text x="725" y="1418" fill="#00695c" font-size="11" font-weight="bold">→ 適正・公平な課税の実現</text>

  <!-- 取組7 -->
  <rect x="1045" y="1285" width="300" height="145" rx="8" fill="white" stroke="#00897b" stroke-width="1.5"/>
  <rect x="1045" y="1285" width="300" height="28" rx="8" fill="#00897b"/>
  <rect x="1045" y="1305" width="300" height="8" fill="#00897b"/>
  <circle cx="1065" cy="1299" r="10" fill="white"/>
  <text x="1065" y="1303" text-anchor="middle" fill="#00897b" font-size="11" font-weight="bold">7</text>
  <text x="1082" y="1303" fill="white" font-size="12" font-weight="bold">CbCレポートの適切使用監視</text>
  <text x="1055" y="1332" fill="#333" font-size="11">OECDモニタリングに参画</text>
  <text x="1055" y="1350" fill="#333" font-size="11">外国税務当局のCbC使用を監視</text>
  <text x="1055" y="1368" fill="#333" font-size="11">企業からの情報も参考に活用</text>
  <text x="1055" y="1386" fill="#333" font-size="11">BEPS勧告遵守を要求</text>
  <text x="1055" y="1418" fill="#00695c" font-size="11" font-weight="bold">→ 不適切使用の防止</text>

  <!-- ===== SECTION 6: 調査→二重課税解消フロー ===== -->
  <rect x="30" y="1470" width="1340" height="220" rx="12" fill="url(#redGrad)" stroke="#c62828" stroke-width="2" filter="url(#shadow)"/>
  <rect x="30" y="1470" width="1340" height="40" rx="12" fill="#c62828"/>
  <rect x="30" y="1498" width="1340" height="12" fill="#c62828"/>
  <text x="55" y="1497" fill="white" font-size="18" font-weight="bold">❻ 移転価格調査から二重課税解消までのプロセスフロー</text>

  <!-- フローチャート -->
  <rect x="55" y="1530" width="160" height="60" rx="25" fill="#c62828" opacity="0.9"/>
  <text x="135" y="1555" text-anchor="middle" fill="white" font-size="13" font-weight="bold">確定申告</text>
  <text x="135" y="1573" text-anchor="middle" fill="#ffcdd2" font-size="10">（企業の自主申告）</text>

  <line x1="215" y1="1560" x2="260" y2="1560" stroke="#c62828" stroke-width="2.5" marker-end="url(#arrowRed)"/>

  <rect x="270" y="1530" width="160" height="60" rx="8" fill="white" stroke="#c62828" stroke-width="2"/>
  <text x="350" y="1555" text-anchor="middle" fill="#c62828" font-size="13" font-weight="bold">情報収集・分析</text>
  <text x="350" y="1573" text-anchor="middle" fill="#333" font-size="10">リスク評価</text>

  <line x1="430" y1="1560" x2="475" y2="1560" stroke="#c62828" stroke-width="2.5" marker-end="url(#arrowRed)"/>

  <rect x="485" y="1530" width="160" height="60" rx="8" fill="white" stroke="#c62828" stroke-width="2"/>
  <text x="565" y="1555" text-anchor="middle" fill="#c62828" font-size="13" font-weight="bold">移転価格調査</text>
  <text x="565" y="1573" text-anchor="middle" fill="#333" font-size="10">（長期間の場合あり）</text>

  <line x1="645" y1="1560" x2="690" y2="1560" stroke="#c62828" stroke-width="2.5" marker-end="url(#arrowRed)"/>

  <rect x="700" y="1530" width="160" height="60" rx="8" fill="white" stroke="#c62828" stroke-width="2"/>
  <text x="780" y="1555" text-anchor="middle" fill="#c62828" font-size="13" font-weight="bold">移転価格課税</text>
  <text x="780" y="1573" text-anchor="middle" fill="#333" font-size="10">（多額になる場合あり）</text>

  <line x1="860" y1="1560" x2="905" y2="1560" stroke="#c62828" stroke-width="2.5" marker-end="url(#arrowRed)"/>

  <rect x="915" y="1530" width="180" height="60" rx="8" fill="white" stroke="#c62828" stroke-width="2"/>
  <text x="1005" y="1550" text-anchor="middle" fill="#c62828" font-size="13" font-weight="bold">二国間の二重課税</text>
  <text x="1005" y="1573" text-anchor="middle" fill="#333" font-size="10">（課税の結果として発生）</text>

  <line x1="1095" y1="1560" x2="1140" y2="1560" stroke="#c62828" stroke-width="2.5" marker-end="url(#arrowRed)"/>

  <rect x="1150" y="1530" width="195" height="60" rx="25" fill="#1565c0"/>
  <text x="1247" y="1555" text-anchor="middle" fill="white" font-size="13" font-weight="bold">相互協議（MAP）</text>
  <text x="1247" y="1573" text-anchor="middle" fill="#bbdefb" font-size="10">租税条約に基づく解消</text>

  <!-- 注釈 -->
  <rect x="55" y="1610" width="1290" height="65" rx="6" fill="#fff5f5" stroke="#ef9a9a" stroke-width="1" stroke-dasharray="4,2"/>
  <text x="70" y="1632" fill="#b71c1c" font-size="12" font-weight="bold">課題と対応</text>
  <text x="70" y="1652" fill="#333" font-size="11">・移転価格調査は一般の税務調査より長期間にわたることが多く、課税額も多額になることがある</text>
  <text x="70" y="1668" fill="#333" font-size="11">・相互協議による二重課税の解消にも長期間を要する → 企業・税務当局双方にとって大きな負担 → 自発的コンプライアンスの重要性</text>

  <!-- ===== SECTION 7: ガイドブックの全体構成 ===== -->
  <rect x="30" y="1710" width="1340" height="195" rx="12" fill="white" stroke="#546e7a" stroke-width="2" filter="url(#shadow)"/>
  <rect x="30" y="1710" width="1340" height="40" rx="12" fill="#546e7a"/>
  <rect x="30" y="1738" width="1340" height="12" fill="#546e7a"/>
  <text x="55" y="1737" fill="white" font-size="18" font-weight="bold">❼ 移転価格ガイドブックの三部構成</text>

  <rect x="55" y="1765" width="410" height="125" rx="8" fill="#eceff1" stroke="#78909c" stroke-width="1.5"/>
  <text x="260" y="1792" text-anchor="middle" fill="#37474f" font-size="14" font-weight="bold">Ⅰ 国税庁の取組方針</text>
  <text x="260" y="1812" text-anchor="middle" fill="#333" font-size="11">移転価格文書化制度の整備を踏まえた</text>
  <text x="260" y="1828" text-anchor="middle" fill="#333" font-size="11">今後の方針と具体的取組</text>
  <text x="260" y="1850" text-anchor="middle" fill="#546e7a" font-size="11">執行体制・方針・7つの施策</text>
  <text x="260" y="1880" text-anchor="middle" fill="#78909c" font-size="11">（p.4〜27）</text>

  <line x1="465" y1="1827" x2="490" y2="1827" stroke="#546e7a" stroke-width="2" marker-end="url(#arrowGray)"/>

  <rect x="495" y="1765" width="410" height="125" rx="8" fill="#eceff1" stroke="#78909c" stroke-width="1.5"/>
  <text x="700" y="1792" text-anchor="middle" fill="#37474f" font-size="14" font-weight="bold">Ⅱ 適用におけるポイント</text>
  <text x="700" y="1812" text-anchor="middle" fill="#333" font-size="11">移転価格税制の実務において</text>
  <text x="700" y="1828" text-anchor="middle" fill="#333" font-size="11">検討等を行う項目</text>
  <text x="700" y="1850" text-anchor="middle" fill="#546e7a" font-size="11">設例による調査担当者 vs 納税者の視点比較</text>
  <text x="700" y="1880" text-anchor="middle" fill="#78909c" font-size="11">（p.28〜79）</text>

  <line x1="905" y1="1827" x2="930" y2="1827" stroke="#546e7a" stroke-width="2" marker-end="url(#arrowGray)"/>

  <rect x="935" y="1765" width="410" height="125" rx="8" fill="#eceff1" stroke="#78909c" stroke-width="1.5"/>
  <text x="1140" y="1792" text-anchor="middle" fill="#37474f" font-size="14" font-weight="bold">Ⅲ 同時文書化対応ガイド</text>
  <text x="1140" y="1812" text-anchor="middle" fill="#333" font-size="11">ローカルファイルの作成サンプル</text>
  <text x="1140" y="1828" text-anchor="middle" fill="#333" font-size="11">（仮想企業の取引例を使用）</text>
  <text x="1140" y="1850" text-anchor="middle" fill="#546e7a" font-size="11">全体像・記載事項が分かる作成例</text>
  <text x="1140" y="1880" text-anchor="middle" fill="#78909c" font-size="11">（p.80〜）</text>

  <!-- ===== SECTION 8: BEPS背景 ===== -->
  <rect x="30" y="1925" width="1340" height="145" rx="12" fill="#e8eaf6" stroke="#3949ab" stroke-width="2" filter="url(#shadow)"/>
  <rect x="30" y="1925" width="1340" height="40" rx="12" fill="#3949ab"/>
  <rect x="30" y="1953" width="1340" height="12" fill="#3949ab"/>
  <text x="55" y="1952" fill="white" font-size="18" font-weight="bold">❽ 国際的背景 ── BEPS プロジェクトとの関連</text>

  <rect x="55" y="1982" width="310" height="72" rx="8" fill="white" stroke="#5c6bc0" stroke-width="1.5"/>
  <text x="210" y="2005" text-anchor="middle" fill="#283593" font-size="13" font-weight="bold">BEPSプロジェクト</text>
  <text x="210" y="2023" text-anchor="middle" fill="#333" font-size="11">2012年OECD租税委員会が立上げ</text>
  <text x="210" y="2039" text-anchor="middle" fill="#333" font-size="11">→ OECD/G20共同プロジェクトへ</text>

  <line x1="365" y1="2018" x2="400" y2="2018" stroke="#3949ab" stroke-width="2" marker-end="url(#arrowGray)"/>

  <rect x="410" y="1982" width="310" height="72" rx="8" fill="white" stroke="#5c6bc0" stroke-width="1.5"/>
  <text x="565" y="2005" text-anchor="middle" fill="#283593" font-size="13" font-weight="bold">最終報告書（行動13）</text>
  <text x="565" y="2023" text-anchor="middle" fill="#333" font-size="11">2015年10月公表 → G20サミット了承</text>
  <text x="565" y="2039" text-anchor="middle" fill="#333" font-size="11">三層文書化制度を各国に勧告</text>

  <line x1="720" y1="2018" x2="755" y2="2018" stroke="#3949ab" stroke-width="2" marker-end="url(#arrowGray)"/>

  <rect x="765" y="1982" width="270" height="72" rx="8" fill="white" stroke="#5c6bc0" stroke-width="1.5"/>
  <text x="900" y="2005" text-anchor="middle" fill="#283593" font-size="13" font-weight="bold">日本での制度化</text>
  <text x="900" y="2023" text-anchor="middle" fill="#333" font-size="11">2016年度税制改正</text>
  <text x="900" y="2039" text-anchor="middle" fill="#333" font-size="11">文書化制度を整備</text>

  <line x1="1035" y1="2018" x2="1070" y2="2018" stroke="#3949ab" stroke-width="2" marker-end="url(#arrowGray)"/>

  <rect x="1080" y="1982" width="270" height="72" rx="8" fill="white" stroke="#5c6bc0" stroke-width="1.5"/>
  <text x="1215" y="2005" text-anchor="middle" fill="#283593" font-size="13" font-weight="bold">問題意識</text>
  <text x="1215" y="2023" text-anchor="middle" fill="#333" font-size="11">企業と当局の情報の非対称性</text>
  <text x="1215" y="2039" text-anchor="middle" fill="#333" font-size="11">各国協調による透明性向上</text>

  <!-- フッター -->
  <rect x="0" y="2085" width="1400" height="115" fill="#263238" rx="0"/>
  <text x="700" y="2115" text-anchor="middle" fill="#b0bec5" font-size="14" font-weight="bold">移転価格税制の全体構造 ─ 体系マップ</text>
  <text x="700" y="2140" text-anchor="middle" fill="#78909c" font-size="12">出典：国税庁「移転価格ガイドブック ～自発的な税務コンプライアンスの維持・向上に向けて～」（2017年6月）</text>
  <text x="700" y="2162" text-anchor="middle" fill="#78909c" font-size="11">根拠法令：租税特別措置法第66条の4 ｜ OECD移転価格ガイドライン ｜ BEPSプロジェクト最終報告書（行動8-10, 行動13）</text>
  <text x="700" y="2184" text-anchor="middle" fill="#546e7a" font-size="10">※ 本図はガイドブックの主要部分（p.1〜14）の内容を体系的に整理したものです</text>
</svg>