<svg xmlns="http://www.w3.org/2000/svg" viewBox="0 0 1600 2800" font-family="'Helvetica Neue', Arial, 'Hiragino Kaku Gothic ProN', sans-serif">
  <defs>
    <!-- 本則(青系) -->
    <linearGradient id="honGrad" x1="0%" y1="0%" x2="0%" y2="100%">
      <stop offset="0%" stop-color="#1565C0"/>
      <stop offset="100%" stop-color="#1976D2"/>
    </linearGradient>
    <linearGradient id="honLightGrad" x1="0%" y1="0%" x2="0%" y2="100%">
      <stop offset="0%" stop-color="#42A5F5"/>
      <stop offset="100%" stop-color="#64B5F6"/>
    </linearGradient>
    <!-- 政令(橙系) -->
    <linearGradient id="seiGrad" x1="0%" y1="0%" x2="0%" y2="100%">
      <stop offset="0%" stop-color="#E65100"/>
      <stop offset="100%" stop-color="#EF6C00"/>
    </linearGradient>
    <linearGradient id="seiLightGrad" x1="0%" y1="0%" x2="0%" y2="100%">
      <stop offset="0%" stop-color="#FF9800"/>
      <stop offset="100%" stop-color="#FFB74D"/>
    </linearGradient>
    <!-- 省令(緑系) -->
    <linearGradient id="shoGrad" x1="0%" y1="0%" x2="0%" y2="100%">
      <stop offset="0%" stop-color="#2E7D32"/>
      <stop offset="100%" stop-color="#388E3C"/>
    </linearGradient>
    <linearGradient id="shoLightGrad" x1="0%" y1="0%" x2="0%" y2="100%">
      <stop offset="0%" stop-color="#66BB6A"/>
      <stop offset="100%" stop-color="#81C784"/>
    </linearGradient>
    <!-- 重要判定ポイント(赤系) -->
    <linearGradient id="redGrad" x1="0%" y1="0%" x2="0%" y2="100%">
      <stop offset="0%" stop-color="#C62828"/>
      <stop offset="100%" stop-color="#D32F2F"/>
    </linearGradient>
    <!-- 国際的枠組み(紫系) -->
    <linearGradient id="intlGrad" x1="0%" y1="0%" x2="0%" y2="100%">
      <stop offset="0%" stop-color="#6A1B9A"/>
      <stop offset="100%" stop-color="#7B1FA2"/>
    </linearGradient>
    <linearGradient id="intlLightGrad" x1="0%" y1="0%" x2="0%" y2="100%">
      <stop offset="0%" stop-color="#AB47BC"/>
      <stop offset="100%" stop-color="#CE93D8"/>
    </linearGradient>
    <!-- 影 -->
    <filter id="shadow" x="-2%" y="-2%" width="104%" height="108%">
      <feDropShadow dx="2" dy="3" stdDeviation="3" flood-opacity="0.18"/>
    </filter>
    <filter id="shadowSm" x="-2%" y="-2%" width="104%" height="108%">
      <feDropShadow dx="1" dy="2" stdDeviation="2" flood-opacity="0.13"/>
    </filter>
    <!-- 矢印マーカー -->
    <marker id="arrowBlue" viewBox="0 0 10 10" refX="10" refY="5" markerWidth="8" markerHeight="8" orient="auto-start-reverse">
      <path d="M 0 0 L 10 5 L 0 10 z" fill="#1976D2"/>
    </marker>
    <marker id="arrowOrange" viewBox="0 0 10 10" refX="10" refY="5" markerWidth="8" markerHeight="8" orient="auto-start-reverse">
      <path d="M 0 0 L 10 5 L 0 10 z" fill="#EF6C00"/>
    </marker>
    <marker id="arrowGreen" viewBox="0 0 10 10" refX="10" refY="5" markerWidth="8" markerHeight="8" orient="auto-start-reverse">
      <path d="M 0 0 L 10 5 L 0 10 z" fill="#388E3C"/>
    </marker>
    <marker id="arrowRed" viewBox="0 0 10 10" refX="10" refY="5" markerWidth="8" markerHeight="8" orient="auto-start-reverse">
      <path d="M 0 0 L 10 5 L 0 10 z" fill="#D32F2F"/>
    </marker>
    <marker id="arrowPurple" viewBox="0 0 10 10" refX="10" refY="5" markerWidth="8" markerHeight="8" orient="auto-start-reverse">
      <path d="M 0 0 L 10 5 L 0 10 z" fill="#7B1FA2"/>
    </marker>
    <marker id="arrowGray" viewBox="0 0 10 10" refX="10" refY="5" markerWidth="8" markerHeight="8" orient="auto-start-reverse">
      <path d="M 0 0 L 10 5 L 0 10 z" fill="#78909C"/>
    </marker>
  </defs>

  <!-- ===== 背景 ===== -->
  <rect width="1600" height="2800" fill="#F5F7FA" rx="0"/>

  <!-- ===== タイトル ===== -->
  <rect x="0" y="0" width="1600" height="90" fill="#0D47A1" rx="0"/>
  <text x="800" y="38" text-anchor="middle" fill="#fff" font-size="26" font-weight="bold">移転価格税制 条文マップ（Structure Map）</text>
  <text x="800" y="68" text-anchor="middle" fill="#BBDEFB" font-size="15">租税特別措置法 第66条の4 〜 第66条の4の3 ／ 同施行令 ／ 同施行規則 — 階層構造と参照関係</text>

  <!-- ===== 凡例 ===== -->
  <rect x="30" y="105" width="1540" height="52" rx="8" fill="#fff" stroke="#CFD8DC" stroke-width="1" filter="url(#shadowSm)"/>
  <rect x="50" y="118" width="22" height="22" rx="4" fill="url(#honGrad)"/>
  <text x="80" y="135" font-size="12.5" fill="#333">本則（措法）</text>
  <rect x="200" y="118" width="22" height="22" rx="4" fill="url(#seiGrad)"/>
  <text x="230" y="135" font-size="12.5" fill="#333">政令（措令）</text>
  <rect x="360" y="118" width="22" height="22" rx="4" fill="url(#shoGrad)"/>
  <text x="390" y="135" font-size="12.5" fill="#333">省令（措規）</text>
  <rect x="520" y="118" width="22" height="22" rx="4" fill="url(#redGrad)"/>
  <text x="550" y="135" font-size="12.5" fill="#333">重要判定ポイント</text>
  <rect x="710" y="118" width="22" height="22" rx="4" fill="url(#intlGrad)"/>
  <text x="740" y="135" font-size="12.5" fill="#333">国際的枠組み</text>
  <line x1="900" y1="129" x2="960" y2="129" stroke="#1976D2" stroke-width="2.5" marker-end="url(#arrowBlue)"/>
  <text x="968" y="134" font-size="12.5" fill="#333">参照・委任</text>
  <line x1="1080" y1="129" x2="1140" y2="129" stroke="#78909C" stroke-width="2" stroke-dasharray="6,3" marker-end="url(#arrowGray)"/>
  <text x="1148" y="134" font-size="12.5" fill="#333">関連・連動</text>
  <line x1="1280" y1="129" x2="1340" y2="129" stroke="#D32F2F" stroke-width="2.5" marker-end="url(#arrowRed)"/>
  <text x="1348" y="134" font-size="12.5" fill="#333">判定フロー</text>

  <!-- ================================================================== -->
  <!-- SECTION 1: 核心規定 措法66の4 -->
  <!-- ================================================================== -->
  <rect x="30" y="172" width="1540" height="48" rx="8" fill="url(#honGrad)" filter="url(#shadow)"/>
  <text x="50" y="202" font-size="18" font-weight="bold" fill="#fff">■ 措法 第66条の4（移転価格税制の本則）</text>
  <text x="1540" y="202" text-anchor="end" font-size="13" fill="#BBDEFB">独立企業間価格による課税の特例</text>

  <!-- 第1項: 基本規定 -->
  <rect x="50" y="238" width="460" height="170" rx="10" fill="#E3F2FD" stroke="#1976D2" stroke-width="2" filter="url(#shadowSm)"/>
  <rect x="50" y="238" width="460" height="34" rx="10" fill="url(#honLightGrad)"/>
  <text x="280" y="260" text-anchor="middle" font-size="14" font-weight="bold" fill="#fff">§66の4①　基本規定</text>
  <text x="65" y="292" font-size="12" fill="#333">法人が国外関連者との取引を</text>
  <text x="65" y="310" font-size="12" fill="#333">独立企業間価格と異なる価格で行った場合</text>
  <text x="65" y="328" font-size="12" font-weight="bold" fill="#C62828">→ 独立企業間価格で取引したものとみなして</text>
  <text x="65" y="346" font-size="12" font-weight="bold" fill="#C62828">　 課税所得を計算</text>
  <text x="65" y="370" font-size="11" fill="#546E7A">【国外関連者】特殊の関係（50%以上の持株等）</text>
  <text x="65" y="388" font-size="11" fill="#546E7A">【国外関連取引】資産の販売・購入、役務提供等</text>

  <!-- 第2項: 独立企業間価格の算定方法 -->
  <rect x="540" y="238" width="520" height="170" rx="10" fill="#E3F2FD" stroke="#1976D2" stroke-width="2" filter="url(#shadowSm)"/>
  <rect x="540" y="238" width="520" height="34" rx="10" fill="url(#honLightGrad)"/>
  <text x="800" y="260" text-anchor="middle" font-size="14" font-weight="bold" fill="#fff">§66の4②　独立企業間価格（ALP）の算定方法</text>
  <text x="555" y="292" font-size="12" font-weight="bold" fill="#0D47A1">【基本三法】</text>
  <text x="555" y="310" font-size="12" fill="#333">① 独立価格比準法（CUP法）</text>
  <text x="555" y="328" font-size="12" fill="#333">② 再販売価格基準法（RP法）</text>
  <text x="555" y="346" font-size="12" fill="#333">③ 原価基準法（CP法）</text>
  <text x="800" y="292" font-size="12" font-weight="bold" fill="#0D47A1">【利益法等】</text>
  <text x="800" y="310" font-size="12" fill="#333">④ 利益分割法（PS法）</text>
  <text x="800" y="328" font-size="12" fill="#333">⑤ 取引単位営業利益法（TNMM）</text>
  <text x="800" y="346" font-size="12" fill="#333">⑥ DCF法（§66の4②一ニ(2)）</text>
  <text x="555" y="375" font-size="11.5" fill="#C62828" font-weight="bold">※「最も適切な方法」（ベスト・メソッド・ルール）で選定</text>
  <text x="555" y="395" font-size="11" fill="#546E7A">　 措令39の12⑧で選定要素を規定</text>

  <!-- 赤 判定ポイント -->
  <rect x="1090" y="238" width="470" height="170" rx="10" fill="#FFEBEE" stroke="#C62828" stroke-width="2" filter="url(#shadowSm)"/>
  <rect x="1090" y="238" width="470" height="34" rx="10" fill="url(#redGrad)"/>
  <text x="1325" y="260" text-anchor="middle" font-size="14" font-weight="bold" fill="#fff">重要判定ポイント</text>
  <text x="1105" y="290" font-size="12" font-weight="bold" fill="#C62828">1. 国外関連者に該当するか？</text>
  <text x="1115" y="308" font-size="11" fill="#555">→ 持株割合50%以上 or 実質支配関係</text>
  <text x="1105" y="332" font-size="12" font-weight="bold" fill="#C62828">2. 国外関連取引に該当するか？</text>
  <text x="1115" y="350" font-size="11" fill="#555">→ 棚卸資産/無形資産/役務提供/金銭貸借</text>
  <text x="1105" y="374" font-size="12" font-weight="bold" fill="#C62828">3. ALPとの乖離はあるか？</text>
  <text x="1115" y="392" font-size="11" fill="#555">→ 幅の概念（レンジ）措令39の12⑧</text>

  <!-- 矢印: ①→② -->
  <line x1="510" y1="323" x2="538" y2="323" stroke="#1976D2" stroke-width="2.5" marker-end="url(#arrowBlue)"/>
  <!-- 矢印: ②→判定 -->
  <line x1="1060" y1="323" x2="1088" y2="323" stroke="#D32F2F" stroke-width="2.5" marker-end="url(#arrowRed)"/>

  <!-- §66の4 その他の項 -->
  <rect x="50" y="426" width="300" height="120" rx="10" fill="#E3F2FD" stroke="#1976D2" stroke-width="1.5" filter="url(#shadowSm)"/>
  <rect x="50" y="426" width="300" height="30" rx="10" fill="url(#honLightGrad)"/>
  <text x="200" y="446" text-anchor="middle" font-size="13" font-weight="bold" fill="#fff">§66の4③〜⑥ 推定課税等</text>
  <text x="65" y="474" font-size="11.5" fill="#333">③ 同業者への質問検査権</text>
  <text x="65" y="494" font-size="11.5" fill="#333">④ 推定規定（シークレット・コンパラブル）</text>
  <text x="65" y="514" font-size="11.5" fill="#333">⑤ 秘密保持義務</text>
  <text x="65" y="534" font-size="11.5" fill="#333">⑥ 更正期限の延長（7年→最大10年）</text>

  <rect x="380" y="426" width="300" height="120" rx="10" fill="#E3F2FD" stroke="#1976D2" stroke-width="1.5" filter="url(#shadowSm)"/>
  <rect x="380" y="426" width="300" height="30" rx="10" fill="url(#honLightGrad)"/>
  <text x="530" y="446" text-anchor="middle" font-size="13" font-weight="bold" fill="#fff">§66の4⑦〜⑫ 対応的調整</text>
  <text x="395" y="474" font-size="11.5" fill="#333">⑦ 対応的調整（条約相手国との二重課税排除）</text>
  <text x="395" y="494" font-size="11.5" fill="#333">⑧ 納税猶予（相互協議中）</text>
  <text x="395" y="514" font-size="11.5" fill="#333">⑨〜⑫ 納税猶予の取消・延長等</text>
  <text x="395" y="534" font-size="11" fill="#546E7A">→ 相互協議（MAP）と連動</text>

  <rect x="710" y="426" width="310" height="120" rx="10" fill="#E3F2FD" stroke="#1976D2" stroke-width="1.5" filter="url(#shadowSm)"/>
  <rect x="710" y="426" width="310" height="30" rx="10" fill="url(#honLightGrad)"/>
  <text x="865" y="446" text-anchor="middle" font-size="13" font-weight="bold" fill="#fff">§66の4⑮〜㉑ 文書化義務</text>
  <text x="725" y="474" font-size="11.5" fill="#333">⑮ ローカルファイル（同時文書化）</text>
  <text x="725" y="494" font-size="11.5" fill="#333">⑯ 提出義務（45日/60日ルール）</text>
  <text x="725" y="514" font-size="11.5" fill="#333">⑰〜㉑ 推定課税・罰則との関係</text>
  <text x="725" y="534" font-size="11" fill="#C62828" font-weight="bold">※ 一定規模以上：前期取引50億円超等</text>

  <rect x="1050" y="426" width="310" height="120" rx="10" fill="#E3F2FD" stroke="#1976D2" stroke-width="1.5" filter="url(#shadowSm)"/>
  <rect x="1050" y="426" width="310" height="30" rx="10" fill="url(#honLightGrad)"/>
  <text x="1205" y="446" text-anchor="middle" font-size="13" font-weight="bold" fill="#fff">§66の4㉕㉖ 国外関連者の定義</text>
  <text x="1065" y="474" font-size="11.5" fill="#333">㉕ 「国外関連者」の定義</text>
  <text x="1075" y="494" font-size="11" fill="#555">- 直接・間接50%以上の持株関係</text>
  <text x="1075" y="514" font-size="11" fill="#555">- 実質的支配関係</text>
  <text x="1075" y="534" font-size="11" fill="#555">- 同一の者による支配関係</text>

  <!-- ================================================================== -->
  <!-- SECTION 2: 措法66の4の2 (文書化・CbCR) -->
  <!-- ================================================================== -->
  <rect x="30" y="570" width="1540" height="48" rx="8" fill="url(#honGrad)" filter="url(#shadow)"/>
  <text x="50" y="600" font-size="18" font-weight="bold" fill="#fff">■ 措法 第66条の4の2（多国籍企業情報の報告）</text>
  <text x="1540" y="600" text-anchor="end" font-size="13" fill="#BBDEFB">マスターファイル・CbCR</text>

  <rect x="50" y="636" width="460" height="140" rx="10" fill="#E3F2FD" stroke="#1976D2" stroke-width="2" filter="url(#shadowSm)"/>
  <rect x="50" y="636" width="460" height="34" rx="10" fill="url(#honLightGrad)"/>
  <text x="280" y="658" text-anchor="middle" font-size="14" font-weight="bold" fill="#fff">§66の4の2①② マスターファイル（事業概況報告事項）</text>
  <text x="65" y="692" font-size="12" fill="#333">① 特定多国籍企業グループの構成会社等</text>
  <text x="65" y="712" font-size="12" fill="#333">② 前年度の連結総収入金額 1,000億円以上</text>
  <text x="65" y="738" font-size="12" font-weight="bold" fill="#0D47A1">提出期限：最終親会計年度終了の日の翌日から1年以内</text>
  <text x="65" y="758" font-size="11" fill="#546E7A">e-Taxによる提出（措規22の10の4⑤）</text>

  <rect x="540" y="636" width="460" height="140" rx="10" fill="#E3F2FD" stroke="#1976D2" stroke-width="2" filter="url(#shadowSm)"/>
  <rect x="540" y="636" width="460" height="34" rx="10" fill="url(#honLightGrad)"/>
  <text x="770" y="658" text-anchor="middle" font-size="14" font-weight="bold" fill="#fff">§66の4の2③〜⑨ CbCR（国別報告事項）</text>
  <text x="555" y="692" font-size="12" fill="#333">③ 最終親会社等が提出義務者</text>
  <text x="555" y="712" font-size="12" fill="#333">④ 代理親会社等による提出も可能</text>
  <text x="555" y="738" font-size="12" font-weight="bold" fill="#0D47A1">国別の収入・利益・税額・従業員数等を報告</text>
  <text x="555" y="758" font-size="11" fill="#546E7A">OECD BEPS Action 13に基づく三層構造の一部</text>

  <rect x="1030" y="636" width="530" height="140" rx="10" fill="#EDE7F6" stroke="#7B1FA2" stroke-width="2" filter="url(#shadowSm)"/>
  <rect x="1030" y="636" width="530" height="34" rx="10" fill="url(#intlGrad)"/>
  <text x="1295" y="658" text-anchor="middle" font-size="14" font-weight="bold" fill="#fff">OECD BEPS Action 13 三層構造</text>
  <text x="1045" y="692" font-size="12.5" fill="#4A148C" font-weight="bold">Layer 1: マスターファイル（MF）</text>
  <text x="1055" y="710" font-size="11" fill="#555">→ 措法66の4の2①② ＋ 措規22の10の4</text>
  <text x="1045" y="732" font-size="12.5" fill="#4A148C" font-weight="bold">Layer 2: ローカルファイル（LF）</text>
  <text x="1055" y="750" font-size="11" fill="#555">→ 措法66の4⑮⑯ ＋ 措規22の10③</text>
  <text x="1045" y="772" font-size="12.5" fill="#4A148C" font-weight="bold">Layer 3: 国別報告書（CbCR）</text>
  <text x="1055" y="790" font-size="11" fill="#555">→ 措法66の4の2③〜 ＋ 措規22の10の4⑧</text>

  <!-- 接続線 MF → BEPS -->
  <line x1="510" y1="706" x2="538" y2="706" stroke="#7B1FA2" stroke-width="2" stroke-dasharray="6,3" marker-end="url(#arrowPurple)"/>
  <line x1="1000" y1="706" x2="1028" y2="706" stroke="#7B1FA2" stroke-width="2" stroke-dasharray="6,3" marker-end="url(#arrowPurple)"/>

  <!-- ================================================================== -->
  <!-- SECTION 3: 措法66の4の3 (事前確認) -->
  <!-- ================================================================== -->
  <rect x="30" y="800" width="1540" height="48" rx="8" fill="url(#honGrad)" filter="url(#shadow)"/>
  <text x="50" y="830" font-size="18" font-weight="bold" fill="#fff">■ 措法 第66条の4の3（事前確認制度：APA）</text>
  <text x="1540" y="830" text-anchor="end" font-size="13" fill="#BBDEFB">Advance Pricing Arrangement</text>

  <rect x="50" y="866" width="480" height="130" rx="10" fill="#E3F2FD" stroke="#1976D2" stroke-width="2" filter="url(#shadowSm)"/>
  <rect x="50" y="866" width="480" height="34" rx="10" fill="url(#honLightGrad)"/>
  <text x="290" y="888" text-anchor="middle" font-size="14" font-weight="bold" fill="#fff">§66の4の3①〜③ 確認の申出・効果</text>
  <text x="65" y="920" font-size="12" fill="#333">① 確認を受けた算定方法による取引→66の4①不適用</text>
  <text x="65" y="940" font-size="12" fill="#333">② 国税庁長官への確認の申出</text>
  <text x="65" y="960" font-size="12" fill="#333">③ 確認の取消し要件</text>
  <text x="65" y="982" font-size="11" fill="#546E7A">二国間APA：相互協議を伴うもの（主流）</text>

  <rect x="560" y="866" width="480" height="130" rx="10" fill="#EDE7F6" stroke="#7B1FA2" stroke-width="2" filter="url(#shadowSm)"/>
  <rect x="560" y="866" width="480" height="34" rx="10" fill="url(#intlGrad)"/>
  <text x="800" y="888" text-anchor="middle" font-size="14" font-weight="bold" fill="#fff">相互協議（MAP）との連動</text>
  <text x="575" y="920" font-size="12" fill="#333">租税条約の相互協議条項（典型: OECD モデル条約25条）</text>
  <text x="575" y="940" font-size="12" fill="#333">二国間APAは相互協議の合意が前提</text>
  <text x="575" y="960" font-size="12" fill="#333">移転価格課税に伴う経済的二重課税の排除手段</text>
  <text x="575" y="982" font-size="11" fill="#546E7A">BEPS Action 14: 紛争解決メカニズムの実効性向上</text>

  <rect x="1070" y="866" width="490" height="130" rx="10" fill="#EDE7F6" stroke="#7B1FA2" stroke-width="1.5" filter="url(#shadowSm)"/>
  <rect x="1070" y="866" width="490" height="34" rx="10" fill="url(#intlLightGrad)"/>
  <text x="1315" y="888" text-anchor="middle" font-size="14" font-weight="bold" fill="#fff">OECD 移転価格ガイドライン</text>
  <text x="1085" y="920" font-size="12" fill="#333">独立企業原則（Arm's Length Principle）</text>
  <text x="1085" y="940" font-size="12" fill="#333">BEPS Action 8-10: 価値創造と利益配分の一致</text>
  <text x="1085" y="960" font-size="12" fill="#333">第1の柱（Pillar 1）: 利益配分ルールの見直し</text>
  <text x="1085" y="982" font-size="12" fill="#333">第2の柱（Pillar 2）: グローバルミニマム課税</text>

  <!-- 接続線 APA → MAP -->
  <line x1="530" y1="931" x2="558" y2="931" stroke="#7B1FA2" stroke-width="2.5" marker-end="url(#arrowPurple)"/>
  <!-- 接続線 MAP → OECD -->
  <line x1="1040" y1="931" x2="1068" y2="931" stroke="#7B1FA2" stroke-width="2" stroke-dasharray="6,3" marker-end="url(#arrowPurple)"/>

  <!-- ================================================================== -->
  <!-- SECTION 4: 施行令（措令） -->
  <!-- ================================================================== -->
  <rect x="30" y="1020" width="1540" height="48" rx="8" fill="url(#seiGrad)" filter="url(#shadow)"/>
  <text x="50" y="1050" font-size="18" font-weight="bold" fill="#fff">■ 租税特別措置法施行令（政令）— 措法の委任を受けた詳細規定</text>

  <!-- 措令39の12 -->
  <rect x="50" y="1086" width="740" height="260" rx="10" fill="#FFF3E0" stroke="#EF6C00" stroke-width="2" filter="url(#shadowSm)"/>
  <rect x="50" y="1086" width="740" height="34" rx="10" fill="url(#seiGrad)"/>
  <text x="420" y="1108" text-anchor="middle" font-size="15" font-weight="bold" fill="#fff">措令 第39条の12（§66の4関連 — 中核的施行令）</text>

  <text x="70" y="1142" font-size="13" font-weight="bold" fill="#E65100">① 国外関連者の範囲の詳細</text>
  <text x="85" y="1162" font-size="11.5" fill="#333">持株関係・実質支配関係の具体的判定基準</text>

  <text x="70" y="1188" font-size="13" font-weight="bold" fill="#E65100">②〜⑦ 各算定方法の計算の詳細</text>
  <text x="85" y="1208" font-size="11.5" fill="#333">CUP法：比較対象取引の差異調整（②）</text>
  <text x="85" y="1226" font-size="11.5" fill="#333">RP法・CP法：通常の利益率の算定（③④）</text>
  <text x="85" y="1244" font-size="11.5" fill="#333">PS法：寄与度利益分割法・残余利益分割法（⑤⑥）</text>
  <text x="85" y="1262" font-size="11.5" fill="#333">TNMM：営業利益の指標・比較対象（⑦）</text>

  <text x="70" y="1290" font-size="13" font-weight="bold" fill="#E65100">⑧ ベスト・メソッド・ルールの要素</text>
  <text x="85" y="1310" font-size="11.5" fill="#333">取引内容・機能リスク・比較可能性等を総合考慮</text>

  <text x="420" y="1142" font-size="13" font-weight="bold" fill="#E65100">⑨〜⑪ 無形資産取引の特則</text>
  <text x="435" y="1162" font-size="11.5" fill="#333">所得相応性基準（commensurate with income）</text>
  <text x="435" y="1180" font-size="11.5" fill="#333">特定無形資産のDCF法（⑩⑪）</text>

  <text x="420" y="1208" font-size="13" font-weight="bold" fill="#E65100">⑫〜⑲ 推定課税・質問検査権の手続</text>
  <text x="435" y="1228" font-size="11.5" fill="#333">推定に用いる利益率・類似法人の選定基準</text>

  <text x="420" y="1258" font-size="13" font-weight="bold" fill="#E65100">⑳〜㉕ 文書化の詳細要件</text>
  <text x="435" y="1278" font-size="11.5" fill="#333">同時文書化免除基準（取引金額50億円/3億円）</text>
  <text x="435" y="1296" font-size="11.5" fill="#333">ローカルファイルの記載事項の委任→措規</text>
  <text x="435" y="1316" font-size="11" fill="#C62828" font-weight="bold">※ 50億円超＝同時文書化義務 / 3億円超＝一定の文書準備</text>

  <!-- 措令39の12の2 -->
  <rect x="820" y="1086" width="350" height="260" rx="10" fill="#FFF3E0" stroke="#EF6C00" stroke-width="2" filter="url(#shadowSm)"/>
  <rect x="820" y="1086" width="350" height="34" rx="10" fill="url(#seiGrad)"/>
  <text x="995" y="1108" text-anchor="middle" font-size="14" font-weight="bold" fill="#fff">措令 §39の12の2</text>

  <text x="835" y="1142" font-size="13" font-weight="bold" fill="#E65100">多国籍企業情報の報告</text>
  <text x="835" y="1166" font-size="11.5" fill="#333">① 特定多国籍企業Gの定義</text>
  <text x="845" y="1186" font-size="11" fill="#555">連結総収入 1,000億円以上</text>
  <text x="835" y="1210" font-size="11.5" fill="#333">② 最終親会社等の定義</text>
  <text x="835" y="1234" font-size="11.5" fill="#333">③ 構成会社等の範囲</text>
  <text x="835" y="1258" font-size="11.5" fill="#333">④ CbCR記載事項の細目</text>
  <text x="835" y="1282" font-size="11.5" fill="#333">⑤ マスターファイル記載事項の細目</text>
  <text x="835" y="1306" font-size="11.5" fill="#333">⑥ 代理親会社制度の要件</text>

  <!-- 措令39の12の3 -->
  <rect x="1200" y="1086" width="360" height="260" rx="10" fill="#FFF3E0" stroke="#EF6C00" stroke-width="2" filter="url(#shadowSm)"/>
  <rect x="1200" y="1086" width="360" height="34" rx="10" fill="url(#seiGrad)"/>
  <text x="1380" y="1108" text-anchor="middle" font-size="14" font-weight="bold" fill="#fff">措令 §39の12の3</text>

  <text x="1215" y="1142" font-size="13" font-weight="bold" fill="#E65100">事前確認（APA）の手続</text>
  <text x="1215" y="1166" font-size="11.5" fill="#333">① 確認の申出の手続・添付書類</text>
  <text x="1215" y="1190" font-size="11.5" fill="#333">② 確認の内容（算定方法・対象期間）</text>
  <text x="1215" y="1214" font-size="11.5" fill="#333">③ 確認の効果（遡及適用の可否）</text>
  <text x="1215" y="1238" font-size="11.5" fill="#333">④ 確認の取消・変更事由</text>
  <text x="1215" y="1262" font-size="11.5" fill="#333">⑤ 年次報告書の提出義務</text>
  <text x="1215" y="1290" font-size="11" fill="#546E7A">⑥ 二国間APAと相互協議の連携手続</text>
  <text x="1215" y="1314" font-size="11" fill="#546E7A">⑦ ロールバック（遡及適用）の要件</text>

  <!-- 本則→政令の委任矢印 -->
  <path d="M 280 546 L 280 570" fill="none" stroke="#EF6C00" stroke-width="2"/>
  <path d="M 280 408 L 280 424" fill="none" stroke="#1976D2" stroke-width="1.5"/>

  <!-- 垂直接続矢印: 本則セクション → 政令セクション -->
  <line x1="420" y1="546" x2="420" y2="1084" stroke="#EF6C00" stroke-width="2.5" stroke-dasharray="8,4" marker-end="url(#arrowOrange)"/>
  <text x="430" y="820" font-size="10" fill="#EF6C00" transform="rotate(-90,430,820)">委任</text>

  <line x1="770" y1="776" x2="995" y2="1084" stroke="#EF6C00" stroke-width="2" stroke-dasharray="8,4" marker-end="url(#arrowOrange)"/>
  <line x1="290" y1="996" x2="1380" y2="1084" stroke="#EF6C00" stroke-width="2" stroke-dasharray="8,4" marker-end="url(#arrowOrange)"/>

  <!-- ================================================================== -->
  <!-- SECTION 5: 施行規則（措規） -->
  <!-- ================================================================== -->
  <rect x="30" y="1370" width="1540" height="48" rx="8" fill="url(#shoGrad)" filter="url(#shadow)"/>
  <text x="50" y="1400" font-size="18" font-weight="bold" fill="#fff">■ 租税特別措置法施行規則（省令）— 書式・記載事項等の細目</text>

  <!-- 措規22の10 -->
  <rect x="50" y="1436" width="480" height="230" rx="10" fill="#E8F5E9" stroke="#388E3C" stroke-width="2" filter="url(#shadowSm)"/>
  <rect x="50" y="1436" width="480" height="34" rx="10" fill="url(#shoGrad)"/>
  <text x="290" y="1458" text-anchor="middle" font-size="14" font-weight="bold" fill="#fff">措規 第22条の10（ローカルファイル関連）</text>

  <text x="70" y="1492" font-size="12.5" font-weight="bold" fill="#2E7D32">① ローカルファイルの記載事項</text>
  <text x="85" y="1512" font-size="11" fill="#333">- 国外関連取引の内容（資産・役務の詳細）</text>
  <text x="85" y="1530" font-size="11" fill="#333">- 国外関連者の概要（事業・機能・リスク）</text>
  <text x="85" y="1548" font-size="11" fill="#333">- 算定方法の選定理由</text>
  <text x="85" y="1566" font-size="11" fill="#333">- 比較対象取引の詳細・差異調整</text>

  <text x="70" y="1594" font-size="12.5" font-weight="bold" fill="#2E7D32">② 提出期限・方法</text>
  <text x="85" y="1614" font-size="11" fill="#333">確定申告書の提出期限まで（同時文書化）</text>
  <text x="85" y="1632" font-size="11" fill="#333">税務調査時：45日以内（同時文書化対象）</text>
  <text x="85" y="1650" font-size="11" fill="#333">　　　　　 60日以内（その他）</text>

  <!-- 措規22の10の4 -->
  <rect x="560" y="1436" width="480" height="230" rx="10" fill="#E8F5E9" stroke="#388E3C" stroke-width="2" filter="url(#shadowSm)"/>
  <rect x="560" y="1436" width="480" height="34" rx="10" fill="url(#shoGrad)"/>
  <text x="800" y="1458" text-anchor="middle" font-size="14" font-weight="bold" fill="#fff">措規 第22条の10の4（MF・CbCR関連）</text>

  <text x="580" y="1492" font-size="12.5" font-weight="bold" fill="#2E7D32">①〜④ マスターファイルの記載事項</text>
  <text x="595" y="1512" font-size="11" fill="#333">- 組織構造（グループの法的・資本構造）</text>
  <text x="595" y="1530" font-size="11" fill="#333">- 事業の概要（主要ドライバー、サプライチェーン）</text>
  <text x="595" y="1548" font-size="11" fill="#333">- 無形資産（重要な無形資産の一覧・所有者）</text>
  <text x="595" y="1566" font-size="11" fill="#333">- グループ内金融活動・財務状況</text>

  <text x="580" y="1594" font-size="12.5" font-weight="bold" fill="#2E7D32">⑤〜⑧ CbCRの記載事項・様式</text>
  <text x="595" y="1614" font-size="11" fill="#333">国・地域ごとの収入金額・税引前利益</text>
  <text x="595" y="1632" font-size="11" fill="#333">納付税額・発生税額・資本金・利益剰余金</text>
  <text x="595" y="1650" font-size="11" fill="#333">従業員数・有形資産・主要な事業活動</text>

  <!-- 措規22の10の5 -->
  <rect x="1070" y="1436" width="490" height="230" rx="10" fill="#E8F5E9" stroke="#388E3C" stroke-width="2" filter="url(#shadowSm)"/>
  <rect x="1070" y="1436" width="490" height="34" rx="10" fill="url(#shoGrad)"/>
  <text x="1315" y="1458" text-anchor="middle" font-size="14" font-weight="bold" fill="#fff">措規 第22条の10の5（APA手続関連）</text>

  <text x="1090" y="1492" font-size="12.5" font-weight="bold" fill="#2E7D32">① 確認申出書の記載事項・様式</text>
  <text x="1105" y="1512" font-size="11" fill="#333">- 対象取引の概要</text>
  <text x="1105" y="1530" font-size="11" fill="#333">- 選定する算定方法とその理由</text>
  <text x="1105" y="1548" font-size="11" fill="#333">- 比較対象取引・比較可能性分析</text>

  <text x="1090" y="1576" font-size="12.5" font-weight="bold" fill="#2E7D32">② 年次報告書の記載事項</text>
  <text x="1105" y="1596" font-size="11" fill="#333">- 確認された算定方法に基づく計算結果</text>
  <text x="1105" y="1614" font-size="11" fill="#333">- 重要な前提条件の充足状況</text>

  <text x="1090" y="1642" font-size="12.5" font-weight="bold" fill="#2E7D32">③ 更新申出の手続</text>

  <!-- 政令→省令の委任矢印 -->
  <line x1="420" y1="1346" x2="290" y2="1434" stroke="#388E3C" stroke-width="2.5" stroke-dasharray="8,4" marker-end="url(#arrowGreen)"/>
  <line x1="995" y1="1346" x2="800" y2="1434" stroke="#388E3C" stroke-width="2.5" stroke-dasharray="8,4" marker-end="url(#arrowGreen)"/>
  <line x1="1380" y1="1346" x2="1315" y2="1434" stroke="#388E3C" stroke-width="2.5" stroke-dasharray="8,4" marker-end="url(#arrowGreen)"/>

  <!-- ================================================================== -->
  <!-- SECTION 6: 制度全体のフロー図 -->
  <!-- ================================================================== -->
  <rect x="30" y="1695" width="1540" height="44" rx="8" fill="#263238" filter="url(#shadow)"/>
  <text x="800" y="1723" text-anchor="middle" font-size="17" font-weight="bold" fill="#fff">移転価格税制の適用フロー（条文横断）</text>

  <!-- フローチャート -->
  <!-- Step 1 -->
  <rect x="80" y="1760" width="260" height="70" rx="12" fill="url(#redGrad)" filter="url(#shadowSm)"/>
  <text x="210" y="1790" text-anchor="middle" font-size="13" font-weight="bold" fill="#fff">STEP 1</text>
  <text x="210" y="1812" text-anchor="middle" font-size="12" fill="#FFCDD2">国外関連者の判定</text>

  <rect x="80" y="1845" width="260" height="60" rx="8" fill="#FFF3E0" stroke="#EF6C00" stroke-width="1.5"/>
  <text x="210" y="1870" text-anchor="middle" font-size="11" fill="#333">措法66の4㉕ → 措令39の12①</text>
  <text x="210" y="1890" text-anchor="middle" font-size="11" fill="#555">50%持株 or 実質支配</text>

  <!-- Arrow 1→2 -->
  <line x1="340" y1="1795" x2="390" y2="1795" stroke="#546E7A" stroke-width="2.5" marker-end="url(#arrowGray)"/>

  <!-- Step 2 -->
  <rect x="392" y="1760" width="260" height="70" rx="12" fill="url(#redGrad)" filter="url(#shadowSm)"/>
  <text x="522" y="1790" text-anchor="middle" font-size="13" font-weight="bold" fill="#fff">STEP 2</text>
  <text x="522" y="1812" text-anchor="middle" font-size="12" fill="#FFCDD2">国外関連取引の特定</text>

  <rect x="392" y="1845" width="260" height="60" rx="8" fill="#FFF3E0" stroke="#EF6C00" stroke-width="1.5"/>
  <text x="522" y="1870" text-anchor="middle" font-size="11" fill="#333">措法66の4① → 措令39の12②</text>
  <text x="522" y="1890" text-anchor="middle" font-size="11" fill="#555">棚卸資産/無形資産/役務/金銭</text>

  <!-- Arrow 2→3 -->
  <line x1="652" y1="1795" x2="702" y2="1795" stroke="#546E7A" stroke-width="2.5" marker-end="url(#arrowGray)"/>

  <!-- Step 3 -->
  <rect x="704" y="1760" width="260" height="70" rx="12" fill="url(#honGrad)" filter="url(#shadowSm)"/>
  <text x="834" y="1790" text-anchor="middle" font-size="13" font-weight="bold" fill="#fff">STEP 3</text>
  <text x="834" y="1812" text-anchor="middle" font-size="12" fill="#BBDEFB">算定方法の選定</text>

  <rect x="704" y="1845" width="260" height="60" rx="8" fill="#FFF3E0" stroke="#EF6C00" stroke-width="1.5"/>
  <text x="834" y="1870" text-anchor="middle" font-size="11" fill="#333">措法66の4② → 措令39の12②〜⑧</text>
  <text x="834" y="1890" text-anchor="middle" font-size="11" fill="#555">ベスト・メソッド・ルール</text>

  <!-- Arrow 3→4 -->
  <line x1="964" y1="1795" x2="1014" y2="1795" stroke="#546E7A" stroke-width="2.5" marker-end="url(#arrowGray)"/>

  <!-- Step 4 -->
  <rect x="1016" y="1760" width="260" height="70" rx="12" fill="url(#honGrad)" filter="url(#shadowSm)"/>
  <text x="1146" y="1790" text-anchor="middle" font-size="13" font-weight="bold" fill="#fff">STEP 4</text>
  <text x="1146" y="1812" text-anchor="middle" font-size="12" fill="#BBDEFB">ALP算定・比較</text>

  <rect x="1016" y="1845" width="260" height="60" rx="8" fill="#E8F5E9" stroke="#388E3C" stroke-width="1.5"/>
  <text x="1146" y="1870" text-anchor="middle" font-size="11" fill="#333">措令39の12②〜⑪ → 措規22の10</text>
  <text x="1146" y="1890" text-anchor="middle" font-size="11" fill="#555">比較対象取引・差異調整</text>

  <!-- Arrow 4→5 -->
  <line x1="1276" y1="1795" x2="1326" y2="1795" stroke="#546E7A" stroke-width="2.5" marker-end="url(#arrowGray)"/>

  <!-- Step 5 -->
  <rect x="1328" y="1760" width="230" height="70" rx="12" fill="url(#redGrad)" filter="url(#shadowSm)"/>
  <text x="1443" y="1790" text-anchor="middle" font-size="13" font-weight="bold" fill="#fff">STEP 5</text>
  <text x="1443" y="1812" text-anchor="middle" font-size="12" fill="#FFCDD2">課税所得の更正</text>

  <rect x="1328" y="1845" width="230" height="60" rx="8" fill="#E3F2FD" stroke="#1976D2" stroke-width="1.5"/>
  <text x="1443" y="1870" text-anchor="middle" font-size="11" fill="#333">措法66の4① 本文</text>
  <text x="1443" y="1890" text-anchor="middle" font-size="11" fill="#555">みなし課税（所得増額更正）</text>

  <!-- ================================================================== -->
  <!-- SECTION 7: 文書化義務の詳細マトリクス -->
  <!-- ================================================================== -->
  <rect x="30" y="1930" width="1540" height="44" rx="8" fill="#263238" filter="url(#shadow)"/>
  <text x="800" y="1958" text-anchor="middle" font-size="17" font-weight="bold" fill="#fff">文書化義務の条文対応表（三層構造）</text>

  <!-- 表ヘッダー -->
  <rect x="50" y="1990" width="250" height="40" rx="0" fill="#37474F"/>
  <text x="175" y="2016" text-anchor="middle" font-size="13" font-weight="bold" fill="#fff">文書の種類</text>
  <rect x="300" y="1990" width="300" height="40" rx="0" fill="#1565C0"/>
  <text x="450" y="2016" text-anchor="middle" font-size="13" font-weight="bold" fill="#fff">本則（措法）</text>
  <rect x="600" y="1990" width="310" height="40" rx="0" fill="#E65100"/>
  <text x="755" y="2016" text-anchor="middle" font-size="13" font-weight="bold" fill="#fff">政令（措令）</text>
  <rect x="910" y="1990" width="310" height="40" rx="0" fill="#2E7D32"/>
  <text x="1065" y="2016" text-anchor="middle" font-size="13" font-weight="bold" fill="#fff">省令（措規）</text>
  <rect x="1220" y="1990" width="340" height="40" rx="0" fill="#4A148C"/>
  <text x="1390" y="2016" text-anchor="middle" font-size="13" font-weight="bold" fill="#fff">閾値・期限</text>

  <!-- Row 1: ローカルファイル -->
  <rect x="50" y="2030" width="250" height="60" rx="0" fill="#E3F2FD" stroke="#CFD8DC" stroke-width="0.5"/>
  <text x="175" y="2055" text-anchor="middle" font-size="13" font-weight="bold" fill="#1565C0">ローカルファイル</text>
  <text x="175" y="2075" text-anchor="middle" font-size="11" fill="#555">（Local File）</text>
  <rect x="300" y="2030" width="300" height="60" rx="0" fill="#fff" stroke="#CFD8DC" stroke-width="0.5"/>
  <text x="450" y="2055" text-anchor="middle" font-size="11.5" fill="#333">§66の4⑮⑯⑰</text>
  <text x="450" y="2075" text-anchor="middle" font-size="11" fill="#555">同時文書化義務・提出義務</text>
  <rect x="600" y="2030" width="310" height="60" rx="0" fill="#fff" stroke="#CFD8DC" stroke-width="0.5"/>
  <text x="755" y="2055" text-anchor="middle" font-size="11.5" fill="#333">§39の12⑳〜㉕</text>
  <text x="755" y="2075" text-anchor="middle" font-size="11" fill="#555">免除基準・対象取引の範囲</text>
  <rect x="910" y="2030" width="310" height="60" rx="0" fill="#fff" stroke="#CFD8DC" stroke-width="0.5"/>
  <text x="1065" y="2055" text-anchor="middle" font-size="11.5" fill="#333">§22の10①②</text>
  <text x="1065" y="2075" text-anchor="middle" font-size="11" fill="#555">記載事項の詳細・様式</text>
  <rect x="1220" y="2030" width="340" height="60" rx="0" fill="#FFEBEE" stroke="#CFD8DC" stroke-width="0.5"/>
  <text x="1390" y="2055" text-anchor="middle" font-size="11.5" fill="#C62828" font-weight="bold">50億円超→同時文書化</text>
  <text x="1390" y="2075" text-anchor="middle" font-size="11" fill="#C62828">45日/60日ルール</text>

  <!-- Row 2: マスターファイル -->
  <rect x="50" y="2090" width="250" height="60" rx="0" fill="#EDE7F6" stroke="#CFD8DC" stroke-width="0.5"/>
  <text x="175" y="2115" text-anchor="middle" font-size="13" font-weight="bold" fill="#6A1B9A">マスターファイル</text>
  <text x="175" y="2135" text-anchor="middle" font-size="11" fill="#555">（Master File）</text>
  <rect x="300" y="2090" width="300" height="60" rx="0" fill="#fff" stroke="#CFD8DC" stroke-width="0.5"/>
  <text x="450" y="2115" text-anchor="middle" font-size="11.5" fill="#333">§66の4の2①②</text>
  <text x="450" y="2135" text-anchor="middle" font-size="11" fill="#555">事業概況報告事項の提出義務</text>
  <rect x="600" y="2090" width="310" height="60" rx="0" fill="#fff" stroke="#CFD8DC" stroke-width="0.5"/>
  <text x="755" y="2115" text-anchor="middle" font-size="11.5" fill="#333">§39の12の2①〜③⑤</text>
  <text x="755" y="2135" text-anchor="middle" font-size="11" fill="#555">特定多国籍企業Gの定義・範囲</text>
  <rect x="910" y="2090" width="310" height="60" rx="0" fill="#fff" stroke="#CFD8DC" stroke-width="0.5"/>
  <text x="1065" y="2115" text-anchor="middle" font-size="11.5" fill="#333">§22の10の4①〜④</text>
  <text x="1065" y="2135" text-anchor="middle" font-size="11" fill="#555">記載事項・電子提出</text>
  <rect x="1220" y="2090" width="340" height="60" rx="0" fill="#FFEBEE" stroke="#CFD8DC" stroke-width="0.5"/>
  <text x="1390" y="2115" text-anchor="middle" font-size="11.5" fill="#C62828" font-weight="bold">連結総収入1,000億円以上</text>
  <text x="1390" y="2135" text-anchor="middle" font-size="11" fill="#C62828">会計年度終了後1年以内</text>

  <!-- Row 3: CbCR -->
  <rect x="50" y="2150" width="250" height="60" rx="0" fill="#EDE7F6" stroke="#CFD8DC" stroke-width="0.5"/>
  <text x="175" y="2175" text-anchor="middle" font-size="13" font-weight="bold" fill="#6A1B9A">国別報告書</text>
  <text x="175" y="2195" text-anchor="middle" font-size="11" fill="#555">（CbCR）</text>
  <rect x="300" y="2150" width="300" height="60" rx="0" fill="#fff" stroke="#CFD8DC" stroke-width="0.5"/>
  <text x="450" y="2175" text-anchor="middle" font-size="11.5" fill="#333">§66の4の2③〜⑨</text>
  <text x="450" y="2195" text-anchor="middle" font-size="11" fill="#555">国別報告事項の提出義務</text>
  <rect x="600" y="2150" width="310" height="60" rx="0" fill="#fff" stroke="#CFD8DC" stroke-width="0.5"/>
  <text x="755" y="2175" text-anchor="middle" font-size="11.5" fill="#333">§39の12の2④⑥</text>
  <text x="755" y="2195" text-anchor="middle" font-size="11" fill="#555">記載細目・代理親会社制度</text>
  <rect x="910" y="2150" width="310" height="60" rx="0" fill="#fff" stroke="#CFD8DC" stroke-width="0.5"/>
  <text x="1065" y="2175" text-anchor="middle" font-size="11.5" fill="#333">§22の10の4⑤〜⑧</text>
  <text x="1065" y="2195" text-anchor="middle" font-size="11" fill="#555">様式・電子提出方法</text>
  <rect x="1220" y="2150" width="340" height="60" rx="0" fill="#FFEBEE" stroke="#CFD8DC" stroke-width="0.5"/>
  <text x="1390" y="2175" text-anchor="middle" font-size="11.5" fill="#C62828" font-weight="bold">連結総収入1,000億円以上</text>
  <text x="1390" y="2195" text-anchor="middle" font-size="11" fill="#C62828">最終親会計年度終了後1年以内</text>

  <!-- ================================================================== -->
  <!-- SECTION 8: 条文間参照関係ネットワーク -->
  <!-- ================================================================== -->
  <rect x="30" y="2240" width="1540" height="44" rx="8" fill="#263238" filter="url(#shadow)"/>
  <text x="800" y="2268" text-anchor="middle" font-size="17" font-weight="bold" fill="#fff">条文間の主要参照関係（Cross-Reference Network）</text>

  <!-- 中央ノード: 措法66の4 -->
  <rect x="610" y="2310" width="380" height="56" rx="28" fill="url(#honGrad)" filter="url(#shadow)"/>
  <text x="800" y="2344" text-anchor="middle" font-size="16" font-weight="bold" fill="#fff">措法 §66の4（本則）</text>

  <!-- 左上: 措令39の12 -->
  <rect x="80" y="2310" width="280" height="50" rx="10" fill="url(#seiLightGrad)" filter="url(#shadowSm)"/>
  <text x="220" y="2341" text-anchor="middle" font-size="13" font-weight="bold" fill="#fff">措令 §39の12</text>
  <line x1="360" y1="2335" x2="608" y2="2338" stroke="#EF6C00" stroke-width="2.5" marker-end="url(#arrowOrange)"/>

  <!-- 右上: 措規22の10 -->
  <rect x="1240" y="2310" width="280" height="50" rx="10" fill="url(#shoLightGrad)" filter="url(#shadowSm)"/>
  <text x="1380" y="2341" text-anchor="middle" font-size="13" font-weight="bold" fill="#fff">措規 §22の10</text>
  <line x1="1238" y1="2335" x2="992" y2="2338" stroke="#388E3C" stroke-width="2.5" marker-end="url(#arrowGreen)"/>

  <!-- 下段左: 措法66の4の2 -->
  <rect x="120" y="2420" width="300" height="50" rx="10" fill="url(#honLightGrad)" filter="url(#shadowSm)"/>
  <text x="270" y="2451" text-anchor="middle" font-size="13" font-weight="bold" fill="#fff">措法 §66の4の2</text>
  <line x1="420" y1="2445" x2="700" y2="2370" stroke="#1976D2" stroke-width="2" stroke-dasharray="6,3" marker-end="url(#arrowBlue)"/>

  <!-- 下段中左: 措令39の12の2 -->
  <rect x="460" y="2420" width="300" height="50" rx="10" fill="url(#seiLightGrad)" filter="url(#shadowSm)"/>
  <text x="610" y="2451" text-anchor="middle" font-size="13" font-weight="bold" fill="#fff">措令 §39の12の2</text>
  <line x1="610" y1="2418" x2="750" y2="2370" stroke="#EF6C00" stroke-width="2" marker-end="url(#arrowOrange)"/>
  <line x1="395" y1="2445" x2="460" y2="2445" stroke="#EF6C00" stroke-width="1.5" stroke-dasharray="4,3"/>

  <!-- 下段中右: 措法66の4の3 -->
  <rect x="800" y="2420" width="300" height="50" rx="10" fill="url(#honLightGrad)" filter="url(#shadowSm)"/>
  <text x="950" y="2451" text-anchor="middle" font-size="13" font-weight="bold" fill="#fff">措法 §66の4の3</text>
  <line x1="900" y1="2418" x2="830" y2="2370" stroke="#1976D2" stroke-width="2" stroke-dasharray="6,3" marker-end="url(#arrowBlue)"/>

  <!-- 下段右: 措令39の12の3 -->
  <rect x="1140" y="2420" width="300" height="50" rx="10" fill="url(#seiLightGrad)" filter="url(#shadowSm)"/>
  <text x="1290" y="2451" text-anchor="middle" font-size="13" font-weight="bold" fill="#fff">措令 §39の12の3</text>
  <line x1="1140" y1="2445" x2="1100" y2="2445" stroke="#EF6C00" stroke-width="1.5" stroke-dasharray="4,3"/>
  <line x1="1240" y1="2418" x2="880" y2="2370" stroke="#EF6C00" stroke-width="2" marker-end="url(#arrowOrange)"/>

  <!-- 最下段: 省令 -->
  <rect x="280" y="2510" width="260" height="44" rx="10" fill="url(#shoLightGrad)" filter="url(#shadowSm)"/>
  <text x="410" y="2538" text-anchor="middle" font-size="12" font-weight="bold" fill="#fff">措規 §22の10の4</text>
  <line x1="500" y1="2470" x2="440" y2="2508" stroke="#388E3C" stroke-width="2" marker-end="url(#arrowGreen)"/>

  <rect x="670" y="2510" width="260" height="44" rx="10" fill="url(#shoLightGrad)" filter="url(#shadowSm)"/>
  <text x="800" y="2538" text-anchor="middle" font-size="12" font-weight="bold" fill="#fff">措規 §22の10の5</text>
  <line x1="1200" y1="2470" x2="870" y2="2508" stroke="#388E3C" stroke-width="2" marker-end="url(#arrowGreen)"/>

  <!-- 国際枠組み -->
  <rect x="1080" y="2510" width="260" height="44" rx="10" fill="url(#intlLightGrad)" filter="url(#shadowSm)"/>
  <text x="1210" y="2538" text-anchor="middle" font-size="12" font-weight="bold" fill="#fff">OECD TPガイドライン</text>

  <rect x="1370" y="2510" width="180" height="44" rx="10" fill="url(#intlLightGrad)" filter="url(#shadowSm)"/>
  <text x="1460" y="2538" text-anchor="middle" font-size="12" font-weight="bold" fill="#fff">租税条約（MAP）</text>

  <line x1="1210" y1="2508" x2="900" y2="2370" stroke="#7B1FA2" stroke-width="1.5" stroke-dasharray="5,3" marker-end="url(#arrowPurple)"/>
  <line x1="1460" y1="2508" x2="870" y2="2370" stroke="#7B1FA2" stroke-width="1.5" stroke-dasharray="5,3" marker-end="url(#arrowPurple)"/>

  <!-- ================================================================== -->
  <!-- 注記・階層サマリ -->
  <!-- ================================================================== -->
  <rect x="50" y="2590" width="740" height="160" rx="10" fill="#fff" stroke="#B0BEC5" stroke-width="1" filter="url(#shadowSm)"/>
  <text x="70" y="2618" font-size="14" font-weight="bold" fill="#37474F">階層構造サマリ（委任関係）</text>
  <text x="70" y="2645" font-size="12.5" fill="#1565C0" font-weight="bold">本則（措法）</text>
  <text x="200" y="2645" font-size="12" fill="#333">§66の4 / §66の4の2 / §66の4の3 — 制度の根拠・要件・効果</text>
  <text x="160" y="2665" font-size="12" fill="#78909C">↓ 政令委任（「政令で定めるところにより」）</text>
  <text x="70" y="2690" font-size="12.5" fill="#E65100" font-weight="bold">政令（措令）</text>
  <text x="200" y="2690" font-size="12" fill="#333">§39の12 / §39の12の2 / §39の12の3 — 算定方法・手続の詳細</text>
  <text x="160" y="2710" font-size="12" fill="#78909C">↓ 省令委任（「財務省令で定める」）</text>
  <text x="70" y="2735" font-size="12.5" fill="#2E7D32" font-weight="bold">省令（措規）</text>
  <text x="200" y="2735" font-size="12" fill="#333">§22の10 / §22の10の4 / §22の10の5 — 記載事項・様式・書式</text>

  <rect x="820" y="2590" width="740" height="160" rx="10" fill="#fff" stroke="#B0BEC5" stroke-width="1" filter="url(#shadowSm)"/>
  <text x="840" y="2618" font-size="14" font-weight="bold" fill="#37474F">備考</text>
  <text x="840" y="2648" font-size="12" fill="#333">• 条文番号は令和6年法律に基づく（項番号は改正により変動あり）</text>
  <text x="840" y="2670" font-size="12" fill="#333">• 所得相応性基準（DCF法）は平成31年度改正で導入（§66の4②一ニ(2)）</text>
  <text x="840" y="2692" font-size="12" fill="#333">• CbCR・MFは平成28年度改正で導入（BEPS Action 13対応）</text>
  <text x="840" y="2714" font-size="12" fill="#333">• Pillar 1/Pillar 2は移転価格税制と密接に関連するが別途立法</text>
  <text x="840" y="2736" font-size="12" fill="#333">• 相互協議（MAP）の法的根拠は租税条約（国内法上は§66の4⑦⑧）</text>

  <!-- ===== 出典 ===== -->
  <text x="1550" y="2785" text-anchor="end" font-size="11" fill="#90A4AE">出典：租税特別措置法・同施行令・同施行規則（令和6年法律基準）/ OECD BEPS Action 13, 8-10, 14 / 作成：AI生成（情報は概要であり、正確な適用には原文参照が必要）</text>

</svg>