<svg xmlns="http://www.w3.org/2000/svg" viewBox="0 0 1800 3800" font-family="'Helvetica Neue', 'Noto Sans JP', Arial, sans-serif">
  <defs>
    <style>
      .title-box { fill: #1a1a2e; rx: 12; ry: 12; }
      .cat-header { fill: #16213e; rx: 8; ry: 8; }
      .term-box { fill: #ffffff; stroke: #334155; stroke-width: 1.5; rx: 6; ry: 6; }
      .term-box-highlight { fill: #fffbeb; stroke: #d97706; stroke-width: 2; rx: 6; ry: 6; }
      .term-box-blue { fill: #eff6ff; stroke: #2563eb; stroke-width: 1.5; rx: 6; ry: 6; }
      .term-box-green { fill: #f0fdf4; stroke: #16a34a; stroke-width: 1.5; rx: 6; ry: 6; }
      .term-box-purple { fill: #faf5ff; stroke: #9333ea; stroke-width: 1.5; rx: 6; ry: 6; }
      .term-box-rose { fill: #fff1f2; stroke: #e11d48; stroke-width: 1.5; rx: 6; ry: 6; }
      .term-box-teal { fill: #f0fdfa; stroke: #0d9488; stroke-width: 1.5; rx: 6; ry: 6; }
      .connector { stroke: #94a3b8; stroke-width: 1.2; fill: none; stroke-dasharray: 4,3; }
      .connector-solid { stroke: #64748b; stroke-width: 1.5; fill: none; }
      .arrow { fill: #64748b; }
      text { font-size: 13px; fill: #1e293b; }
      .title-text { font-size: 28px; fill: #ffffff; font-weight: bold; }
      .subtitle-text { font-size: 14px; fill: #94a3b8; }
      .cat-text { font-size: 16px; fill: #ffffff; font-weight: bold; }
      .term-name { font-size: 14px; fill: #0f172a; font-weight: bold; }
      .term-name-lg { font-size: 15px; fill: #0f172a; font-weight: bold; }
      .term-def { font-size: 11.5px; fill: #334155; }
      .term-ref { font-size: 10.5px; fill: #6366f1; font-style: italic; }
      .badge { rx: 4; ry: 4; }
      .badge-text { font-size: 9.5px; font-weight: bold; }
      .section-line { stroke: #e2e8f0; stroke-width: 1; }
      .note-text { font-size: 10px; fill: #64748b; }
    </style>
    <marker id="arrowhead" markerWidth="8" markerHeight="6" refX="8" refY="3" orient="auto">
      <polygon points="0 0, 8 3, 0 6" class="arrow"/>
    </marker>
  </defs>

  <!-- Background -->
  <rect width="1800" height="3800" fill="#f8fafc" rx="0"/>

  <!-- Title Bar -->
  <rect x="30" y="20" width="1740" height="90" class="title-box"/>
  <text x="900" y="55" text-anchor="middle" class="title-text">移転価格税制 条文定義（用語）集</text>
  <text x="900" y="78" text-anchor="middle" class="subtitle-text">租税特別措置法 §66の4〜§66の4の5 ／ 施行令 §39の12〜§39の12の4 ／ 施行規則 §22の10 ベース</text>
  <text x="900" y="98" text-anchor="middle" class="subtitle-text">出典: jplawdb4 — 日本税法AIデータベース（法令 as_of: 2025-12-27）</text>

  <!-- ============================================================ -->
  <!-- CATEGORY 1: 主体に関する定義 -->
  <!-- ============================================================ -->
  <rect x="30" y="130" width="1740" height="32" class="cat-header"/>
  <text x="50" y="152" class="cat-text">■ 1. 主体に関する定義</text>

  <!-- 国外関連者 -->
  <rect x="50" y="175" width="820" height="200" class="term-box-highlight"/>
  <rect x="60" y="182" width="110" height="20" fill="#d97706" class="badge"/>
  <text x="115" y="196" text-anchor="middle" class="badge-text" fill="#fff">中核概念</text>
  <text x="180" y="196" class="term-name-lg">国外関連者</text>
  <text x="70" y="218" class="term-def">外国法人で、当該法人との間にいずれか一方の法人が他方の法人の</text>
  <text x="70" y="234" class="term-def">発行済株式又は出資（当該他方の法人が有する自己の株式又は出資を除く。）の</text>
  <text x="70" y="250" class="term-def">総数又は総額の百分の五十以上の数又は金額の株式又は出資を直接又は間接に</text>
  <text x="70" y="266" class="term-def">保有する関係その他の政令で定める特殊の関係のあるもの</text>
  <text x="70" y="290" class="term-ref">措法§66の4①</text>
  <line x1="70" y1="300" x2="850" y2="300" class="section-line"/>
  <text x="70" y="316" class="term-def">▶ 「自己株式除外」：保有割合算定の分母から自己株式を除外する</text>
  <text x="70" y="332" class="term-def">▶ 50%以上の直接・間接保有 ＋ 実質支配関係（特定事実）が判定基準</text>
  <text x="70" y="352" class="note-text">※ 判定は「それぞれの取引が行われた時の現況」による（措令§39の12㉔）</text>

  <!-- 特殊の関係 -->
  <rect x="900" y="175" width="850" height="200" class="term-box-highlight"/>
  <rect x="910" y="182" width="138" height="20" fill="#b45309" class="badge"/>
  <text x="979" y="196" text-anchor="middle" class="badge-text" fill="#fff">施行令で規定</text>
  <text x="1060" y="196" class="term-name-lg">特殊の関係（5類型）</text>
  <text x="910" y="218" class="term-def">① 一方→他方の発行済株式等50%以上を直接・間接保有（親子関係）</text>
  <text x="910" y="236" class="term-def">② 同一の者によりそれぞれ50%以上を直接・間接保有される関係（兄弟関係）</text>
  <text x="910" y="254" class="term-def">③ 特定事実の存在により一方が他方の事業方針を実質的に決定できる関係</text>
  <text x="920" y="270" class="term-def">特定事実 = 役員兼任（1/2以上）、取引依存、資金依存</text>
  <text x="910" y="288" class="term-def">④ 一の法人と、連鎖的に50%以上保有/実質支配される法人群との関係</text>
  <text x="910" y="306" class="term-def">⑤ 同一の者から連鎖的に支配される二法人の関係</text>
  <text x="910" y="330" class="term-ref">措令§39の12①一〜五</text>
  <text x="910" y="352" class="note-text">※「同一の者」が個人の場合、特殊関係個人を含む（法法§2⑩の政令準用）</text>

  <!-- 間接保有割合 -->
  <rect x="50" y="390" width="540" height="120" class="term-box-blue"/>
  <text x="70" y="414" class="term-name">間接保有の株式等の保有割合</text>
  <text x="70" y="434" class="term-def">一方の法人が他方の法人を50%以上保有する株主等法人を通じて</text>
  <text x="70" y="450" class="term-def">間接的に保有する割合。出資関連法人が介在する連鎖関係を含む。</text>
  <text x="70" y="466" class="term-def">直接保有割合＋間接保有割合の合計で50%以上を判定。</text>
  <text x="70" y="490" class="term-ref">措令§39の12②③</text>

  <!-- 非関連者 -->
  <rect x="610" y="390" width="540" height="120" class="term-box"/>
  <text x="630" y="414" class="term-name">非関連者</text>
  <text x="630" y="434" class="term-def">当該法人に係る他の国外関連者及び当該国外関連者と特殊の関係の</text>
  <text x="630" y="450" class="term-def">ある内国法人を除いた「他の者」。</text>
  <text x="630" y="466" class="term-def">三角取引（非関連者を通じた間接取引）のみなし規定で使用。</text>
  <text x="630" y="490" class="term-ref">措法§66の4⑤</text>

  <!-- 特定事実 -->
  <rect x="1170" y="390" width="580" height="120" class="term-box"/>
  <text x="1190" y="414" class="term-name">特定事実</text>
  <text x="1190" y="434" class="term-def">イ 役員の1/2以上又は代表権役員が一方の法人の役員・使用人（元含む）</text>
  <text x="1190" y="450" class="term-def">ロ 事業活動の相当部分を一方の法人との取引に依存</text>
  <text x="1190" y="466" class="term-def">ハ 資金の相当部分を一方の法人からの借入れ又は保証により調達</text>
  <text x="1190" y="490" class="term-ref">措令§39の12①三イ〜ハ</text>

  <!-- Connector: 国外関連者 → 特殊の関係 -->
  <line x1="870" y1="275" x2="900" y2="275" class="connector-solid" marker-end="url(#arrowhead)"/>

  <!-- ============================================================ -->
  <!-- CATEGORY 2: 取引に関する定義 -->
  <!-- ============================================================ -->
  <rect x="30" y="530" width="1740" height="32" class="cat-header"/>
  <text x="50" y="552" class="cat-text">■ 2. 取引に関する定義</text>

  <!-- 国外関連取引 -->
  <rect x="50" y="575" width="550" height="150" class="term-box-highlight"/>
  <rect x="60" y="582" width="110" height="20" fill="#d97706" class="badge"/>
  <text x="115" y="596" text-anchor="middle" class="badge-text" fill="#fff">中核概念</text>
  <text x="180" y="596" class="term-name-lg">国外関連取引</text>
  <text x="70" y="620" class="term-def">法人が国外関連者との間で行う資産の販売、資産の購入、</text>
  <text x="70" y="636" class="term-def">役務の提供その他の取引。</text>
  <text x="70" y="656" class="term-def">ただし、国外関連者がPEを有する外国法人の場合、その法法§141①イ</text>
  <text x="70" y="672" class="term-def">の国内源泉所得に係る取引として政令で定めるものを除く。</text>
  <text x="70" y="700" class="term-ref">措法§66の4①カッコ書</text>

  <!-- 内部取引 -->
  <rect x="620" y="575" width="550" height="150" class="term-box-blue"/>
  <text x="640" y="596" class="term-name-lg">内部取引</text>
  <text x="640" y="620" class="term-def">恒久的施設を有する外国法人の本店等（法法§138①一の本店等）と</text>
  <text x="640" y="636" class="term-def">恒久的施設との間の法法§138①一に規定する内部取引。</text>
  <text x="640" y="660" class="term-def">外国法人のPE帰属所得課税における移転価格規定の対象。</text>
  <text x="640" y="680" class="term-def">国外関連取引と同等の独立企業間価格算定ルールを準用。</text>
  <text x="640" y="700" class="term-ref">措法§66の4の3①</text>

  <!-- みなし国外関連取引（三角取引） -->
  <rect x="1190" y="575" width="560" height="150" class="term-box"/>
  <text x="1210" y="596" class="term-name">みなし国外関連取引（三角取引）</text>
  <text x="1210" y="620" class="term-def">法人が国外関連者との取引を非関連者を通じて行う場合として</text>
  <text x="1210" y="636" class="term-def">政令で定める場合における、法人と非関連者との取引。</text>
  <text x="1210" y="660" class="term-def">要件：①資産等が国外関連者に移転されることが契約等であらかじめ</text>
  <text x="1210" y="676" class="term-def">定まっている ②対価の額が法人と国外関連者で実質的に決定</text>
  <text x="1210" y="700" class="term-ref">措法§66の4⑤、措令§39の12⑨⑩</text>

  <!-- ============================================================ -->
  <!-- CATEGORY 3: 独立企業間価格（ALP）と算定方法 -->
  <!-- ============================================================ -->
  <rect x="30" y="745" width="1740" height="32" class="cat-header"/>
  <text x="50" y="767" class="cat-text">■ 3. 独立企業間価格（ALP）と算定方法</text>

  <!-- 独立企業間価格 -->
  <rect x="50" y="790" width="1700" height="115" class="term-box-highlight"/>
  <rect x="60" y="797" width="110" height="20" fill="#d97706" class="badge"/>
  <text x="115" y="811" text-anchor="middle" class="badge-text" fill="#fff">最重要</text>
  <text x="180" y="811" class="term-name-lg">独立企業間価格（Arm's Length Price）</text>
  <text x="70" y="835" class="term-def">国外関連取引が棚卸資産の販売・購入か否かに応じ、法定の算定方法のうち、当該国外関連取引の内容及び当事者が果たす機能</text>
  <text x="70" y="853" class="term-def">その他の事情を勘案して、当該国外関連取引が独立の事業者の間で通常の取引の条件に従つて行われるとした場合に支払われるべき</text>
  <text x="70" y="871" class="term-def">対価の額を算定するための「最も適切な方法」（ベスト・メソッド・ルール）により算定した金額。</text>
  <text x="70" y="893" class="term-ref">措法§66の4②柱書</text>

  <!-- 算定方法グリッド -->
  <!-- 基本三法 -->
  <rect x="50" y="920" width="550" height="215" class="term-box-green"/>
  <rect x="60" y="927" width="100" height="20" fill="#16a34a" class="badge"/>
  <text x="110" y="941" text-anchor="middle" class="badge-text" fill="#fff">基本三法</text>
  
  <text x="70" y="960" class="term-name">独立価格比準法（CUP法）</text>
  <text x="70" y="978" class="term-def">特殊関係にない売手・買手が同種棚卸資産を同様状況で売買した取引の対価の額</text>
  <text x="70" y="994" class="term-def">（差異調整後を含む）に相当する金額を対価の額とする方法</text>
  <text x="70" y="1010" class="term-ref">措法§66の4②一イ</text>

  <text x="70" y="1032" class="term-name">再販売価格基準法（RP法）</text>
  <text x="70" y="1050" class="term-def">再販売価格から通常の利潤の額（再販売価格×通常の利益率）を控除した金額</text>
  <text x="70" y="1066" class="term-ref">措法§66の4②一ロ、措令§39の12⑥</text>

  <text x="70" y="1088" class="term-name">原価基準法（CP法）</text>
  <text x="70" y="1106" class="term-def">取得原価に通常の利潤の額（原価×通常の利益率）を加算した金額</text>
  <text x="70" y="1122" class="term-ref">措法§66の4②一ハ、措令§39の12⑦</text>

  <!-- 政令で定める方法（利益法） -->
  <rect x="620" y="920" width="560" height="215" class="term-box-purple"/>
  <rect x="630" y="927" width="100" height="20" fill="#9333ea" class="badge"/>
  <text x="680" y="941" text-anchor="middle" class="badge-text" fill="#fff">利益法等</text>

  <text x="640" y="960" class="term-name">利益分割法（PS法）</text>
  <text x="640" y="978" class="term-def">イ 比較利益分割法：比較対象取引の所得配分割合に応じて帰属計算</text>
  <text x="640" y="994" class="term-def">ロ 寄与度利益分割法：費用・固定資産等の寄与度に応じて帰属計算</text>
  <text x="640" y="1010" class="term-def">ハ 残余利益分割法：基本的利益＋残余利益を寄与度で分割</text>
  <text x="640" y="1026" class="term-ref">措令§39の12⑧一</text>

  <text x="640" y="1050" class="term-name">TNMM（取引単位営業利益法）</text>
  <text x="640" y="1068" class="term-def">売上高営業利益率ベース（②④）又は総費用営業利益率ベース（③⑤）で</text>
  <text x="640" y="1084" class="term-def">比較対象取引の営業利益率に基づき対価を算定する方法</text>
  <text x="640" y="1100" class="term-ref">措令§39の12⑧二〜五</text>

  <text x="640" y="1122" class="term-name">DCF法（ディスカウント・キャッシュ・フロー法）</text>
  <text x="640" y="1140" class="term-ref">措令§39の12⑧六（予測利益を割引現在価値として合計）</text>

  <!-- 準ずる方法・同等の方法 -->
  <rect x="1200" y="920" width="550" height="100" class="term-box"/>
  <text x="1220" y="944" class="term-name">準ずる方法／同等の方法</text>
  <text x="1220" y="966" class="term-def">棚卸資産取引：基本三法・利益法に準ずる方法（措令§39の12⑧七）</text>
  <text x="1220" y="984" class="term-def">棚卸資産以外の取引：上記各方法と同等の方法（措法§66の4②二）</text>
  <text x="1220" y="1006" class="term-ref">措法§66の4②一ニ・二</text>

  <!-- 通常の利益率 -->
  <rect x="1200" y="1035" width="550" height="100" class="term-box"/>
  <text x="1220" y="1059" class="term-name">通常の利益率</text>
  <text x="1220" y="1079" class="term-def">RP法：比較対象取引の再販売者の売上総利益率（売上総利益÷売上高）</text>
  <text x="1220" y="1095" class="term-def">CP法：比較対象取引の販売者の売上総利益率（売上総利益÷原価）</text>
  <text x="1220" y="1111" class="term-def">いずれも機能差異がある場合は必要な調整後の割合</text>
  <text x="1220" y="1127" class="term-ref">措令§39の12⑥⑦</text>

  <!-- 再販売価格 -->
  <rect x="50" y="1150" width="380" height="75" class="term-box"/>
  <text x="70" y="1174" class="term-name">再販売価格</text>
  <text x="70" y="1194" class="term-def">国外関連取引に係る棚卸資産の買手が特殊の関係にない者に</text>
  <text x="70" y="1210" class="term-def">対して当該棚卸資産を販売した対価の額</text>
  <text x="380" y="1214" class="term-ref">措法§66の4②一ロ</text>

  <!-- 比較対象取引 -->
  <rect x="450" y="1150" width="430" height="75" class="term-box"/>
  <text x="470" y="1174" class="term-name">比較対象取引</text>
  <text x="470" y="1194" class="term-def">同種・類似の棚卸資産を非関連者間で売買した取引で、</text>
  <text x="470" y="1210" class="term-def">機能・リスク等の差異調整を経て比較基準となるもの</text>
  <text x="830" y="1214" class="term-ref">措令§39の12⑥⑦⑧</text>

  <!-- 差異調整（四分位法） -->
  <rect x="900" y="1150" width="430" height="75" class="term-box"/>
  <text x="920" y="1174" class="term-name">差異調整・四分位法</text>
  <text x="920" y="1194" class="term-def">定量的把握困難な差異が軽微な場合、4以上の比較対象取引の</text>
  <text x="920" y="1210" class="term-def">調整済割合につき25%〜75%四分位の中央値で算定</text>
  <text x="1280" y="1214" class="term-ref">措規§22の10②③</text>

  <!-- ベスト・メソッド -->
  <rect x="1350" y="1150" width="400" height="75" class="term-box"/>
  <text x="1370" y="1174" class="term-name">最も適切な方法（ベスト・メソッド・ルール）</text>
  <text x="1370" y="1194" class="term-def">取引内容・機能・その他事情を勘案して選定。</text>
  <text x="1370" y="1210" class="term-def">法定の優先順位は存在しない。</text>
  <text x="1700" y="1214" class="term-ref">措法§66の4②柱書</text>

  <!-- ============================================================ -->
  <!-- CATEGORY 4: 無形資産関連 -->
  <!-- ============================================================ -->
  <rect x="30" y="1245" width="1740" height="32" class="cat-header"/>
  <text x="50" y="1267" class="cat-text">■ 4. 無形資産に関する定義</text>

  <!-- 無形資産 -->
  <rect x="50" y="1290" width="550" height="140" class="term-box-purple"/>
  <text x="70" y="1314" class="term-name-lg">無形資産</text>
  <text x="70" y="1336" class="term-def">有形資産及び金融資産以外の資産として政令で定めるもの。</text>
  <text x="70" y="1356" class="term-def">具体的には「特許権、実用新案権その他の資産」で、独立の事業者間で</text>
  <text x="70" y="1376" class="term-def">通常の条件に従って取引されれば対価の額が支払われるべきもの。</text>
  <text x="70" y="1396" class="term-def">有形資産及び金融資産（現金・預貯金・売掛金・有価証券・デリバティブ等）を除く。</text>
  <text x="70" y="1416" class="term-ref">措法§66の4⑦二、措令§39の12⑬、措規§22の10⑨</text>

  <!-- 特定無形資産 -->
  <rect x="620" y="1290" width="560" height="140" class="term-box-rose"/>
  <rect x="630" y="1297" width="72" height="20" fill="#e11d48" class="badge"/>
  <text x="666" y="1311" text-anchor="middle" class="badge-text" fill="#fff">HTVI</text>
  <text x="710" y="1314" class="term-name-lg">特定無形資産</text>
  <text x="640" y="1336" class="term-def">国外関連取引を行った時において「評価することが困難な無形資産」。</text>
  <text x="640" y="1356" class="term-def">固有の特性を有し、かつ、高い付加価値を創出するために使用されるもので、</text>
  <text x="640" y="1376" class="term-def">予測利益額等の独立企業間価格算定の前提事項の内容が</text>
  <text x="640" y="1396" class="term-def">著しく不確実な要素を有していると認められるもの。</text>
  <text x="640" y="1416" class="term-ref">措法§66の4⑧、措令§39の12⑭</text>

  <!-- 特定無形資産国外関連取引 -->
  <rect x="1200" y="1290" width="550" height="140" class="term-box-rose"/>
  <text x="1220" y="1314" class="term-name">特定無形資産国外関連取引</text>
  <text x="1220" y="1336" class="term-def">国外関連取引のうち、特定無形資産の譲渡・貸付け（権利の設定</text>
  <text x="1220" y="1356" class="term-def">その他他の者に特定無形資産を使用させる一切の行為を含む。）</text>
  <text x="1220" y="1376" class="term-def">又はこれらに類似する取引。</text>
  <text x="1220" y="1396" class="term-def">所得相応性基準（コメンシュレート分析）の適用対象。</text>
  <text x="1220" y="1416" class="term-ref">措法§66の4⑧カッコ書</text>

  <!-- 所得相応性基準（判定期間・20%ルール） -->
  <rect x="50" y="1445" width="550" height="130" class="term-box-rose"/>
  <text x="70" y="1469" class="term-name">判定期間（所得相応性基準）</text>
  <text x="70" y="1491" class="term-def">特殊関係にない者から特定無形資産の使用等による収入が最初に生じた日</text>
  <text x="70" y="1509" class="term-def">（取引日前の場合は取引日）を含む事業年度開始日から5年経過日までの期間。</text>
  <text x="70" y="1529" class="term-def">この期間の予測利益と実際利益が著しく相違しない場合（±20%以内）、</text>
  <text x="70" y="1549" class="term-def">経過後は所得相応性基準の適用なし。</text>
  <text x="70" y="1565" class="term-ref">措法§66の4⑩、措令§39の12⑱（±20%ルール）</text>

  <!-- 著しく相違しない（20%ルール） -->
  <rect x="620" y="1445" width="560" height="130" class="term-box-rose"/>
  <text x="640" y="1469" class="term-name">著しく相違しない場合（±20%ルール）</text>
  <text x="640" y="1491" class="term-def">対価の額の支払を受ける場合：独立企業間価格とみなされる金額が</text>
  <text x="640" y="1509" class="term-def">　対価の額×120%を超えない場合</text>
  <text x="640" y="1529" class="term-def">対価の額を支払う場合：独立企業間価格とみなされる金額が</text>
  <text x="640" y="1549" class="term-def">　対価の額×80%を下回らない場合</text>
  <text x="640" y="1565" class="term-ref">措令§39の12⑯</text>

  <!-- 免除書類（9項） -->
  <rect x="1200" y="1445" width="550" height="130" class="term-box"/>
  <text x="1220" y="1469" class="term-name">所得相応性基準の免除要件（§66の4⑨）</text>
  <text x="1220" y="1491" class="term-def">以下の事項を全て記載した書類を作成・取得している場合に適用排除：</text>
  <text x="1220" y="1511" class="term-def">一 対価額算定の前提事項の内容（予測金額・リスク等）</text>
  <text x="1220" y="1531" class="term-def">二 相違事由が災害等で予測困難であったこと、又は</text>
  <text x="1220" y="1549" class="term-def">　　 相違事由の発生可能性を勘案して対価額を算定していたこと</text>
  <text x="1220" y="1565" class="term-ref">措法§66の4⑨一二、措令§39の12⑮⑰</text>

  <!-- Connector -->
  <path d="M 600 1360 L 620 1360" class="connector-solid" marker-end="url(#arrowhead)"/>
  <path d="M 1180 1360 L 1200 1360" class="connector-solid" marker-end="url(#arrowhead)"/>

  <!-- ============================================================ -->
  <!-- CATEGORY 5: 文書化義務 -->
  <!-- ============================================================ -->
  <rect x="30" y="1595" width="1740" height="32" class="cat-header"/>
  <text x="50" y="1617" class="cat-text">■ 5. 文書化（ローカルファイル）に関する定義</text>

  <!-- 同時文書化義務 -->
  <rect x="50" y="1640" width="550" height="175" class="term-box-teal"/>
  <text x="70" y="1664" class="term-name-lg">同時文書化義務（ローカルファイル）</text>
  <text x="70" y="1686" class="term-def">国外関連取引を行った場合、独立企業間価格を算定するために必要と</text>
  <text x="70" y="1704" class="term-def">認められる書類（財務省令で定める書類＝ローカルファイル）を、</text>
  <text x="70" y="1722" class="term-def">確定申告書の提出期限までに作成又は取得し、保存する義務。</text>
  <text x="70" y="1746" class="term-def">保存期間：起算日から7年（欠損金発生事業年度は10年）</text>
  <text x="70" y="1764" class="term-def">起算日＝確定申告書の提出期限の翌日</text>
  <text x="70" y="1786" class="term-ref">措法§66の4⑥、措規§22の10⑥⑦⑧</text>
  <text x="70" y="1806" class="note-text">記載事項：資産明細、機能・リスク、無形資産、契約書、対価設定方法、損益明細、市場分析、事業概要、関連取引等</text>

  <!-- 同時文書化対象国外関連取引 -->
  <rect x="620" y="1640" width="560" height="85" class="term-box-teal"/>
  <text x="640" y="1664" class="term-name">同時文書化対象国外関連取引</text>
  <text x="640" y="1686" class="term-def">同時文書化免除に該当しない国外関連取引。</text>
  <text x="640" y="1702" class="term-def">ローカルファイルの同時文書化義務あり。</text>
  <text x="640" y="1718" class="term-ref">措法§66の4⑪（§66の4⑦の適用がある国外関連取引以外）</text>

  <!-- 同時文書化免除国外関連取引 -->
  <rect x="620" y="1735" width="560" height="80" class="term-box-teal"/>
  <text x="640" y="1759" class="term-name">同時文書化免除国外関連取引</text>
  <text x="640" y="1779" class="term-def">§66の4⑦の適用がある国外関連取引。</text>
  <text x="640" y="1795" class="term-def">同時文書化義務の免除対象だが、調査時の書類提出義務は存続。</text>
  <text x="640" y="1808" class="term-ref">措法§66の4⑭⑱</text>

  <!-- 免除基準 -->
  <rect x="1200" y="1640" width="550" height="175" class="term-box-teal"/>
  <text x="1220" y="1664" class="term-name">同時文書化免除の基準（§66の4⑦）</text>
  <text x="1220" y="1690" class="term-def">前事業年度の一の国外関連者との国外関連取引が以下の両方に該当：</text>
  <text x="1220" y="1714" class="term-def">一 対価の額（受払合計）が50億円未満</text>
  <text x="1220" y="1738" class="term-def">二 無形資産取引の対価の額（受払合計）が3億円未満</text>
  <text x="1220" y="1762" class="term-def">又は、前事業年度にその国外関連者との取引がない場合として</text>
  <text x="1220" y="1778" class="term-def">政令で定める場合</text>
  <text x="1220" y="1806" class="term-ref">措法§66の4⑦一二、措令§39の12⑪⑫</text>

  <!-- ============================================================ -->
  <!-- CATEGORY 6: 推定課税・秘密比較対象 -->
  <!-- ============================================================ -->
  <rect x="30" y="1835" width="1740" height="32" class="cat-header"/>
  <text x="50" y="1857" class="cat-text">■ 6. 推定課税と職員の質問検査権</text>

  <!-- 推定課税 -->
  <rect x="50" y="1880" width="820" height="150" class="term-box"/>
  <text x="70" y="1904" class="term-name-lg">推定課税（§66の4⑫⑭）</text>
  <text x="70" y="1928" class="term-def">同時文書化対象取引：ローカルファイル未提示（45日）又は重要書類未提示（60日）の場合</text>
  <text x="70" y="1948" class="term-def">同時文書化免除取引：重要書類未提示（60日）の場合</text>
  <text x="70" y="1972" class="term-def">→ 税務署長が次の方法で算定した金額を独立企業間価格と「推定」して更正・決定可：</text>
  <text x="70" y="1992" class="term-def">　一号：同種事業・類似規模法人の売上総利益率等に基づくRP法・CP法等（シークレットコンパラブル）</text>
  <text x="70" y="2012" class="term-def">　二号：一号不可の場合、連結計算書類ベースのPS法・DCF法等に類する方法</text>
  <text x="70" y="2025" class="term-ref">措法§66の4⑫一二、措令§39の12⑲⑳</text>

  <!-- 質問検査権 -->
  <rect x="900" y="1880" width="850" height="150" class="term-box"/>
  <text x="920" y="1904" class="term-name">質問検査権（同業者調査権）</text>
  <text x="920" y="1928" class="term-def">文書未提示の場合に、独立企業間価格算定のため、同種事業を営む者に</text>
  <text x="920" y="1948" class="term-def">質問し、帳簿書類を検査し、提示・提出を求めることができる。</text>
  <text x="920" y="1972" class="term-def">また、提出された帳簿書類（写し含む）を留め置くことが可能。</text>
  <text x="920" y="1996" class="term-def">犯罪捜査のために認められたものと解してはならない。</text>
  <text x="920" y="2015" class="term-ref">措法§66の4⑯〜⑳</text>

  <!-- ============================================================ -->
  <!-- CATEGORY 7: BEPS三層構造文書 -->
  <!-- ============================================================ -->
  <rect x="30" y="2050" width="1740" height="32" class="cat-header"/>
  <text x="50" y="2072" class="cat-text">■ 7. BEPS三層構造文書（移転価格文書化パッケージ）</text>

  <!-- 国別報告事項（CbCR） -->
  <rect x="50" y="2095" width="550" height="230" class="term-box-blue"/>
  <rect x="60" y="2102" width="60" height="20" fill="#2563eb" class="badge"/>
  <text x="90" y="2116" text-anchor="middle" class="badge-text" fill="#fff">CbCR</text>
  <text x="130" y="2116" class="term-name-lg">国別報告事項</text>
  <text x="70" y="2140" class="term-def">特定多国籍企業グループの構成会社等の事業が行われる国又は地域ごとの</text>
  <text x="70" y="2158" class="term-def">収入金額、税引前当期利益の額、納付税額その他の財務省令で定める事項。</text>
  <text x="70" y="2182" class="term-def">提供義務者：最終親会社等又は代理親会社等に該当する内国法人</text>
  <text x="70" y="2200" class="term-def">提供期限：最終親会計年度終了の日の翌日から1年以内</text>
  <text x="70" y="2218" class="term-def">提供方法：特定電子情報処理組織（e-Tax）</text>
  <text x="70" y="2240" class="term-def">代替提供：居住地国当局がCbCR情報を日本に提供できない場合、</text>
  <text x="70" y="2258" class="term-def">　　　　　構成会社等の内国法人・PE外国法人が提供義務を負う</text>
  <text x="70" y="2280" class="term-def">罰則：正当理由なく期限内不提供＝30万円以下の罰金</text>
  <text x="70" y="2310" class="term-ref">措法§66の4の4①②⑦</text>

  <!-- 事業概況報告事項（マスターファイル） -->
  <rect x="620" y="2095" width="560" height="230" class="term-box-blue"/>
  <rect x="630" y="2102" width="120" height="20" fill="#2563eb" class="badge"/>
  <text x="690" y="2116" text-anchor="middle" class="badge-text" fill="#fff">マスターファイル</text>
  <text x="760" y="2116" class="term-name-lg">事業概況報告事項</text>
  <text x="640" y="2140" class="term-def">特定多国籍企業グループの組織構造、事業の概要、</text>
  <text x="640" y="2158" class="term-def">財務状況その他の財務省令で定める事項。</text>
  <text x="640" y="2182" class="term-def">提供義務者：構成会社等の内国法人・PE外国法人</text>
  <text x="640" y="2200" class="term-def">提供期限：最終親会計年度終了の日の翌日から1年以内</text>
  <text x="640" y="2218" class="term-def">提供方法：特定電子情報処理組織（e-Tax）</text>
  <text x="640" y="2240" class="term-def">代表提供：複数法人がある場合、一の法人が代表して提供可能</text>
  <text x="640" y="2268" class="term-def">罰則：正当理由なく期限内不提供＝30万円以下の罰金</text>
  <text x="640" y="2310" class="term-ref">措法§66の4の5①②③</text>

  <!-- ローカルファイル（参照） -->
  <rect x="1200" y="2095" width="550" height="230" class="term-box-blue"/>
  <rect x="1210" y="2102" width="120" height="20" fill="#2563eb" class="badge"/>
  <text x="1270" y="2116" text-anchor="middle" class="badge-text" fill="#fff">ローカルファイル</text>
  <text x="1340" y="2116" class="term-name-lg">独立企業間価格算定書類</text>
  <text x="1220" y="2140" class="term-def">措法§66の4⑥に規定する財務省令で定める書類。</text>
  <text x="1220" y="2162" class="term-def">記載事項（措規§22の10⑥）：</text>
  <text x="1220" y="2182" class="term-def">一号 取引内容：資産明細、機能・リスク、無形資産、契約書、</text>
  <text x="1220" y="2200" class="term-def">　　 対価設定方法・交渉内容、損益明細、市場分析、</text>
  <text x="1220" y="2218" class="term-def">　　 事業内容・方針・組織、関連取引の有無</text>
  <text x="1220" y="2242" class="term-def">二号 ALP算定：選定方法・理由、比較対象取引の選定・明細、</text>
  <text x="1220" y="2260" class="term-def">　　 PS法の帰属計算書類、DCF法の割引計算書類、</text>
  <text x="1220" y="2278" class="term-def">　　 予測関連書類、複数取引一括算定の理由、差異調整書類</text>
  <text x="1220" y="2310" class="term-ref">措法§66の4⑥、措規§22の10⑥</text>

  <!-- ============================================================ -->
  <!-- CATEGORY 8: BEPS文書 定義用語 -->
  <!-- ============================================================ -->
  <rect x="30" y="2345" width="1740" height="32" class="cat-header"/>
  <text x="50" y="2367" class="cat-text">■ 8. BEPS文書に係る用語の定義（§66の4の4④）</text>

  <!-- 企業グループ -->
  <rect x="50" y="2390" width="420" height="110" class="term-box-green"/>
  <text x="70" y="2414" class="term-name">企業グループ</text>
  <text x="70" y="2436" class="term-def">企業集団のうち、連結財務諸表が作成されるもの</text>
  <text x="70" y="2454" class="term-def">として政令で定めるもの。</text>
  <text x="70" y="2474" class="term-def">（上場すれば連結FS作成となる企業集団を含む）</text>
  <text x="70" y="2492" class="term-ref">措法§66の4の4④一、措令§39の12の4②</text>

  <!-- 多国籍企業グループ -->
  <rect x="490" y="2390" width="420" height="110" class="term-box-green"/>
  <text x="510" y="2414" class="term-name">多国籍企業グループ</text>
  <text x="510" y="2436" class="term-def">企業グループのうち、構成会社等の居住地国が</text>
  <text x="510" y="2454" class="term-def">二以上あるものその他政令で定めるもの。</text>
  <text x="510" y="2474" class="term-def">（居住地国が同一でもPE課税がある場合を含む）</text>
  <text x="510" y="2492" class="term-ref">措法§66の4の4④二、措令§39の12の4③</text>

  <!-- 特定多国籍企業グループ -->
  <rect x="930" y="2390" width="420" height="110" class="term-box-green"/>
  <rect x="940" y="2397" width="100" height="20" fill="#16a34a" class="badge"/>
  <text x="990" y="2411" text-anchor="middle" class="badge-text" fill="#fff">CbCR対象</text>
  <text x="1050" y="2414" class="term-name">特定多国籍企業グループ</text>
  <text x="950" y="2436" class="term-def">多国籍企業グループのうち、直前の最終親会計年度の</text>
  <text x="950" y="2454" class="term-def">総収入金額が1,000億円以上であるもの。</text>
  <text x="950" y="2492" class="term-ref">措法§66の4の4④三</text>

  <!-- Connectors between group definitions -->
  <path d="M 470 2445 L 490 2445" class="connector-solid" marker-end="url(#arrowhead)"/>
  <path d="M 910 2445 L 930 2445" class="connector-solid" marker-end="url(#arrowhead)"/>

  <!-- 構成会社等 -->
  <rect x="1370" y="2390" width="380" height="110" class="term-box-green"/>
  <text x="1390" y="2414" class="term-name">構成会社等</text>
  <text x="1390" y="2436" class="term-def">企業グループの連結FSにその財産・損益が</text>
  <text x="1390" y="2454" class="term-def">連結して記載される会社等（会社、組合</text>
  <text x="1390" y="2472" class="term-def">その他事業体）その他の政令で定める会社等。</text>
  <text x="1390" y="2492" class="term-ref">措法§66の4の4④四、措令§39の12の4④</text>

  <!-- 最終親会社等 -->
  <rect x="50" y="2515" width="420" height="110" class="term-box-green"/>
  <text x="70" y="2539" class="term-name">最終親会社等</text>
  <text x="70" y="2561" class="term-def">企業グループの構成会社等のうち、他の構成会社等の</text>
  <text x="70" y="2579" class="term-def">意思決定機関（株主総会等）を支配する「親会社等」で</text>
  <text x="70" y="2597" class="term-def">あって、その上に親会社等がないもの（究極の親会社）。</text>
  <text x="70" y="2617" class="term-ref">措法§66の4の4④五、措令§39の12の4⑤</text>

  <!-- 代理親会社等 -->
  <rect x="490" y="2515" width="420" height="110" class="term-box-green"/>
  <text x="510" y="2539" class="term-name">代理親会社等</text>
  <text x="510" y="2561" class="term-def">最終親会社等以外のいずれか一の構成会社等で、</text>
  <text x="510" y="2579" class="term-def">CbCR又は相当事項を居住地国（最終親会社等の</text>
  <text x="510" y="2597" class="term-def">居住地国以外）の当局に提供するものとして</text>
  <text x="510" y="2615" class="term-def">最終親会社等が指定したもの。</text>
  <text x="510" y="2617" class="term-ref">措法§66の4の4④六</text>

  <!-- 最終親会計年度 -->
  <rect x="930" y="2515" width="420" height="110" class="term-box-green"/>
  <text x="950" y="2539" class="term-name">最終親会計年度</text>
  <text x="950" y="2561" class="term-def">最終親会社等の財産及び損益の計算の単位</text>
  <text x="950" y="2579" class="term-def">となる期間。</text>
  <text x="950" y="2617" class="term-ref">措法§66の4の4④七</text>

  <!-- 居住地国 -->
  <rect x="1370" y="2515" width="380" height="110" class="term-box-green"/>
  <text x="1390" y="2539" class="term-name">居住地国</text>
  <text x="1390" y="2561" class="term-def">イ 外国の法令で本店等所在により法人税</text>
  <text x="1390" y="2579" class="term-def">　 相当税が課される会社等→当該外国</text>
  <text x="1390" y="2597" class="term-def">ロ 外国に本店等を有する会社等→当該外国</text>
  <text x="1390" y="2615" class="term-def">ハ 国内に本店等を有する会社等→我が国</text>
  <text x="1390" y="2617" class="term-ref">措法§66の4の4④八</text>

  <!-- 最終親会社等届出事項 -->
  <rect x="50" y="2640" width="420" height="70" class="term-box"/>
  <text x="70" y="2664" class="term-name">最終親会社等届出事項</text>
  <text x="70" y="2684" class="term-def">最終親会社等及び代理親会社等に関する情報として財務省令で定める事項。</text>
  <text x="70" y="2700" class="term-ref">措法§66の4の4⑤、提出期限：最終親会計年度終了日まで</text>

  <!-- 連結財務諸表 -->
  <rect x="490" y="2640" width="420" height="70" class="term-box"/>
  <text x="510" y="2664" class="term-name">連結財務諸表</text>
  <text x="510" y="2684" class="term-def">一般に公正妥当と認められる会計処理の基準に従って企業集団の</text>
  <text x="510" y="2700" class="term-def">財産及び損益の状況を連結して記載した計算書類 ／ 措法§66の4の4④一</text>

  <!-- 意思決定機関 -->
  <rect x="930" y="2640" width="420" height="70" class="term-box"/>
  <text x="950" y="2664" class="term-name">意思決定機関</text>
  <text x="950" y="2684" class="term-def">株主総会その他これに準ずる機関。構成会社等の財務及び営業又は</text>
  <text x="950" y="2700" class="term-def">事業の方針を決定する機関。 ／ 措法§66の4の4④五、措令§39の12の4②④⑤</text>

  <!-- ============================================================ -->
  <!-- CATEGORY 9: 寄附金・更正・猶予 -->
  <!-- ============================================================ -->
  <rect x="30" y="2730" width="1740" height="32" class="cat-header"/>
  <text x="50" y="2752" class="cat-text">■ 9. 寄附金損金不算入・更正期間・納税猶予等</text>

  <!-- 国外関連者への寄附金 -->
  <rect x="50" y="2775" width="550" height="110" class="term-box"/>
  <text x="70" y="2799" class="term-name">国外関連者に対する寄附金の損金不算入</text>
  <text x="70" y="2821" class="term-def">法人が支出した寄附金の額（法法§37⑦の寄附金の額）のうち</text>
  <text x="70" y="2839" class="term-def">国外関連者に対するものは全額損金不算入。</text>
  <text x="70" y="2857" class="term-def">（PE帰属国内源泉所得の益金算入分を除く）</text>
  <text x="70" y="2875" class="term-ref">措法§66の4③</text>

  <!-- 移転価格との差額の損金不算入 -->
  <rect x="620" y="2775" width="560" height="110" class="term-box"/>
  <text x="640" y="2799" class="term-name">対価の額とALPとの差額の損金不算入</text>
  <text x="640" y="2821" class="term-def">§66の4①の適用がある場合の国外関連取引の対価の額と</text>
  <text x="640" y="2839" class="term-def">独立企業間価格との差額（寄附金の額に該当するものを除く）は、</text>
  <text x="640" y="2857" class="term-def">損金の額に算入しない。</text>
  <text x="640" y="2875" class="term-ref">措法§66の4④</text>

  <!-- 内部寄附金の額 -->
  <rect x="1200" y="2775" width="550" height="110" class="term-box"/>
  <text x="1220" y="2799" class="term-name">内部寄附金の額（外国法人PE版）</text>
  <text x="1220" y="2821" class="term-def">外国法人の内部取引において恒久的施設が本店等に対して支出した額</text>
  <text x="1220" y="2839" class="term-def">のうち法法§37⑦の寄附金の額に相当するもの。</text>
  <text x="1220" y="2857" class="term-def">PE帰属所得の計算上、損金不算入。</text>
  <text x="1220" y="2875" class="term-ref">措法§66の4の3③</text>

  <!-- 更正期間の特例 -->
  <rect x="50" y="2900" width="550" height="130" class="term-box"/>
  <text x="70" y="2924" class="term-name">更正期間の特例（7年）</text>
  <text x="70" y="2948" class="term-def">移転価格に基づく更正決定及び附帯的な賦課決定は、</text>
  <text x="70" y="2968" class="term-def">法定申告期限（又は還付請求申告書提出日）から7年を経過する日まで可能。</text>
  <text x="70" y="2988" class="term-def">更正の請求期間も「5年→7年」に延長。</text>
  <text x="70" y="3008" class="term-def">徴収権の時効：法定納期限から2年間は進行停止。</text>
  <text x="70" y="3022" class="term-ref">措法§66の4㉖㉗㉘</text>

  <!-- 納税の猶予 -->
  <rect x="620" y="2900" width="560" height="130" class="term-box"/>
  <text x="640" y="2924" class="term-name">納税の猶予（§66の4の2）</text>
  <text x="640" y="2948" class="term-def">租税条約に基づく相互協議の申立てをした場合、税務署長等は</text>
  <text x="640" y="2968" class="term-def">申立てに係る更正決定による法人税・地方法人税及び加算税の額を限度に</text>
  <text x="640" y="2988" class="term-def">納税を猶予可。猶予期間中の延滞税は免除。</text>
  <text x="640" y="3008" class="term-def">担保徴収原則（100万円以下又は3月以内は不要）。</text>
  <text x="640" y="3022" class="term-ref">措法§66の4の2①②⑦</text>

  <!-- 延滞税の免除 -->
  <rect x="1200" y="2900" width="550" height="130" class="term-box"/>
  <text x="1220" y="2924" class="term-name">延滞税の免除（相互協議合意時）</text>
  <text x="1220" y="2948" class="term-def">①相互協議合意 ②条約相手国等が対応的調整（減額＋還付）を行い</text>
  <text x="1220" y="2968" class="term-def">還付加算金相当額を付さないこと――の両要件を満たす場合、</text>
  <text x="1220" y="2988" class="term-def">国税局長又は税務署長は、合意期間に対応する延滞税を免除可。</text>
  <text x="1220" y="3022" class="term-ref">措法§66の4㉛、措令§39の12㉒㉓</text>

  <!-- ============================================================ -->
  <!-- CATEGORY 10: 確定申告書添付書類 -->
  <!-- ============================================================ -->
  <rect x="30" y="3050" width="1740" height="32" class="cat-header"/>
  <text x="50" y="3072" class="cat-text">■ 10. 確定申告書添付事項（§66の4㉕）</text>

  <rect x="50" y="3095" width="1700" height="110" class="term-box"/>
  <text x="70" y="3119" class="term-name">確定申告書の添付事項（措規§22の10⑬）</text>
  <text x="70" y="3143" class="term-def">各事業年度に国外関連者との取引を行った場合に添付すべき事項：</text>
  <text x="70" y="3163" class="term-def">① 国外関連者に該当する事情 ② 国外関連者の資本金・出資金額、従業員数、主たる事業内容</text>
  <text x="70" y="3183" class="term-def">③ 国外関連者の営業収益・営業費用・営業利益・税引前当期利益・利益剰余金 ④ 対価の額の取引種類別総額（受払別）</text>
  <text x="70" y="3199" class="term-def">⑤ 選定した算定方法（主たるもの） ⑥ ALP算定方法に係る当局確認の有無 ⑦ その他参考事項</text>

  <!-- ============================================================ -->
  <!-- CATEGORY 11: 外国法人PE版（準用関係） -->
  <!-- ============================================================ -->
  <rect x="30" y="3225" width="1740" height="32" class="cat-header"/>
  <text x="50" y="3247" class="cat-text">■ 11. 外国法人の内部取引に係る課税の特例（§66の4の3）の準用関係</text>

  <rect x="50" y="3270" width="1700" height="115" class="term-box-blue"/>
  <text x="70" y="3294" class="term-name">§66の4の3 による準用（内部取引版の読替え）</text>
  <text x="70" y="3318" class="term-def">措法§66の4の3⑭により、以下の規定を外国法人の内部取引に準用：</text>
  <text x="70" y="3340" class="term-def">措法§66の4④（差額の損金不算入）、§66の4⑧〜⑮（所得相応性基準）、§66の4㉕〜㉛（申告・更正・延滞税免除）、§66の4の2（納税猶予）</text>
  <text x="70" y="3362" class="term-def">主要読替え：「国外関連者」→「本店等」、「対価の額」→「対価の額とした額」、「所得」→「法法§141①一イの国内源泉所得に係る所得」</text>
  <text x="70" y="3378" class="term-ref">措法§66の4の3⑭ 読替表</text>

  <!-- ============================================================ -->
  <!-- FOOTER: 凡例 -->
  <!-- ============================================================ -->
  <rect x="30" y="3410" width="1740" height="32" class="cat-header" style="fill:#374151"/>
  <text x="50" y="3432" class="cat-text">凡例・条文略称</text>

  <rect x="50" y="3455" width="1700" height="100" fill="#f1f5f9" stroke="#cbd5e1" stroke-width="1" rx="6" ry="6"/>

  <rect x="70" y="3465" width="20" height="14" fill="#fffbeb" stroke="#d97706" stroke-width="1.5" rx="3"/>
  <text x="100" y="3477" class="term-def">中核概念（最重要定義）</text>

  <rect x="280" y="3465" width="20" height="14" fill="#eff6ff" stroke="#2563eb" stroke-width="1.5" rx="3"/>
  <text x="310" y="3477" class="term-def">制度・文書関連</text>

  <rect x="450" y="3465" width="20" height="14" fill="#f0fdf4" stroke="#16a34a" stroke-width="1.5" rx="3"/>
  <text x="480" y="3477" class="term-def">BEPS三層構造文書</text>

  <rect x="650" y="3465" width="20" height="14" fill="#faf5ff" stroke="#9333ea" stroke-width="1.5" rx="3"/>
  <text x="680" y="3477" class="term-def">利益法・算定方法</text>

  <rect x="830" y="3465" width="20" height="14" fill="#fff1f2" stroke="#e11d48" stroke-width="1.5" rx="3"/>
  <text x="860" y="3477" class="term-def">無形資産・所得相応性基準</text>

  <rect x="1070" y="3465" width="20" height="14" fill="#f0fdfa" stroke="#0d9488" stroke-width="1.5" rx="3"/>
  <text x="1100" y="3477" class="term-def">文書化義務</text>

  <rect x="1240" y="3465" width="20" height="14" fill="#ffffff" stroke="#334155" stroke-width="1.5" rx="3"/>
  <text x="1270" y="3477" class="term-def">一般定義・手続</text>

  <text x="70" y="3505" class="term-def" style="font-weight:bold">条文略称：</text>
  <text x="170" y="3505" class="term-def">措法 = 租税特別措置法 ／ 措令 = 同施行令 ／ 措規 = 同施行規則 ／ 法法 = 法人税法</text>
  <text x="70" y="3525" class="term-def">§66の4 = 措法第66条の4（国外関連者との取引に係る課税の特例） ／ §66の4の2 = 同条の2（納税猶予） ／ §66の4の3 = 同条の3（外国法人PE版）</text>
  <text x="70" y="3545" class="term-def">§66の4の4 = 同条の4（国別報告事項CbCR） ／ §66の4の5 = 同条の5（事業概況報告事項マスターファイル） ／ §39の12 = 措令第39条の12</text>

  <!-- Watermark -->
  <text x="900" y="3580" text-anchor="middle" style="font-size:11px; fill:#94a3b8;">
    Source: jplawdb4 (as_of: 2025-12-27) ｜ 条文のカッコ書・施行令・施行規則を精読して定義を抽出 ｜ 作成日: 2026-03-03
  </text>
</svg>