<svg xmlns="http://www.w3.org/2000/svg" viewBox="0 0 1600 2400" font-family="'Helvetica Neue', Arial, 'Hiragino Kaku Gothic ProN', sans-serif">
  <defs>
    <!-- 青=所得税法 -->
    <linearGradient id="gBlue" x1="0%" y1="0%" x2="0%" y2="100%">
      <stop offset="0%" stop-color="#4A90D9"/>
      <stop offset="100%" stop-color="#2C5F9E"/>
    </linearGradient>
    <!-- 緑=法人税法 -->
    <linearGradient id="gGreen" x1="0%" y1="0%" x2="0%" y2="100%">
      <stop offset="0%" stop-color="#5CB85C"/>
      <stop offset="100%" stop-color="#3D8B3D"/>
    </linearGradient>
    <!-- 橙=条約軽減 -->
    <linearGradient id="gOrange" x1="0%" y1="0%" x2="0%" y2="100%">
      <stop offset="0%" stop-color="#F0AD4E"/>
      <stop offset="100%" stop-color="#D4880F"/>
    </linearGradient>
    <!-- 赤=重要判定 -->
    <linearGradient id="gRed" x1="0%" y1="0%" x2="0%" y2="100%">
      <stop offset="0%" stop-color="#E74C3C"/>
      <stop offset="100%" stop-color="#B92D1F"/>
    </linearGradient>
    <!-- 薄青背景 -->
    <linearGradient id="gBlueBg" x1="0%" y1="0%" x2="0%" y2="100%">
      <stop offset="0%" stop-color="#E8F0FE"/>
      <stop offset="100%" stop-color="#D0E1F9"/>
    </linearGradient>
    <!-- 薄緑背景 -->
    <linearGradient id="gGreenBg" x1="0%" y1="0%" x2="0%" y2="100%">
      <stop offset="0%" stop-color="#E8F8E8"/>
      <stop offset="100%" stop-color="#C8E6C9"/>
    </linearGradient>
    <!-- 薄橙背景 -->
    <linearGradient id="gOrangeBg" x1="0%" y1="0%" x2="0%" y2="100%">
      <stop offset="0%" stop-color="#FFF3E0"/>
      <stop offset="100%" stop-color="#FFE0B2"/>
    </linearGradient>
    <filter id="shadow" x="-3%" y="-3%" width="106%" height="110%">
      <feDropShadow dx="2" dy="3" stdDeviation="3" flood-opacity="0.15"/>
    </filter>
    <marker id="arrowBlue" markerWidth="10" markerHeight="7" refX="10" refY="3.5" orient="auto">
      <polygon points="0 0, 10 3.5, 0 7" fill="#2C5F9E"/>
    </marker>
    <marker id="arrowRed" markerWidth="10" markerHeight="7" refX="10" refY="3.5" orient="auto">
      <polygon points="0 0, 10 3.5, 0 7" fill="#B92D1F"/>
    </marker>
    <marker id="arrowGray" markerWidth="10" markerHeight="7" refX="10" refY="3.5" orient="auto">
      <polygon points="0 0, 10 3.5, 0 7" fill="#666"/>
    </marker>
    <marker id="arrowOrange" markerWidth="10" markerHeight="7" refX="10" refY="3.5" orient="auto">
      <polygon points="0 0, 10 3.5, 0 7" fill="#D4880F"/>
    </marker>
  </defs>

  <!-- 背景 -->
  <rect width="1600" height="2400" fill="#F7F8FC" rx="0"/>

  <!-- ===== タイトル ===== -->
  <rect x="50" y="20" width="1500" height="80" rx="12" fill="#1B2A4A" filter="url(#shadow)"/>
  <text x="800" y="55" text-anchor="middle" fill="#FFF" font-size="26" font-weight="bold">非居住者・外国法人に対する源泉徴収制度 ― 条文マップ</text>
  <text x="800" y="80" text-anchor="middle" fill="#AAC" font-size="14">所得税法 / 法人税法 / 租税条約 体系図</text>

  <!-- 凡例 -->
  <rect x="50" y="115" width="1500" height="42" rx="8" fill="#FFF" stroke="#DDD" filter="url(#shadow)"/>
  <rect x="80" y="126" width="22" height="22" rx="4" fill="url(#gBlue)"/>
  <text x="110" y="142" font-size="13" fill="#333" font-weight="600">所得税法</text>
  <rect x="260" y="126" width="22" height="22" rx="4" fill="url(#gGreen)"/>
  <text x="290" y="142" font-size="13" fill="#333" font-weight="600">法人税法</text>
  <rect x="440" y="126" width="22" height="22" rx="4" fill="url(#gOrange)"/>
  <text x="470" y="142" font-size="13" fill="#333" font-weight="600">租税条約による軽減・免除</text>
  <rect x="700" y="126" width="22" height="22" rx="4" fill="url(#gRed)"/>
  <text x="730" y="142" font-size="13" fill="#333" font-weight="600">重要判定ポイント</text>
  <line x1="920" y1="137" x2="990" y2="137" stroke="#2C5F9E" stroke-width="2.5" stroke-dasharray="8,4"/>
  <text x="1000" y="142" font-size="13" fill="#333">フロー矢印</text>
  <rect x="1140" y="128" width="50" height="18" rx="4" fill="none" stroke="#999" stroke-dasharray="4,3"/>
  <text x="1200" y="142" font-size="13" fill="#333">参照関係</text>

  <!-- ========================================= -->
  <!-- STEP 0: 最上位判定 -->
  <!-- ========================================= -->
  <rect x="500" y="180" width="600" height="58" rx="12" fill="url(#gRed)" filter="url(#shadow)"/>
  <text x="800" y="207" text-anchor="middle" fill="#FFF" font-size="17" font-weight="bold">STEP 0 ─ 居住者 / 非居住者 ・ 内国法人 / 外国法人 の判定</text>
  <text x="800" y="227" text-anchor="middle" fill="#FFE0D0" font-size="12">所法2条①三〜五 ／ 法法2条三・四 ／ 実質所得者課税（所法12条・法法11条）</text>

  <!-- 矢印 STEP0→STEP1 -->
  <line x1="800" y1="238" x2="800" y2="278" stroke="#B92D1F" stroke-width="2.5" marker-end="url(#arrowRed)"/>

  <!-- ========================================= -->
  <!-- STEP 1: 国内源泉所得の範囲 -->
  <!-- ========================================= -->
  <rect x="50" y="280" width="1500" height="340" rx="14" fill="url(#gBlueBg)" stroke="#A0BFE0" stroke-width="1.5" filter="url(#shadow)"/>
  <text x="70" y="308" font-size="18" font-weight="bold" fill="#1B2A4A">STEP 1 ─ 国内源泉所得の範囲</text>

  <!-- 所得税法161条 -->
  <rect x="80" y="320" width="680" height="280" rx="10" fill="#FFF" stroke="#4A90D9" stroke-width="2"/>
  <rect x="80" y="320" width="680" height="34" rx="10" fill="url(#gBlue)"/>
  <rect x="80" y="344" width="680" height="10" fill="url(#gBlue)"/>
  <text x="420" y="344" text-anchor="middle" fill="#FFF" font-size="15" font-weight="bold">所得税法 第161条（国内源泉所得）</text>

  <!-- 1号〜12号 -->
  <text x="100" y="380" font-size="12.5" fill="#1B2A4A" font-weight="600">■ 第1号 ─ 事業所得（PE帰属所得）</text>
  <text x="100" y="400" font-size="12.5" fill="#1B2A4A" font-weight="600">■ 第2号 ─ 国内資産の運用・保有所得</text>
  <text x="100" y="420" font-size="12.5" fill="#1B2A4A" font-weight="600">■ 第3号 ─ 国内資産の譲渡所得</text>
  <text x="100" y="440" font-size="12.5" fill="#1B2A4A" font-weight="600">■ 第4号 ─ 組合契約に基づく利益の配分</text>
  <text x="100" y="460" font-size="12.5" fill="#1B2A4A" font-weight="600">■ 第5号 ─ 国内不動産の賃貸料等</text>
  <text x="100" y="480" font-size="12.5" fill="#1B2A4A" font-weight="600">■ 第6号 ─ 人的役務の提供対価</text>
  <text x="100" y="500" font-size="12.5" fill="#1B2A4A" font-weight="600">■ 第7号 ─ 不動産等の貸付対価</text>
  <text x="100" y="520" font-size="12.5" fill="#1B2A4A" font-weight="600">■ 第8号 ─ 利子等</text>
  <text x="100" y="540" font-size="12.5" fill="#1B2A4A" font-weight="600">■ 第9号 ─ 配当等</text>
  <text x="100" y="560" font-size="12.5" fill="#1B2A4A" font-weight="600">■ 第10号 ─ 貸付金利子</text>
  <text x="100" y="580" font-size="12.5" fill="#1B2A4A" font-weight="600">■ 第11号 ─ 使用料等（ロイヤルティ）</text>
  <text x="430" y="580" font-size="11" fill="#888">※ 工業所有権・著作権等</text>
  <text x="100" y="596" font-size="12.5" fill="#1B2A4A" font-weight="600">■ 第12号 ─ 給与・報酬・年金その他</text>

  <!-- 法人税法138条 -->
  <rect x="800" y="320" width="720" height="280" rx="10" fill="#FFF" stroke="#5CB85C" stroke-width="2"/>
  <rect x="800" y="320" width="720" height="34" rx="10" fill="url(#gGreen)"/>
  <rect x="800" y="344" width="720" height="10" fill="url(#gGreen)"/>
  <text x="1160" y="344" text-anchor="middle" fill="#FFF" font-size="15" font-weight="bold">法人税法 第138条（国内源泉所得）</text>

  <text x="820" y="380" font-size="12.5" fill="#2D5A2D" font-weight="600">■ 第1号 ─ PE帰属所得</text>
  <text x="1020" y="380" font-size="11" fill="#888">（法法141条①一 → 各事業年度の所得）</text>
  <text x="820" y="402" font-size="12.5" fill="#2D5A2D" font-weight="600">■ 第2号〜第6号 ─ PE非帰属の国内源泉所得</text>
  <text x="840" y="424" font-size="12" fill="#555">② 国内資産の運用・保有・譲渡</text>
  <text x="840" y="444" font-size="12" fill="#555">③ 組合契約に基づく利益の配分</text>
  <text x="840" y="464" font-size="12" fill="#555">④ 不動産賃貸料</text>
  <text x="840" y="484" font-size="12" fill="#555">⑤ 人的役務の提供対価</text>
  <text x="840" y="504" font-size="12" fill="#555">⑥ 不動産等の貸付対価</text>

  <rect x="820" y="520" width="680" height="68" rx="6" fill="#E8F8E8" stroke="#5CB85C" stroke-dasharray="4,3"/>
  <text x="830" y="540" font-size="12" fill="#2D5A2D" font-weight="bold">関連条文</text>
  <text x="830" y="558" font-size="11.5" fill="#555">・法法139条〜140条（PE帰属所得の計算） ・法法141条（課税標準）</text>
  <text x="830" y="576" font-size="11.5" fill="#555">・法法142条（PE帰属所得に係る所得計算の特例） ・法法144条（外国税額控除）</text>

  <!-- ========================================= -->
  <!-- 矢印 STEP1→STEP2 -->
  <!-- ========================================= -->
  <line x1="800" y1="620" x2="800" y2="660" stroke="#2C5F9E" stroke-width="2.5" marker-end="url(#arrowBlue)"/>
  <text x="810" y="647" font-size="11" fill="#666">源泉徴収対象の判定 ▼</text>

  <!-- ========================================= -->
  <!-- STEP 2: 源泉徴収義務 -->
  <!-- ========================================= -->
  <rect x="50" y="665" width="1500" height="260" rx="14" fill="#FFF" stroke="#4A90D9" stroke-width="2" filter="url(#shadow)"/>
  <text x="70" y="695" font-size="18" font-weight="bold" fill="#1B2A4A">STEP 2 ─ 源泉徴収義務</text>

  <!-- 212条 -->
  <rect x="80" y="710" width="700" height="195" rx="10" fill="url(#gBlueBg)" stroke="#4A90D9"/>
  <rect x="80" y="710" width="700" height="30" rx="10" fill="url(#gBlue)"/>
  <rect x="80" y="730" width="700" height="10" fill="url(#gBlue)"/>
  <text x="430" y="733" text-anchor="middle" fill="#FFF" font-size="14" font-weight="bold">所得税法 第212条（源泉徴収義務）</text>

  <text x="100" y="762" font-size="12.5" fill="#1B2A4A">① 非居住者に対し国内源泉所得の支払をする者は、支払の際に所得税を徴収し</text>
  <text x="110" y="780" font-size="12.5" fill="#1B2A4A">　国に納付する義務を負う（同条①）</text>
  <text x="100" y="805" font-size="12.5" fill="#1B2A4A">② 外国法人に対し同様（同条②）</text>
  <text x="100" y="832" font-size="12" fill="#E74C3C" font-weight="bold">【重要】 支払者 ＝ 源泉徴収義務者（居住者・内国法人・PE を有する非居住者等）</text>

  <rect x="100" y="850" width="660" height="44" rx="6" fill="#FFF" stroke="#4A90D9" stroke-dasharray="4,3"/>
  <text x="110" y="868" font-size="11.5" fill="#555">参照: 所法161条各号の支払 → 212条①② → 213条①②（税率） → 納期限: 翌月10日</text>
  <text x="110" y="884" font-size="11.5" fill="#555">納税地: 所法17条（支払者の所在地） ／ 納付書: 所規別表五（源泉徴収票含む）</text>

  <!-- 213条 -->
  <rect x="820" y="710" width="700" height="195" rx="10" fill="url(#gBlueBg)" stroke="#4A90D9"/>
  <rect x="820" y="710" width="700" height="30" rx="10" fill="url(#gBlue)"/>
  <rect x="820" y="730" width="700" height="10" fill="url(#gBlue)"/>
  <text x="1170" y="733" text-anchor="middle" fill="#FFF" font-size="14" font-weight="bold">所得税法 第213条（徴収税額）</text>

  <text x="840" y="762" font-size="12.5" fill="#1B2A4A">① 161条1号〜4号 → 支払金額 × 20.42%</text>
  <text x="840" y="784" font-size="12.5" fill="#1B2A4A">② 161条5号〜12号 →</text>
  <text x="860" y="806" font-size="12" fill="#555">原則 20.42%（復興特別所得税込み）</text>
  <text x="860" y="826" font-size="12" fill="#555">上場株式配当等 → 15.315%（措法9条の3の2）</text>
  <text x="860" y="846" font-size="12" fill="#555">人的役務提供事業（161条6号） → 20.42%</text>
  <text x="840" y="872" font-size="12" fill="#E74C3C" font-weight="bold">※ 復興特別所得税 2.1%上乗せ（R19年末まで）</text>
  <text x="840" y="892" font-size="11" fill="#888">措法3条の3・41条の9・42条 等による特例税率あり</text>

  <!-- ========================================= -->
  <!-- 矢印 STEP2→STEP3 -->
  <!-- ========================================= -->
  <line x1="800" y1="925" x2="800" y2="965" stroke="#2C5F9E" stroke-width="2.5" marker-end="url(#arrowBlue)"/>

  <!-- ========================================= -->
  <!-- STEP 3: 所得類型別税率テーブル -->
  <!-- ========================================= -->
  <rect x="50" y="970" width="1500" height="330" rx="14" fill="#FFF" stroke="#4A90D9" stroke-width="2" filter="url(#shadow)"/>
  <text x="70" y="1000" font-size="18" font-weight="bold" fill="#1B2A4A">STEP 3 ─ 所得類型別の源泉徴収税率（国内法）</text>

  <!-- テーブルヘッダ -->
  <rect x="80" y="1015" width="1440" height="32" rx="4" fill="#2C5F9E"/>
  <text x="180" y="1036" text-anchor="middle" fill="#FFF" font-size="13" font-weight="bold">所得類型</text>
  <text x="440" y="1036" text-anchor="middle" fill="#FFF" font-size="13" font-weight="bold">根拠条文</text>
  <text x="700" y="1036" text-anchor="middle" fill="#FFF" font-size="13" font-weight="bold">国内法税率</text>
  <text x="1000" y="1036" text-anchor="middle" fill="#FFF" font-size="13" font-weight="bold">条約限度税率（例: 日米）</text>
  <text x="1340" y="1036" text-anchor="middle" fill="#FFF" font-size="13" font-weight="bold">備考</text>

  <!-- Row 1: 配当 -->
  <rect x="80" y="1047" width="1440" height="36" rx="0" fill="#F0F5FF"/>
  <text x="180" y="1070" text-anchor="middle" font-size="12.5" fill="#1B2A4A" font-weight="600">配当等</text>
  <text x="440" y="1070" text-anchor="middle" font-size="12" fill="#333">所法161条①九 / 213条①二</text>
  <text x="700" y="1070" text-anchor="middle" font-size="12.5" fill="#E74C3C" font-weight="bold">20.42%</text>
  <text x="1000" y="1070" text-anchor="middle" font-size="12" fill="#D4880F" font-weight="bold">10%（親子間0%/5%）</text>
  <text x="1340" y="1070" text-anchor="middle" font-size="11" fill="#888">上場株式15.315%特例あり</text>

  <!-- Row 2: 利子 -->
  <rect x="80" y="1083" width="1440" height="36" rx="0" fill="#FFF"/>
  <text x="180" y="1106" text-anchor="middle" font-size="12.5" fill="#1B2A4A" font-weight="600">利子等</text>
  <text x="440" y="1106" text-anchor="middle" font-size="12" fill="#333">所法161条①八・十 / 213条①二</text>
  <text x="700" y="1106" text-anchor="middle" font-size="12.5" fill="#E74C3C" font-weight="bold">20.42%（15.315%）</text>
  <text x="1000" y="1106" text-anchor="middle" font-size="12" fill="#D4880F" font-weight="bold">10%（一定の場合0%）</text>
  <text x="1340" y="1106" text-anchor="middle" font-size="11" fill="#888">預金利子は15.315%</text>

  <!-- Row 3: 使用料 -->
  <rect x="80" y="1119" width="1440" height="36" rx="0" fill="#F0F5FF"/>
  <text x="180" y="1142" text-anchor="middle" font-size="12.5" fill="#1B2A4A" font-weight="600">使用料（ロイヤルティ）</text>
  <text x="440" y="1142" text-anchor="middle" font-size="12" fill="#333">所法161条①十一 / 213条①二</text>
  <text x="700" y="1142" text-anchor="middle" font-size="12.5" fill="#E74C3C" font-weight="bold">20.42%</text>
  <text x="1000" y="1142" text-anchor="middle" font-size="12" fill="#D4880F" font-weight="bold">0%（日米条約12条）</text>
  <text x="1340" y="1142" text-anchor="middle" font-size="11" fill="#888">OECDモデル免税型</text>

  <!-- Row 4: 人的役務 -->
  <rect x="80" y="1155" width="1440" height="36" rx="0" fill="#FFF"/>
  <text x="180" y="1178" text-anchor="middle" font-size="12.5" fill="#1B2A4A" font-weight="600">人的役務の提供対価</text>
  <text x="440" y="1178" text-anchor="middle" font-size="12" fill="#333">所法161条①六 / 213条①一</text>
  <text x="700" y="1178" text-anchor="middle" font-size="12.5" fill="#E74C3C" font-weight="bold">20.42%</text>
  <text x="1000" y="1178" text-anchor="middle" font-size="12" fill="#D4880F" font-weight="bold">条約により免除の場合あり</text>
  <text x="1340" y="1178" text-anchor="middle" font-size="11" fill="#888">芸能人・運動家条項注意</text>

  <!-- Row 5: 不動産 -->
  <rect x="80" y="1191" width="1440" height="36" rx="0" fill="#F0F5FF"/>
  <text x="180" y="1214" text-anchor="middle" font-size="12.5" fill="#1B2A4A" font-weight="600">不動産賃貸料</text>
  <text x="440" y="1214" text-anchor="middle" font-size="12" fill="#333">所法161条①五・七 / 213条①二</text>
  <text x="700" y="1214" text-anchor="middle" font-size="12.5" fill="#E74C3C" font-weight="bold">20.42%</text>
  <text x="1000" y="1214" text-anchor="middle" font-size="12" fill="#D4880F" font-weight="bold">源泉地国課税（通常軽減なし）</text>
  <text x="1340" y="1214" text-anchor="middle" font-size="11" fill="#888">総合課税選択可</text>

  <!-- Row 6: 譲渡 -->
  <rect x="80" y="1227" width="1440" height="36" rx="0" fill="#FFF"/>
  <text x="180" y="1250" text-anchor="middle" font-size="12.5" fill="#1B2A4A" font-weight="600">株式譲渡所得等</text>
  <text x="440" y="1250" text-anchor="middle" font-size="12" fill="#333">所法161条①三 / 措法37条の12</text>
  <text x="700" y="1250" text-anchor="middle" font-size="12.5" fill="#E74C3C" font-weight="bold">15.315%（申告分離）</text>
  <text x="1000" y="1250" text-anchor="middle" font-size="12" fill="#D4880F" font-weight="bold">条約により居住地国課税の場合あり</text>
  <text x="1340" y="1250" text-anchor="middle" font-size="11" fill="#888">不動産化体株式は除く</text>

  <!-- Row 7: 給与 -->
  <rect x="80" y="1263" width="1440" height="28" rx="0" fill="#F0F5FF"/>
  <text x="180" y="1282" text-anchor="middle" font-size="12.5" fill="#1B2A4A" font-weight="600">給与・報酬・年金</text>
  <text x="440" y="1282" text-anchor="middle" font-size="12" fill="#333">所法161条①十二 / 213条①一</text>
  <text x="700" y="1282" text-anchor="middle" font-size="12.5" fill="#E74C3C" font-weight="bold">20.42%</text>
  <text x="1000" y="1282" text-anchor="middle" font-size="12" fill="#D4880F" font-weight="bold">短期滞在免税（183日ルール）</text>
  <text x="1340" y="1282" text-anchor="middle" font-size="11" fill="#888">条約届出で免除可</text>

  <!-- ========================================= -->
  <!-- 矢印 STEP3→STEP4 (分岐) -->
  <!-- ========================================= -->
  <line x1="500" y1="1300" x2="500" y2="1360" stroke="#D4880F" stroke-width="2.5" marker-end="url(#arrowOrange)"/>
  <text x="380" y="1340" font-size="11" fill="#D4880F" font-weight="bold">条約あり？ ▼</text>
  <line x1="1100" y1="1300" x2="1100" y2="1360" stroke="#2C5F9E" stroke-width="2.5" marker-end="url(#arrowBlue)"/>
  <text x="1110" y="1340" font-size="11" fill="#2C5F9E" font-weight="bold">条約なし → 国内法税率適用 ▼</text>

  <!-- ========================================= -->
  <!-- STEP 4: 租税条約による軽減・免除 -->
  <!-- ========================================= -->
  <rect x="50" y="1365" width="900" height="360" rx="14" fill="url(#gOrangeBg)" stroke="#D4880F" stroke-width="2" filter="url(#shadow)"/>
  <text x="70" y="1395" font-size="18" font-weight="bold" fill="#7A4B00">STEP 4 ─ 租税条約による軽減・免除手続</text>

  <!-- 届出書 -->
  <rect x="80" y="1410" width="420" height="295" rx="10" fill="#FFF" stroke="#D4880F"/>
  <rect x="80" y="1410" width="420" height="30" rx="10" fill="url(#gOrange)"/>
  <rect x="80" y="1430" width="420" height="10" fill="url(#gOrange)"/>
  <text x="290" y="1433" text-anchor="middle" fill="#FFF" font-size="14" font-weight="bold">届出書の提出手続</text>

  <text x="100" y="1462" font-size="12" fill="#7A4B00" font-weight="bold">❶ 租税条約に関する届出書</text>
  <text x="110" y="1480" font-size="11.5" fill="#555">→ 所法162条 ・ 実特法 ・ 実特省令</text>
  <text x="110" y="1498" font-size="11.5" fill="#555">→ 支払の日の前日までに提出</text>
  <text x="110" y="1516" font-size="11.5" fill="#555">→ 提出先: 源泉徴収義務者の所轄税務署</text>

  <text x="100" y="1542" font-size="12" fill="#7A4B00" font-weight="bold">❷ 届出書の種類</text>
  <text x="110" y="1560" font-size="11.5" fill="#555">・様式1 … 配当に対する所得税軽減・免除</text>
  <text x="110" y="1578" font-size="11.5" fill="#555">・様式2 … 利子に対する所得税軽減・免除</text>
  <text x="110" y="1596" font-size="11.5" fill="#555">・様式3 … 使用料に対する所得税軽減・免除</text>
  <text x="110" y="1614" font-size="11.5" fill="#555">・様式7 … 人的役務提供事業報酬</text>
  <text x="110" y="1632" font-size="11.5" fill="#555">・様式8 … 自由職業者・芸能人</text>

  <text x="100" y="1658" font-size="12" fill="#7A4B00" font-weight="bold">❸ 特典条項（LOB条項）対応</text>
  <text x="110" y="1676" font-size="11.5" fill="#555">→ 様式17「特典条項に関する付表」添付必須</text>
  <text x="110" y="1694" font-size="11.5" fill="#555">→ 日米・日英・日豪・日蘭 等で要確認</text>

  <!-- 特典条項の判定フロー -->
  <rect x="530" y="1410" width="400" height="295" rx="10" fill="#FFF" stroke="#D4880F"/>
  <rect x="530" y="1410" width="400" height="30" rx="10" fill="url(#gOrange)"/>
  <rect x="530" y="1430" width="400" height="10" fill="url(#gOrange)"/>
  <text x="730" y="1433" text-anchor="middle" fill="#FFF" font-size="14" font-weight="bold">特典条項（LOB）判定フロー</text>

  <!-- LOBフロー -->
  <rect x="570" y="1455" width="320" height="32" rx="8" fill="url(#gRed)"/>
  <text x="730" y="1476" text-anchor="middle" fill="#FFF" font-size="12" font-weight="bold">適格居住者テスト</text>
  <line x1="730" y1="1487" x2="730" y2="1500" stroke="#B92D1F" stroke-width="1.5" marker-end="url(#arrowRed)"/>
  <text x="895" y="1497" font-size="10" fill="#B92D1F">No ↓</text>

  <rect x="570" y="1502" width="320" height="32" rx="8" fill="url(#gRed)" opacity="0.85"/>
  <text x="730" y="1523" text-anchor="middle" fill="#FFF" font-size="12" font-weight="bold">上場会社テスト / 所有・侵食テスト</text>
  <line x1="730" y1="1534" x2="730" y2="1547" stroke="#B92D1F" stroke-width="1.5" marker-end="url(#arrowRed)"/>
  <text x="895" y="1544" font-size="10" fill="#B92D1F">No ↓</text>

  <rect x="570" y="1549" width="320" height="32" rx="8" fill="url(#gRed)" opacity="0.7"/>
  <text x="730" y="1570" text-anchor="middle" fill="#FFF" font-size="12" font-weight="bold">能動的事業活動テスト</text>
  <line x1="730" y1="1581" x2="730" y2="1594" stroke="#B92D1F" stroke-width="1.5" marker-end="url(#arrowRed)"/>
  <text x="895" y="1591" font-size="10" fill="#B92D1F">No ↓</text>

  <rect x="570" y="1596" width="320" height="32" rx="8" fill="url(#gRed)" opacity="0.55"/>
  <text x="730" y="1617" text-anchor="middle" fill="#FFF" font-size="12" font-weight="bold">派生的受益テスト</text>
  <line x1="730" y1="1628" x2="730" y2="1641" stroke="#B92D1F" stroke-width="1.5" marker-end="url(#arrowRed)"/>
  <text x="895" y="1638" font-size="10" fill="#B92D1F">No ↓</text>

  <rect x="570" y="1643" width="320" height="32" rx="8" fill="#FFF" stroke="#B92D1F" stroke-width="2"/>
  <text x="730" y="1664" text-anchor="middle" fill="#B92D1F" font-size="12" font-weight="bold">権限ある当局の決定（個別認定）</text>

  <text x="550" y="1700" font-size="11" fill="#D4880F">※ いずれかを充足 → 条約特典の享受可</text>

  <!-- ========================================= -->
  <!-- 右列: STEP 5 還付手続 + STEP 6 確定申告 -->
  <!-- ========================================= -->

  <!-- STEP 5: 還付手続 -->
  <rect x="980" y="1365" width="570" height="165" rx="14" fill="url(#gBlueBg)" stroke="#4A90D9" stroke-width="2" filter="url(#shadow)"/>
  <text x="1000" y="1395" font-size="18" font-weight="bold" fill="#1B2A4A">STEP 5 ─ 源泉所得税の還付手続</text>

  <text x="1000" y="1420" font-size="12.5" fill="#1B2A4A" font-weight="600">❶ 事後的な条約適用（所法138条・実特法）</text>
  <text x="1010" y="1438" font-size="11.5" fill="#555">→ 届出書を期限内に提出できなかった場合</text>
  <text x="1010" y="1454" font-size="11.5" fill="#555">→「租税条約に関する源泉徴収税額の還付請求書」提出</text>

  <text x="1000" y="1478" font-size="12.5" fill="#1B2A4A" font-weight="600">❷ 確定申告に基づく還付（所法172条・173条）</text>
  <text x="1010" y="1496" font-size="11.5" fill="#555">→ 総合課税を選択した場合 → 過納額を還付</text>

  <text x="1000" y="1518" font-size="12.5" fill="#1B2A4A" font-weight="600">❸ 更正の請求（通法23条）</text>
  <text x="1010" y="1525" font-size="11.5" fill="#555"/>

  <!-- STEP 6: 確定申告 -->
  <rect x="980" y="1545" width="570" height="180" rx="14" fill="url(#gBlueBg)" stroke="#4A90D9" stroke-width="2" filter="url(#shadow)"/>
  <text x="1000" y="1575" font-size="18" font-weight="bold" fill="#1B2A4A">STEP 6 ─ 非居住者の確定申告</text>

  <rect x="1000" y="1590" width="530" height="120" rx="8" fill="#FFF" stroke="#4A90D9"/>
  <text x="1010" y="1612" font-size="12.5" fill="#1B2A4A" font-weight="600">■ 総合課税の選択（所法164条②・172条）</text>
  <text x="1020" y="1630" font-size="11.5" fill="#555">→ 恒久的施設を有しない非居住者が一定の国内源泉所得について</text>
  <text x="1020" y="1648" font-size="11.5" fill="#555">　 総合課税を選択 → 超過累進税率（5%〜45%）適用</text>
  <text x="1020" y="1666" font-size="11.5" fill="#555">→ 源泉徴収税額との差額を精算（還付 or 追加納付）</text>

  <text x="1010" y="1692" font-size="12" fill="#E74C3C" font-weight="bold">■ 納税管理人の届出（通法117条）が必要</text>
  <text x="1010" y="1706" font-size="11.5" fill="#555">→ 出国前に「納税管理人届出書」を所轄税務署に提出</text>

  <!-- ========================================= -->
  <!-- STEP 7: 全体フロー統合図 -->
  <!-- ========================================= -->
  <rect x="50" y="1760" width="1500" height="580" rx="14" fill="#F0F2F8" stroke="#999" stroke-width="1" filter="url(#shadow)"/>
  <text x="70" y="1792" font-size="18" font-weight="bold" fill="#1B2A4A">全体フロー ─ 源泉徴収実務のステップ統合</text>

  <!-- フローボックス群 -->
  <!-- Box A: 支払発生 -->
  <rect x="100" y="1820" width="220" height="54" rx="10" fill="url(#gRed)" filter="url(#shadow)"/>
  <text x="210" y="1845" text-anchor="middle" fill="#FFF" font-size="13" font-weight="bold">支払の発生</text>
  <text x="210" y="1863" text-anchor="middle" fill="#FFE0D0" font-size="10">配当・利子・使用料等</text>

  <line x1="320" y1="1847" x2="370" y2="1847" stroke="#B92D1F" stroke-width="2" marker-end="url(#arrowRed)"/>

  <!-- Box B: 居住者判定 -->
  <rect x="375" y="1820" width="220" height="54" rx="10" fill="url(#gRed)" filter="url(#shadow)"/>
  <text x="485" y="1843" text-anchor="middle" fill="#FFF" font-size="12" font-weight="bold">受領者が非居住者</text>
  <text x="485" y="1860" text-anchor="middle" fill="#FFE0D0" font-size="10">or 外国法人か？</text>

  <line x1="595" y1="1847" x2="645" y2="1847" stroke="#666" stroke-width="2" marker-end="url(#arrowGray)"/>
  <text x="620" y="1840" font-size="10" fill="#666">Yes</text>

  <!-- Box C: 国内源泉所得判定 -->
  <rect x="650" y="1820" width="220" height="54" rx="10" fill="url(#gBlue)" filter="url(#shadow)"/>
  <text x="760" y="1843" text-anchor="middle" fill="#FFF" font-size="12" font-weight="bold">国内源泉所得に該当？</text>
  <text x="760" y="1860" text-anchor="middle" fill="#D0E1F9" font-size="10">所法161条 / 法法138条</text>

  <line x1="870" y1="1847" x2="920" y2="1847" stroke="#666" stroke-width="2" marker-end="url(#arrowGray)"/>
  <text x="895" y="1840" font-size="10" fill="#666">Yes</text>

  <!-- Box D: 条約確認 -->
  <rect x="925" y="1820" width="220" height="54" rx="10" fill="url(#gOrange)" filter="url(#shadow)"/>
  <text x="1035" y="1843" text-anchor="middle" fill="#FFF" font-size="12" font-weight="bold">租税条約の適用？</text>
  <text x="1035" y="1860" text-anchor="middle" fill="#FFF8E0" font-size="10">届出書・LOB確認</text>

  <!-- 分岐: 条約あり -->
  <line x1="1145" y1="1835" x2="1210" y2="1835" stroke="#D4880F" stroke-width="2" marker-end="url(#arrowOrange)"/>
  <text x="1170" y="1828" font-size="10" fill="#D4880F">適用あり</text>

  <!-- Box E-1: 軽減税率 -->
  <rect x="1215" y="1810" width="300" height="34" rx="8" fill="url(#gOrange)" filter="url(#shadow)"/>
  <text x="1365" y="1832" text-anchor="middle" fill="#FFF" font-size="12" font-weight="bold">条約限度税率で源泉徴収</text>

  <!-- 分岐: 条約なし -->
  <line x1="1145" y1="1858" x2="1210" y2="1858" stroke="#2C5F9E" stroke-width="2" marker-end="url(#arrowBlue)"/>
  <text x="1170" y="1872" font-size="10" fill="#2C5F9E">適用なし</text>

  <!-- Box E-2: 国内法税率 -->
  <rect x="1215" y="1850" width="300" height="34" rx="8" fill="url(#gBlue)" filter="url(#shadow)"/>
  <text x="1365" y="1872" text-anchor="middle" fill="#FFF" font-size="12" font-weight="bold">国内法税率（20.42%等）で源泉徴収</text>

  <!-- 矢印→ 下へ -->
  <line x1="1365" y1="1884" x2="1365" y2="1920" stroke="#666" stroke-width="2" marker-end="url(#arrowGray)"/>

  <!-- Box F: 納付 -->
  <rect x="1195" y="1924" width="340" height="46" rx="10" fill="url(#gBlue)" filter="url(#shadow)"/>
  <text x="1365" y="1945" text-anchor="middle" fill="#FFF" font-size="13" font-weight="bold">翌月10日までに納付</text>
  <text x="1365" y="1962" text-anchor="middle" fill="#D0E1F9" font-size="10">所法181条以下 ・ e-Taxまたは納付書</text>

  <!-- 矢印→ 下の分岐 -->
  <line x1="1365" y1="1970" x2="1365" y2="2000" stroke="#666" stroke-width="1.5"/>
  <line x1="1365" y1="2000" x2="600" y2="2000" stroke="#666" stroke-width="1.5"/>
  <line x1="600" y1="2000" x2="600" y2="2020" stroke="#666" stroke-width="1.5" marker-end="url(#arrowGray)"/>
  <line x1="1365" y1="2000" x2="1365" y2="2020" stroke="#666" stroke-width="1.5" marker-end="url(#arrowGray)"/>

  <!-- Box G-1: 確定申告 -->
  <rect x="380" y="2025" width="440" height="70" rx="10" fill="url(#gBlue)" filter="url(#shadow)"/>
  <text x="600" y="2050" text-anchor="middle" fill="#FFF" font-size="13" font-weight="bold">確定申告（総合課税選択）</text>
  <text x="600" y="2068" text-anchor="middle" fill="#D0E1F9" font-size="11">所法164条②・172条 ─ 納税管理人選任</text>
  <text x="600" y="2084" text-anchor="middle" fill="#D0E1F9" font-size="11">超過累進税率 5%〜45% で精算</text>

  <!-- Box G-2: 還付 -->
  <rect x="1140" y="2025" width="440" height="70" rx="10" fill="url(#gOrange)" filter="url(#shadow)"/>
  <text x="1360" y="2050" text-anchor="middle" fill="#FFF" font-size="13" font-weight="bold">事後還付請求</text>
  <text x="1360" y="2068" text-anchor="middle" fill="#FFF8E0" font-size="11">条約適用漏れ → 還付請求書提出</text>
  <text x="1360" y="2084" text-anchor="middle" fill="#FFF8E0" font-size="11">更正の請求（通法23条）</text>

  <!-- 最終到達 -->
  <line x1="600" y1="2095" x2="600" y2="2130" stroke="#666" stroke-width="1.5"/>
  <line x1="1360" y1="2095" x2="1360" y2="2130" stroke="#666" stroke-width="1.5"/>
  <line x1="600" y1="2130" x2="1360" y2="2130" stroke="#666" stroke-width="1.5"/>
  <line x1="980" y1="2130" x2="980" y2="2160" stroke="#666" stroke-width="2" marker-end="url(#arrowGray)"/>

  <rect x="780" y="2165" width="400" height="50" rx="12" fill="#1B2A4A" filter="url(#shadow)"/>
  <text x="980" y="2192" text-anchor="middle" fill="#FFF" font-size="15" font-weight="bold">手続完了 ─ 課税関係の確定</text>
  <text x="980" y="2208" text-anchor="middle" fill="#AAC" font-size="11">法定調書（支払調書）の提出（翌年1月31日まで）</text>

  <!-- ========================================= -->
  <!-- 下部: 関連条文索引 -->
  <!-- ========================================= -->
  <rect x="50" y="2250" width="1500" height="130" rx="12" fill="#FFF" stroke="#CCC" filter="url(#shadow)"/>
  <text x="70" y="2278" font-size="15" font-weight="bold" fill="#1B2A4A">主要条文索引</text>

  <rect x="80" y="2290" width="16" height="16" rx="3" fill="url(#gBlue)"/>
  <text x="104" y="2303" font-size="11.5" fill="#333">
    所法2条①三〜五（定義） ／ 所法12条（実質所得者課税） ／ 所法161条（国内源泉所得） ／ 所法162条（条約届出） ／ 所法164条（非居住者課税方式） ／ 所法172条（申告）
  </text>
  <text x="104" y="2321" font-size="11.5" fill="#333">
    所法212条（源泉徴収義務） ／ 所法213条（税額） ／ 措法3条の3・9条の3の2・37条の12・41条の9・42条 ／ 所規別表五（納付書）
  </text>

  <rect x="80" y="2335" width="16" height="16" rx="3" fill="url(#gGreen)"/>
  <text x="104" y="2348" font-size="11.5" fill="#333">
    法法2条三・四（定義） ／ 法法11条（実質所得者課税） ／ 法法138条（国内源泉所得） ／ 法法139〜142条（PE帰属所得計算） ／ 法法144条（外国税額控除）
  </text>

  <rect x="80" y="2358" width="16" height="16" rx="3" fill="url(#gOrange)"/>
  <text x="104" y="2371" font-size="11.5" fill="#333">
    租税条約実施特例法（実特法） ／ 実特省令（届出書様式） ／ 通法23条（更正の請求） ／ 通法117条（納税管理人）
  </text>

</svg>