<svg xmlns="http://www.w3.org/2000/svg" viewBox="0 0 1400 2800" font-family="'Helvetica Neue', Arial, sans-serif">
  <defs>
    <linearGradient id="headerGrad" x1="0%" y1="0%" x2="100%" y2="0%">
      <stop offset="0%" style="stop-color:#1a237e;stop-opacity:1" />
      <stop offset="100%" style="stop-color:#283593;stop-opacity:1" />
    </linearGradient>
    <linearGradient id="blueGrad" x1="0%" y1="0%" x2="0%" y2="100%">
      <stop offset="0%" style="stop-color:#e3f2fd;stop-opacity:1" />
      <stop offset="100%" style="stop-color:#bbdefb;stop-opacity:1" />
    </linearGradient>
    <linearGradient id="greenGrad" x1="0%" y1="0%" x2="0%" y2="100%">
      <stop offset="0%" style="stop-color:#e8f5e9;stop-opacity:1" />
      <stop offset="100%" style="stop-color:#c8e6c9;stop-opacity:1" />
    </linearGradient>
    <linearGradient id="orangeGrad" x1="0%" y1="0%" x2="0%" y2="100%">
      <stop offset="0%" style="stop-color:#fff3e0;stop-opacity:1" />
      <stop offset="100%" style="stop-color:#ffe0b2;stop-opacity:1" />
    </linearGradient>
    <linearGradient id="redGrad" x1="0%" y1="0%" x2="0%" y2="100%">
      <stop offset="0%" style="stop-color:#ffebee;stop-opacity:1" />
      <stop offset="100%" style="stop-color:#ffcdd2;stop-opacity:1" />
    </linearGradient>
    <linearGradient id="purpleGrad" x1="0%" y1="0%" x2="0%" y2="100%">
      <stop offset="0%" style="stop-color:#f3e5f5;stop-opacity:1" />
      <stop offset="100%" style="stop-color:#e1bee7;stop-opacity:1" />
    </linearGradient>
    <linearGradient id="tealGrad" x1="0%" y1="0%" x2="0%" y2="100%">
      <stop offset="0%" style="stop-color:#e0f2f1;stop-opacity:1" />
      <stop offset="100%" style="stop-color:#b2dfdb;stop-opacity:1" />
    </linearGradient>
    <filter id="shadow" x="-2%" y="-2%" width="104%" height="104%">
      <feDropShadow dx="2" dy="2" stdDeviation="3" flood-color="#00000022"/>
    </filter>
    <marker id="arrowBlack" markerWidth="10" markerHeight="7" refX="10" refY="3.5" orient="auto">
      <polygon points="0 0, 10 3.5, 0 7" fill="#37474f"/>
    </marker>
    <marker id="arrowRed" markerWidth="10" markerHeight="7" refX="10" refY="3.5" orient="auto">
      <polygon points="0 0, 10 3.5, 0 7" fill="#c62828"/>
    </marker>
    <marker id="arrowGreen" markerWidth="10" markerHeight="7" refX="10" refY="3.5" orient="auto">
      <polygon points="0 0, 10 3.5, 0 7" fill="#2e7d32"/>
    </marker>
  </defs>

  <!-- Background -->
  <rect width="1400" height="2800" fill="#f5f5f5" rx="8"/>

  <!-- ==================== TITLE ==================== -->
  <rect x="50" y="20" width="1300" height="70" rx="10" fill="url(#headerGrad)" filter="url(#shadow)"/>
  <text x="700" y="60" text-anchor="middle" fill="white" font-size="28" font-weight="bold">役員給与の税務上の取扱い ― 全体構造図解</text>
  <text x="700" y="80" text-anchor="middle" fill="#b3e5fc" font-size="13">法人税法第34条 ／ 法人税法施行令第69条 ／ 法人税基本通達9-2-13 に基づく整理（国税庁Q&amp;A準拠）</text>

  <!-- ==================== SECTION 1: 役員給与の3類型 ==================== -->
  <rect x="50" y="110" width="1300" height="60" rx="8" fill="#1a237e" filter="url(#shadow)"/>
  <text x="700" y="148" text-anchor="middle" fill="white" font-size="22" font-weight="bold">第１章　損金算入が認められる役員給与の３類型（法法34①）</text>

  <!-- 3 boxes side by side -->
  <!-- Type 1: 定期同額給与 -->
  <rect x="60" y="190" width="410" height="180" rx="10" fill="url(#blueGrad)" stroke="#1565c0" stroke-width="2.5" filter="url(#shadow)"/>
  <rect x="60" y="190" width="410" height="40" rx="10" fill="#1565c0"/>
  <rect x="60" y="220" width="410" height="10" fill="#1565c0"/>
  <text x="265" y="216" text-anchor="middle" fill="white" font-size="18" font-weight="bold">❶ 定期同額給与</text>
  <text x="265" y="240" text-anchor="middle" fill="white" font-size="12">（法法34①一）</text>
  <text x="80" y="262" fill="#1a237e" font-size="13">支給時期が1月以下の一定期間ごとで、</text>
  <text x="80" y="280" fill="#1a237e" font-size="13">各支給時期の支給額が同額であるもの。</text>
  <text x="80" y="304" fill="#1a237e" font-size="13" font-weight="bold">● 毎月の定額報酬が典型例</text>
  <text x="80" y="326" fill="#1a237e" font-size="13">● 所定の改定事由に該当する改定は、</text>
  <text x="88" y="344" fill="#1a237e" font-size="13">  改定前後それぞれ同額なら適格</text>
  <text x="80" y="362" fill="#c62828" font-size="12" font-weight="bold">★ 本Q&amp;Aの主要論点</text>

  <!-- Type 2: 事前確定届出給与 -->
  <rect x="495" y="190" width="410" height="180" rx="10" fill="url(#greenGrad)" stroke="#2e7d32" stroke-width="2.5" filter="url(#shadow)"/>
  <rect x="495" y="190" width="410" height="40" rx="10" fill="#2e7d32"/>
  <rect x="495" y="220" width="410" height="10" fill="#2e7d32"/>
  <text x="700" y="216" text-anchor="middle" fill="white" font-size="18" font-weight="bold">❷ 事前確定届出給与</text>
  <text x="700" y="240" text-anchor="middle" fill="white" font-size="12">（法法34①二）</text>
  <text x="515" y="262" fill="#1b5e20" font-size="13">所定の時期に確定額を支給する旨の</text>
  <text x="515" y="280" fill="#1b5e20" font-size="13">定めに基づき支給する給与で、</text>
  <text x="515" y="298" fill="#1b5e20" font-size="13">納税地の所轄税務署長に届出済のもの。</text>
  <text x="515" y="322" fill="#1b5e20" font-size="13" font-weight="bold">● 役員賞与等が典型例</text>
  <text x="515" y="344" fill="#1b5e20" font-size="13">● 業績悪化改定事由・臨時改定事由</text>
  <text x="523" y="362" fill="#1b5e20" font-size="13">  による変更届出も同様の取扱い</text>

  <!-- Type 3: 業績連動給与 -->
  <rect x="930" y="190" width="410" height="180" rx="10" fill="url(#orangeGrad)" stroke="#e65100" stroke-width="2.5" filter="url(#shadow)"/>
  <rect x="930" y="190" width="410" height="40" rx="10" fill="#e65100"/>
  <rect x="930" y="220" width="410" height="10" fill="#e65100"/>
  <text x="1135" y="216" text-anchor="middle" fill="white" font-size="18" font-weight="bold">❸ 業績連動給与</text>
  <text x="1135" y="240" text-anchor="middle" fill="white" font-size="12">（法法34①三）</text>
  <text x="950" y="262" fill="#bf360c" font-size="13">利益の状況を示す指標を基礎として</text>
  <text x="950" y="280" fill="#bf360c" font-size="13">算定される給与で、同族会社以外の</text>
  <text x="950" y="298" fill="#bf360c" font-size="13">内国法人が支給するもの。</text>
  <text x="950" y="322" fill="#bf360c" font-size="13" font-weight="bold">● 報酬委員会等の適正手続が必要</text>
  <text x="950" y="344" fill="#bf360c" font-size="13">● 有価証券報告書に記載される</text>
  <text x="950" y="362" fill="#bf360c" font-size="13">  算定方法によること</text>

  <!-- ==================== SECTION 2: 定期同額給与 詳細 ==================== -->
  <rect x="50" y="400" width="1300" height="60" rx="8" fill="#1565c0" filter="url(#shadow)"/>
  <text x="700" y="438" text-anchor="middle" fill="white" font-size="22" font-weight="bold">第２章　定期同額給与の判定フロー（法令69①一）</text>

  <!-- Main flow start -->
  <rect x="490" y="485" width="420" height="50" rx="25" fill="#1565c0" filter="url(#shadow)"/>
  <text x="700" y="516" text-anchor="middle" fill="white" font-size="16" font-weight="bold">定期給与の額に改定があったか？</text>

  <!-- No branch -->
  <line x1="910" y1="510" x2="1050" y2="510" stroke="#37474f" stroke-width="2" marker-end="url(#arrowBlack)"/>
  <text x="970" y="500" fill="#37474f" font-size="14" font-weight="bold">NO</text>
  <rect x="1050" y="480" width="280" height="60" rx="10" fill="#a5d6a7" stroke="#2e7d32" stroke-width="2" filter="url(#shadow)"/>
  <text x="1190" y="505" text-anchor="middle" fill="#1b5e20" font-size="14" font-weight="bold">通年で同額 →</text>
  <text x="1190" y="525" text-anchor="middle" fill="#1b5e20" font-size="14" font-weight="bold">定期同額給与に該当 ✓</text>

  <!-- Yes branch -->
  <line x1="700" y1="535" x2="700" y2="580" stroke="#37474f" stroke-width="2" marker-end="url(#arrowBlack)"/>
  <text x="715" y="565" fill="#37474f" font-size="14" font-weight="bold">YES</text>

  <!-- Diamond: 改定事由の分類 -->
  <polygon points="700,585 920,660 700,735 480,660" fill="#fff9c4" stroke="#f57f17" stroke-width="2" filter="url(#shadow)"/>
  <text x="700" y="648" text-anchor="middle" fill="#e65100" font-size="15" font-weight="bold">改定事由は</text>
  <text x="700" y="670" text-anchor="middle" fill="#e65100" font-size="15" font-weight="bold">何に該当するか？</text>

  <!-- ===== 3 改定事由 branches ===== -->

  <!-- Branch イ: 通常改定 (LEFT) -->
  <line x1="480" y1="660" x2="200" y2="660" stroke="#1565c0" stroke-width="2.5" marker-end="url(#arrowBlack)"/>
  <rect x="50" y="620" width="150" height="80" rx="10" fill="#1565c0" filter="url(#shadow)"/>
  <text x="125" y="652" text-anchor="middle" fill="white" font-size="13" font-weight="bold">イ 通常改定</text>
  <text x="125" y="672" text-anchor="middle" fill="#bbdefb" font-size="11">（法令69①一イ）</text>
  <text x="125" y="692" text-anchor="middle" fill="#bbdefb" font-size="10">（Q2, Q4）</text>

  <rect x="20" y="720" width="340" height="200" rx="8" fill="url(#blueGrad)" stroke="#1565c0" stroke-width="1.5" filter="url(#shadow)"/>
  <line x1="125" y1="700" x2="125" y2="720" stroke="#1565c0" stroke-width="2" marker-end="url(#arrowBlack)"/>
  <text x="40" y="745" fill="#0d47a1" font-size="13" font-weight="bold">要件</text>
  <text x="40" y="768" fill="#1a237e" font-size="12">● 会計期間開始日から3月経過日まで</text>
  <text x="48" y="786" fill="#1a237e" font-size="12">  に行われた改定</text>
  <text x="40" y="808" fill="#1a237e" font-size="12">● 定時株主総会・取締役会等の決議</text>
  <text x="40" y="830" fill="#1a237e" font-size="12">● 特別事情がある場合は3月経過日</text>
  <text x="48" y="848" fill="#1a237e" font-size="12">  後も可（毎年所定時期の改定）</text>
  <text x="40" y="876" fill="#0d47a1" font-size="12" font-weight="bold">Q2: 株主総会翌月分からの増額</text>
  <text x="40" y="894" fill="#1a237e" font-size="11">→ 翌職務執行期間の最初の支給を翌月</text>
  <text x="48" y="910" fill="#1a237e" font-size="11">  とする定めは一般的 → 適格</text>

  <!-- Branch ロ: 臨時改定 (CENTER) -->
  <line x1="700" y1="735" x2="700" y2="770" stroke="#7b1fa2" stroke-width="2.5" marker-end="url(#arrowBlack)"/>
  <rect x="580" y="770" width="240" height="70" rx="10" fill="#7b1fa2" filter="url(#shadow)"/>
  <text x="700" y="800" text-anchor="middle" fill="white" font-size="13" font-weight="bold">ロ 臨時改定事由</text>
  <text x="700" y="818" text-anchor="middle" fill="#e1bee7" font-size="11">（法令69①一ロ）（Q5）</text>
  <text x="700" y="834" text-anchor="middle" fill="#e1bee7" font-size="10">※ イに該当する改定を除く</text>

  <rect x="480" y="860" width="440" height="200" rx="8" fill="url(#purpleGrad)" stroke="#7b1fa2" stroke-width="1.5" filter="url(#shadow)"/>
  <line x1="700" y1="840" x2="700" y2="860" stroke="#7b1fa2" stroke-width="2" marker-end="url(#arrowBlack)"/>
  <text x="500" y="885" fill="#4a148c" font-size="13" font-weight="bold">該当する事情</text>
  <text x="500" y="908" fill="#4a148c" font-size="12">● 職制上の地位の変更</text>
  <text x="500" y="928" fill="#4a148c" font-size="12">● 職務内容の重大な変更</text>
  <text x="500" y="948" fill="#4a148c" font-size="12">● その他これらに類するやむを得ない事情</text>
  <text x="500" y="978" fill="#4a148c" font-size="12" font-weight="bold">Q5: 病気入院による職務不能</text>
  <text x="500" y="998" fill="#4a148c" font-size="11">→ 職務の一部・全部の執行不能は臨時改定</text>
  <text x="508" y="1016" fill="#4a148c" font-size="11">  事由に該当。退院後の復額改定も同様。</text>
  <text x="500" y="1040" fill="#4a148c" font-size="11" font-style="italic">※ 予測し難い偶発的事情で恣意性がないもの</text>

  <!-- Branch ハ: 業績悪化改定 (RIGHT) -->
  <line x1="920" y1="660" x2="1050" y2="660" stroke="#c62828" stroke-width="2.5" marker-end="url(#arrowBlack)"/>
  <rect x="1050" y="620" width="290" height="80" rx="10" fill="#c62828" filter="url(#shadow)"/>
  <text x="1195" y="648" text-anchor="middle" fill="white" font-size="13" font-weight="bold">ハ 業績悪化改定事由</text>
  <text x="1195" y="668" text-anchor="middle" fill="#ffcdd2" font-size="11">（法令69①一ハ）（Q1, Q1-2）</text>
  <text x="1195" y="688" text-anchor="middle" fill="#ffcdd2" font-size="10">※ 減額改定に限る / イ・ロを除く</text>

  <rect x="1000" y="720" width="380" height="340" rx="8" fill="url(#redGrad)" stroke="#c62828" stroke-width="1.5" filter="url(#shadow)"/>
  <line x1="1195" y1="700" x2="1195" y2="720" stroke="#c62828" stroke-width="2" marker-end="url(#arrowBlack)"/>
  <text x="1020" y="745" fill="#b71c1c" font-size="13" font-weight="bold">「経営の状況が著しく悪化した</text>
  <text x="1020" y="763" fill="#b71c1c" font-size="13" font-weight="bold">  ことその他これに類する理由」</text>
  <text x="1020" y="788" fill="#b71c1c" font-size="12">＝やむを得ず減額せざるを得ない事情</text>
  <text x="1020" y="808" fill="#b71c1c" font-size="12">  （通達9-2-13）</text>
  <line x1="1020" y1="820" x2="1360" y2="820" stroke="#e57373" stroke-width="1"/>
  <text x="1020" y="842" fill="#b71c1c" font-size="12" font-weight="bold">典型3事例:</text>
  <text x="1020" y="862" fill="#b71c1c" font-size="11">① 株主との関係上、経営責任から減額</text>
  <text x="1020" y="882" fill="#b71c1c" font-size="11">② 取引銀行とのリスケ協議で減額</text>
  <text x="1020" y="902" fill="#b71c1c" font-size="11">③ 信用維持のための経営改善計画に</text>
  <text x="1028" y="918" fill="#b71c1c" font-size="11">   減額が盛り込まれた場合</text>
  <line x1="1020" y1="930" x2="1360" y2="930" stroke="#e57373" stroke-width="1"/>
  <text x="1020" y="952" fill="#b71c1c" font-size="12" font-weight="bold">Q1-2: 数値悪化前でも該当するケース</text>
  <text x="1020" y="972" fill="#b71c1c" font-size="11">→ 客観的状況から著しい悪化が不可避</text>
  <text x="1028" y="988" fill="#b71c1c" font-size="11">  と認められれば該当</text>
  <text x="1020" y="1008" fill="#b71c1c" font-size="11">→ 予防的に回避できた場合も該当</text>
  <text x="1020" y="1032" fill="#b71c1c" font-size="11" font-style="italic">例: 得意先の手形不渡り、主力製品の瑕疵</text>
  <text x="1020" y="1048" fill="#c62828" font-size="11" font-weight="bold">✗ 利益調整のみ目的 → 該当しない</text>

  <!-- None of the above -->
  <rect x="60" y="950" width="380" height="60" rx="10" fill="#ffcdd2" stroke="#c62828" stroke-width="2" filter="url(#shadow)"/>
  <text x="250" y="975" text-anchor="middle" fill="#b71c1c" font-size="14" font-weight="bold">いずれにも該当しない改定</text>
  <text x="250" y="995" text-anchor="middle" fill="#c62828" font-size="12">（Q3の9月増額改定、Q4の11月減額改定）</text>

  <!-- ==================== SECTION 3: 判定結果 ==================== -->
  <rect x="50" y="1090" width="1300" height="50" rx="8" fill="#2e7d32" filter="url(#shadow)"/>
  <text x="700" y="1122" text-anchor="middle" fill="white" font-size="22" font-weight="bold">第３章　改定前後の定期同額給与の判定ルール</text>

  <!-- Main rule box -->
  <rect x="80" y="1160" width="1240" height="130" rx="10" fill="url(#tealGrad)" stroke="#00695c" stroke-width="2" filter="url(#shadow)"/>
  <text x="700" y="1190" text-anchor="middle" fill="#004d40" font-size="16" font-weight="bold">基本ルール（法令69①一）</text>
  <text x="110" y="1218" fill="#004d40" font-size="14">適格な改定（イ・ロ・ハ）がされた場合、以下の２期間それぞれで支給額が同額であれば、各期間の給与が定期同額給与に該当：</text>
  <text x="140" y="1246" fill="#004d40" font-size="13" font-weight="bold">期間①：事業年度開始日 → 改定後最初の支給時期の前日</text>
  <text x="140" y="1270" fill="#004d40" font-size="13" font-weight="bold">期間②：改定前最後の支給時期の翌日 → 事業年度終了日</text>

  <!-- Timeline diagram -->
  <rect x="80" y="1310" width="1240" height="190" rx="10" fill="white" stroke="#90a4ae" stroke-width="1.5" filter="url(#shadow)"/>
  <text x="700" y="1340" text-anchor="middle" fill="#37474f" font-size="15" font-weight="bold">タイムライン例（3月決算法人・毎月20日支給・5/25定時株主総会で改定決議）</text>

  <!-- Timeline base line -->
  <line x1="120" y1="1400" x2="1280" y2="1400" stroke="#37474f" stroke-width="3"/>

  <!-- Month markers -->
  <text x="150" y="1425" text-anchor="middle" fill="#37474f" font-size="11">4/20</text>
  <line x1="150" y1="1390" x2="150" y2="1410" stroke="#37474f" stroke-width="1.5"/>
  <text x="247" y="1425" text-anchor="middle" fill="#37474f" font-size="11">5/20</text>
  <line x1="247" y1="1390" x2="247" y2="1410" stroke="#37474f" stroke-width="1.5"/>
  <text x="344" y="1425" text-anchor="middle" fill="#37474f" font-size="11">6/20</text>
  <line x1="344" y1="1390" x2="344" y2="1410" stroke="#37474f" stroke-width="1.5"/>
  <text x="441" y="1425" text-anchor="middle" fill="#37474f" font-size="11">7/20</text>
  <line x1="441" y1="1390" x2="441" y2="1410" stroke="#37474f" stroke-width="1.5"/>
  <text x="538" y="1425" text-anchor="middle" fill="#37474f" font-size="11">8/20</text>
  <line x1="538" y1="1390" x2="538" y2="1410" stroke="#37474f" stroke-width="1.5"/>
  <text x="635" y="1425" text-anchor="middle" fill="#37474f" font-size="11">9/20</text>
  <line x1="635" y1="1390" x2="635" y2="1410" stroke="#37474f" stroke-width="1.5"/>
  <text x="732" y="1425" text-anchor="middle" fill="#37474f" font-size="11">10/20</text>
  <line x1="732" y1="1390" x2="732" y2="1410" stroke="#37474f" stroke-width="1.5"/>
  <text x="829" y="1425" text-anchor="middle" fill="#37474f" font-size="11">11/20</text>
  <line x1="829" y1="1390" x2="829" y2="1410" stroke="#37474f" stroke-width="1.5"/>
  <text x="926" y="1425" text-anchor="middle" fill="#37474f" font-size="11">12/20</text>
  <line x1="926" y1="1390" x2="926" y2="1410" stroke="#37474f" stroke-width="1.5"/>
  <text x="1023" y="1425" text-anchor="middle" fill="#37474f" font-size="11">1/20</text>
  <line x1="1023" y1="1390" x2="1023" y2="1410" stroke="#37474f" stroke-width="1.5"/>
  <text x="1120" y="1425" text-anchor="middle" fill="#37474f" font-size="11">2/20</text>
  <line x1="1120" y1="1390" x2="1120" y2="1410" stroke="#37474f" stroke-width="1.5"/>
  <text x="1217" y="1425" text-anchor="middle" fill="#37474f" font-size="11">3/20</text>
  <line x1="1217" y1="1390" x2="1217" y2="1410" stroke="#37474f" stroke-width="1.5"/>

  <!-- Period 1 bracket -->
  <rect x="130" y="1355" width="230" height="28" rx="5" fill="#bbdefb" stroke="#1565c0" stroke-width="1.5"/>
  <text x="245" y="1375" text-anchor="middle" fill="#0d47a1" font-size="12" font-weight="bold">期間① 同額（旧額）</text>

  <!-- Period 2 bracket -->
  <rect x="330" y="1355" width="920" height="28" rx="5" fill="#c8e6c9" stroke="#2e7d32" stroke-width="1.5"/>
  <text x="790" y="1375" text-anchor="middle" fill="#1b5e20" font-size="12" font-weight="bold">期間② 同額（新額）</text>

  <!-- Reform arrow -->
  <line x1="290" y1="1340" x2="290" y2="1390" stroke="#c62828" stroke-width="2.5" stroke-dasharray="5,3"/>
  <text x="290" y="1335" text-anchor="middle" fill="#c62828" font-size="12" font-weight="bold">5/25 改定</text>

  <!-- Event markers -->
  <text x="120" y="1475" fill="#37474f" font-size="11">4/1 期首</text>
  <text x="1200" y="1475" fill="#37474f" font-size="11">3/31 期末</text>

  <!-- ==================== SECTION 4: 非適格改定の処理 ==================== -->
  <rect x="50" y="1510" width="1300" height="50" rx="8" fill="#bf360c" filter="url(#shadow)"/>
  <text x="700" y="1542" text-anchor="middle" fill="white" font-size="22" font-weight="bold">第４章　適格改定に該当しない改定がある場合の損金不算入額の算定</text>

  <!-- Q3 Case: 増額 -->
  <rect x="60" y="1580" width="620" height="380" rx="10" fill="url(#orangeGrad)" stroke="#e65100" stroke-width="2" filter="url(#shadow)"/>
  <rect x="60" y="1580" width="620" height="40" rx="10" fill="#e65100"/>
  <rect x="60" y="1610" width="620" height="10" fill="#e65100"/>
  <text x="370" y="1607" text-anchor="middle" fill="white" font-size="16" font-weight="bold">ケースA: 非適格な増額改定（Q3）</text>

  <text x="80" y="1645" fill="#bf360c" font-size="13" font-weight="bold">事例: 5/25通常改定(40→60万)後、9/1に非適格増額(60→70万)</text>
  <text x="80" y="1672" fill="#4e342e" font-size="13">考え方：増額改定後の期間において、改定前の</text>
  <text x="80" y="1692" fill="#4e342e" font-size="13">支給額に増額分を「上乗せ」したものとみる。</text>

  <rect x="80" y="1710" width="580" height="70" rx="6" fill="white" stroke="#e65100" stroke-width="1"/>
  <text x="370" y="1735" text-anchor="middle" fill="#bf360c" font-size="14" font-weight="bold">定期同額給与 = 増額改定前の60万円部分</text>
  <text x="370" y="1758" text-anchor="middle" fill="#c62828" font-size="14" font-weight="bold">損金不算入 = 10万円 × 7ヶ月(9月～3月) = 70万円</text>

  <!-- Mini bar chart for Q3 -->
  <text x="80" y="1800" fill="#4e342e" font-size="12" font-weight="bold">月別支給額イメージ:</text>
  <!-- 40万 bars (Apr, May) -->
  <rect x="100" y="1860" width="30" height="40" fill="#90caf9" stroke="#1565c0" stroke-width="1"/>
  <rect x="135" y="1860" width="30" height="40" fill="#90caf9" stroke="#1565c0" stroke-width="1"/>
  <text x="115" y="1915" text-anchor="middle" fill="#37474f" font-size="9">4月</text>
  <text x="150" y="1915" text-anchor="middle" fill="#37474f" font-size="9">5月</text>
  <!-- 60万 bars (Jun-Aug) -->
  <rect x="170" y="1840" width="30" height="60" fill="#a5d6a7" stroke="#2e7d32" stroke-width="1"/>
  <rect x="205" y="1840" width="30" height="60" fill="#a5d6a7" stroke="#2e7d32" stroke-width="1"/>
  <rect x="240" y="1840" width="30" height="60" fill="#a5d6a7" stroke="#2e7d32" stroke-width="1"/>
  <text x="185" y="1915" text-anchor="middle" fill="#37474f" font-size="9">6月</text>
  <text x="220" y="1915" text-anchor="middle" fill="#37474f" font-size="9">7月</text>
  <text x="255" y="1915" text-anchor="middle" fill="#37474f" font-size="9">8月</text>
  <!-- 70万 bars (Sep-Mar) with split -->
  <rect x="275" y="1830" width="30" height="60" fill="#a5d6a7" stroke="#2e7d32" stroke-width="1"/>
  <rect x="275" y="1830" width="30" height="10" fill="#ef9a9a" stroke="#c62828" stroke-width="1"/>
  <rect x="310" y="1830" width="30" height="60" fill="#a5d6a7" stroke="#2e7d32" stroke-width="1"/>
  <rect x="310" y="1830" width="30" height="10" fill="#ef9a9a" stroke="#c62828" stroke-width="1"/>
  <rect x="345" y="1830" width="30" height="60" fill="#a5d6a7" stroke="#2e7d32" stroke-width="1"/>
  <rect x="345" y="1830" width="30" height="10" fill="#ef9a9a" stroke="#c62828" stroke-width="1"/>
  <rect x="380" y="1830" width="30" height="60" fill="#a5d6a7" stroke="#2e7d32" stroke-width="1"/>
  <rect x="380" y="1830" width="30" height="10" fill="#ef9a9a" stroke="#c62828" stroke-width="1"/>
  <rect x="415" y="1830" width="30" height="60" fill="#a5d6a7" stroke="#2e7d32" stroke-width="1"/>
  <rect x="415" y="1830" width="30" height="10" fill="#ef9a9a" stroke="#c62828" stroke-width="1"/>
  <rect x="450" y="1830" width="30" height="60" fill="#a5d6a7" stroke="#2e7d32" stroke-width="1"/>
  <rect x="450" y="1830" width="30" height="10" fill="#ef9a9a" stroke="#c62828" stroke-width="1"/>
  <rect x="485" y="1830" width="30" height="60" fill="#a5d6a7" stroke="#2e7d32" stroke-width="1"/>
  <rect x="485" y="1830" width="30" height="10" fill="#ef9a9a" stroke="#c62828" stroke-width="1"/>
  <text x="290" y="1915" text-anchor="middle" fill="#37474f" font-size="9">9月</text>
  <text x="325" y="1915" text-anchor="middle" fill="#37474f" font-size="9">10</text>
  <text x="360" y="1915" text-anchor="middle" fill="#37474f" font-size="9">11</text>
  <text x="395" y="1915" text-anchor="middle" fill="#37474f" font-size="9">12</text>
  <text x="430" y="1915" text-anchor="middle" fill="#37474f" font-size="9">1月</text>
  <text x="465" y="1915" text-anchor="middle" fill="#37474f" font-size="9">2月</text>
  <text x="500" y="1915" text-anchor="middle" fill="#37474f" font-size="9">3月</text>

  <!-- Legend -->
  <rect x="540" y="1830" width="12" height="12" fill="#a5d6a7" stroke="#2e7d32" stroke-width="1"/>
  <text x="558" y="1841" fill="#37474f" font-size="11">損金算入</text>
  <rect x="540" y="1850" width="12" height="12" fill="#ef9a9a" stroke="#c62828" stroke-width="1"/>
  <text x="558" y="1861" fill="#37474f" font-size="11">損金不算入</text>
  <rect x="540" y="1870" width="12" height="12" fill="#90caf9" stroke="#1565c0" stroke-width="1"/>
  <text x="558" y="1881" fill="#37474f" font-size="11">改定前同額</text>

  <!-- Q4 Case: 減額 -->
  <rect x="710" y="1580" width="620" height="380" rx="10" fill="url(#redGrad)" stroke="#c62828" stroke-width="2" filter="url(#shadow)"/>
  <rect x="710" y="1580" width="620" height="40" rx="10" fill="#c62828"/>
  <rect x="710" y="1610" width="620" height="10" fill="#c62828"/>
  <text x="1020" y="1607" text-anchor="middle" fill="white" font-size="16" font-weight="bold">ケースB: 非適格な減額改定（Q4）</text>

  <text x="730" y="1645" fill="#b71c1c" font-size="13" font-weight="bold">事例: 据置き(50万継続)後、11/25に非適格減額(50→40万)</text>
  <text x="730" y="1672" fill="#4e342e" font-size="13">考え方：減額改定後の額(40万)を継続して支給し、</text>
  <text x="730" y="1692" fill="#4e342e" font-size="13">減額前は上乗せ分があったとみる。</text>

  <rect x="730" y="1710" width="580" height="70" rx="6" fill="white" stroke="#c62828" stroke-width="1"/>
  <text x="1020" y="1735" text-anchor="middle" fill="#b71c1c" font-size="14" font-weight="bold">定期同額給与 = 減額改定後の40万円部分</text>
  <text x="1020" y="1758" text-anchor="middle" fill="#c62828" font-size="14" font-weight="bold">損金不算入 = 10万円 × 6ヶ月(6月～11月) = 60万円</text>

  <!-- Mini bar chart for Q4 -->
  <text x="730" y="1800" fill="#4e342e" font-size="12" font-weight="bold">月別支給額イメージ:</text>
  <!-- 50万 bars with split (Apr, May as pre-period → fully allowed) -->
  <rect x="750" y="1850" width="30" height="50" fill="#90caf9" stroke="#1565c0" stroke-width="1"/>
  <rect x="785" y="1850" width="30" height="50" fill="#90caf9" stroke="#1565c0" stroke-width="1"/>
  <text x="765" y="1915" text-anchor="middle" fill="#37474f" font-size="9">4月</text>
  <text x="800" y="1915" text-anchor="middle" fill="#37474f" font-size="9">5月</text>
  <!-- 50万 bars (Jun-Nov) with split: 40 green + 10 red -->
  <rect x="820" y="1860" width="30" height="40" fill="#a5d6a7" stroke="#2e7d32" stroke-width="1"/>
  <rect x="820" y="1850" width="30" height="10" fill="#ef9a9a" stroke="#c62828" stroke-width="1"/>
  <rect x="855" y="1860" width="30" height="40" fill="#a5d6a7" stroke="#2e7d32" stroke-width="1"/>
  <rect x="855" y="1850" width="30" height="10" fill="#ef9a9a" stroke="#c62828" stroke-width="1"/>
  <rect x="890" y="1860" width="30" height="40" fill="#a5d6a7" stroke="#2e7d32" stroke-width="1"/>
  <rect x="890" y="1850" width="30" height="10" fill="#ef9a9a" stroke="#c62828" stroke-width="1"/>
  <rect x="925" y="1860" width="30" height="40" fill="#a5d6a7" stroke="#2e7d32" stroke-width="1"/>
  <rect x="925" y="1850" width="30" height="10" fill="#ef9a9a" stroke="#c62828" stroke-width="1"/>
  <rect x="960" y="1860" width="30" height="40" fill="#a5d6a7" stroke="#2e7d32" stroke-width="1"/>
  <rect x="960" y="1850" width="30" height="10" fill="#ef9a9a" stroke="#c62828" stroke-width="1"/>
  <rect x="995" y="1860" width="30" height="40" fill="#a5d6a7" stroke="#2e7d32" stroke-width="1"/>
  <rect x="995" y="1850" width="30" height="10" fill="#ef9a9a" stroke="#c62828" stroke-width="1"/>
  <text x="835" y="1915" text-anchor="middle" fill="#37474f" font-size="9">6月</text>
  <text x="870" y="1915" text-anchor="middle" fill="#37474f" font-size="9">7月</text>
  <text x="905" y="1915" text-anchor="middle" fill="#37474f" font-size="9">8月</text>
  <text x="940" y="1915" text-anchor="middle" fill="#37474f" font-size="9">9月</text>
  <text x="975" y="1915" text-anchor="middle" fill="#37474f" font-size="9">10</text>
  <text x="1010" y="1915" text-anchor="middle" fill="#37474f" font-size="9">11</text>
  <!-- 40万 bars (Dec-Mar) -->
  <rect x="1030" y="1860" width="30" height="40" fill="#a5d6a7" stroke="#2e7d32" stroke-width="1"/>
  <rect x="1065" y="1860" width="30" height="40" fill="#a5d6a7" stroke="#2e7d32" stroke-width="1"/>
  <rect x="1100" y="1860" width="30" height="40" fill="#a5d6a7" stroke="#2e7d32" stroke-width="1"/>
  <rect x="1135" y="1860" width="30" height="40" fill="#a5d6a7" stroke="#2e7d32" stroke-width="1"/>
  <text x="1045" y="1915" text-anchor="middle" fill="#37474f" font-size="9">12</text>
  <text x="1080" y="1915" text-anchor="middle" fill="#37474f" font-size="9">1月</text>
  <text x="1115" y="1915" text-anchor="middle" fill="#37474f" font-size="9">2月</text>
  <text x="1150" y="1915" text-anchor="middle" fill="#37474f" font-size="9">3月</text>

  <!-- Legend Q4 -->
  <rect x="1190" y="1840" width="12" height="12" fill="#a5d6a7" stroke="#2e7d32" stroke-width="1"/>
  <text x="1208" y="1851" fill="#37474f" font-size="11">損金算入</text>
  <rect x="1190" y="1860" width="12" height="12" fill="#ef9a9a" stroke="#c62828" stroke-width="1"/>
  <text x="1208" y="1871" fill="#37474f" font-size="11">損金不算入</text>
  <rect x="1190" y="1880" width="12" height="12" fill="#90caf9" stroke="#1565c0" stroke-width="1"/>
  <text x="1208" y="1891" fill="#37474f" font-size="11">改定前同額</text>

  <!-- ==================== SECTION 5: 業績悪化改定事由の判定フロー ==================== -->
  <rect x="50" y="1985" width="1300" height="50" rx="8" fill="#c62828" filter="url(#shadow)"/>
  <text x="700" y="2017" text-anchor="middle" fill="white" font-size="22" font-weight="bold">第５章　業績悪化改定事由の該当性判定フロー（詳細）</text>

  <!-- Start -->
  <rect x="500" y="2060" width="400" height="45" rx="22" fill="#c62828" filter="url(#shadow)"/>
  <text x="700" y="2088" text-anchor="middle" fill="white" font-size="15" font-weight="bold">年度中途で役員給与を減額したい</text>

  <line x1="700" y1="2105" x2="700" y2="2135" stroke="#37474f" stroke-width="2" marker-end="url(#arrowBlack)"/>

  <!-- Q: 客観的事情 -->
  <polygon points="700,2140 930,2200 700,2260 470,2200" fill="#fff9c4" stroke="#f57f17" stroke-width="2" filter="url(#shadow)"/>
  <text x="700" y="2195" text-anchor="middle" fill="#e65100" font-size="13" font-weight="bold">第三者（利害関係者）との</text>
  <text x="700" y="2213" text-anchor="middle" fill="#e65100" font-size="13" font-weight="bold">関係上、減額せざるを得ない？</text>

  <!-- YES -->
  <line x1="700" y1="2260" x2="700" y2="2300" stroke="#2e7d32" stroke-width="2.5" marker-end="url(#arrowGreen)"/>
  <text x="715" y="2285" fill="#2e7d32" font-size="14" font-weight="bold">YES</text>

  <!-- NO -->
  <line x1="930" y1="2200" x2="1080" y2="2200" stroke="#c62828" stroke-width="2.5" marker-end="url(#arrowRed)"/>
  <text x="995" y="2190" fill="#c62828" font-size="14" font-weight="bold">NO</text>
  <rect x="1080" y="2170" width="260" height="60" rx="8" fill="#ffcdd2" stroke="#c62828" stroke-width="2" filter="url(#shadow)"/>
  <text x="1210" y="2195" text-anchor="middle" fill="#b71c1c" font-size="13" font-weight="bold">業績悪化改定事由に</text>
  <text x="1210" y="2213" text-anchor="middle" fill="#b71c1c" font-size="13" font-weight="bold">該当しない ✗</text>

  <!-- Sub-question: already deteriorated? -->
  <polygon points="700,2305 920,2365 700,2425 480,2365" fill="#fff9c4" stroke="#f57f17" stroke-width="2" filter="url(#shadow)"/>
  <text x="700" y="2355" text-anchor="middle" fill="#e65100" font-size="12" font-weight="bold">数値的指標が既に</text>
  <text x="700" y="2375" text-anchor="middle" fill="#e65100" font-size="12" font-weight="bold">悪化しているか？</text>

  <!-- YES - already deteriorated -->
  <line x1="480" y1="2365" x2="300" y2="2365" stroke="#2e7d32" stroke-width="2" marker-end="url(#arrowGreen)"/>
  <text x="400" y="2355" fill="#2e7d32" font-size="13" font-weight="bold">YES</text>
  <rect x="80" y="2335" width="220" height="60" rx="8" fill="#a5d6a7" stroke="#2e7d32" stroke-width="2" filter="url(#shadow)"/>
  <text x="190" y="2358" text-anchor="middle" fill="#1b5e20" font-size="13" font-weight="bold">業績悪化改定事由</text>
  <text x="190" y="2378" text-anchor="middle" fill="#1b5e20" font-size="13" font-weight="bold">に該当 ✓（Q1）</text>

  <!-- NO - not yet deteriorated -->
  <line x1="700" y1="2425" x2="700" y2="2465" stroke="#37474f" stroke-width="2" marker-end="url(#arrowBlack)"/>
  <text x="715" y="2445" fill="#37474f" font-size="13">まだ悪化していない</text>

  <!-- Sub-sub question -->
  <polygon points="700,2470 940,2530 700,2590 460,2530" fill="#fff9c4" stroke="#f57f17" stroke-width="2" filter="url(#shadow)"/>
  <text x="700" y="2520" text-anchor="middle" fill="#e65100" font-size="12" font-weight="bold">客観的状況から著しい</text>
  <text x="700" y="2540" text-anchor="middle" fill="#e65100" font-size="12" font-weight="bold">悪化が「不可避」と認められるか？</text>

  <!-- YES - inevitable -->
  <line x1="460" y1="2530" x2="300" y2="2530" stroke="#2e7d32" stroke-width="2" marker-end="url(#arrowGreen)"/>
  <text x="390" y="2520" fill="#2e7d32" font-size="13" font-weight="bold">YES</text>
  <rect x="80" y="2500" width="220" height="60" rx="8" fill="#a5d6a7" stroke="#2e7d32" stroke-width="2" filter="url(#shadow)"/>
  <text x="190" y="2523" text-anchor="middle" fill="#1b5e20" font-size="13" font-weight="bold">業績悪化改定事由</text>
  <text x="190" y="2543" text-anchor="middle" fill="#1b5e20" font-size="13" font-weight="bold">に該当 ✓（Q1-2）</text>

  <!-- NO - just speculation -->
  <line x1="940" y1="2530" x2="1080" y2="2530" stroke="#c62828" stroke-width="2" marker-end="url(#arrowRed)"/>
  <text x="1000" y="2520" fill="#c62828" font-size="13" font-weight="bold">NO</text>
  <rect x="1080" y="2500" width="260" height="60" rx="8" fill="#ffcdd2" stroke="#c62828" stroke-width="2" filter="url(#shadow)"/>
  <text x="1210" y="2520" text-anchor="middle" fill="#b71c1c" font-size="12" font-weight="bold">単なる将来見込み →</text>
  <text x="1210" y="2540" text-anchor="middle" fill="#b71c1c" font-size="12" font-weight="bold">該当しない ✗</text>

  <!-- Additional note -->
  <rect x="80" y="2580" width="220" height="50" rx="6" fill="#e8f5e9" stroke="#66bb6a" stroke-width="1"/>
  <text x="190" y="2600" text-anchor="middle" fill="#2e7d32" font-size="11">予防的に回避できた</text>
  <text x="190" y="2618" text-anchor="middle" fill="#2e7d32" font-size="11">場合も該当する</text>

  <!-- ==================== SECTION 6: 同族会社の留意事項 ==================== -->
  <rect x="50" y="2650" width="1300" height="130" rx="10" fill="url(#orangeGrad)" stroke="#e65100" stroke-width="2" filter="url(#shadow)"/>
  <rect x="50" y="2650" width="1300" height="35" rx="10" fill="#e65100"/>
  <rect x="50" y="2675" width="1300" height="10" fill="#e65100"/>
  <text x="700" y="2675" text-anchor="middle" fill="white" font-size="17" font-weight="bold">重要留意事項</text>

  <text x="80" y="2710" fill="#bf360c" font-size="14" font-weight="bold">【同族会社の場合】</text>
  <text x="80" y="2732" fill="#4e342e" font-size="13">株主が少数の者で占められ、かつ役員の一部が株主 or 株主と親族関係にある場合は、</text>
  <text x="80" y="2752" fill="#4e342e" font-size="13">役員給与の額を減額せざるを得ない客観的かつ特別の事情を具体的に説明できるようにしておく必要がある。</text>

  <text x="730" y="2710" fill="#bf360c" font-size="14" font-weight="bold">【利益調整目的の排除】</text>
  <text x="730" y="2732" fill="#4e342e" font-size="13">業績悪化の事実があっても、利益調整のみを</text>
  <text x="730" y="2752" fill="#4e342e" font-size="13">目的とする減額は業績悪化改定事由に該当しない。</text>

  <!-- Footer -->
  <text x="700" y="2792" text-anchor="middle" fill="#78909c" font-size="11">出典: 国税庁「役員給与に関するQ&amp;A」（平成20年12月策定・平成24年4月改訂）｜ 法人税法第34条 ／ 法人税法施行令第69条 ／ 法人税基本通達9-2-13</text>
</svg>