<svg xmlns="http://www.w3.org/2000/svg" viewBox="0 0 1800 3700" font-family="'Helvetica Neue', Arial, 'Hiragino Kaku Gothic ProN', 'Hiragino Sans', Meiryo, sans-serif">
  <defs>
    <marker id="arrow" markerWidth="10" markerHeight="7" refX="10" refY="3.5" orient="auto">
      <polygon points="0 0, 10 3.5, 0 7" fill="#475569"/>
    </marker>
    <marker id="arrowRed" markerWidth="10" markerHeight="7" refX="10" refY="3.5" orient="auto">
      <polygon points="0 0, 10 3.5, 0 7" fill="#dc2626"/>
    </marker>
    <marker id="arrowGreen" markerWidth="10" markerHeight="7" refX="10" refY="3.5" orient="auto">
      <polygon points="0 0, 10 3.5, 0 7" fill="#16a34a"/>
    </marker>
    <linearGradient id="headerGrad" x1="0%" y1="0%" x2="100%" y2="100%">
      <stop offset="0%" style="stop-color:#1e3a5f;stop-opacity:1"/>
      <stop offset="100%" style="stop-color:#2d5a8e;stop-opacity:1"/>
    </linearGradient>
    <linearGradient id="subHeaderGrad" x1="0%" y1="0%" x2="100%" y2="0%">
      <stop offset="0%" style="stop-color:#f0f4ff;stop-opacity:1"/>
      <stop offset="100%" style="stop-color:#e0e8ff;stop-opacity:1"/>
    </linearGradient>
    <filter id="shadow" x="-2%" y="-2%" width="104%" height="104%">
      <feDropShadow dx="2" dy="3" stdDeviation="3" flood-opacity="0.12"/>
    </filter>
    <filter id="shadowLight" x="-1%" y="-1%" width="102%" height="102%">
      <feDropShadow dx="1" dy="2" stdDeviation="2" flood-opacity="0.08"/>
    </filter>
  </defs>

  <!-- Background -->
  <rect width="1800" height="3700" fill="#f8fafc" rx="12"/>

  <!-- ===== TITLE HEADER ===== -->
  <rect x="30" y="20" width="1740" height="90" rx="10" fill="url(#headerGrad)" filter="url(#shadow)"/>
  <text x="900" y="58" text-anchor="middle" fill="#ffffff" font-size="28" font-weight="bold">役員給与の税務上の取扱い ─ 全体構造図</text>
  <text x="900" y="85" text-anchor="middle" fill="#bbd0ee" font-size="14">法人税法第34条 ／ 法人税法施行令第69条 ／ 国税庁「役員給与に関するQ&amp;A」（平成24年4月改訂）準拠</text>

  <!-- ===== SECTION 0: 大前提 ===== -->
  <rect x="50" y="130" width="1700" height="170" rx="8" fill="#fffbeb" stroke="#f59e0b" stroke-width="2" filter="url(#shadowLight)"/>
  <rect x="50" y="130" width="1700" height="36" rx="8" fill="#f59e0b"/>
  <rect x="50" y="155" width="1700" height="11" fill="#f59e0b"/>
  <text x="900" y="155" text-anchor="middle" fill="#ffffff" font-size="16" font-weight="bold">【大前提】法人が役員に対して支給する給与の損金算入ルール（法法34条）</text>

  <text x="80" y="195" fill="#92400e" font-size="15" font-weight="bold">原則：</text>
  <text x="135" y="195" fill="#78350f" font-size="15">役員給与は損金不算入。ただし、以下の3類型のいずれかに該当すれば損金算入が認められる。</text>

  <text x="80" y="225" fill="#92400e" font-size="14" font-weight="bold">適用除外（法法34①かっこ書）：</text>
  <text x="310" y="225" fill="#78350f" font-size="14">① 退職給与（業績連動給与に該当しないもの） ② 使用人兼務役員の使用人分給与 ③ 仮装経理による支給分（全額損金不算入）</text>

  <text x="80" y="255" fill="#dc2626" font-size="14" font-weight="bold">共通制限：</text>
  <text x="195" y="255" fill="#dc2626" font-size="14">3類型に該当しても「不相当に高額な部分の金額」は損金不算入（法法34②）。仮装経理分は全額損金不算入（法法34③）。</text>

  <text x="80" y="282" fill="#92400e" font-size="13">※「給与」には金銭のほか、債務免除益、経済的利益（社宅・低利貸付等）を含む。</text>

  <!-- ===== 3分類フロー開始 ===== -->
  <rect x="550" y="320" width="700" height="50" rx="25" fill="#1e3a5f" filter="url(#shadow)"/>
  <text x="900" y="352" text-anchor="middle" fill="#ffffff" font-size="18" font-weight="bold">▼ 損金算入が認められる3類型 判定フロー ▼</text>

  <!-- Arrow down from header -->
  <line x1="900" y1="370" x2="900" y2="400" stroke="#475569" stroke-width="2" marker-end="url(#arrow)"/>

  <!-- ===== Diamond: 支給形態の確認 ===== -->
  <polygon points="900,400 1080,460 900,520 720,460" fill="#e0e8ff" stroke="#3b82f6" stroke-width="2"/>
  <text x="900" y="455" text-anchor="middle" fill="#1e3a5f" font-size="14" font-weight="bold">役員給与の</text>
  <text x="900" y="473" text-anchor="middle" fill="#1e3a5f" font-size="14" font-weight="bold">支給形態は？</text>

  <!-- Three branches -->
  <!-- Left: 定期同額 -->
  <line x1="720" y1="460" x2="320" y2="460" stroke="#475569" stroke-width="2"/>
  <line x1="320" y1="460" x2="320" y2="540" stroke="#475569" stroke-width="2" marker-end="url(#arrow)"/>
  <text x="510" y="450" text-anchor="middle" fill="#475569" font-size="13">毎月定額支給</text>

  <!-- Center: 事前確定届出 -->
  <line x1="900" y1="520" x2="900" y2="540" stroke="#475569" stroke-width="2" marker-end="url(#arrow)"/>
  <text x="990" y="535" fill="#475569" font-size="13">所定時期に確定額</text>

  <!-- Right: 業績連動 -->
  <line x1="1080" y1="460" x2="1480" y2="460" stroke="#475569" stroke-width="2"/>
  <line x1="1480" y1="460" x2="1480" y2="540" stroke="#475569" stroke-width="2" marker-end="url(#arrow)"/>
  <text x="1290" y="450" text-anchor="middle" fill="#475569" font-size="13">業績指標連動</text>

  <!-- ============================================================ -->
  <!-- ===== TYPE 1: 定期同額給与 (Left Column) ===== -->
  <!-- ============================================================ -->
  <rect x="50" y="540" width="540" height="55" rx="8" fill="#1d4ed8" filter="url(#shadow)"/>
  <text x="320" y="565" text-anchor="middle" fill="#ffffff" font-size="19" font-weight="bold">① 定期同額給与</text>
  <text x="320" y="585" text-anchor="middle" fill="#bfdbfe" font-size="12">法法34①一 ／ 法令69①</text>

  <!-- Definition box -->
  <rect x="50" y="605" width="540" height="80" rx="6" fill="#eff6ff" stroke="#93c5fd" stroke-width="1.5"/>
  <text x="70" y="628" fill="#1e40af" font-size="13" font-weight="bold">定義</text>
  <text x="70" y="648" fill="#1e3a5f" font-size="12">支給時期が1月以下の一定期間ごとの給与で、</text>
  <text x="70" y="665" fill="#1e3a5f" font-size="12">各支給時期における支給額（又は手取額）が同額であるもの。</text>
  <text x="70" y="680" fill="#6b7280" font-size="11">※届出不要。継続的経済的利益（社宅等）で毎月おおむね一定のものも含む（法令69①二）</text>

  <!-- 改定事由 sub-section -->
  <rect x="50" y="695" width="540" height="36" rx="6" fill="#3b82f6"/>
  <text x="320" y="719" text-anchor="middle" fill="#ffffff" font-size="14" font-weight="bold">年度中途の改定が認められる3つの事由（法令69①一）</text>

  <!-- 改定事由 イ -->
  <rect x="50" y="741" width="540" height="85" rx="6" fill="#ffffff" stroke="#60a5fa" stroke-width="1.5" filter="url(#shadowLight)"/>
  <rect x="50" y="741" width="540" height="26" rx="6" fill="#dbeafe"/>
  <rect x="50" y="760" width="540" height="7" fill="#dbeafe"/>
  <text x="70" y="760" fill="#1e40af" font-size="13" font-weight="bold">イ）通常改定（期首3月以内改定）── 法令69①一イ</text>
  <text x="70" y="785" fill="#334155" font-size="12">・ 会計期間開始の日から3月経過日までにされた定期給与の額の改定</text>
  <text x="70" y="802" fill="#334155" font-size="12">・ 継続して毎年所定の時期にされる改定が3月経過日後になる特別事情がある場合は</text>
  <text x="78" y="818" fill="#334155" font-size="12">  当該改定時期まで認容（Q2：株主総会翌月分から増額するケース等）</text>

  <!-- 改定事由 ロ -->
  <rect x="50" y="836" width="540" height="85" rx="6" fill="#ffffff" stroke="#60a5fa" stroke-width="1.5" filter="url(#shadowLight)"/>
  <rect x="50" y="836" width="540" height="26" rx="6" fill="#dbeafe"/>
  <rect x="50" y="855" width="540" height="7" fill="#dbeafe"/>
  <text x="70" y="855" fill="#1e40af" font-size="13" font-weight="bold">ロ）臨時改定事由 ── 法令69①一ロ</text>
  <text x="70" y="878" fill="#334155" font-size="12">・ 職制上の地位の変更（昇格・降格等）</text>
  <text x="70" y="895" fill="#334155" font-size="12">・ 職務内容の重大な変更</text>
  <text x="70" y="912" fill="#334155" font-size="12">・ その他これらに類するやむを得ない事情（Q3：複数回改定の事例）</text>

  <!-- 改定事由 ハ -->
  <rect x="50" y="931" width="540" height="120" rx="6" fill="#ffffff" stroke="#f97316" stroke-width="2" filter="url(#shadowLight)"/>
  <rect x="50" y="931" width="540" height="26" rx="6" fill="#fff7ed"/>
  <rect x="50" y="950" width="540" height="7" fill="#fff7ed"/>
  <text x="70" y="950" fill="#c2410c" font-size="13" font-weight="bold">ハ）業績悪化改定事由 ── 法令69①一ハ（減額改定のみ）</text>
  <text x="70" y="975" fill="#334155" font-size="12">・ 経営状況の著しい悪化その他これに類する理由（基通9-2-13）</text>
  <text x="70" y="992" fill="#334155" font-size="12">・ 第三者（株主・債権者・取引先）との関係上やむを得ない事情が必要</text>
  <text x="70" y="1009" fill="#334155" font-size="12">  （Q1：経営責任からの減額 ／ Q1-2：将来悪化が不可避な場合も該当）</text>
  <text x="70" y="1030" fill="#dc2626" font-size="11" font-weight="bold">✕ 非該当：一時的資金繰り、単なる業績目標未達、利益調整目的の減額</text>
  <text x="70" y="1045" fill="#16a34a" font-size="11" font-weight="bold">○ 該当例：リスケ協議、経営改善計画への減額盛込み、主力得意先の不渡り等</text>

  <!-- 定期同額給与の判定フロー図 -->
  <rect x="50" y="1065" width="540" height="36" rx="6" fill="#3b82f6"/>
  <text x="320" y="1089" text-anchor="middle" fill="#ffffff" font-size="14" font-weight="bold">定期同額給与の判定イメージ（事業年度タイムライン）</text>

  <rect x="50" y="1110" width="540" height="130" rx="6" fill="#f8fafc" stroke="#93c5fd" stroke-width="1"/>
  <!-- Timeline -->
  <line x1="80" y1="1155" x2="560" y2="1155" stroke="#94a3b8" stroke-width="2"/>
  <circle cx="80" cy="1155" r="5" fill="#1d4ed8"/>
  <circle cx="240" cy="1155" r="5" fill="#f59e0b"/>
  <circle cx="560" cy="1155" r="5" fill="#1d4ed8"/>
  <text x="80" y="1145" text-anchor="middle" fill="#475569" font-size="10">期首 4/1</text>
  <text x="240" y="1145" text-anchor="middle" fill="#b45309" font-size="10">改定（例:6月総会）</text>
  <text x="560" y="1145" text-anchor="middle" fill="#475569" font-size="10">期末 3/31</text>

  <rect x="85" y="1165" width="150" height="24" rx="4" fill="#bfdbfe" stroke="#3b82f6" stroke-width="1"/>
  <text x="160" y="1181" text-anchor="middle" fill="#1e3a5f" font-size="11">改定前：月額A（同額）</text>

  <rect x="245" y="1165" width="310" height="24" rx="4" fill="#bbf7d0" stroke="#16a34a" stroke-width="1"/>
  <text x="400" y="1181" text-anchor="middle" fill="#14532d" font-size="11">改定後：月額B（同額）</text>

  <text x="160" y="1210" text-anchor="middle" fill="#16a34a" font-size="12" font-weight="bold">✓ 定期同額給与</text>
  <text x="400" y="1210" text-anchor="middle" fill="#16a34a" font-size="12" font-weight="bold">✓ 定期同額給与</text>
  <text x="320" y="1230" text-anchor="middle" fill="#6b7280" font-size="11">→ A≠Bでも、各区間内で同額ならそれぞれ損金算入OK</text>

  <!-- ============================================================ -->
  <!-- ===== TYPE 2: 事前確定届出給与 (Center Column) ===== -->
  <!-- ============================================================ -->
  <rect x="630" y="540" width="540" height="55" rx="8" fill="#7c3aed" filter="url(#shadow)"/>
  <text x="900" y="565" text-anchor="middle" fill="#ffffff" font-size="19" font-weight="bold">② 事前確定届出給与</text>
  <text x="900" y="585" text-anchor="middle" fill="#ddd6fe" font-size="12">法法34①二 ／ 法令69②③</text>

  <!-- Definition box -->
  <rect x="630" y="605" width="540" height="95" rx="6" fill="#f5f3ff" stroke="#c4b5fd" stroke-width="1.5"/>
  <text x="650" y="628" fill="#5b21b6" font-size="13" font-weight="bold">定義</text>
  <text x="650" y="648" fill="#3b0764" font-size="12">役員の職務につき「所定の時期」に「確定した額の金銭」又は</text>
  <text x="650" y="665" fill="#3b0764" font-size="12">「確定した数の株式・新株予約権」等を交付する旨の定めに基づき</text>
  <text x="650" y="682" fill="#3b0764" font-size="12">支給される給与（定期同額給与・業績連動給与に該当しないもの）。</text>
  <text x="650" y="696" fill="#6b7280" font-size="11">※ 役員賞与、非常勤役員の年俸等がこれに該当しうる。</text>

  <!-- 届出要否 -->
  <rect x="630" y="710" width="540" height="36" rx="6" fill="#7c3aed"/>
  <text x="900" y="734" text-anchor="middle" fill="#ffffff" font-size="14" font-weight="bold">届出の要否と届出期限</text>

  <rect x="630" y="756" width="540" height="190" rx="6" fill="#ffffff" stroke="#a78bfa" stroke-width="1.5" filter="url(#shadowLight)"/>
  <text x="650" y="778" fill="#5b21b6" font-size="13" font-weight="bold">【原則】届出が必要（所轄税務署長宛）</text>
  <text x="650" y="800" fill="#334155" font-size="12">届出期限 ＝ 次の①②のいずれか早い日</text>
  <text x="665" y="820" fill="#334155" font-size="12">① 株主総会等の決議日（※）から1月を経過する日</text>
  <text x="665" y="838" fill="#334155" font-size="12">② 会計期間開始の日から4月を経過する日</text>
  <text x="665" y="856" fill="#6b7280" font-size="11">（※）決議日が職務執行開始日後の場合は開始日から起算</text>
  <text x="665" y="876" fill="#6b7280" font-size="11">新設法人：設立日以後2月を経過する日</text>

  <line x1="650" y1="888" x2="1150" y2="888" stroke="#e5e7eb" stroke-width="1"/>
  <text x="650" y="908" fill="#5b21b6" font-size="13" font-weight="bold">【届出不要の例外】</text>
  <text x="665" y="926" fill="#334155" font-size="12">ⓐ 非同族法人が定期給与を支給しない役員に支給する金銭給与</text>
  <text x="665" y="943" fill="#334155" font-size="12">ⓑ 将来の役務提供に係る特定譲渡制限付株式・特定新株予約権</text>

  <!-- 届出変更 -->
  <rect x="630" y="956" width="540" height="120" rx="6" fill="#ffffff" stroke="#a78bfa" stroke-width="1.5" filter="url(#shadowLight)"/>
  <rect x="630" y="956" width="540" height="26" rx="6" fill="#ede9fe"/>
  <rect x="630" y="975" width="540" height="7" fill="#ede9fe"/>
  <text x="650" y="975" fill="#5b21b6" font-size="13" font-weight="bold">届出内容の変更（法令69③）</text>
  <text x="650" y="1000" fill="#334155" font-size="12">❶ 臨時改定事由 → 事由発生日から1月経過日まで</text>
  <text x="650" y="1020" fill="#334155" font-size="12">❷ 業績悪化改定事由（減額・数量減少のみ）</text>
  <text x="668" y="1038" fill="#334155" font-size="12">→ 変更決議日から1月経過日まで</text>
  <text x="668" y="1056" fill="#6b7280" font-size="11">（変更前届出の支給日がその前にある場合は、その支給日の前日）</text>
  <text x="650" y="1072" fill="#7c3aed" font-size="11" font-weight="bold">★ やむを得ない事情 → 期限後届出も認容（法令69⑥）</text>

  <!-- 損金算入の条件 -->
  <rect x="630" y="1086" width="540" height="100" rx="6" fill="#faf5ff" stroke="#c084fc" stroke-width="1.5"/>
  <text x="650" y="1108" fill="#5b21b6" font-size="13" font-weight="bold">損金算入のポイント</text>
  <text x="650" y="1130" fill="#dc2626" font-size="12" font-weight="bold">⚠ 届出額と実際支給額が1円でも異なると全額損金不算入</text>
  <text x="650" y="1150" fill="#334155" font-size="12">・所定の時期に届出どおりの確定額を支給することが絶対条件</text>
  <text x="650" y="1170" fill="#334155" font-size="12">・株式等の場合：適格株式又は適格新株予約権であることが必要</text>
  <text x="650" y="1183" fill="#6b7280" font-size="11">（市場価格のある株式等に限定）</text>

  <!-- ============================================================ -->
  <!-- ===== TYPE 3: 業績連動給与 (Right Column) ===== -->
  <!-- ============================================================ -->
  <rect x="1210" y="540" width="540" height="55" rx="8" fill="#047857" filter="url(#shadow)"/>
  <text x="1480" y="565" text-anchor="middle" fill="#ffffff" font-size="19" font-weight="bold">③ 業績連動給与</text>
  <text x="1480" y="585" text-anchor="middle" fill="#a7f3d0" font-size="12">法法34①三 ／ 法令69⑧〜</text>

  <!-- Definition box -->
  <rect x="1210" y="605" width="540" height="95" rx="6" fill="#ecfdf5" stroke="#86efac" stroke-width="1.5"/>
  <text x="1230" y="628" fill="#065f46" font-size="13" font-weight="bold">定義</text>
  <text x="1230" y="648" fill="#064e3b" font-size="12">利益の状況を示す指標、株式の市場価格の状況を示す指標</text>
  <text x="1230" y="665" fill="#064e3b" font-size="12">その他の業績を示す指標を基礎として算定される額又は数の</text>
  <text x="1230" y="682" fill="#064e3b" font-size="12">金銭・株式・新株予約権による給与。</text>
  <text x="1230" y="696" fill="#6b7280" font-size="11">※ 旧法の「利益連動給与」を平成29年改正で拡充・改称</text>

  <!-- 対象法人の制限 -->
  <rect x="1210" y="710" width="540" height="36" rx="6" fill="#047857"/>
  <text x="1480" y="734" text-anchor="middle" fill="#ffffff" font-size="14" font-weight="bold">損金算入の要件（すべてを充足すること）</text>

  <!-- 要件1: 対象法人 -->
  <rect x="1210" y="756" width="540" height="70" rx="6" fill="#ffffff" stroke="#6ee7b7" stroke-width="1.5" filter="url(#shadowLight)"/>
  <rect x="1210" y="756" width="540" height="26" rx="6" fill="#d1fae5"/>
  <rect x="1210" y="775" width="540" height="7" fill="#d1fae5"/>
  <text x="1230" y="775" fill="#065f46" font-size="13" font-weight="bold">要件A）対象法人の制限</text>
  <text x="1230" y="800" fill="#334155" font-size="12">・ 非同族会社、又は</text>
  <text x="1230" y="817" fill="#334155" font-size="12">・ 非同族法人による完全支配関係がある同族会社</text>

  <!-- 要件2: 対象役員 -->
  <rect x="1210" y="836" width="540" height="55" rx="6" fill="#ffffff" stroke="#6ee7b7" stroke-width="1.5" filter="url(#shadowLight)"/>
  <rect x="1210" y="836" width="540" height="26" rx="6" fill="#d1fae5"/>
  <rect x="1210" y="855" width="540" height="7" fill="#d1fae5"/>
  <text x="1230" y="855" fill="#065f46" font-size="13" font-weight="bold">要件B）対象役員</text>
  <text x="1230" y="880" fill="#334155" font-size="12">・ 業務執行役員に対する給与であること（全業務執行役員に支給）</text>

  <!-- 要件3: 算定方法 -->
  <rect x="1210" y="901" width="540" height="120" rx="6" fill="#ffffff" stroke="#6ee7b7" stroke-width="1.5" filter="url(#shadowLight)"/>
  <rect x="1210" y="901" width="540" height="26" rx="6" fill="#d1fae5"/>
  <rect x="1210" y="920" width="540" height="7" fill="#d1fae5"/>
  <text x="1230" y="920" fill="#065f46" font-size="13" font-weight="bold">要件C）算定方法の客観性・適正手続・開示</text>
  <text x="1230" y="945" fill="#334155" font-size="12">C-1）客観的な算定方法（確定額/数を限度、他の業務執行役員と同様）</text>
  <text x="1230" y="965" fill="#334155" font-size="12">C-2）期首3月以内に報酬委員会等の適正手続を経て決定</text>
  <text x="1230" y="985" fill="#334155" font-size="12">C-3）適正手続終了後遅滞なく有価証券報告書等で開示</text>
  <text x="1230" y="1008" fill="#6b7280" font-size="11">（指標＝利益・株価・売上高等。職務執行期間開始日以後に終了する事業年度の指標）</text>

  <!-- 要件4: 交付時期 -->
  <rect x="1210" y="1031" width="540" height="70" rx="6" fill="#ffffff" stroke="#6ee7b7" stroke-width="1.5" filter="url(#shadowLight)"/>
  <rect x="1210" y="1031" width="540" height="26" rx="6" fill="#d1fae5"/>
  <rect x="1210" y="1050" width="540" height="7" fill="#d1fae5"/>
  <text x="1230" y="1050" fill="#065f46" font-size="13" font-weight="bold">要件D）交付時期</text>
  <text x="1230" y="1075" fill="#334155" font-size="12">・ 金銭：指標確定日の翌日から1月経過日まで</text>
  <text x="1230" y="1092" fill="#334155" font-size="12">・ 株式/新株予約権：指標確定日の翌日から2月経過日まで</text>

  <!-- 要件5: 損金経理 -->
  <rect x="1210" y="1111" width="540" height="55" rx="6" fill="#ffffff" stroke="#6ee7b7" stroke-width="1.5" filter="url(#shadowLight)"/>
  <rect x="1210" y="1111" width="540" height="26" rx="6" fill="#d1fae5"/>
  <rect x="1210" y="1130" width="540" height="7" fill="#d1fae5"/>
  <text x="1230" y="1130" fill="#065f46" font-size="13" font-weight="bold">要件E）損金経理</text>
  <text x="1230" y="1155" fill="#334155" font-size="12">・ 損金経理をしていること（引当金取崩しによる経理を含む）</text>

  <!-- ============================================================ -->
  <!-- ===== SECTION: Q&A 事例マトリクス ===== -->
  <!-- ============================================================ -->
  <rect x="50" y="1270" width="1700" height="46" rx="8" fill="url(#headerGrad)" filter="url(#shadow)"/>
  <text x="900" y="1300" text-anchor="middle" fill="#ffffff" font-size="18" font-weight="bold">国税庁Q&amp;A 主要事例マトリクス ─ 改定事由の分類と判定</text>

  <!-- Table Header -->
  <rect x="50" y="1326" width="180" height="40" rx="0" fill="#334155"/>
  <text x="140" y="1352" text-anchor="middle" fill="#ffffff" font-size="13" font-weight="bold">Q番号</text>
  <rect x="230" y="1326" width="420" height="40" rx="0" fill="#334155"/>
  <text x="440" y="1352" text-anchor="middle" fill="#ffffff" font-size="13" font-weight="bold">事例概要</text>
  <rect x="650" y="1326" width="200" height="40" rx="0" fill="#334155"/>
  <text x="750" y="1352" text-anchor="middle" fill="#ffffff" font-size="13" font-weight="bold">改定事由の分類</text>
  <rect x="850" y="1326" width="250" height="40" rx="0" fill="#334155"/>
  <text x="975" y="1352" text-anchor="middle" fill="#ffffff" font-size="13" font-weight="bold">該当する給与類型</text>
  <rect x="1100" y="1326" width="650" height="40" rx="0" fill="#334155"/>
  <text x="1425" y="1352" text-anchor="middle" fill="#ffffff" font-size="13" font-weight="bold">税務上のポイント</text>

  <!-- Q1 -->
  <rect x="50" y="1366" width="180" height="55" fill="#f8fafc" stroke="#e2e8f0" stroke-width="1"/>
  <text x="140" y="1398" text-anchor="middle" fill="#1e3a5f" font-size="14" font-weight="bold">Q1</text>
  <rect x="230" y="1366" width="420" height="55" fill="#f8fafc" stroke="#e2e8f0" stroke-width="1"/>
  <text x="245" y="1390" fill="#334155" font-size="12">上半期業績悪化→株主への経営責任から</text>
  <text x="245" y="1408" fill="#334155" font-size="12">年度中途で役員定期給与を減額</text>
  <rect x="650" y="1366" width="200" height="55" fill="#fff7ed" stroke="#e2e8f0" stroke-width="1"/>
  <text x="750" y="1398" text-anchor="middle" fill="#c2410c" font-size="12" font-weight="bold">業績悪化改定事由</text>
  <rect x="850" y="1366" width="250" height="55" fill="#eff6ff" stroke="#e2e8f0" stroke-width="1"/>
  <text x="975" y="1398" text-anchor="middle" fill="#1d4ed8" font-size="12" font-weight="bold">定期同額給与 ✓</text>
  <rect x="1100" y="1366" width="650" height="55" fill="#f8fafc" stroke="#e2e8f0" stroke-width="1"/>
  <text x="1115" y="1390" fill="#334155" font-size="12">第三者（利害関係者）との関係上やむを得ない事情あり→該当。</text>
  <text x="1115" y="1408" fill="#334155" font-size="12">同族会社は客観的・特別の事情を説明できるよう準備要。</text>

  <!-- Q1-2 -->
  <rect x="50" y="1421" width="180" height="55" fill="#ffffff" stroke="#e2e8f0" stroke-width="1"/>
  <text x="140" y="1453" text-anchor="middle" fill="#1e3a5f" font-size="14" font-weight="bold">Q1-2</text>
  <rect x="230" y="1421" width="420" height="55" fill="#ffffff" stroke="#e2e8f0" stroke-width="1"/>
  <text x="245" y="1445" fill="#334155" font-size="12">主要得意先が手形不渡り→売上激減不可避</text>
  <text x="245" y="1463" fill="#334155" font-size="12">→経営改善計画策定し減額（現状数値は未悪化）</text>
  <rect x="650" y="1421" width="200" height="55" fill="#fff7ed" stroke="#e2e8f0" stroke-width="1"/>
  <text x="750" y="1453" text-anchor="middle" fill="#c2410c" font-size="12" font-weight="bold">業績悪化改定事由</text>
  <rect x="850" y="1421" width="250" height="55" fill="#eff6ff" stroke="#e2e8f0" stroke-width="1"/>
  <text x="975" y="1453" text-anchor="middle" fill="#1d4ed8" font-size="12" font-weight="bold">定期同額給与 ✓</text>
  <rect x="1100" y="1421" width="650" height="55" fill="#ffffff" stroke="#e2e8f0" stroke-width="1"/>
  <text x="1115" y="1445" fill="#334155" font-size="12">著しい悪化が客観的に不可避であれば現状未悪化でも該当。</text>
  <text x="1115" y="1463" fill="#334155" font-size="12">予防的回避に成功した場合も事後的に否認されない。</text>

  <!-- Q2 -->
  <rect x="50" y="1476" width="180" height="55" fill="#f8fafc" stroke="#e2e8f0" stroke-width="1"/>
  <text x="140" y="1508" text-anchor="middle" fill="#1e3a5f" font-size="14" font-weight="bold">Q2</text>
  <rect x="230" y="1476" width="420" height="55" fill="#f8fafc" stroke="#e2e8f0" stroke-width="1"/>
  <text x="245" y="1500" fill="#334155" font-size="12">定時株主総会で増額決議→翌月分（7月）</text>
  <text x="245" y="1518" fill="#334155" font-size="12">から増額適用（決議月末は旧額を支給）</text>
  <rect x="650" y="1476" width="200" height="55" fill="#dbeafe" stroke="#e2e8f0" stroke-width="1"/>
  <text x="750" y="1508" text-anchor="middle" fill="#1d4ed8" font-size="12" font-weight="bold">通常改定（イ）</text>
  <rect x="850" y="1476" width="250" height="55" fill="#eff6ff" stroke="#e2e8f0" stroke-width="1"/>
  <text x="975" y="1508" text-anchor="middle" fill="#1d4ed8" font-size="12" font-weight="bold">定期同額給与 ✓</text>
  <rect x="1100" y="1476" width="650" height="55" fill="#f8fafc" stroke="#e2e8f0" stroke-width="1"/>
  <text x="1115" y="1500" fill="#334155" font-size="12">翌職務執行期間の最初の支給を翌月とする定めも一般的。</text>
  <text x="1115" y="1518" fill="#334155" font-size="12">各区間内で同額なら定期同額給与に該当。</text>

  <!-- Q3 -->
  <rect x="50" y="1531" width="180" height="55" fill="#ffffff" stroke="#e2e8f0" stroke-width="1"/>
  <text x="140" y="1563" text-anchor="middle" fill="#1e3a5f" font-size="14" font-weight="bold">Q3</text>
  <rect x="230" y="1531" width="420" height="55" fill="#ffffff" stroke="#e2e8f0" stroke-width="1"/>
  <text x="245" y="1555" fill="#334155" font-size="12">定時総会で増額後、業績好調につき臨時総会で</text>
  <text x="245" y="1573" fill="#334155" font-size="12">更に増額（同一事業年度に2回の増額改定）</text>
  <rect x="650" y="1531" width="200" height="55" fill="#dbeafe" stroke="#e2e8f0" stroke-width="1"/>
  <text x="750" y="1553" text-anchor="middle" fill="#1d4ed8" font-size="12" font-weight="bold">通常改定（イ）</text>
  <text x="750" y="1573" text-anchor="middle" fill="#1d4ed8" font-size="12" font-weight="bold">＋ 臨時改定事由（ロ）</text>
  <rect x="850" y="1531" width="250" height="55" fill="#eff6ff" stroke="#e2e8f0" stroke-width="1"/>
  <text x="975" y="1558" text-anchor="middle" fill="#1d4ed8" font-size="12" font-weight="bold">定期同額給与 ✓</text>
  <text x="975" y="1576" text-anchor="middle" fill="#6b7280" font-size="11">（3区間それぞれ同額）</text>
  <rect x="1100" y="1531" width="650" height="55" fill="#ffffff" stroke="#e2e8f0" stroke-width="1"/>
  <text x="1115" y="1555" fill="#334155" font-size="12">臨時改定事由に該当する場合、3区間に区分し各区間内同額なら可。</text>
  <text x="1115" y="1573" fill="#334155" font-size="12">単なる業績好調は臨時改定事由に該当しない点に注意。</text>

  <!-- Q4 -->
  <rect x="50" y="1586" width="180" height="55" fill="#f8fafc" stroke="#e2e8f0" stroke-width="1"/>
  <text x="140" y="1618" text-anchor="middle" fill="#1e3a5f" font-size="14" font-weight="bold">Q4</text>
  <rect x="230" y="1586" width="420" height="55" fill="#f8fafc" stroke="#e2e8f0" stroke-width="1"/>
  <text x="245" y="1610" fill="#334155" font-size="12">定時総会で増額＋その後業績悪化により減額</text>
  <text x="245" y="1628" fill="#334155" font-size="12">（同一事業年度に増額→減額）</text>
  <rect x="650" y="1586" width="200" height="55" fill="#fff7ed" stroke="#e2e8f0" stroke-width="1"/>
  <text x="750" y="1608" text-anchor="middle" fill="#c2410c" font-size="12" font-weight="bold">通常改定（イ）</text>
  <text x="750" y="1628" text-anchor="middle" fill="#c2410c" font-size="12" font-weight="bold">＋ 業績悪化（ハ）</text>
  <rect x="850" y="1586" width="250" height="55" fill="#eff6ff" stroke="#e2e8f0" stroke-width="1"/>
  <text x="975" y="1618" text-anchor="middle" fill="#1d4ed8" font-size="12" font-weight="bold">定期同額給与 ✓</text>
  <rect x="1100" y="1586" width="650" height="55" fill="#f8fafc" stroke="#e2e8f0" stroke-width="1"/>
  <text x="1115" y="1610" fill="#334155" font-size="12">増額後の額→減額後の額、各区間同額であれば定期同額に該当。</text>
  <text x="1115" y="1628" fill="#334155" font-size="12">業績悪化の客観的事情の説明義務あり。</text>

  <!-- Q5 -->
  <rect x="50" y="1641" width="180" height="55" fill="#ffffff" stroke="#e2e8f0" stroke-width="1"/>
  <text x="140" y="1673" text-anchor="middle" fill="#1e3a5f" font-size="14" font-weight="bold">Q5</text>
  <rect x="230" y="1641" width="420" height="55" fill="#ffffff" stroke="#e2e8f0" stroke-width="1"/>
  <text x="245" y="1665" fill="#334155" font-size="12">不祥事を起こした役員に対し「一時的な</text>
  <text x="245" y="1683" fill="#334155" font-size="12">減額（数月間のみ）」後、元の額に戻す</text>
  <rect x="650" y="1641" width="200" height="55" fill="#fef2f2" stroke="#e2e8f0" stroke-width="1"/>
  <text x="750" y="1668" text-anchor="middle" fill="#dc2626" font-size="12" font-weight="bold">いずれの改定事由</text>
  <text x="750" y="1685" text-anchor="middle" fill="#dc2626" font-size="12" font-weight="bold">にも非該当の場合あり</text>
  <rect x="850" y="1641" width="250" height="55" fill="#fef2f2" stroke="#e2e8f0" stroke-width="1"/>
  <text x="975" y="1668" text-anchor="middle" fill="#dc2626" font-size="12" font-weight="bold">損金不算入リスク</text>
  <text x="975" y="1685" text-anchor="middle" fill="#6b7280" font-size="11">（差額部分）</text>
  <rect x="1100" y="1641" width="650" height="55" fill="#ffffff" stroke="#e2e8f0" stroke-width="1"/>
  <text x="1115" y="1665" fill="#334155" font-size="12">一時的減額＋復額は「各区間同額」を満たさない可能性。</text>
  <text x="1115" y="1683" fill="#dc2626" font-size="12">臨時改定事由に該当するか個別に要検討。</text>

  <!-- ============================================================ -->
  <!-- ===== SECTION: 損金不算入の判定フロー ===== -->
  <!-- ============================================================ -->
  <rect x="50" y="1730" width="1700" height="46" rx="8" fill="url(#headerGrad)" filter="url(#shadow)"/>
  <text x="900" y="1760" text-anchor="middle" fill="#ffffff" font-size="18" font-weight="bold">損金算入／不算入 総合判定フローチャート</text>

  <!-- Flow Start -->
  <rect x="700" y="1800" width="400" height="44" rx="22" fill="#1e3a5f" filter="url(#shadow)"/>
  <text x="900" y="1828" text-anchor="middle" fill="#ffffff" font-size="15" font-weight="bold">法人が役員に給与を支給</text>

  <line x1="900" y1="1844" x2="900" y2="1870" stroke="#475569" stroke-width="2" marker-end="url(#arrow)"/>

  <!-- Diamond 1 -->
  <polygon points="900,1870 1070,1920 900,1970 730,1920" fill="#fef3c7" stroke="#f59e0b" stroke-width="2"/>
  <text x="900" y="1916" text-anchor="middle" fill="#92400e" font-size="12" font-weight="bold">退職給与/使用人</text>
  <text x="900" y="1932" text-anchor="middle" fill="#92400e" font-size="12" font-weight="bold">分給与に該当？</text>

  <line x1="1070" y1="1920" x2="1200" y2="1920" stroke="#16a34a" stroke-width="2" marker-end="url(#arrowGreen)"/>
  <text x="1130" y="1912" fill="#16a34a" font-size="12" font-weight="bold">Yes</text>
  <rect x="1200" y="1900" width="280" height="40" rx="6" fill="#dcfce7" stroke="#16a34a" stroke-width="1.5"/>
  <text x="1340" y="1925" text-anchor="middle" fill="#14532d" font-size="12" font-weight="bold">原則損金算入（不相当高額部分除く）</text>

  <line x1="900" y1="1970" x2="900" y2="2000" stroke="#475569" stroke-width="2" marker-end="url(#arrow)"/>
  <text x="880" y="1990" fill="#475569" font-size="12" text-anchor="end">No</text>

  <!-- Diamond 2 -->
  <polygon points="900,2000 1070,2050 900,2100 730,2050" fill="#fef3c7" stroke="#f59e0b" stroke-width="2"/>
  <text x="900" y="2046" text-anchor="middle" fill="#92400e" font-size="12" font-weight="bold">仮装経理</text>
  <text x="900" y="2062" text-anchor="middle" fill="#92400e" font-size="12" font-weight="bold">による支給？</text>

  <line x1="1070" y1="2050" x2="1200" y2="2050" stroke="#dc2626" stroke-width="2" marker-end="url(#arrowRed)"/>
  <text x="1130" y="2042" fill="#dc2626" font-size="12" font-weight="bold">Yes</text>
  <rect x="1200" y="2030" width="280" height="40" rx="6" fill="#fef2f2" stroke="#dc2626" stroke-width="1.5"/>
  <text x="1340" y="2055" text-anchor="middle" fill="#991b1b" font-size="12" font-weight="bold">全額損金不算入（法法34③）</text>

  <line x1="900" y1="2100" x2="900" y2="2130" stroke="#475569" stroke-width="2" marker-end="url(#arrow)"/>
  <text x="880" y="2120" fill="#475569" font-size="12" text-anchor="end">No</text>

  <!-- Diamond 3: 3類型判定 -->
  <polygon points="900,2130 1100,2195 900,2260 700,2195" fill="#e0e7ff" stroke="#6366f1" stroke-width="2"/>
  <text x="900" y="2185" text-anchor="middle" fill="#312e81" font-size="12" font-weight="bold">3類型のいずれかに</text>
  <text x="900" y="2203" text-anchor="middle" fill="#312e81" font-size="12" font-weight="bold">該当するか？</text>

  <!-- No branch -->
  <line x1="700" y1="2195" x2="500" y2="2195" stroke="#dc2626" stroke-width="2" marker-end="url(#arrowRed)"/>
  <text x="610" y="2187" fill="#dc2626" font-size="12" font-weight="bold">No</text>
  <rect x="200" y="2175" width="300" height="40" rx="6" fill="#fef2f2" stroke="#dc2626" stroke-width="2"/>
  <text x="350" y="2200" text-anchor="middle" fill="#991b1b" font-size="14" font-weight="bold">全額損金不算入（法法34①）</text>

  <!-- Yes branch -->
  <line x1="900" y1="2260" x2="900" y2="2290" stroke="#16a34a" stroke-width="2" marker-end="url(#arrowGreen)"/>
  <text x="920" y="2280" fill="#16a34a" font-size="12" font-weight="bold">Yes</text>

  <!-- Diamond 4: 不相当高額 -->
  <polygon points="900,2290 1070,2340 900,2390 730,2340" fill="#fef3c7" stroke="#f59e0b" stroke-width="2"/>
  <text x="900" y="2336" text-anchor="middle" fill="#92400e" font-size="12" font-weight="bold">不相当に高額な</text>
  <text x="900" y="2352" text-anchor="middle" fill="#92400e" font-size="12" font-weight="bold">部分がある？</text>

  <line x1="1070" y1="2340" x2="1200" y2="2340" stroke="#dc2626" stroke-width="2" marker-end="url(#arrowRed)"/>
  <text x="1130" y="2332" fill="#dc2626" font-size="12" font-weight="bold">Yes</text>
  <rect x="1200" y="2315" width="330" height="50" rx="6" fill="#fffbeb" stroke="#f59e0b" stroke-width="1.5"/>
  <text x="1365" y="2337" text-anchor="middle" fill="#92400e" font-size="12" font-weight="bold">不相当に高額な部分のみ</text>
  <text x="1365" y="2355" text-anchor="middle" fill="#92400e" font-size="12" font-weight="bold">損金不算入（法法34②）</text>

  <line x1="900" y1="2390" x2="900" y2="2420" stroke="#16a34a" stroke-width="2" marker-end="url(#arrowGreen)"/>
  <text x="880" y="2410" fill="#16a34a" font-size="12" text-anchor="end">No</text>

  <!-- Final -->
  <rect x="700" y="2420" width="400" height="50" rx="10" fill="#16a34a" filter="url(#shadow)"/>
  <text x="900" y="2450" text-anchor="middle" fill="#ffffff" font-size="16" font-weight="bold">✓ 損金算入（全額）</text>

  <!-- ============================================================ -->
  <!-- ===== SECTION: 3類型 詳細判定 ===== -->
  <!-- ============================================================ -->
  <rect x="50" y="2510" width="1700" height="46" rx="8" fill="url(#headerGrad)" filter="url(#shadow)"/>
  <text x="900" y="2540" text-anchor="middle" fill="#ffffff" font-size="18" font-weight="bold">3類型の該当性 詳細判定フロー（法法34①一〜三）</text>

  <!-- ===== 定期同額 detailed ===== -->
  <rect x="50" y="2576" width="540" height="40" rx="8" fill="#1d4ed8" filter="url(#shadowLight)"/>
  <text x="320" y="2602" text-anchor="middle" fill="#ffffff" font-size="15" font-weight="bold">① 定期同額給与 判定フロー</text>

  <rect x="50" y="2620" width="540" height="360" rx="6" fill="#f0f4ff" stroke="#93c5fd" stroke-width="1"/>

  <!-- Step 1 -->
  <polygon points="320,2640 440,2670 320,2700 200,2670" fill="#bfdbfe" stroke="#3b82f6" stroke-width="1.5"/>
  <text x="320" y="2674" text-anchor="middle" fill="#1e3a5f" font-size="11" font-weight="bold">支給時期1月以下の定期？</text>
  <text x="450" y="2660" fill="#dc2626" font-size="10" font-weight="bold">No → 非該当</text>

  <line x1="320" y1="2700" x2="320" y2="2720" stroke="#3b82f6" stroke-width="1.5" marker-end="url(#arrow)"/>
  <text x="335" y="2715" fill="#16a34a" font-size="10">Yes</text>

  <!-- Step 2 -->
  <polygon points="320,2720 460,2750 320,2780 180,2750" fill="#bfdbfe" stroke="#3b82f6" stroke-width="1.5"/>
  <text x="320" y="2754" text-anchor="middle" fill="#1e3a5f" font-size="11" font-weight="bold">年度中に改定あり？</text>

  <line x1="460" y1="2750" x2="520" y2="2750" stroke="#16a34a" stroke-width="1.5"/>
  <text x="490" y="2742" fill="#16a34a" font-size="10">No</text>
  <rect x="468" y="2738" width="110" height="25" rx="4" fill="#dcfce7" stroke="#16a34a" stroke-width="1"/>
  <text x="523" y="2755" text-anchor="middle" fill="#14532d" font-size="10" font-weight="bold">全額同額→✓</text>

  <line x1="320" y1="2780" x2="320" y2="2800" stroke="#3b82f6" stroke-width="1.5" marker-end="url(#arrow)"/>
  <text x="335" y="2795" fill="#f59e0b" font-size="10">Yes</text>

  <!-- Step 3 -->
  <polygon points="320,2800 470,2838 320,2876 170,2838" fill="#fef3c7" stroke="#f59e0b" stroke-width="1.5"/>
  <text x="320" y="2832" text-anchor="middle" fill="#92400e" font-size="10" font-weight="bold">改定事由イ・ロ・ハの</text>
  <text x="320" y="2848" text-anchor="middle" fill="#92400e" font-size="10" font-weight="bold">いずれかに該当？</text>

  <text x="480" y="2830" fill="#dc2626" font-size="10" font-weight="bold">No → 非該当</text>

  <line x1="320" y1="2876" x2="320" y2="2896" stroke="#3b82f6" stroke-width="1.5" marker-end="url(#arrow)"/>
  <text x="335" y="2891" fill="#16a34a" font-size="10">Yes</text>

  <!-- Step 4 -->
  <polygon points="320,2896 470,2926 320,2956 170,2926" fill="#bfdbfe" stroke="#3b82f6" stroke-width="1.5"/>
  <text x="320" y="2924" text-anchor="middle" fill="#1e3a5f" font-size="10" font-weight="bold">各区間内で支給額同額？</text>

  <text x="480" y="2920" fill="#dc2626" font-size="10" font-weight="bold">No → 差額不算入</text>

  <line x1="320" y1="2956" x2="320" y2="2970" stroke="#16a34a" stroke-width="1.5" marker-end="url(#arrowGreen)"/>

  <rect x="240" y="2966" width="160" height="28" rx="6" fill="#16a34a"/>
  <text x="320" y="2985" text-anchor="middle" fill="#ffffff" font-size="12" font-weight="bold">定期同額給与 ✓</text>

  <!-- ===== 事前確定 detailed ===== -->
  <rect x="630" y="2576" width="540" height="40" rx="8" fill="#7c3aed" filter="url(#shadowLight)"/>
  <text x="900" y="2602" text-anchor="middle" fill="#ffffff" font-size="15" font-weight="bold">② 事前確定届出給与 判定フロー</text>

  <rect x="630" y="2620" width="540" height="360" rx="6" fill="#faf5ff" stroke="#c4b5fd" stroke-width="1"/>

  <!-- Step 1 -->
  <polygon points="900,2640 1040,2670 900,2700 760,2670" fill="#ede9fe" stroke="#8b5cf6" stroke-width="1.5"/>
  <text x="900" y="2668" text-anchor="middle" fill="#3b0764" font-size="11" font-weight="bold">所定の時期に確定額を支給？</text>
  <text x="1050" y="2660" fill="#dc2626" font-size="10" font-weight="bold">No → 非該当</text>

  <line x1="900" y1="2700" x2="900" y2="2720" stroke="#8b5cf6" stroke-width="1.5" marker-end="url(#arrow)"/>
  <text x="915" y="2715" fill="#16a34a" font-size="10">Yes</text>

  <!-- Step 2 -->
  <polygon points="900,2720 1060,2750 900,2780 740,2750" fill="#ede9fe" stroke="#8b5cf6" stroke-width="1.5"/>
  <text x="900" y="2748" text-anchor="middle" fill="#3b0764" font-size="11" font-weight="bold">定期同額/業績連動に非該当？</text>
  <text x="1070" y="2742" fill="#dc2626" font-size="10" font-weight="bold">No → 別類型</text>

  <line x1="900" y1="2780" x2="900" y2="2800" stroke="#8b5cf6" stroke-width="1.5" marker-end="url(#arrow)"/>
  <text x="915" y="2795" fill="#16a34a" font-size="10">Yes</text>

  <!-- Step 3 -->
  <polygon points="900,2800 1060,2838 900,2876 740,2838" fill="#fef3c7" stroke="#f59e0b" stroke-width="1.5"/>
  <text x="900" y="2832" text-anchor="middle" fill="#92400e" font-size="10" font-weight="bold">届出期限までに</text>
  <text x="900" y="2848" text-anchor="middle" fill="#92400e" font-size="10" font-weight="bold">届出を提出済み？</text>

  <text x="1070" y="2845" fill="#dc2626" font-size="10" font-weight="bold">No → 非該当*</text>
  <text x="1070" y="2860" fill="#6b7280" font-size="9">*届出不要例外・やむを得ない事情除く</text>

  <line x1="900" y1="2876" x2="900" y2="2896" stroke="#8b5cf6" stroke-width="1.5" marker-end="url(#arrow)"/>
  <text x="915" y="2891" fill="#16a34a" font-size="10">Yes</text>

  <!-- Step 4 -->
  <polygon points="900,2896 1060,2926 900,2956 740,2926" fill="#ede9fe" stroke="#8b5cf6" stroke-width="1.5"/>
  <text x="900" y="2924" text-anchor="middle" fill="#3b0764" font-size="10" font-weight="bold">届出額＝実際支給額？完全一致？</text>

  <text x="1070" y="2920" fill="#dc2626" font-size="10" font-weight="bold">No → 全額不算入</text>

  <line x1="900" y1="2956" x2="900" y2="2970" stroke="#16a34a" stroke-width="1.5" marker-end="url(#arrowGreen)"/>

  <rect x="820" y="2966" width="160" height="28" rx="6" fill="#16a34a"/>
  <text x="900" y="2985" text-anchor="middle" fill="#ffffff" font-size="12" font-weight="bold">事前確定届出 ✓</text>

  <!-- ===== 業績連動 detailed ===== -->
  <rect x="1210" y="2576" width="540" height="40" rx="8" fill="#047857" filter="url(#shadowLight)"/>
  <text x="1480" y="2602" text-anchor="middle" fill="#ffffff" font-size="15" font-weight="bold">③ 業績連動給与 判定フロー</text>

  <rect x="1210" y="2620" width="540" height="360" rx="6" fill="#ecfdf5" stroke="#86efac" stroke-width="1"/>

  <!-- Step 1 -->
  <polygon points="1480,2640 1630,2670 1480,2700 1330,2670" fill="#d1fae5" stroke="#10b981" stroke-width="1.5"/>
  <text x="1480" y="2668" text-anchor="middle" fill="#064e3b" font-size="11" font-weight="bold">業績指標に基づく算定？</text>
  <text x="1640" y="2660" fill="#dc2626" font-size="10" font-weight="bold">No → 非該当</text>

  <line x1="1480" y1="2700" x2="1480" y2="2720" stroke="#10b981" stroke-width="1.5" marker-end="url(#arrow)"/>
  <text x="1495" y="2715" fill="#16a34a" font-size="10">Yes</text>

  <!-- Step 2 -->
  <polygon points="1480,2720 1640,2750 1480,2780 1320,2750" fill="#d1fae5" stroke="#10b981" stroke-width="1.5"/>
  <text x="1480" y="2748" text-anchor="middle" fill="#064e3b" font-size="11" font-weight="bold">対象法人要件（A）充足？</text>
  <text x="1650" y="2742" fill="#dc2626" font-size="10" font-weight="bold">No → 非該当</text>

  <line x1="1480" y1="2780" x2="1480" y2="2800" stroke="#10b981" stroke-width="1.5" marker-end="url(#arrow)"/>
  <text x="1495" y="2795" fill="#16a34a" font-size="10">Yes</text>

  <!-- Step 3 -->
  <polygon points="1480,2800 1640,2838 1480,2876 1320,2838" fill="#fef3c7" stroke="#f59e0b" stroke-width="1.5"/>
  <text x="1480" y="2832" text-anchor="middle" fill="#92400e" font-size="10" font-weight="bold">算定方法の適正手続</text>
  <text x="1480" y="2848" text-anchor="middle" fill="#92400e" font-size="10" font-weight="bold">＋開示（C）充足？</text>

  <text x="1650" y="2840" fill="#dc2626" font-size="10" font-weight="bold">No → 非該当</text>

  <line x1="1480" y1="2876" x2="1480" y2="2896" stroke="#10b981" stroke-width="1.5" marker-end="url(#arrow)"/>
  <text x="1495" y="2891" fill="#16a34a" font-size="10">Yes</text>

  <!-- Step 4 -->
  <polygon points="1480,2896 1640,2926 1480,2956 1320,2926" fill="#d1fae5" stroke="#10b981" stroke-width="1.5"/>
  <text x="1480" y="2924" text-anchor="middle" fill="#064e3b" font-size="10" font-weight="bold">交付時期(D)＋損金経理(E)？</text>

  <text x="1650" y="2920" fill="#dc2626" font-size="10" font-weight="bold">No → 非該当</text>

  <line x1="1480" y1="2956" x2="1480" y2="2970" stroke="#16a34a" stroke-width="1.5" marker-end="url(#arrowGreen)"/>

  <rect x="1400" y="2966" width="160" height="28" rx="6" fill="#16a34a"/>
  <text x="1480" y="2985" text-anchor="middle" fill="#ffffff" font-size="12" font-weight="bold">業績連動給与 ✓</text>

  <!-- ============================================================ -->
  <!-- ===== SECTION: 業績悪化改定事由 詳細分類 ===== -->
  <!-- ============================================================ -->
  <rect x="50" y="3020" width="1700" height="46" rx="8" fill="url(#headerGrad)" filter="url(#shadow)"/>
  <text x="900" y="3050" text-anchor="middle" fill="#ffffff" font-size="18" font-weight="bold">業績悪化改定事由の該当性判定 ─ 詳細分類（Q1・Q1-2 / 基通9-2-13）</text>

  <rect x="50" y="3080" width="830" height="310" rx="8" fill="#ffffff" stroke="#16a34a" stroke-width="2" filter="url(#shadowLight)"/>
  <rect x="50" y="3080" width="830" height="36" rx="8" fill="#16a34a"/>
  <rect x="50" y="3108" width="830" height="8" fill="#16a34a"/>
  <text x="465" y="3105" text-anchor="middle" fill="#ffffff" font-size="15" font-weight="bold">○ 該当する事例（損金算入OK）</text>

  <text x="75" y="3140" fill="#065f46" font-size="13" font-weight="bold">① 株主との関係上、経営責任から減額せざるを得ない場合</text>
  <text x="90" y="3160" fill="#334155" font-size="12">（上場企業等は業績悪化が直ちに役員評価に影響→通常該当）</text>

  <text x="75" y="3185" fill="#065f46" font-size="13" font-weight="bold">② 取引銀行との借入金リスケジュール協議で減額が求められた場合</text>

  <text x="75" y="3215" fill="#065f46" font-size="13" font-weight="bold">③ 経営改善計画に役員給与減額が盛り込まれた場合</text>
  <text x="90" y="3235" fill="#334155" font-size="12">（取引先等の信用維持・確保を目的とした計画の策定）</text>

  <text x="75" y="3260" fill="#065f46" font-size="13" font-weight="bold">④ 著しい悪化が客観的に不可避と認められる場合（Q1-2）</text>
  <text x="90" y="3280" fill="#334155" font-size="12">（例：主要得意先の不渡り、多額の損害賠償・リコール費用の発生不可避等）</text>
  <text x="90" y="3300" fill="#334155" font-size="12">→ 予防的回避に成功した場合でも事後否認されない</text>

  <text x="75" y="3330" fill="#065f46" font-size="13" font-weight="bold">⑤ その他、第三者との関係上やむを得ない客観的事情がある場合</text>
  <text x="90" y="3350" fill="#334155" font-size="12">（従業員賞与を一律カットせざるを得ない状況など）</text>
  <text x="90" y="3370" fill="#16a34a" font-size="11" font-weight="bold">★ 共通：客観的事情を具体的に説明できるよう準備が必要</text>

  <rect x="920" y="3080" width="830" height="310" rx="8" fill="#ffffff" stroke="#dc2626" stroke-width="2" filter="url(#shadowLight)"/>
  <rect x="920" y="3080" width="830" height="36" rx="8" fill="#dc2626"/>
  <rect x="920" y="3108" width="830" height="8" fill="#dc2626"/>
  <text x="1335" y="3105" text-anchor="middle" fill="#ffffff" font-size="15" font-weight="bold">✕ 該当しない事例（損金不算入リスク）</text>

  <text x="945" y="3140" fill="#991b1b" font-size="13" font-weight="bold">① 法人の一時的な資金繰りの都合</text>
  <text x="960" y="3160" fill="#334155" font-size="12">（基通9-2-13で明示的に除外）</text>

  <text x="945" y="3190" fill="#991b1b" font-size="13" font-weight="bold">② 単に業績目標値に達しなかったこと</text>
  <text x="960" y="3210" fill="#334155" font-size="12">（基通9-2-13で明示的に除外）</text>

  <text x="945" y="3240" fill="#991b1b" font-size="13" font-weight="bold">③ 利益調整のみを目的とした減額改定</text>
  <text x="960" y="3260" fill="#334155" font-size="12">（Q1解説⑷ 明示的に除外）</text>

  <text x="945" y="3290" fill="#991b1b" font-size="13" font-weight="bold">④ 客観的状況がない単なる将来の見込みによる減額</text>
  <text x="960" y="3310" fill="#334155" font-size="12">（Q1-2解説：客観的状況の裏付けがない場合は非該当）</text>

  <text x="945" y="3345" fill="#991b1b" font-size="13" font-weight="bold">⑤ 同族会社で客観的・特別の事情を説明できない場合</text>
  <text x="960" y="3365" fill="#334155" font-size="12">（株主＝役員の関係にある場合は特に厳格な立証が必要）</text>

  <!-- ===== FOOTER ===== -->
  <rect x="50" y="3420" width="1700" height="260" rx="8" fill="#f1f5f9" stroke="#cbd5e1" stroke-width="1"/>
  <text x="80" y="3450" fill="#1e3a5f" font-size="15" font-weight="bold">【根拠法令・通達一覧】</text>
  <text x="80" y="3475" fill="#475569" font-size="12">法人税法第34条（役員給与の損金不算入） ／ 法人税法第54条（譲渡制限付株式） ／ 法人税法第54条の2（新株予約権）</text>
  <text x="80" y="3495" fill="#475569" font-size="12">法人税法施行令第69条（定期同額給与の範囲・事前確定届出給与の届出・業績連動給与の要件等） ／ 法人税法施行令第71条（使用人兼務役員）</text>
  <text x="80" y="3515" fill="#475569" font-size="12">法人税法施行規則第22条の3 ／ 法人税基本通達9-2-11〜9-2-13</text>

  <text x="80" y="3545" fill="#1e3a5f" font-size="15" font-weight="bold">【国税庁Q&amp;A 構成】</text>
  <text x="80" y="3570" fill="#475569" font-size="12">Q1 ：業績悪化による年度中途減額 ／ Q1-2：著しい悪化が不可避と認められる場合の減額（平成24年4月追加）</text>
  <text x="80" y="3590" fill="#475569" font-size="12">Q2 ：株主総会翌月分からの増額改定 ／ Q3 ：複数回の改定（通常改定＋臨時改定事由）</text>
  <text x="80" y="3610" fill="#475569" font-size="12">Q4 ：増額後の減額改定 ／ Q5 ：一時的減額と復額 ／ その他、経済的利益の定期同額給与該当性等</text>

  <line x1="80" y1="3630" x2="1720" y2="3630" stroke="#cbd5e1" stroke-width="1"/>
  <text x="80" y="3655" fill="#94a3b8" font-size="11">出典：国税庁「役員給与に関するQ&amp;A」（平成20年12月、平成24年4月改訂）／ 国税庁タックスアンサーNo.5211（令和7年4月1日現在法令等）</text>
  <text x="80" y="3672" fill="#94a3b8" font-size="11">本図は上記資料に基づく整理であり、具体的事案の税務判断は個別の事実関係に基づき専門家にご確認ください。</text>
</svg>