<svg xmlns="http://www.w3.org/2000/svg" viewBox="0 0 1400 2800" font-family="'Helvetica Neue', Arial, 'Hiragino Kaku Gothic ProN', 'Hiragino Sans', Meiryo, sans-serif">
  <defs>
    <linearGradient id="bgGrad" x1="0%" y1="0%" x2="0%" y2="100%">
      <stop offset="0%" style="stop-color:#0f172a"/>
      <stop offset="100%" style="stop-color:#1e293b"/>
    </linearGradient>
    <linearGradient id="titleGrad" x1="0%" y1="0%" x2="100%" y2="0%">
      <stop offset="0%" style="stop-color:#3b82f6"/>
      <stop offset="100%" style="stop-color:#8b5cf6"/>
    </linearGradient>
    <linearGradient id="taxPowerGrad" x1="0%" y1="0%" x2="0%" y2="100%">
      <stop offset="0%" style="stop-color:#dc2626"/>
      <stop offset="100%" style="stop-color:#991b1b"/>
    </linearGradient>
    <linearGradient id="collectGrad" x1="0%" y1="0%" x2="0%" y2="100%">
      <stop offset="0%" style="stop-color:#2563eb"/>
      <stop offset="100%" style="stop-color:#1d4ed8"/>
    </linearGradient>
    <linearGradient id="interestGrad" x1="0%" y1="0%" x2="0%" y2="100%">
      <stop offset="0%" style="stop-color:#059669"/>
      <stop offset="100%" style="stop-color:#047857"/>
    </linearGradient>
    <linearGradient id="timelineGrad" x1="0%" y1="0%" x2="100%" y2="0%">
      <stop offset="0%" style="stop-color:#f59e0b"/>
      <stop offset="50%" style="stop-color:#ef4444"/>
      <stop offset="100%" style="stop-color:#8b5cf6"/>
    </linearGradient>
    <filter id="glow">
      <feGaussianBlur stdDeviation="3" result="coloredBlur"/>
      <feMerge><feMergeNode in="coloredBlur"/><feMergeNode in="SourceGraphic"/></feMerge>
    </filter>
    <filter id="shadow">
      <feDropShadow dx="2" dy="3" stdDeviation="4" flood-color="#000" flood-opacity="0.3"/>
    </filter>
    <marker id="arrowRed" markerWidth="10" markerHeight="7" refX="10" refY="3.5" orient="auto">
      <polygon points="0 0, 10 3.5, 0 7" fill="#ef4444"/>
    </marker>
    <marker id="arrowBlue" markerWidth="10" markerHeight="7" refX="10" refY="3.5" orient="auto">
      <polygon points="0 0, 10 3.5, 0 7" fill="#3b82f6"/>
    </marker>
    <marker id="arrowGreen" markerWidth="10" markerHeight="7" refX="10" refY="3.5" orient="auto">
      <polygon points="0 0, 10 3.5, 0 7" fill="#10b981"/>
    </marker>
    <marker id="arrowGray" markerWidth="10" markerHeight="7" refX="10" refY="3.5" orient="auto">
      <polygon points="0 0, 10 3.5, 0 7" fill="#94a3b8"/>
    </marker>
    <marker id="arrowYellow" markerWidth="10" markerHeight="7" refX="10" refY="3.5" orient="auto">
      <polygon points="0 0, 10 3.5, 0 7" fill="#f59e0b"/>
    </marker>
  </defs>

  <!-- Background -->
  <rect width="1400" height="2800" fill="url(#bgGrad)"/>

  <!-- ============================================ -->
  <!-- TITLE SECTION -->
  <!-- ============================================ -->
  <text x="700" y="50" text-anchor="middle" fill="url(#titleGrad)" font-size="28" font-weight="bold" filter="url(#glow)">法人税の課税権・徴収権・利子税の条文体系図</text>
  <text x="700" y="80" text-anchor="middle" fill="#94a3b8" font-size="15">令和2年11月期決算法人 ─ 申告期限1月延長特例（法人税法75条の2）適用</text>
  <line x1="200" y1="95" x2="1200" y2="95" stroke="url(#titleGrad)" stroke-width="1" opacity="0.5"/>

  <!-- ============================================ -->
  <!-- SECTION 1: 法定申告期限の決定（条文の連鎖） -->
  <!-- ============================================ -->
  <text x="700" y="135" text-anchor="middle" fill="#f8fafc" font-size="20" font-weight="bold">第1層 ─「法定申告期限」の決定（条文の連鎖構造）</text>
  <text x="700" y="158" text-anchor="middle" fill="#94a3b8" font-size="13">すべての期限計算の起算点。ここを誤ると全体が狂う。</text>

  <!-- Box: 通則法2条7号 -->
  <rect x="80" y="175" width="340" height="130" rx="12" fill="#1e293b" stroke="#f59e0b" stroke-width="2" filter="url(#shadow)"/>
  <rect x="80" y="175" width="340" height="32" rx="12" fill="#f59e0b" opacity="0.15"/>
  <text x="250" y="197" text-anchor="middle" fill="#f59e0b" font-size="14" font-weight="bold">通則法2条7号（定義）</text>
  <text x="100" y="222" fill="#e2e8f0" font-size="11.5">「法定申告期限」とは、</text>
  <text x="100" y="240" fill="#fbbf24" font-size="12" font-weight="bold">国税に関する法律の規定により</text>
  <text x="100" y="258" fill="#fbbf24" font-size="12" font-weight="bold">納税申告書を提出すべき期限</text>
  <text x="100" y="276" fill="#e2e8f0" font-size="11.5">をいう。</text>
  <text x="100" y="296" fill="#94a3b8" font-size="10">↑「国税に関する法律」= 法人税法75条の2を含む</text>

  <!-- Arrow 1 -->
  <line x1="420" y1="240" x2="490" y2="240" stroke="#f59e0b" stroke-width="2" marker-end="url(#arrowYellow)"/>
  <text x="455" y="232" text-anchor="middle" fill="#f59e0b" font-size="10">参照</text>

  <!-- Box: 法人税法74条1項 -->
  <rect x="500" y="175" width="370" height="130" rx="12" fill="#1e293b" stroke="#64748b" stroke-width="1.5" filter="url(#shadow)"/>
  <rect x="500" y="175" width="370" height="32" rx="12" fill="#64748b" opacity="0.15"/>
  <text x="685" y="197" text-anchor="middle" fill="#94a3b8" font-size="14" font-weight="bold">法人税法74条1項（原則）</text>
  <text x="520" y="222" fill="#e2e8f0" font-size="11.5">「各事業年度終了の日の翌日から</text>
  <text x="520" y="240" fill="#e2e8f0" font-size="12" font-weight="bold">二月以内に…申告書を提出」</text>
  <text x="520" y="262" fill="#94a3b8" font-size="11">R2.12.1 → 2月 → R3.1.31（日曜）</text>
  <text x="520" y="280" fill="#94a3b8" font-size="11">→ 通則法10条2項 → R3.2.1（月）</text>
  <text x="520" y="298" fill="#cbd5e1" font-size="10">※延長前の原則的期限</text>

  <!-- Arrow 2 -->
  <line x1="870" y1="240" x2="940" y2="240" stroke="#f59e0b" stroke-width="2" marker-end="url(#arrowYellow)"/>
  <text x="905" y="232" text-anchor="middle" fill="#f59e0b" font-size="10">延長</text>

  <!-- Box: 法人税法75条の2第1項 (HIGHLIGHT) -->
  <rect x="950" y="175" width="370" height="130" rx="12" fill="#1e293b" stroke="#f59e0b" stroke-width="3" filter="url(#shadow)"/>
  <rect x="950" y="175" width="370" height="32" rx="12" fill="#f59e0b" opacity="0.25"/>
  <text x="1135" y="197" text-anchor="middle" fill="#f59e0b" font-size="14" font-weight="bold">法人税法75条の2第1項（延長特例）★</text>
  <text x="970" y="222" fill="#e2e8f0" font-size="11.5">「当該申告書の提出期限を</text>
  <text x="970" y="240" fill="#fbbf24" font-size="13" font-weight="bold">一月間延長することができる」</text>
  <text x="970" y="262" fill="#e2e8f0" font-size="11">2月 + 1月 = 3月以内 → R3.2.28（日曜）</text>
  <text x="970" y="280" fill="#e2e8f0" font-size="11">→ 通則法10条2項 →</text>
  <text x="970" y="298" fill="#fbbf24" font-size="13" font-weight="bold">法定申告期限 = R3.3.1（月）</text>

  <!-- Result Box -->
  <rect x="400" y="325" width="600" height="55" rx="10" fill="#f59e0b" opacity="0.15" stroke="#f59e0b" stroke-width="2"/>
  <text x="700" y="350" text-anchor="middle" fill="#fbbf24" font-size="16" font-weight="bold">法定申告期限 ＝ 令和3年3月1日（月曜日）</text>
  <text x="700" y="370" text-anchor="middle" fill="#e2e8f0" font-size="12">通則法2条7号 → 法人税法75条の2 → 通則法10条2項 の連鎖で確定</text>

  <!-- Arrow down from Result to 3 pillars -->
  <line x1="700" y1="380" x2="700" y2="410" stroke="#f59e0b" stroke-width="2"/>
  <line x1="700" y1="410" x2="250" y2="410" stroke="#ef4444" stroke-width="1.5" stroke-dasharray="6,3"/>
  <line x1="700" y1="410" x2="700" y2="410" stroke="#3b82f6" stroke-width="1.5"/>
  <line x1="700" y1="410" x2="1150" y2="410" stroke="#10b981" stroke-width="1.5" stroke-dasharray="6,3"/>
  <line x1="250" y1="410" x2="250" y2="435" stroke="#ef4444" stroke-width="1.5" marker-end="url(#arrowRed)"/>
  <line x1="700" y1="410" x2="700" y2="435" stroke="#3b82f6" stroke-width="1.5" marker-end="url(#arrowBlue)"/>
  <line x1="1150" y1="410" x2="1150" y2="435" stroke="#10b981" stroke-width="1.5" marker-end="url(#arrowGreen)"/>

  <!-- ============================================ -->
  <!-- SECTION 2: THREE PILLARS -->
  <!-- ============================================ -->
  <text x="250" y="458" text-anchor="middle" fill="#fca5a5" font-size="11">起算日として使用</text>
  <text x="700" y="458" text-anchor="middle" fill="#93c5fd" font-size="11">起算日として使用</text>
  <text x="1150" y="458" text-anchor="middle" fill="#6ee7b7" font-size="11">計算期間の終了日</text>

  <!-- ======== PILLAR 1: 課税権（除斥期間） ======== -->
  <rect x="50" y="470" width="400" height="620" rx="14" fill="#1e293b" stroke="#ef4444" stroke-width="2" filter="url(#shadow)"/>
  <rect x="50" y="470" width="400" height="40" rx="14" fill="url(#taxPowerGrad)"/>
  <text x="250" y="496" text-anchor="middle" fill="#fff" font-size="16" font-weight="bold">課税権（更正の除斥期間）</text>

  <!-- 5 year -->
  <rect x="70" y="525" width="360" height="115" rx="8" fill="#292524" stroke="#ef4444" stroke-width="1.5" opacity="0.9"/>
  <text x="250" y="548" text-anchor="middle" fill="#fca5a5" font-size="13" font-weight="bold">通則法70条1項1号（通常：5年）</text>
  <line x1="90" y1="556" x2="410" y2="556" stroke="#ef4444" stroke-width="0.5" opacity="0.4"/>
  <text x="90" y="575" fill="#e2e8f0" font-size="11">「更正又は決定は、その更正又は決定に係る</text>
  <text x="90" y="591" fill="#e2e8f0" font-size="11">国税の法定申告期限から</text>
  <text x="258" y="591" fill="#fbbf24" font-size="12" font-weight="bold">五年を経過した日</text>
  <text x="90" y="607" fill="#fbbf24" font-size="12" font-weight="bold">以後</text>
  <text x="120" y="607" fill="#e2e8f0" font-size="11">においては、することができない」</text>
  <text x="250" y="632" text-anchor="middle" fill="#ef4444" font-size="13" font-weight="bold">→ 更正最終日：R8.3.1（2026年）</text>

  <!-- 7 year -->
  <rect x="70" y="650" width="360" height="115" rx="8" fill="#292524" stroke="#f97316" stroke-width="1.5" opacity="0.9"/>
  <text x="250" y="673" text-anchor="middle" fill="#fdba74" font-size="13" font-weight="bold">通則法70条5項1号（不正：7年）</text>
  <line x1="90" y1="681" x2="410" y2="681" stroke="#f97316" stroke-width="0.5" opacity="0.4"/>
  <text x="90" y="700" fill="#e2e8f0" font-size="11">「偽りその他不正の行為により</text>
  <text x="90" y="716" fill="#e2e8f0" font-size="11">その全部若しくは一部の税額を免れ…た</text>
  <text x="90" y="732" fill="#e2e8f0" font-size="11">国税についての更正決定等は…</text>
  <text x="90" y="748" fill="#fbbf24" font-size="12" font-weight="bold">七年を経過する日まで</text>
  <text x="286" y="748" fill="#e2e8f0" font-size="11">…することができる」</text>
  <text x="250" y="758" text-anchor="middle" fill="#f97316" font-size="13" font-weight="bold">→ 更正最終日：R10.3.1（2028年）</text>

  <!-- 10 year -->
  <rect x="70" y="775" width="360" height="100" rx="8" fill="#292524" stroke="#a855f7" stroke-width="1.5" opacity="0.9"/>
  <text x="250" y="798" text-anchor="middle" fill="#c4b5fd" font-size="13" font-weight="bold">通則法70条2項（純損失等：10年）</text>
  <line x1="90" y1="806" x2="410" y2="806" stroke="#a855f7" stroke-width="0.5" opacity="0.4"/>
  <text x="90" y="825" fill="#e2e8f0" font-size="11">「法人税に係る純損失等の金額…の更正は</text>
  <text x="90" y="841" fill="#e2e8f0" font-size="11">…</text>
  <text x="98" y="841" fill="#fbbf24" font-size="12" font-weight="bold">十年を経過する日まで</text>
  <text x="282" y="841" fill="#e2e8f0" font-size="11">…することができる」</text>
  <text x="250" y="868" text-anchor="middle" fill="#a855f7" font-size="13" font-weight="bold">→ 更正最終日：R13.3.1（2031年）</text>

  <!-- Key Feature -->
  <rect x="70" y="890" width="360" height="80" rx="8" fill="#450a0a" stroke="#ef4444" stroke-width="2" stroke-dasharray="5,3"/>
  <text x="250" y="915" text-anchor="middle" fill="#fca5a5" font-size="13" font-weight="bold">★ 除斥期間の最大の特徴</text>
  <text x="250" y="937" text-anchor="middle" fill="#fbbf24" font-size="14" font-weight="bold">中断（更新）は一切不可</text>
  <text x="250" y="958" text-anchor="middle" fill="#e2e8f0" font-size="11">調査中でも期間経過で課税権は絶対消滅</text>

  <!-- 更正の請求 -->
  <rect x="70" y="980" width="360" height="95" rx="8" fill="#292524" stroke="#64748b" stroke-width="1" opacity="0.8"/>
  <text x="250" y="1002" text-anchor="middle" fill="#94a3b8" font-size="12" font-weight="bold">〔対〕通則法23条1項（更正の請求）</text>
  <line x1="90" y1="1010" x2="410" y2="1010" stroke="#64748b" stroke-width="0.5" opacity="0.4"/>
  <text x="90" y="1030" fill="#e2e8f0" font-size="11">「当該申告書に係る国税の法定申告期限</text>
  <text x="90" y="1046" fill="#e2e8f0" font-size="11">から</text>
  <text x="112" y="1046" fill="#fbbf24" font-size="12" font-weight="bold">五年（法人税の純損失等は十年）以内</text>
  <text x="90" y="1062" fill="#e2e8f0" font-size="11">に限り…更正をすべき旨の請求をする</text>
  <text x="362" y="1062" fill="#e2e8f0" font-size="11">ことができる」</text>

  <!-- ======== PILLAR 2: 徴収権（消滅時効） ======== -->
  <rect x="500" y="470" width="400" height="620" rx="14" fill="#1e293b" stroke="#3b82f6" stroke-width="2" filter="url(#shadow)"/>
  <rect x="500" y="470" width="400" height="40" rx="14" fill="url(#collectGrad)"/>
  <text x="700" y="496" text-anchor="middle" fill="#fff" font-size="16" font-weight="bold">徴収権（消滅時効）</text>

  <!-- 原則 -->
  <rect x="520" y="525" width="360" height="130" rx="8" fill="#292524" stroke="#3b82f6" stroke-width="1.5" opacity="0.9"/>
  <text x="700" y="548" text-anchor="middle" fill="#93c5fd" font-size="13" font-weight="bold">通則法72条1項（原則：5年）</text>
  <line x1="540" y1="556" x2="860" y2="556" stroke="#3b82f6" stroke-width="0.5" opacity="0.4"/>
  <text x="540" y="575" fill="#e2e8f0" font-size="11">「国税の徴収を目的とする国の権利は、</text>
  <text x="540" y="591" fill="#e2e8f0" font-size="11">その国税の</text>
  <text x="616" y="591" fill="#fbbf24" font-size="12" font-weight="bold">法定納期限</text>
  <text x="700" y="591" fill="#e2e8f0" font-size="11">から</text>
  <text x="540" y="607" fill="#fbbf24" font-size="12" font-weight="bold">五年間行使しないことによつて、</text>
  <text x="540" y="623" fill="#fbbf24" font-size="12" font-weight="bold">時効により消滅する</text>
  <text x="675" y="623" fill="#e2e8f0" font-size="11">」</text>
  <text x="700" y="648" text-anchor="middle" fill="#3b82f6" font-size="13" font-weight="bold">→ 時効完成（中断なし）：R8.3.1</text>

  <!-- 援用不要 -->
  <rect x="520" y="665" width="360" height="80" rx="8" fill="#292524" stroke="#3b82f6" stroke-width="1" opacity="0.9"/>
  <text x="700" y="688" text-anchor="middle" fill="#93c5fd" font-size="13" font-weight="bold">通則法72条2項（援用不要・放棄不可）</text>
  <line x1="540" y1="696" x2="860" y2="696" stroke="#3b82f6" stroke-width="0.5" opacity="0.4"/>
  <text x="540" y="715" fill="#e2e8f0" font-size="11">「その</text>
  <text x="570" y="715" fill="#fbbf24" font-size="12" font-weight="bold">援用を要せず</text>
  <text x="670" y="715" fill="#e2e8f0" font-size="11">、また、</text>
  <text x="540" y="733" fill="#e2e8f0" font-size="11">その</text>
  <text x="567" y="733" fill="#fbbf24" font-size="12" font-weight="bold">利益を放棄することができない</text>
  <text x="810" y="733" fill="#e2e8f0" font-size="11">」</text>

  <!-- 更新事由 -->
  <rect x="520" y="755" width="360" height="175" rx="8" fill="#292524" stroke="#60a5fa" stroke-width="1.5" opacity="0.9"/>
  <text x="700" y="778" text-anchor="middle" fill="#93c5fd" font-size="13" font-weight="bold">通則法73条1項（時効の更新事由）</text>
  <line x1="540" y1="786" x2="860" y2="786" stroke="#60a5fa" stroke-width="0.5" opacity="0.4"/>
  <text x="540" y="806" fill="#e2e8f0" font-size="11">「次の…処分に係る部分の国税については、</text>
  <text x="540" y="822" fill="#e2e8f0" font-size="11">…完成せず、…</text>
  <text x="638" y="822" fill="#fbbf24" font-size="11" font-weight="bold">新たにその進行を始める</text>
  <text x="540" y="842" fill="#e2e8f0" font-size="11">」</text>
  <text x="555" y="862" fill="#60a5fa" font-size="11">① 更正又は決定（1号）</text>
  <text x="555" y="880" fill="#60a5fa" font-size="11">② 加算税の賦課決定（2号）</text>
  <text x="555" y="898" fill="#60a5fa" font-size="11">③ 督促（4号）→ 発送日+10日で更新</text>
  <text x="555" y="916" fill="#60a5fa" font-size="11">④ 交付要求（5号）→ 要求中は完成猶予</text>

  <!-- Key Feature -->
  <rect x="520" y="940" width="360" height="75" rx="8" fill="#172554" stroke="#3b82f6" stroke-width="2" stroke-dasharray="5,3"/>
  <text x="700" y="965" text-anchor="middle" fill="#93c5fd" font-size="13" font-weight="bold">★ 消滅時効の最大の特徴</text>
  <text x="700" y="987" text-anchor="middle" fill="#fbbf24" font-size="14" font-weight="bold">中断（更新）により何度でもリセット可</text>
  <text x="700" y="1005" text-anchor="middle" fill="#e2e8f0" font-size="11">→ 実務上、完成することは極めて稀</text>

  <!-- 不正 -->
  <rect x="520" y="1025" width="360" height="50" rx="8" fill="#292524" stroke="#64748b" stroke-width="1" opacity="0.8"/>
  <text x="700" y="1045" text-anchor="middle" fill="#94a3b8" font-size="12" font-weight="bold">通則法73条3項（不正の場合）</text>
  <text x="700" y="1063" text-anchor="middle" fill="#e2e8f0" font-size="11">法定納期限から2年間は時効不進行</text>

  <!-- ======== PILLAR 3: 利子税 ======== -->
  <rect x="950" y="470" width="400" height="620" rx="14" fill="#1e293b" stroke="#10b981" stroke-width="2" filter="url(#shadow)"/>
  <rect x="950" y="470" width="400" height="40" rx="14" fill="url(#interestGrad)"/>
  <text x="1150" y="496" text-anchor="middle" fill="#fff" font-size="16" font-weight="bold">利子税（期限の利益の対価）</text>

  <!-- 通則法64条 -->
  <rect x="970" y="525" width="360" height="95" rx="8" fill="#292524" stroke="#10b981" stroke-width="1.5" opacity="0.9"/>
  <text x="1150" y="548" text-anchor="middle" fill="#6ee7b7" font-size="13" font-weight="bold">通則法64条1項（利子税の根拠）</text>
  <line x1="990" y1="556" x2="1310" y2="556" stroke="#10b981" stroke-width="0.5" opacity="0.4"/>
  <text x="990" y="575" fill="#e2e8f0" font-size="11">「</text>
  <text x="996" y="575" fill="#fbbf24" font-size="11" font-weight="bold">納税申告書の提出期限の延長</text>
  <text x="1218" y="575" fill="#e2e8f0" font-size="11">に係る</text>
  <text x="990" y="591" fill="#e2e8f0" font-size="11">国税の納税者は…</text>
  <text x="990" y="607" fill="#fbbf24" font-size="11" font-weight="bold">利子税を納付しなければならない</text>
  <text x="1240" y="607" fill="#e2e8f0" font-size="11">」</text>

  <!-- 法人税法75条7項 -->
  <rect x="970" y="630" width="360" height="125" rx="8" fill="#292524" stroke="#10b981" stroke-width="1.5" opacity="0.9"/>
  <text x="1150" y="653" text-anchor="middle" fill="#6ee7b7" font-size="12" font-weight="bold">法人税法75条7項（75条の2第8項で準用）</text>
  <line x1="990" y1="661" x2="1310" y2="661" stroke="#10b981" stroke-width="0.5" opacity="0.4"/>
  <text x="990" y="680" fill="#e2e8f0" font-size="11">「事業年度終了の日の翌日以後</text>
  <text x="990" y="696" fill="#fbbf24" font-size="12" font-weight="bold">二月を経過した日</text>
  <text x="1138" y="696" fill="#e2e8f0" font-size="11">から</text>
  <text x="990" y="712" fill="#fbbf24" font-size="12" font-weight="bold">延長された提出期限</text>
  <text x="1148" y="712" fill="#e2e8f0" font-size="11">までの期間…</text>
  <text x="990" y="728" fill="#fbbf24" font-size="12" font-weight="bold">年七・三パーセント</text>
  <text x="1143" y="728" fill="#e2e8f0" font-size="11">の割合…利子税…」</text>
  <text x="1150" y="748" text-anchor="middle" fill="#10b981" font-size="12" font-weight="bold">→ R3.2.1 ～ R3.3.1（28日間）</text>

  <!-- 措法93条 -->
  <rect x="970" y="765" width="360" height="90" rx="8" fill="#292524" stroke="#10b981" stroke-width="1" opacity="0.9"/>
  <text x="1150" y="788" text-anchor="middle" fill="#6ee7b7" font-size="12" font-weight="bold">租特法93条1項2号（利率の特例）</text>
  <line x1="990" y1="796" x2="1310" y2="796" stroke="#10b981" stroke-width="0.5" opacity="0.4"/>
  <text x="990" y="815" fill="#e2e8f0" font-size="11">「各年の</text>
  <text x="1044" y="815" fill="#fbbf24" font-size="11" font-weight="bold">利子税特例基準割合</text>
  <text x="1190" y="815" fill="#e2e8f0" font-size="11">が年7.3%に</text>
  <text x="990" y="833" fill="#e2e8f0" font-size="11">満たない場合は…当該…割合とする」</text>
  <text x="1150" y="848" text-anchor="middle" fill="#10b981" font-size="13" font-weight="bold">→ R3年：年1.0％（平均貸付割合+0.5%）</text>

  <!-- 損金算入 -->
  <rect x="970" y="865" width="360" height="95" rx="8" fill="#292524" stroke="#10b981" stroke-width="1.5" opacity="0.9"/>
  <text x="1150" y="888" text-anchor="middle" fill="#6ee7b7" font-size="12" font-weight="bold">法人税法38条1項3号（損金算入）</text>
  <line x1="990" y1="896" x2="1310" y2="896" stroke="#10b981" stroke-width="0.5" opacity="0.4"/>
  <text x="990" y="916" fill="#e2e8f0" font-size="11">利子税は38条1項の損金不算入から</text>
  <text x="990" y="932" fill="#fbbf24" font-size="12" font-weight="bold">明文で除外（＝損金算入）</text>
  <text x="990" y="953" fill="#94a3b8" font-size="10">cf. 延滞税は55条4項1号で損金不算入</text>

  <!-- 二重課税排除 -->
  <rect x="970" y="970" width="360" height="65" rx="8" fill="#292524" stroke="#64748b" stroke-width="1" opacity="0.8"/>
  <text x="1150" y="993" text-anchor="middle" fill="#94a3b8" font-size="12" font-weight="bold">通則法64条2項（二重課税排除）</text>
  <text x="990" y="1015" fill="#e2e8f0" font-size="11">「利子税の額の計算の基礎となる期間は、</text>
  <text x="990" y="1028" fill="#fbbf24" font-size="11" font-weight="bold">延滞税…の期間に算入しない</text>
  <text x="1210" y="1028" fill="#e2e8f0" font-size="11">」</text>

  <!-- Key Feature -->
  <rect x="970" y="1045" width="360" height="45" rx="8" fill="#052e16" stroke="#10b981" stroke-width="2" stroke-dasharray="5,3"/>
  <text x="1150" y="1065" text-anchor="middle" fill="#6ee7b7" font-size="12" font-weight="bold">★ 見込納付で利子税ゼロ化が可能</text>
  <text x="1150" y="1080" text-anchor="middle" fill="#e2e8f0" font-size="10">R3.2.1以前に全額納付 → 利子税不発生</text>

  <!-- ============================================ -->
  <!-- SECTION 3: 法定納期限の条文連鎖 -->
  <!-- ============================================ -->
  <text x="700" y="1130" text-anchor="middle" fill="#f8fafc" font-size="20" font-weight="bold">第2層 ─「法定納期限」の条文連鎖</text>
  <text x="700" y="1153" text-anchor="middle" fill="#94a3b8" font-size="13">徴収権の消滅時効の起算日。通則法2条8号 → 法人税法77条 → 75条の2 の三段参照。</text>

  <!-- Chain boxes -->
  <rect x="80" y="1170" width="350" height="100" rx="10" fill="#1e293b" stroke="#3b82f6" stroke-width="1.5" filter="url(#shadow)"/>
  <text x="255" y="1195" text-anchor="middle" fill="#93c5fd" font-size="13" font-weight="bold">通則法2条8号</text>
  <text x="100" y="1215" fill="#e2e8f0" font-size="11">「法定納期限」とは、</text>
  <text x="100" y="1233" fill="#fbbf24" font-size="11" font-weight="bold">国税に関する法律の規定により</text>
  <text x="100" y="1251" fill="#fbbf24" font-size="11" font-weight="bold">国税を納付すべき期限</text>
  <text x="271" y="1251" fill="#e2e8f0" font-size="11">をいう</text>

  <line x1="430" y1="1220" x2="500" y2="1220" stroke="#3b82f6" stroke-width="2" marker-end="url(#arrowBlue)"/>
  <text x="465" y="1212" text-anchor="middle" fill="#93c5fd" font-size="10">参照</text>

  <rect x="510" y="1170" width="350" height="100" rx="10" fill="#1e293b" stroke="#3b82f6" stroke-width="1.5" filter="url(#shadow)"/>
  <text x="685" y="1195" text-anchor="middle" fill="#93c5fd" font-size="13" font-weight="bold">法人税法77条</text>
  <text x="530" y="1215" fill="#e2e8f0" font-size="11">「第74条第1項の規定による申告書を提出</text>
  <text x="530" y="1233" fill="#e2e8f0" font-size="11">した内国法人は、</text>
  <text x="530" y="1251" fill="#fbbf24" font-size="11" font-weight="bold">当該申告書の提出期限までに</text>
  <text x="766" y="1251" fill="#e2e8f0" font-size="11">…納付」</text>

  <line x1="860" y1="1220" x2="930" y2="1220" stroke="#3b82f6" stroke-width="2" marker-end="url(#arrowBlue)"/>
  <text x="895" y="1212" text-anchor="middle" fill="#93c5fd" font-size="10">延長</text>

  <rect x="940" y="1170" width="380" height="100" rx="10" fill="#1e293b" stroke="#3b82f6" stroke-width="2.5" filter="url(#shadow)"/>
  <text x="1130" y="1195" text-anchor="middle" fill="#93c5fd" font-size="13" font-weight="bold">法人税法75条の2第1項で提出期限延長</text>
  <text x="960" y="1218" fill="#e2e8f0" font-size="11">↓ 77条の「提出期限」が延長後の期限に</text>
  <text x="960" y="1238" fill="#e2e8f0" font-size="11">↓ 通則法2条8号の「納付すべき期限」も連動</text>
  <text x="1130" y="1262" text-anchor="middle" fill="#3b82f6" font-size="14" font-weight="bold">法定納期限 = R3.3.1</text>

  <!-- 通達の裏付け -->
  <rect x="300" y="1285" width="800" height="50" rx="8" fill="#172554" stroke="#3b82f6" stroke-width="1.5" opacity="0.8"/>
  <text x="700" y="1307" text-anchor="middle" fill="#93c5fd" font-size="12" font-weight="bold">国税徴収法基本通達 第2条関係14項(2)</text>
  <text x="700" y="1325" text-anchor="middle" fill="#e2e8f0" font-size="11">「法人税法第75条の2第1項…の規定により確定申告書の提出期限が延長された場合には、その延長された期限が法定納期限となる」</text>

  <!-- ============================================ -->
  <!-- SECTION 4: 制度比較表 -->
  <!-- ============================================ -->
  <text x="700" y="1380" text-anchor="middle" fill="#f8fafc" font-size="20" font-weight="bold">第3層 ─ 3制度の制度比較</text>

  <!-- Table Header -->
  <rect x="80" y="1400" width="240" height="40" rx="6" fill="#334155"/>
  <rect x="320" y="1400" width="340" height="40" rx="6" fill="#7f1d1d"/>
  <rect x="660" y="1400" width="340" height="40" rx="6" fill="#1e3a5f"/>
  <rect x="1000" y="1400" width="320" height="40" rx="6" fill="#064e3b"/>
  <text x="200" y="1425" text-anchor="middle" fill="#e2e8f0" font-size="13" font-weight="bold">比較項目</text>
  <text x="490" y="1425" text-anchor="middle" fill="#fca5a5" font-size="13" font-weight="bold">課税権（除斥期間）</text>
  <text x="830" y="1425" text-anchor="middle" fill="#93c5fd" font-size="13" font-weight="bold">徴収権（消滅時効）</text>
  <text x="1160" y="1425" text-anchor="middle" fill="#6ee7b7" font-size="13" font-weight="bold">利子税</text>

  <!-- Row 1 -->
  <rect x="80" y="1440" width="240" height="45" fill="#1e293b" stroke="#334155" stroke-width="0.5"/>
  <rect x="320" y="1440" width="340" height="45" fill="#1e293b" stroke="#334155" stroke-width="0.5"/>
  <rect x="660" y="1440" width="340" height="45" fill="#1e293b" stroke="#334155" stroke-width="0.5"/>
  <rect x="1000" y="1440" width="320" height="45" fill="#1e293b" stroke="#334155" stroke-width="0.5"/>
  <text x="200" y="1467" text-anchor="middle" fill="#94a3b8" font-size="12">対象</text>
  <text x="490" y="1467" text-anchor="middle" fill="#e2e8f0" font-size="12">更正・決定する権限</text>
  <text x="830" y="1467" text-anchor="middle" fill="#e2e8f0" font-size="12">確定した税額を徴収する権限</text>
  <text x="1160" y="1467" text-anchor="middle" fill="#e2e8f0" font-size="12">延長期間の利息</text>

  <!-- Row 2 -->
  <rect x="80" y="1485" width="240" height="45" fill="#0f172a" stroke="#334155" stroke-width="0.5"/>
  <rect x="320" y="1485" width="340" height="45" fill="#0f172a" stroke="#334155" stroke-width="0.5"/>
  <rect x="660" y="1485" width="340" height="45" fill="#0f172a" stroke="#334155" stroke-width="0.5"/>
  <rect x="1000" y="1485" width="320" height="45" fill="#0f172a" stroke="#334155" stroke-width="0.5"/>
  <text x="200" y="1512" text-anchor="middle" fill="#94a3b8" font-size="12">根拠条文</text>
  <text x="490" y="1512" text-anchor="middle" fill="#e2e8f0" font-size="12">通則法70条</text>
  <text x="830" y="1512" text-anchor="middle" fill="#e2e8f0" font-size="12">通則法72条・73条</text>
  <text x="1160" y="1512" text-anchor="middle" fill="#e2e8f0" font-size="12">通則法64条・法法75条7項</text>

  <!-- Row 3 -->
  <rect x="80" y="1530" width="240" height="45" fill="#1e293b" stroke="#334155" stroke-width="0.5"/>
  <rect x="320" y="1530" width="340" height="45" fill="#1e293b" stroke="#334155" stroke-width="0.5"/>
  <rect x="660" y="1530" width="340" height="45" fill="#1e293b" stroke="#334155" stroke-width="0.5"/>
  <rect x="1000" y="1530" width="320" height="45" fill="#1e293b" stroke="#334155" stroke-width="0.5"/>
  <text x="200" y="1557" text-anchor="middle" fill="#94a3b8" font-size="12">起算日</text>
  <text x="490" y="1557" text-anchor="middle" fill="#fbbf24" font-size="13" font-weight="bold">法定申告期限（R3.3.1）</text>
  <text x="830" y="1557" text-anchor="middle" fill="#fbbf24" font-size="13" font-weight="bold">法定納期限（R3.3.1）</text>
  <text x="1160" y="1557" text-anchor="middle" fill="#e2e8f0" font-size="12">2月経過日（R3.2.1）～延長日</text>

  <!-- Row 4 -->
  <rect x="80" y="1575" width="240" height="45" fill="#0f172a" stroke="#334155" stroke-width="0.5"/>
  <rect x="320" y="1575" width="340" height="45" fill="#0f172a" stroke="#334155" stroke-width="0.5"/>
  <rect x="660" y="1575" width="340" height="45" fill="#0f172a" stroke="#334155" stroke-width="0.5"/>
  <rect x="1000" y="1575" width="320" height="45" fill="#0f172a" stroke="#334155" stroke-width="0.5"/>
  <text x="200" y="1602" text-anchor="middle" fill="#94a3b8" font-size="12">期間</text>
  <text x="490" y="1602" text-anchor="middle" fill="#e2e8f0" font-size="12">5年 / 7年 / 10年</text>
  <text x="830" y="1602" text-anchor="middle" fill="#e2e8f0" font-size="12">5年</text>
  <text x="1160" y="1602" text-anchor="middle" fill="#e2e8f0" font-size="12">28日間（本件）</text>

  <!-- Row 5 (KEY) -->
  <rect x="80" y="1620" width="240" height="55" fill="#1e293b" stroke="#334155" stroke-width="0.5"/>
  <rect x="320" y="1620" width="340" height="55" fill="#450a0a" stroke="#ef4444" stroke-width="1.5"/>
  <rect x="660" y="1620" width="340" height="55" fill="#172554" stroke="#3b82f6" stroke-width="1.5"/>
  <rect x="1000" y="1620" width="320" height="55" fill="#052e16" stroke="#10b981" stroke-width="1.5"/>
  <text x="200" y="1645" text-anchor="middle" fill="#fbbf24" font-size="13" font-weight="bold">中断（更新）</text>
  <text x="200" y="1663" text-anchor="middle" fill="#94a3b8" font-size="10">最重要の違い</text>
  <text x="490" y="1652" text-anchor="middle" fill="#ef4444" font-size="16" font-weight="bold">不可（絶対的）</text>
  <text x="830" y="1652" text-anchor="middle" fill="#3b82f6" font-size="16" font-weight="bold">可（何度でもリセット）</text>
  <text x="1160" y="1652" text-anchor="middle" fill="#10b981" font-size="14" font-weight="bold">─（該当なし）</text>

  <!-- Row 6 -->
  <rect x="80" y="1675" width="240" height="45" fill="#0f172a" stroke="#334155" stroke-width="0.5"/>
  <rect x="320" y="1675" width="340" height="45" fill="#0f172a" stroke="#334155" stroke-width="0.5"/>
  <rect x="660" y="1675" width="340" height="45" fill="#0f172a" stroke="#334155" stroke-width="0.5"/>
  <rect x="1000" y="1675" width="320" height="45" fill="#0f172a" stroke="#334155" stroke-width="0.5"/>
  <text x="200" y="1702" text-anchor="middle" fill="#94a3b8" font-size="12">損金算入</text>
  <text x="490" y="1702" text-anchor="middle" fill="#94a3b8" font-size="12">─</text>
  <text x="830" y="1702" text-anchor="middle" fill="#94a3b8" font-size="12">─</text>
  <text x="1160" y="1702" text-anchor="middle" fill="#10b981" font-size="13" font-weight="bold">可（法法38①三）</text>

  <!-- Row 7 -->
  <rect x="80" y="1720" width="240" height="45" fill="#1e293b" stroke="#334155" stroke-width="0.5"/>
  <rect x="320" y="1720" width="340" height="45" fill="#1e293b" stroke="#334155" stroke-width="0.5"/>
  <rect x="660" y="1720" width="340" height="45" fill="#1e293b" stroke="#334155" stroke-width="0.5"/>
  <rect x="1000" y="1720" width="320" height="45" fill="#1e293b" stroke="#334155" stroke-width="0.5"/>
  <text x="200" y="1747" text-anchor="middle" fill="#94a3b8" font-size="12">本件の期限</text>
  <text x="490" y="1747" text-anchor="middle" fill="#ef4444" font-size="13" font-weight="bold">R8.3.1 / R10.3.1 / R13.3.1</text>
  <text x="830" y="1747" text-anchor="middle" fill="#3b82f6" font-size="13" font-weight="bold">R8.3.1（中断なしの場合）</text>
  <text x="1160" y="1747" text-anchor="middle" fill="#10b981" font-size="13" font-weight="bold">年1.0%×28日</text>

  <!-- ============================================ -->
  <!-- SECTION 5: TIMELINE -->
  <!-- ============================================ -->
  <text x="700" y="1820" text-anchor="middle" fill="#f8fafc" font-size="20" font-weight="bold">第4層 ─ 時系列タイムライン</text>

  <!-- Timeline base line -->
  <line x1="100" y1="1880" x2="1300" y2="1880" stroke="#475569" stroke-width="3"/>

  <!-- Event 1: R2.11.30 -->
  <circle cx="150" cy="1880" r="8" fill="#f59e0b" stroke="#fbbf24" stroke-width="2"/>
  <line x1="150" y1="1888" x2="150" y2="1925" stroke="#f59e0b" stroke-width="1.5"/>
  <rect x="60" y="1925" width="180" height="80" rx="8" fill="#1e293b" stroke="#f59e0b" stroke-width="1.5"/>
  <text x="150" y="1948" text-anchor="middle" fill="#fbbf24" font-size="12" font-weight="bold">R2.11.30</text>
  <text x="150" y="1967" text-anchor="middle" fill="#e2e8f0" font-size="11">納税義務成立</text>
  <text x="150" y="1985" text-anchor="middle" fill="#94a3b8" font-size="10">通則法15②三</text>
  <text x="150" y="1998" text-anchor="middle" fill="#94a3b8" font-size="10">「事業年度の終了の時」</text>

  <!-- Event 2: R3.2.1 -->
  <circle cx="350" cy="1880" r="8" fill="#64748b" stroke="#94a3b8" stroke-width="2"/>
  <line x1="350" y1="1872" x2="350" y2="1835" stroke="#64748b" stroke-width="1.5"/>
  <rect x="260" y="1760" width="180" height="75" rx="8" fill="#1e293b" stroke="#64748b" stroke-width="1.5"/>
  <text x="350" y="1783" text-anchor="middle" fill="#94a3b8" font-size="12" font-weight="bold">R3.2.1（月）</text>
  <text x="350" y="1800" text-anchor="middle" fill="#e2e8f0" font-size="11">原則的申告期限</text>
  <text x="350" y="1816" text-anchor="middle" fill="#10b981" font-size="11">利子税計算開始日</text>
  <text x="350" y="1830" text-anchor="middle" fill="#94a3b8" font-size="10">法法74①+通則法10②</text>

  <!-- Event 3: R3.3.1 (KEY) -->
  <circle cx="500" cy="1880" r="12" fill="#fbbf24" stroke="#f59e0b" stroke-width="3" filter="url(#glow)"/>
  <line x1="500" y1="1892" x2="500" y2="1925" stroke="#fbbf24" stroke-width="2"/>
  <rect x="390" y="1925" width="220" height="100" rx="8" fill="#1e293b" stroke="#fbbf24" stroke-width="2.5"/>
  <text x="500" y="1948" text-anchor="middle" fill="#fbbf24" font-size="13" font-weight="bold">R3.3.1（月）★</text>
  <text x="500" y="1967" text-anchor="middle" fill="#fbbf24" font-size="12" font-weight="bold">法定申告期限</text>
  <text x="500" y="1984" text-anchor="middle" fill="#fbbf24" font-size="12" font-weight="bold">法定納期限</text>
  <text x="500" y="2001" text-anchor="middle" fill="#e2e8f0" font-size="10">除斥期間・消滅時効の起算点</text>
  <text x="500" y="2017" text-anchor="middle" fill="#94a3b8" font-size="10">法法75の2①+通則法2⑦⑧</text>

  <!-- Bracket for interest tax period -->
  <line x1="350" y1="1860" x2="350" y2="1855" stroke="#10b981" stroke-width="1.5"/>
  <line x1="350" y1="1855" x2="500" y2="1855" stroke="#10b981" stroke-width="1.5"/>
  <line x1="500" y1="1860" x2="500" y2="1855" stroke="#10b981" stroke-width="1.5"/>
  <text x="425" y="1850" text-anchor="middle" fill="#10b981" font-size="10" font-weight="bold">利子税計算期間（28日）</text>

  <!-- Event 4: R8.3.1 -->
  <circle cx="800" cy="1880" r="10" fill="#ef4444" stroke="#fca5a5" stroke-width="2" filter="url(#glow)"/>
  <line x1="800" y1="1870" x2="800" y2="1835" stroke="#ef4444" stroke-width="1.5"/>
  <rect x="690" y="1760" width="220" height="75" rx="8" fill="#1e293b" stroke="#ef4444" stroke-width="2"/>
  <text x="800" y="1783" text-anchor="middle" fill="#ef4444" font-size="13" font-weight="bold">R8.3.1（2026年）</text>
  <text x="800" y="1800" text-anchor="middle" fill="#fca5a5" font-size="12" font-weight="bold">5年の除斥期間満了</text>
  <text x="800" y="1816" text-anchor="middle" fill="#93c5fd" font-size="11">消滅時効完成（中断なし）</text>
  <text x="800" y="1830" text-anchor="middle" fill="#94a3b8" font-size="10">通則法70①一・72①</text>

  <!-- Event 5: R10.3.1 -->
  <circle cx="1020" cy="1880" r="8" fill="#f97316" stroke="#fdba74" stroke-width="2"/>
  <line x1="1020" y1="1888" x2="1020" y2="1925" stroke="#f97316" stroke-width="1.5"/>
  <rect x="920" y="1925" width="200" height="75" rx="8" fill="#1e293b" stroke="#f97316" stroke-width="1.5"/>
  <text x="1020" y="1948" text-anchor="middle" fill="#f97316" font-size="13" font-weight="bold">R10.3.1（2028年）</text>
  <text x="1020" y="1967" text-anchor="middle" fill="#fdba74" font-size="12" font-weight="bold">7年の除斥期間満了</text>
  <text x="1020" y="1984" text-anchor="middle" fill="#e2e8f0" font-size="11">（不正行為の場合）</text>
  <text x="1020" y="1997" text-anchor="middle" fill="#94a3b8" font-size="10">通則法70⑤一</text>

  <!-- Event 6: R13.3.1 -->
  <circle cx="1220" cy="1880" r="8" fill="#a855f7" stroke="#c4b5fd" stroke-width="2"/>
  <line x1="1220" y1="1870" x2="1220" y2="1835" stroke="#a855f7" stroke-width="1.5"/>
  <rect x="1120" y="1760" width="200" height="75" rx="8" fill="#1e293b" stroke="#a855f7" stroke-width="1.5"/>
  <text x="1220" y="1783" text-anchor="middle" fill="#a855f7" font-size="13" font-weight="bold">R13.3.1（2031年）</text>
  <text x="1220" y="1800" text-anchor="middle" fill="#c4b5fd" font-size="12" font-weight="bold">10年の除斥期間満了</text>
  <text x="1220" y="1816" text-anchor="middle" fill="#e2e8f0" font-size="11">（純損失等の金額）</text>
  <text x="1220" y="1830" text-anchor="middle" fill="#94a3b8" font-size="10">通則法70②</text>

  <!-- Period bars -->
  <rect x="500" y="2040" width="300" height="18" rx="4" fill="#ef4444" opacity="0.4"/>
  <text x="650" y="2053" text-anchor="middle" fill="#fca5a5" font-size="10" font-weight="bold">通常の除斥期間（5年）</text>
  <rect x="500" y="2062" width="520" height="18" rx="4" fill="#f97316" opacity="0.3"/>
  <text x="760" y="2075" text-anchor="middle" fill="#fdba74" font-size="10" font-weight="bold">不正の場合の除斥期間（7年）</text>
  <rect x="500" y="2084" width="720" height="18" rx="4" fill="#a855f7" opacity="0.25"/>
  <text x="860" y="2097" text-anchor="middle" fill="#c4b5fd" font-size="10" font-weight="bold">純損失等の除斥期間（10年）</text>
  <rect x="500" y="2106" width="300" height="18" rx="4" fill="#3b82f6" opacity="0.3"/>
  <text x="650" y="2119" text-anchor="middle" fill="#93c5fd" font-size="10" font-weight="bold">徴収権の消滅時効（5年・中断なし）</text>

  <!-- ============================================ -->
  <!-- SECTION 6: 利子税 vs 延滞税 -->
  <!-- ============================================ -->
  <text x="700" y="2175" text-anchor="middle" fill="#f8fafc" font-size="20" font-weight="bold">第5層 ─ 利子税と延滞税の対比（附帯税の体系）</text>

  <rect x="80" y="2195" width="600" height="45" rx="6" fill="#1e293b" stroke="#334155" stroke-width="1"/>
  <text x="380" y="2223" text-anchor="middle" fill="#e2e8f0" font-size="12">通則法2条4号「附帯税とは…延滞税、利子税、過少申告加算税、無申告加算税、不納付加算税及び重加算税をいう」</text>

  <!-- 利子税 box -->
  <rect x="80" y="2250" width="600" height="210" rx="12" fill="#1e293b" stroke="#10b981" stroke-width="2" filter="url(#shadow)"/>
  <rect x="80" y="2250" width="600" height="35" rx="12" fill="#10b981" opacity="0.15"/>
  <text x="380" y="2274" text-anchor="middle" fill="#6ee7b7" font-size="15" font-weight="bold">利子税（通則法64条）</text>

  <text x="100" y="2302" fill="#fbbf24" font-size="12" font-weight="bold">■ 性格</text>
  <text x="175" y="2302" fill="#e2e8f0" font-size="12">適法な延長期間の「利息」（期限の利益の対価）</text>
  <text x="100" y="2324" fill="#fbbf24" font-size="12" font-weight="bold">■ 前提</text>
  <text x="175" y="2324" fill="#e2e8f0" font-size="12">納税者の義務違反なし（制度利用は合法）</text>
  <text x="100" y="2346" fill="#fbbf24" font-size="12" font-weight="bold">■ R3年税率</text>
  <text x="200" y="2346" fill="#10b981" font-size="13" font-weight="bold">年1.0％</text>
  <text x="280" y="2346" fill="#94a3b8" font-size="11">（租特法93条 利子税特例基準割合）</text>
  <text x="100" y="2368" fill="#fbbf24" font-size="12" font-weight="bold">■ 損金算入</text>
  <text x="210" y="2368" fill="#10b981" font-size="13" font-weight="bold">できる</text>
  <text x="268" y="2368" fill="#94a3b8" font-size="11">（法人税法38条1項3号で明文除外）</text>
  <text x="100" y="2390" fill="#fbbf24" font-size="12" font-weight="bold">■ 二重課税排除</text>
  <text x="250" y="2390" fill="#e2e8f0" font-size="12">利子税期間は延滞税の計算期間から除外（通則法64②）</text>
  <text x="100" y="2416" fill="#fbbf24" font-size="12" font-weight="bold">■ 附帯税6種のうち</text>
  <text x="272" y="2416" fill="#10b981" font-size="13" font-weight="bold">唯一の非制裁的附帯税</text>
  <text x="100" y="2440" fill="#fbbf24" font-size="12" font-weight="bold">■ 回避方法</text>
  <text x="210" y="2440" fill="#10b981" font-size="13" font-weight="bold">見込納付</text>
  <text x="295" y="2440" fill="#e2e8f0" font-size="12">で利子税ゼロ化が可能</text>

  <!-- 延滞税 box -->
  <rect x="720" y="2250" width="600" height="210" rx="12" fill="#1e293b" stroke="#ef4444" stroke-width="2" filter="url(#shadow)"/>
  <rect x="720" y="2250" width="600" height="35" rx="12" fill="#ef4444" opacity="0.15"/>
  <text x="1020" y="2274" text-anchor="middle" fill="#fca5a5" font-size="15" font-weight="bold">延滞税（通則法60条）</text>

  <text x="740" y="2302" fill="#fbbf24" font-size="12" font-weight="bold">■ 性格</text>
  <text x="815" y="2302" fill="#e2e8f0" font-size="12">法定納期限超過の「遅延損害金」（制裁的）</text>
  <text x="740" y="2324" fill="#fbbf24" font-size="12" font-weight="bold">■ 前提</text>
  <text x="815" y="2324" fill="#e2e8f0" font-size="12">納税者の義務違反あり（納期限を徒過）</text>
  <text x="740" y="2346" fill="#fbbf24" font-size="12" font-weight="bold">■ R3年税率</text>
  <text x="860" y="2346" fill="#ef4444" font-size="13" font-weight="bold">2月以内：年2.5％ / 2月超：年8.8％</text>
  <text x="740" y="2368" fill="#fbbf24" font-size="12" font-weight="bold">■ 損金算入</text>
  <text x="850" y="2368" fill="#ef4444" font-size="13" font-weight="bold">できない</text>
  <text x="925" y="2368" fill="#94a3b8" font-size="11">（法人税法55条4項1号で損金不算入）</text>
  <text x="740" y="2390" fill="#fbbf24" font-size="12" font-weight="bold">■ 帰責性</text>
  <text x="830" y="2390" fill="#e2e8f0" font-size="12">あり（納期限を守らなかった帰責性が前提）</text>
  <text x="740" y="2416" fill="#fbbf24" font-size="12" font-weight="bold">■ 制裁目的</text>
  <text x="850" y="2416" fill="#ef4444" font-size="13" font-weight="bold">制裁的附帯税</text>
  <text x="960" y="2416" fill="#e2e8f0" font-size="12">（各種加算税と同系統）</text>

  <!-- VS marker -->
  <rect x="665" y="2330" width="70" height="35" rx="17" fill="#f59e0b" opacity="0.2" stroke="#f59e0b" stroke-width="1.5"/>
  <text x="700" y="2353" text-anchor="middle" fill="#fbbf24" font-size="15" font-weight="bold">VS</text>

  <!-- ============================================ -->
  <!-- SECTION 7: CONCLUSION -->
  <!-- ============================================ -->
  <rect x="100" y="2500" width="1200" height="260" rx="16" fill="#0f172a" stroke="url(#titleGrad)" stroke-width="2.5" filter="url(#shadow)"/>
  <rect x="100" y="2500" width="1200" height="45" rx="16" fill="url(#titleGrad)" opacity="0.15"/>
  <text x="700" y="2530" text-anchor="middle" fill="#f8fafc" font-size="18" font-weight="bold">結論 ─ 本件の回答</text>

  <!-- Answer 1 -->
  <rect x="130" y="2555" width="550" height="85" rx="10" fill="#1e293b" stroke="#ef4444" stroke-width="2"/>
  <text x="405" y="2580" text-anchor="middle" fill="#fca5a5" font-size="14" font-weight="bold">更正の期限（除斥期間の満了日）</text>
  <text x="150" y="2605" fill="#e2e8f0" font-size="13">通常の更正：</text>
  <text x="268" y="2605" fill="#fbbf24" font-size="15" font-weight="bold">令和8年（2026年）3月1日</text>
  <text x="150" y="2627" fill="#e2e8f0" font-size="12">不正行為の場合：令和10年3月1日 / 純損失等：令和13年3月1日</text>

  <!-- Answer 2 -->
  <rect x="720" y="2555" width="550" height="85" rx="10" fill="#1e293b" stroke="#f59e0b" stroke-width="2"/>
  <text x="995" y="2580" text-anchor="middle" fill="#fbbf24" font-size="14" font-weight="bold">納税義務</text>
  <text x="740" y="2605" fill="#fbbf24" font-size="14" font-weight="bold">R2.11.30に成立</text>
  <text x="910" y="2605" fill="#e2e8f0" font-size="12">（通則法15②三「事業年度の終了の時」）</text>
  <text x="740" y="2627" fill="#e2e8f0" font-size="12">課税所得があれば法人税の納付義務が発生する</text>

  <!-- Key insight -->
  <rect x="130" y="2655" width="1140" height="90" rx="10" fill="#172554" stroke="#3b82f6" stroke-width="1.5"/>
  <text x="700" y="2680" text-anchor="middle" fill="#93c5fd" font-size="14" font-weight="bold">3制度の核心的な違い</text>
  <text x="180" y="2705" fill="#ef4444" font-size="13" font-weight="bold">● 課税権（除斥期間）＝ 絶対的な壁</text>
  <text x="540" y="2705" fill="#e2e8f0" font-size="12">中断不可。期間経過で追加課税は永久に不可能。</text>
  <text x="180" y="2725" fill="#3b82f6" font-size="13" font-weight="bold">● 徴収権（消滅時効）＝ リセット可能</text>
  <text x="540" y="2725" fill="#e2e8f0" font-size="12">督促・差押え等で何度でも更新。実務上の完成は極めて稀。</text>
  <text x="180" y="2745" fill="#10b981" font-size="13" font-weight="bold">● 利子税 ＝ 期限の利益に対する利息</text>
  <text x="540" y="2745" fill="#e2e8f0" font-size="12">唯一の非制裁的附帯税。損金算入可。見込納付で回避可能。年1.0%（R3年）。</text>

  <!-- Footer -->
  <text x="700" y="2790" text-anchor="middle" fill="#475569" font-size="10">条文引用：国税通則法2④⑦⑧・10①②・15①②三・16①・23①・24・25・35②・60・64①②・70①②③⑤・71①・72①②③・73①③④ / 法人税法38①三・55④一・74①・75①⑦・75の2①③⑧⑩・77 / 租特法93①②</text>
</svg>

