<svg xmlns="http://www.w3.org/2000/svg" xmlns:xlink="http://www.w3.org/1999/xlink" xmlns:inkscape="http://www.inkscape.org/namespaces/inkscape" version="1.1" width="595" height="842" viewBox="0 0 595 842">
<text xml:space="preserve" transform="matrix(.99950036 0 -0 1.0004999 0 842)" font-size="7.5037496" font-family="MS"><tspan y="-359.30244" x="284.66224">&#x5186;</tspan><tspan y="-739.75228" x="48.024">&#x7559;</tspan><tspan y="-719.25906" x="48.024">&#x4fdd;</tspan><tspan y="-698.88589" x="48.024">&#x91d1;</tspan><tspan y="-678.5127" x="48.024">&#x52a0;</tspan><tspan y="-658.1395" x="48.024">&#x7b97;</tspan><tspan y="-637.6463" x="48.024">&#x984d;</tspan><tspan y="-617.2731" x="48.024">&#x306e;</tspan><tspan y="-596.77987" x="48.024">&#x8a08;</tspan><tspan y="-576.16757" x="48.024">&#x7b97;</tspan><tspan y="-657.9531" x="473.75675 308.55418 320.2 331.84587 343.4917 355.1375 366.78337 378.4292 390.075 401.72087 413.3667 425.0125 436.65837 448.3042 459.82997">8&#x901a;&#x7b97;&#x6cd5;&#x4eba;&#x9593;&#x914d;&#x5f53;&#x7b49;&#x306e;&#x5f53;&#x671f;&#x53d7;&#x53d6;&#x984d;</tspan><tspan y="-787.3685" x="403.6417 411.32554 419.0084">&#x6cd5;&#x4eba;&#x540d;</tspan><tspan y="-579.2725" x="471.59565 475.43656">10</tspan><tspan y="-751.5064" x="533.4265">&#x5186;</tspan><tspan y="-736.63388" x="224.7523">1</tspan></text>
<text xml:space="preserve" transform="matrix(.9995004 0 -0 1.0005 0 842)" font-size="9.404698" font-family="MS"><tspan y="-797.4433" x="46.583276 56.188074 65.79287 75.39767 85.002468 94.60726 104.21206 113.81686 123.42165 133.02645 142.63126 152.23606 161.84087 171.44567 181.05048 190.65528 200.26009 209.86489 219.4697 229.0745 238.6793 248.2841 257.88893 267.4937 277.09843">&#x901a;&#x7b97;&#x6cd5;&#x4eba;&#x306e;&#x7559;&#x4fdd;&#x91d1;&#x984d;&#x53c8;&#x306f;&#x6240;&#x5f97;&#x57fa;&#x6e96;&#x984d;&#x306e;&#x8abf;&#x6574;&#x8a08;&#x7b97;&#x306b;&#x95a2;&#x3059;&#x308b;</tspan><tspan y="-786.88858" x="46.583276 56.188074 65.79287">&#x660e;&#x7d30;&#x66f8;</tspan></text>
<text xml:space="preserve" transform="matrix(.99950036 0 -0 1.0004999 0 842)" font-size="7.5037496" font-family="MS"><tspan y="-763.62039" x="78.038997 104.57226 131.10553 157.6388 184.17205 210.7053 237.23857 263.77183 290.30509 316.83833 343.25154 369.78477 396.19798 422.7312 449.1444 475.67765 502.09086">&#x7559;&#x4fdd;&#x91d1;&#x52a0;&#x7b97;&#x984d;&#x53ca;&#x3073;&#x7559;&#x4fdd;&#x91d1;&#x63a7;&#x9664;&#x984d;&#x306e;&#x8a08;&#x7b97;</tspan><tspan y="-791.6863" x="301.11048 308.79328 312.6342">&#x4e8b; &#x696d;</tspan><tspan y="-783.05068" x="301.11048 308.79328 312.6342">&#x5e74; &#x5ea6;</tspan><tspan y="-791.6863" x="349.13447 356.8183 364.50215 372.18598">&#x30fb;&#x3000;&#x3000;&#x30fb;</tspan><tspan y="-783.05068" x="349.13447 356.8183 364.50215 372.18598">&#x30fb;&#x3000;&#x3000;&#x30fb;</tspan><tspan y="-618.6128" x="473.51664">9</tspan><tspan y="-197.74317" x="46.34316 66.99348 87.522739 108.17305 128.70232 149.35263 169.8819 190.53221 211.06147">&#x7d14;&#x901a;&#x7b97;&#x5185;&#x914d;&#x5f53;&#x7b49;&#x306e;&#x984d;</tspan></text>
<text fill="#ffffff" xml:space="preserve" transform="matrix(.99950036 0 -0 1.0004999 0 842)" font-size="7.5037496" font-family="MS"><tspan y="-185.14946" x="46.34316 54.38718 62.4312 70.47522 78.51924 86.56326 90.76536 98.80938 106.8534">&#x25cf;&#x25cf;&#x25cf;&#x25cf;&#x25cf;a&#x25cf;&#x25cf;&#x25cf;</tspan></text>
<text xml:space="preserve" transform="matrix(.99950036 0 -0 1.0004999 0 842)" font-size="7.5037496" font-family="MS"><tspan y="-185.14946" x="114.89742 118.739337 122.58026 126.78236 134.82637 138.66829 142.51021 146.35214">(4)&#xff0d;(18)</tspan></text>
<text fill="#ffffff" xml:space="preserve" transform="matrix(.99950036 0 -0 1.0004999 0 842)" font-size="7.5037496" font-family="MS"><tspan y="-185.14946" x="150.55425 158.59825 166.64226 174.68628 178.88837 186.93239 194.9764 203.02042 211.06443">&#x25cf;&#x25cf;&#x25cf;a&#x25cf;&#x25cf;&#x25cf;&#x25cf;&#x25cf;</tspan><tspan y="-176.51378" x="46.34316 54.507238 62.671319 66.99348 75.157558 83.32163">&#x25cf;&#x25cf;a&#x25cf;&#x25cf;&#x25cf;</tspan></text>
<text xml:space="preserve" transform="matrix(.99950036 0 -0 1.0004999 0 842)" font-size="7.5037496" font-family="MS"><tspan y="-176.51378" x="91.48572 95.80788 103.971958 112.13604 120.30012 128.4642 136.62828 144.79238 152.95645 161.2406 169.40468">(&#x30de;&#x30a4;&#x30ca;&#x30b9;&#x306e;&#x5834;&#x5408;&#x306f;&#xff10;)</tspan></text>
<text fill="#ffffff" xml:space="preserve" transform="matrix(.99950036 0 -0 1.0004999 0 842)" font-size="7.5037496" font-family="MS"><tspan y="-176.51378" x="173.72684 182.01099 186.4522 194.61629 202.90042 211.0645">&#x25cf;a&#x25cf;&#x25cf;&#x25cf;&#x25cf;</tspan></text>
<text xml:space="preserve" transform="matrix(.99950036 0 -0 1.0004999 0 842)" font-size="7.5037496" font-family="MS"><tspan y="-187.18845" x="222.83136 226.67227">22</tspan><tspan y="-226.52878" x="222.83136 226.67227">21</tspan><tspan y="-359.30244" x="533.4265">&#x5186;</tspan><tspan y="-272.10603" x="46.34316 62.791379 79.2396 95.68782 112.13605 128.58426 145.03249 161.60076 178.04898 194.61727 211.06548">&#x8abf;&#x6574;&#x901a;&#x7b97;&#x5916;&#x914d;&#x5f53;&#x7b49;&#x6d41;&#x51fa;&#x984d;</tspan></text>
<text fill="#ffffff" xml:space="preserve" transform="matrix(.99950036 0 -0 1.0004999 0 842)" font-size="7.5037496" font-family="MS"><tspan y="-259.5123" x="46.34316 54.38718 62.4312 70.47522">&#x25cf;&#x25cf;&#x25cf;&#x25cf;</tspan></text>
<text xml:space="preserve" transform="matrix(.99950036 0 -0 1.0004999 0 842)" font-size="7.5037496" font-family="MS"><tspan y="-259.5123" x="78.51924 82.36116 86.20307 90.045 94.24709 102.291118 106.13303 109.974948 113.81687 118.01897 126.06299 134.10701 142.15102 150.19504 158.23905 166.28307 174.44715 182.49115">((3)&#x3068;(19)&#x306e;&#x3046;&#x3061;&#x5c11;&#x306a;&#x3044;&#x91d1;&#x984d;)</tspan></text>
<text fill="#ffffff" xml:space="preserve" transform="matrix(.99950036 0 -0 1.0004999 0 842)" font-size="7.5037496" font-family="MS"><tspan y="-259.5123" x="186.69326 194.85733 203.02143 211.06543">&#x25cf;&#x25cf;&#x25cf;&#x25cf;</tspan></text>
<text xml:space="preserve" transform="matrix(.99950036 0 -0 1.0004999 0 842)" font-size="7.5037496" font-family="MS"><tspan y="-305.20945" x="222.83136 226.67227">19</tspan><tspan y="-315.04454" x="46.34316 62.791379 79.2396 95.68782 112.13605 128.58426 145.03249 161.60076 178.04898 194.61727 211.06548">&#x901a;&#x7b97;&#x5185;&#x914d;&#x5f53;&#x7b49;&#x53d7;&#x53d6;&#x8d85;&#x904e;&#x984d;</tspan><tspan y="-300.41188" x="115.25759 119.09951 122.94142 126.78334 130.62427 138.3071 142.14902 145.98995">(18)&#xff0d;(4)</tspan><tspan y="-291.77616" x="94.12704 97.96796 105.651798 113.33563 121.01948 128.70331 136.38715 144.07097 151.7548 159.43863 167.12252">(&#x30de;&#x30a4;&#x30ca;&#x30b9;&#x306e;&#x5834;&#x5408;&#x306f;&#xff10;)</tspan></text>
<text xml:space="preserve" transform="matrix(.99950036 0 -0 1.0004999 0 842)" font-size="7.0034997" font-family="MS"><tspan y="-236.48381" x="46.34316 54.267118 62.191076 69.99498 77.91894 85.72284 93.6468 101.4507 109.37466 117.17856 125.102519 132.90642 140.83037 148.63428 156.55823 164.36214 172.28609 180.09 188.01395 195.81786 203.7418 211.54572">&#x4ed6;&#x306e;&#x901a;&#x7b97;&#x6cd5;&#x4eba;&#x306e;&#x8abf;&#x6574;&#x901a;&#x7b97;&#x5916;&#x914d;&#x5f53;&#x7b49;&#x6d41;&#x51fa;&#x984d;&#x306e;&#x5408;&#x8a08;&#x984d;</tspan></text>
<text xml:space="preserve" transform="matrix(.99950036 0 -0 1.0004999 0 842)" font-size="7.5037496" font-family="MS"><tspan y="-221.73117" x="80.68031 84.52123 92.20507 99.888919 107.572757 115.25559 119.09651 126.77935 130.62128 134.4632 138.3051 145.98894 153.67179 157.51369 161.35462 169.03746 172.87938 176.72129 180.56322">(&#x5225;&#x8868;&#x5341;&#x516b;(&#x4e00;)&#xff62;5&#x306e;&#x8a08;&#xff63;)&#xff0d;(20)</tspan><tspan y="-192.10599" x="471.8358 475.6767">26</tspan><tspan y="-339.51234" x="471.8358 475.6767">23</tspan><tspan y="-344.42985" x="46.34316 59.06952 71.79588 84.402179 97.12854 109.73483 122.4612 135.06749 147.79386 160.40016 173.12653 185.73284 198.45919 211.06549 222.83138 226.67229">&#x901a;&#x7b97;&#x5185;&#x914d;&#x5f53;&#x7b49;&#x306e;&#x984d;&#x306e;&#x5f53;&#x671f;&#x53d7;&#x53d6;&#x984d;18</tspan><tspan y="-241.2814" x="471.8358 475.6767">25</tspan><tspan y="-261.0715" x="533.4265">&#x5186;</tspan><tspan y="-251.83614" x="295.10746 311.5557 328.0039 344.45213 360.90037 377.34858 393.79679 410.36509 426.8133 443.38157 459.8298">&#x901a;&#x7b97;&#x5916;&#x914d;&#x5f53;&#x7b49;&#x6d41;&#x51fa;&#x8d85;&#x904e;&#x984d;</tspan></text>
<text fill="#ffffff" xml:space="preserve" transform="matrix(.99950036 0 -0 1.0004999 0 842)" font-size="7.5037496" font-family="MS"><tspan y="-239.24243" x="295.10746 303.1515 311.19554 319.23954 327.28358 335.3276 339.52973 347.57374 355.61778">&#x25cf;&#x25cf;&#x25cf;&#x25cf;&#x25cf;a&#x25cf;&#x25cf;&#x25cf;</tspan></text>
<text xml:space="preserve" transform="matrix(.99950036 0 -0 1.0004999 0 842)" font-size="7.5037496" font-family="MS"><tspan y="-239.24243" x="363.6618 367.50373 371.34465 375.54673 383.59077 387.43269 391.2746 395.11653">(3)&#xff0d;(19)</tspan></text>
<text fill="#ffffff" xml:space="preserve" transform="matrix(.99950036 0 -0 1.0004999 0 842)" font-size="7.5037496" font-family="MS"><tspan y="-239.24243" x="399.31864 407.36265 415.40669 423.4507 427.65284 435.69685 443.74089 451.7849 459.82896">&#x25cf;&#x25cf;&#x25cf;a&#x25cf;&#x25cf;&#x25cf;&#x25cf;&#x25cf;</tspan><tspan y="-230.60675" x="295.10746 303.27156 311.43565 319.5997 327.7638 332.08598">&#x25cf;&#x25cf;&#x25cf;&#x25cf;a&#x25cf;</tspan></text>
<text xml:space="preserve" transform="matrix(.99950036 0 -0 1.0004999 0 842)" font-size="7.5037496" font-family="MS"><tspan y="-230.60675" x="340.25004 344.5722 352.7363 360.9004 369.06446 377.22856 385.39265 393.5567 401.7208 410.00495 418.169">(&#x30de;&#x30a4;&#x30ca;&#x30b9;&#x306e;&#x5834;&#x5408;&#x306f;&#xff10;)</tspan></text>
<text fill="#ffffff" xml:space="preserve" transform="matrix(.99950036 0 -0 1.0004999 0 842)" font-size="7.5037496" font-family="MS"><tspan y="-230.60675" x="422.49119 430.77534 435.21656 443.3806 451.66477 459.82887">&#x25cf;a&#x25cf;&#x25cf;&#x25cf;&#x25cf;</tspan></text>
<text xml:space="preserve" transform="matrix(.99950036 0 -0 1.0004999 0 842)" font-size="7.5037496" font-family="MS"><tspan y="-198.34287" x="295.10746 311.5557 328.0039 344.45213 360.90037 377.34858 393.79679 410.36509 426.8133 443.38157 459.8298">&#x901a;&#x7b97;&#x5916;&#x914d;&#x5f53;&#x7b49;&#x6d41;&#x51fa;&#x914d;&#x8ce6;&#x984d;</tspan></text>
<text fill="#ffffff" xml:space="preserve" transform="matrix(.99950036 0 -0 1.0004999 0 842)" font-size="7.5037496" font-family="MS"><tspan y="-185.74916" x="295.10746 303.51167 311.91587 320.32005 324.88233">&#x25cf;&#x25cf;&#x25cf;a&#x25cf;</tspan></text>
<text xml:space="preserve" transform="matrix(.99950036 0 -0 1.0004999 0 842)" font-size="7.5037496" font-family="MS"><tspan y="-185.74916" x="333.16645 337.00837 340.85029 344.6922 348.53315 353.09544 361.4996 365.34153 369.18345 373.02537 376.8663 381.4286 389.83277 393.67469 397.5166 401.35853 405.9208 414.32499 418.1669 422.00883 425.85075">((20)&#xff0b;(21))&#x00d7;(24)&#xff0b;(25)</tspan></text>
<text fill="#ffffff" xml:space="preserve" transform="matrix(.99950036 0 -0 1.0004999 0 842)" font-size="7.5037496" font-family="MS"><tspan y="-185.74916" x="430.29197 438.69615 443.13737 451.54158 459.82569">&#x25cf;a&#x25cf;&#x25cf;&#x25cf;</tspan></text>
<text xml:space="preserve" transform="matrix(.99950036 0 -0 1.0004999 0 842)" font-size="7.5037496" font-family="MS"><tspan y="-290.45683" x="471.8358 475.6767">24</tspan><tspan y="-299.09254" x="295.10746 313.35658 331.72578 349.97489 368.34403 386.59315 404.9623 423.21144 441.5806 459.8297">&#x7d14;&#x901a;&#x7b97;&#x5185;&#x914d;&#x5f53;&#x7b49;&#x306e;&#x5272;&#x5408;</tspan><tspan y="-736.63388" x="473.51664">6</tspan><tspan y="-703.5304" x="59.789876 71.4357 83.08152 94.72733 106.37315 118.018978 129.6648 141.31063 152.95644 164.60227 176.24808 187.89389 199.53972 211.06548">&#x901a;&#x7b97;&#x5bfe;&#x8c61;&#x6240;&#x5f97;&#x91d1;&#x984d;&#x306e;&#x76ca;&#x91d1;&#x7b97;&#x5165;&#x984d;</tspan></text>
<text fill="#ffffff" xml:space="preserve" transform="matrix(.99950036 0 -0 1.0004999 0 842)" font-size="7.5037496" font-family="MS"><tspan y="-690.93667" x="59.789876 67.71284 75.635799 83.558757 91.48171 99.40467">&#x25cf;&#x25cf;&#x25cf;&#x25cf;&#x25cf;&#x25cf;</tspan></text>
<text xml:space="preserve" transform="matrix(.99950036 0 -0 1.0004999 0 842)" font-size="7.5037496" font-family="MS"><tspan y="-690.93667" x="107.32763 111.40967 119.33263 127.255588 135.17855 143.1015 151.02448 155.10652 158.94744 163.02948 167.11153">(&#x5225;&#x8868;&#x4e03;&#x306e;&#x4e8c;&#xff62;11&#xff63;)</tspan></text>
<text fill="#ffffff" xml:space="preserve" transform="matrix(.99950036 0 -0 1.0004999 0 842)" font-size="7.5037496" font-family="MS"><tspan y="-690.93667" x="171.19356 179.11653 187.16054 195.08351 203.12752 211.05049">&#x25cf;&#x25cf;&#x25cf;&#x25cf;&#x25cf;&#x25cf;</tspan></text>
<text xml:space="preserve" transform="matrix(.99950036 0 -0 1.0004999 0 842)" font-size="7.5037496" font-family="MS"><tspan y="-697.2935" x="224.99243">2</tspan><tspan y="-703.5304" x="308.55418 320.2 331.84587 343.4917 355.1375 366.78337 378.4292 390.075 401.72087 413.3667 425.0125 436.65837 448.3042 459.82997">&#x901a;&#x7b97;&#x5bfe;&#x8c61;&#x6b20;&#x640d;&#x91d1;&#x984d;&#x306e;&#x640d;&#x91d1;&#x7b97;&#x5165;&#x984d;</tspan></text>
<text fill="#ffffff" xml:space="preserve" transform="matrix(.99950036 0 -0 1.0004999 0 842)" font-size="7.5037496" font-family="MS"><tspan y="-690.93667" x="308.55418 316.71827 324.88236 333.04646 341.2105 349.3746">&#x25cf;&#x25cf;&#x25cf;&#x25cf;&#x25cf;&#x25cf;</tspan></text>
<text xml:space="preserve" transform="matrix(.99950036 0 -0 1.0004999 0 842)" font-size="7.5037496" font-family="MS"><tspan y="-690.93667" x="357.41865 361.74079 369.90489 377.9489 386.11299 394.157 402.3211 406.52323 410.84538 415.0475">(&#x5225;&#x8868;&#x4e03;&#x306e;&#x4e8c;&#xff62;5&#xff63;)</tspan></text>
<text fill="#ffffff" xml:space="preserve" transform="matrix(.99950036 0 -0 1.0004999 0 842)" font-size="7.5037496" font-family="MS"><tspan y="-690.93667" x="419.2496 427.4137 435.57777 443.6218 451.7859 459.82994">&#x25cf;&#x25cf;&#x25cf;&#x25cf;&#x25cf;&#x25cf;</tspan></text>
<text xml:space="preserve" transform="matrix(.99950036 0 -0 1.0004999 0 842)" font-size="7.5037496" font-family="MS"><tspan y="-697.2935" x="473.75675">7</tspan><tspan y="-747.1886" x="59.789876 67.71284 75.635799 83.558757 91.48171 99.40467 107.32763 115.25059 123.29461 131.21756 139.26158 147.18454 155.22856 163.15152 171.19554 179.1185 187.1625 195.08548 203.12949 211.05246">&#x4ed6;&#x306e;&#x901a;&#x7b97;&#x6cd5;&#x4eba;&#x306b;&#x5bfe;&#x3059;&#x308b;&#x901a;&#x7b97;&#x6cd5;&#x4eba;&#x682a;&#x5f0f;&#x306e;&#x8b72;&#x6e21;&#x640d;</tspan><tspan y="-738.55288" x="59.789876 67.71284">&#x5931;&#x984d;</tspan></text>
<text fill="#ffffff" xml:space="preserve" transform="matrix(.99950036 0 -0 1.0004999 0 842)" font-size="7.5037496" font-family="MS"><tspan y="-738.55288" x="75.635799 83.558757 91.48171 99.40467 107.32763 115.25059 123.29461 131.21756 139.26158 147.18454 155.22856 163.15152 171.19554 179.1185 187.1625 195.08548 203.12949 211.05246">&#x25cf;&#x25cf;&#x25cf;&#x25cf;&#x25cf;&#x25cf;&#x25cf;&#x25cf;&#x25cf;&#x25cf;&#x25cf;&#x25cf;&#x25cf;&#x25cf;&#x25cf;&#x25cf;&#x25cf;&#x25cf;</tspan><tspan y="-725.95919" x="59.789876 67.95396 76.11804 84.28212 92.446208 100.61029">&#x25cf;&#x25cf;&#x25cf;&#x25cf;&#x25cf;&#x25cf;</tspan></text>
<text xml:space="preserve" transform="matrix(.99950036 0 -0 1.0004999 0 842)" font-size="7.5037496" font-family="MS"><tspan y="-725.95919" x="108.65431 112.97647 121.14056 129.18457 137.34865 145.39267 153.55675 157.75884 162.08101 166.28311">(&#x5225;&#x8868;&#x56db;&#x4ed8;&#x8868;&#xff62;3&#xff63;)</tspan></text>
<text fill="#ffffff" xml:space="preserve" transform="matrix(.99950036 0 -0 1.0004999 0 842)" font-size="7.5037496" font-family="MS"><tspan y="-725.95919" x="170.4852 178.64929 186.81337 194.85738 203.02147 211.06548">&#x25cf;&#x25cf;&#x25cf;&#x25cf;&#x25cf;&#x25cf;</tspan></text>
<text xml:space="preserve" transform="matrix(.99950036 0 -0 1.0004999 0 842)" font-size="7.5037496" font-family="MS"><tspan y="-751.5064" x="284.66224">&#x5186;</tspan><tspan y="-739.75228" x="296.78834">&#x7559;</tspan><tspan y="-719.25906" x="296.78834">&#x4fdd;</tspan><tspan y="-698.88589" x="296.78834">&#x91d1;</tspan><tspan y="-678.5127" x="296.78834">&#x63a7;</tspan><tspan y="-658.1395" x="296.78834">&#x9664;</tspan><tspan y="-637.6463" x="296.78834">&#x984d;</tspan><tspan y="-617.2731" x="296.78834">&#x306e;</tspan><tspan y="-596.77987" x="296.78834">&#x8a08;</tspan><tspan y="-576.16757" x="296.78834">&#x7b97;</tspan><tspan y="-747.1886" x="308.55418 316.47715 324.40013 332.3231 340.24604 348.169 356.09199 364.01496 372.05897 379.98194 388.02598 395.94895 403.99296 411.91593 419.95997 427.8829 435.92695 443.8499 451.89396 459.8169">&#x4ed6;&#x306e;&#x901a;&#x7b97;&#x6cd5;&#x4eba;&#x306b;&#x5bfe;&#x3059;&#x308b;&#x901a;&#x7b97;&#x6cd5;&#x4eba;&#x682a;&#x5f0f;&#x306e;&#x8b72;&#x6e21;&#x5229;</tspan><tspan y="-738.55288" x="308.55418 316.47715">&#x76ca;&#x984d;</tspan></text>
<text fill="#ffffff" xml:space="preserve" transform="matrix(.99950036 0 -0 1.0004999 0 842)" font-size="7.5037496" font-family="MS"><tspan y="-738.55288" x="324.40013 332.3231 340.24604 348.169 356.09199 364.01496 372.05897 379.98194 388.02598 395.94895 403.99296 411.91593 419.95997 427.8829 435.92695 443.8499 451.89396 459.8169">&#x25cf;&#x25cf;&#x25cf;&#x25cf;&#x25cf;&#x25cf;&#x25cf;&#x25cf;&#x25cf;&#x25cf;&#x25cf;&#x25cf;&#x25cf;&#x25cf;&#x25cf;&#x25cf;&#x25cf;&#x25cf;</tspan><tspan y="-725.95919" x="308.55418 316.71827 324.88236 333.04646 341.2105 349.3746">&#x25cf;&#x25cf;&#x25cf;&#x25cf;&#x25cf;&#x25cf;</tspan></text>
<text xml:space="preserve" transform="matrix(.99950036 0 -0 1.0004999 0 842)" font-size="7.5037496" font-family="MS"><tspan y="-725.95919" x="357.41865 361.74079 369.90489 377.9489 386.11299 394.157 402.3211 406.52323 410.84538 415.0475">(&#x5225;&#x8868;&#x56db;&#x4ed8;&#x8868;&#xff62;8&#xff63;)</tspan></text>
<text fill="#ffffff" xml:space="preserve" transform="matrix(.99950036 0 -0 1.0004999 0 842)" font-size="7.5037496" font-family="MS"><tspan y="-725.95919" x="419.2496 427.4137 435.57777 443.6218 451.7859 459.82994">&#x25cf;&#x25cf;&#x25cf;&#x25cf;&#x25cf;&#x25cf;</tspan></text>
<text xml:space="preserve" transform="matrix(.99950036 0 -0 1.0004999 0 842)" font-size="7.5037496" font-family="MS"><tspan y="-657.9531" x="59.789876 78.75936 97.60877 116.578258 135.42768 154.39716 173.24658 192.21605 211.06546 224.99242">&#x901a;&#x7b97;&#x5916;&#x914d;&#x5f53;&#x7b49;&#x6d41;&#x51fa;&#x984d;3</tspan><tspan y="-585.50936" x="59.789876 74.917438 90.045 105.17256 120.30012 135.42768 150.55524 165.68279 180.81034 195.9379 211.06545">&#x901a;&#x7b97;&#x6cd5;&#x4eba;&#x306e;&#x7559;&#x4fdd;&#x91d1;&#x52a0;&#x7b97;&#x984d;</tspan></text>
<text fill="#ffffff" xml:space="preserve" transform="matrix(.99950036 0 -0 1.0004999 0 842)" font-size="7.5037496" font-family="MS"><tspan y="-572.9157" x="59.789876 67.71284 75.635799 79.83789 87.76085 95.80487">&#x25cf;&#x25cf;a&#x25cf;&#x25cf;&#x25cf;</tspan></text>
<text xml:space="preserve" transform="matrix(.99950036 0 -0 1.0004999 0 842)" font-size="7.5037496" font-family="MS"><tspan y="-572.9157" x="103.72783 107.56975 111.41067 115.61276 123.53572 127.37764 131.21855 135.42066 143.34362 147.18553 151.02646 155.22856 163.15152 166.99344 170.83437">(1)&#xff0b;(2)&#xff0b;(3)&#xff0b;(4)</tspan></text>
<text fill="#ffffff" xml:space="preserve" transform="matrix(.99950036 0 -0 1.0004999 0 842)" font-size="7.5037496" font-family="MS"><tspan y="-572.9157" x="174.9164 182.96042 191.00443 195.08647 203.13048 211.05345">&#x25cf;&#x25cf;a&#x25cf;&#x25cf;&#x25cf;</tspan></text>
<text xml:space="preserve" transform="matrix(.99950036 0 -0 1.0004999 0 842)" font-size="7.5037496" font-family="MS"><tspan y="-579.2725" x="224.7523">5</tspan><tspan y="-452.61579" x="471.8358 475.6767">16</tspan><tspan y="-498.7927" x="308.55418 318.63923 328.72425 338.80928 348.8943 358.9793 369.06434 379.14936 389.2344 399.31944 409.40446 419.48948 429.5745 439.65953 449.74455 459.8296">&#x5f53;&#x521d;&#x914d;&#x8ce6;&#x6b20;&#x640d;&#x91d1;&#x63a7;&#x9664;&#x984d;&#x306e;&#x76ca;&#x91d1;&#x7b97;&#x5165;&#x984d;</tspan><tspan y="-618.6128" x="59.789876 81.40068 103.011478 124.62228 146.23308 167.84389 189.45468 211.06549 224.75133">&#x901a;&#x7b97;&#x5185;&#x914d;&#x5f53;&#x7b49;&#x306e;&#x984d;4</tspan><tspan y="-624.8497" x="308.55418 323.68174 338.8093 353.93687 369.0644 384.19197 399.31953 414.44706 429.57463 444.70219 459.82975">&#x901a;&#x7b97;&#x5916;&#x914d;&#x5f53;&#x7b49;&#x6d41;&#x51fa;&#x914d;&#x8ce6;&#x984d;</tspan><tspan y="-612.256" x="380.35008 384.192 388.0339 391.87583">(26)</tspan><tspan y="-585.50936" x="308.55418 323.68174 338.8093 353.93687 369.0644 384.19197 399.31953 414.44706 429.57463 444.70219 459.82975">&#x901a;&#x7b97;&#x6cd5;&#x4eba;&#x306e;&#x7559;&#x4fdd;&#x91d1;&#x63a7;&#x9664;&#x984d;</tspan></text>
<text fill="#ffffff" xml:space="preserve" transform="matrix(.99950036 0 -0 1.0004999 0 842)" font-size="7.5037496" font-family="MS"><tspan y="-572.9157" x="308.55418 316.5982 324.64225 332.68629 340.7303 348.65327">&#x25cf;&#x25cf;&#x25cf;&#x25cf;&#x25cf;a</tspan></text>
<text xml:space="preserve" transform="matrix(.99950036 0 -0 1.0004999 0 842)" font-size="7.5037496" font-family="MS"><tspan y="-572.9157" x="352.49418 356.3361 360.177 364.37913 372.30207 376.14399 379.9849 384.187 392.11 395.9519 399.7928 403.9949 411.91789 415.7598 419.6007">(6)&#xff0b;(7)&#xff0b;(8)&#xff0b;(9)</tspan></text>
<text fill="#ffffff" xml:space="preserve" transform="matrix(.99950036 0 -0 1.0004999 0 842)" font-size="7.5037496" font-family="MS"><tspan y="-572.9157" x="423.68275 431.72676 439.77079 443.8528 451.89686 459.8198">&#x25cf;&#x25cf;a&#x25cf;&#x25cf;&#x25cf;</tspan></text>
<text xml:space="preserve" transform="matrix(.99950036 0 -0 1.0004999 0 842)" font-size="7.5037496" font-family="MS"><tspan y="-406.43888" x="222.83136 226.67227">13</tspan><tspan y="-412.67573" x="308.55418 321.1605 333.76679 346.3731 358.9794 371.58573 384.19203 396.7983 409.40464 422.01094 434.61726 447.22355 459.82987">&#x901a;&#x7b97;&#x6cd5;&#x4eba;&#x306e;&#x6240;&#x5f97;&#x57fa;&#x6e96;&#x984d;&#x63a7;&#x9664;&#x984d;</tspan></text>
<text fill="#ffffff" xml:space="preserve" transform="matrix(.99950036 0 -0 1.0004999 0 842)" font-size="7.5037496" font-family="MS"><tspan y="-400.08207" x="308.55418 316.5982 324.64225 332.68629 340.7303 348.77433">&#x25cf;&#x25cf;&#x25cf;&#x25cf;&#x25cf;&#x25cf;</tspan></text>
<text xml:space="preserve" transform="matrix(.99950036 0 -0 1.0004999 0 842)" font-size="7.5037496" font-family="MS"><tspan y="-400.08207" x="356.6973 360.5392 364.38114 368.22306 372.42515 380.46919 384.3111 388.153 391.99494 396.19706 404.24107 408.08299 411.9249 415.7668">(14)&#xff0b;(15)&#xff0b;(16)</tspan></text>
<text fill="#ffffff" xml:space="preserve" transform="matrix(.99950036 0 -0 1.0004999 0 842)" font-size="7.5037496" font-family="MS"><tspan y="-400.08207" x="419.84886 427.89289 435.9369 443.85987 451.9039 459.82685">&#x25cf;&#x25cf;&#x25cf;&#x25cf;&#x25cf;&#x25cf;</tspan></text>
<text xml:space="preserve" transform="matrix(.99950036 0 -0 1.0004999 0 842)" font-size="7.5037496" font-family="MS"><tspan y="-406.43888" x="471.59565 475.43656">17</tspan><tspan y="-552.286" x="78.038997 99.28961 120.54023 141.79087 163.04148 184.2921 205.42166 226.67229 247.80185 269.0525 290.18205 311.43266 332.5622 353.8128 374.94236 396.19297 417.32249 438.5731 459.70265 480.95326 502.0828">&#x6240;&#x5f97;&#x57fa;&#x6e96;&#x984d;&#x52a0;&#x7b97;&#x984d;&#x53ca;&#x3073;&#x6240;&#x5f97;&#x57fa;&#x6e96;&#x984d;&#x63a7;&#x9664;&#x984d;&#x306e;&#x8a08;&#x7b97;</tspan><tspan y="-534.4149" x="48.024">&#x6240;</tspan><tspan y="-520.03378" x="48.024">&#x5f97;</tspan><tspan y="-505.41343" x="48.024">&#x57fa;</tspan><tspan y="-490.91316" x="48.024">&#x6e96;</tspan><tspan y="-476.4129" x="48.024">&#x984d;</tspan><tspan y="-461.91264" x="48.024">&#x52a0;</tspan><tspan y="-447.41239" x="48.024">&#x7b97;</tspan><tspan y="-432.79206" x="48.024">&#x984d;</tspan><tspan y="-418.2918" x="48.024">&#x306e;</tspan><tspan y="-403.79154" x="48.024">&#x8a08;</tspan><tspan y="-389.29127" x="48.024">&#x7b97;</tspan><tspan y="-523.50039" x="59.789876 71.4357 83.08152 94.72733 106.37315 118.018978 129.6648 141.31063 152.95644 164.60227 176.24808 187.89389 199.53972 211.06548">&#x901a;&#x7b97;&#x5bfe;&#x8c61;&#x6b20;&#x640d;&#x91d1;&#x984d;&#x306e;&#x640d;&#x91d1;&#x7b97;&#x5165;&#x984d;</tspan></text>
<text fill="#ffffff" xml:space="preserve" transform="matrix(.99950036 0 -0 1.0004999 0 842)" font-size="7.5037496" font-family="MS"><tspan y="-510.90666" x="59.789876 67.95396 76.11804 84.28212 92.446208 100.61029">&#x25cf;&#x25cf;&#x25cf;&#x25cf;&#x25cf;&#x25cf;</tspan></text>
<text xml:space="preserve" transform="matrix(.99950036 0 -0 1.0004999 0 842)" font-size="7.5037496" font-family="MS"><tspan y="-510.90666" x="108.65431 112.97647 121.14056 129.18457 137.34865 145.39267 153.55675 157.75884 162.08101 166.28311">(&#x5225;&#x8868;&#x4e03;&#x306e;&#x4e8c;&#xff62;5&#xff63;)</tspan></text>
<text fill="#ffffff" xml:space="preserve" transform="matrix(.99950036 0 -0 1.0004999 0 842)" font-size="7.5037496" font-family="MS"><tspan y="-510.90666" x="170.4852 178.64929 186.81337 194.85738 203.02147 211.06548">&#x25cf;&#x25cf;&#x25cf;&#x25cf;&#x25cf;&#x25cf;</tspan></text>
<text xml:space="preserve" transform="matrix(.99950036 0 -0 1.0004999 0 842)" font-size="7.5037496" font-family="MS"><tspan y="-517.2634" x="223.07147 226.9124">11</tspan><tspan y="-540.17208" x="284.66224">&#x5186;</tspan><tspan y="-534.4149" x="296.78834">&#x6240;</tspan><tspan y="-520.03378" x="296.78834">&#x5f97;</tspan><tspan y="-505.41343" x="296.78834">&#x57fa;</tspan><tspan y="-490.91316" x="296.78834">&#x6e96;</tspan><tspan y="-476.4129" x="296.78834">&#x984d;</tspan><tspan y="-461.91264" x="296.78834">&#x63a7;</tspan><tspan y="-447.41239" x="296.78834">&#x9664;</tspan><tspan y="-432.79206" x="296.78834">&#x984d;</tspan><tspan y="-418.2918" x="296.78834">&#x306e;</tspan><tspan y="-403.79154" x="296.78834">&#x8a08;</tspan><tspan y="-389.29127" x="296.78834">&#x7b97;</tspan><tspan y="-526.4989" x="471.8358 475.6767">14</tspan><tspan y="-540.17208" x="533.4265">&#x5186;</tspan><tspan y="-489.5573" x="471.8358 475.6767">15</tspan><tspan y="-472.40589" x="59.789876 67.71284 75.635799 83.558757 91.48171 99.40467 107.32763 115.25059 123.29461 131.21756 139.26158 147.18454 155.22856 163.15152 171.19554 179.1185 187.1625 195.08548 203.12949 211.05246">&#x901a;&#x7b97;&#x6cd5;&#x4eba;&#x306e;&#x5408;&#x4f75;&#x7b49;&#x304c;&#x3042;&#x3063;&#x305f;&#x5834;&#x5408;&#x306e;&#x6b20;&#x640d;&#x91d1;&#x306e;&#x640d;</tspan><tspan y="-463.77024" x="59.789876 67.71284 75.635799 83.558757">&#x91d1;&#x7b97;&#x5165;&#x984d;</tspan></text>
<text fill="#ffffff" xml:space="preserve" transform="matrix(.99950036 0 -0 1.0004999 0 842)" font-size="7.5037496" font-family="MS"><tspan y="-463.77024" x="91.48171 99.40467 107.32763 115.25059 123.29461 131.21756 139.26158 147.18454 155.22856 163.15152 171.19554 179.1185 187.1625 195.08548 203.12949 211.05246">&#x25cf;&#x25cf;&#x25cf;&#x25cf;&#x25cf;&#x25cf;&#x25cf;&#x25cf;&#x25cf;&#x25cf;&#x25cf;&#x25cf;&#x25cf;&#x25cf;&#x25cf;&#x25cf;</tspan><tspan y="-451.1765" x="59.789876 67.95396 76.11804 84.28212 92.446208 100.61029">&#x25cf;&#x25cf;&#x25cf;&#x25cf;&#x25cf;&#x25cf;</tspan></text>
<text xml:space="preserve" transform="matrix(.99950036 0 -0 1.0004999 0 842)" font-size="7.5037496" font-family="MS"><tspan y="-451.1765" x="108.65431 112.97647 121.14056 129.18457 137.34865 145.39267 153.55675 157.75884 162.08101 166.28311">(&#x5225;&#x8868;&#x56db;&#x4ed8;&#x8868;&#xff62;9&#xff63;)</tspan></text>
<text fill="#ffffff" xml:space="preserve" transform="matrix(.99950036 0 -0 1.0004999 0 842)" font-size="7.5037496" font-family="MS"><tspan y="-451.1765" x="170.4852 178.64929 186.81337 194.85738 203.02147 211.06548">&#x25cf;&#x25cf;&#x25cf;&#x25cf;&#x25cf;&#x25cf;</tspan></text>
<text xml:space="preserve" transform="matrix(.99950036 0 -0 1.0004999 0 842)" font-size="7.5037496" font-family="MS"><tspan y="-461.85118" x="223.07147 226.9124">12</tspan><tspan y="-348.14799" x="295.10746 303.7518 312.39613 321.04048 329.68479 338.32914 346.97349 355.6178 364.26216 372.90647 381.5508 390.19514 398.95854 407.60285 416.36625 425.01057 433.77397 442.41828 451.18168 459.826">&#x4ed6;&#x306e;&#x901a;&#x7b97;&#x6cd5;&#x4eba;&#x306e;&#x7d14;&#x901a;&#x7b97;&#x5185;&#x914d;&#x5f53;&#x7b49;&#x306e;&#x984d;&#x306e;&#x5408;&#x8a08;&#x984d;</tspan></text>
<text fill="#ffffff" xml:space="preserve" transform="matrix(.99950036 0 -0 1.0004999 0 842)" font-size="7.5037496" font-family="MS"><tspan y="-330.87663" x="295.10746 303.1515 311.19554 319.23954">&#x25cf;&#x25cf;&#x25cf;&#x25cf;</tspan></text>
<text xml:space="preserve" transform="matrix(.99950036 0 -0 1.0004999 0 842)" font-size="7.5037496" font-family="MS"><tspan y="-330.87663" x="327.1625 331.36463 339.40867 347.45268 355.4967 363.41969 367.6218 375.54475 379.74687 383.8289 388.031 395.95399 403.998 408.08003 412.28215 420.2051 424.04704 427.88896 431.73085">(&#x5225;&#x8868;&#x5341;&#x516b;(&#x4e00;)&#xff62;6&#x306e;&#x8a08;&#xff63;)&#xff0d;(22)</tspan></text>
<text fill="#ffffff" xml:space="preserve" transform="matrix(.99950036 0 -0 1.0004999 0 842)" font-size="7.5037496" font-family="MS"><tspan y="-330.87663" x="435.81288 443.8569 451.90095 459.82389">&#x25cf;&#x25cf;&#x25cf;&#x25cf;</tspan></text>
<text xml:space="preserve" transform="matrix(.99950036 0 -0 1.0004999 0 842)" font-size="7.5037496" font-family="MS"><tspan y="-535.73428" x="308.55418 320.2 331.84587 343.4917 355.1375 366.78337 378.4292 390.075 401.72087 413.3667 425.0125 436.65837 448.3042 459.82997">&#x901a;&#x7b97;&#x5bfe;&#x8c61;&#x6240;&#x5f97;&#x91d1;&#x984d;&#x306e;&#x76ca;&#x91d1;&#x7b97;&#x5165;&#x984d;</tspan><tspan y="-517.2634" x="357.29856 361.13948 368.82328 376.5071 384.19096 391.8748 399.55867 403.40058 407.24247 411.08439 414.92533">(&#x5225;&#x8868;&#x4e03;&#x306e;&#x4e8c;&#xff62;11&#xff63;)</tspan><tspan y="-480.32197" x="338.08897 341.92988 349.6137 357.29756 364.98139 368.8223 376.50514 380.34605 388.02989 395.7137 403.39756 407.23948 411.0814 414.9233 422.60716 430.29 434.13093">(&#x5225;&#x8868;&#x4e03;(&#x4e8c;)&#x4ed8;&#x8868;&#x4e00;&#xff62;23&#x306e;&#x8a08;&#xff63;)</tspan></text>
<text xml:space="preserve" transform="matrix(.99950036 0 -0 1.0004999 0 842)" font-size="7.0034997" font-family="MS"><tspan y="-461.9711" x="308.55418 316.11796 323.68174 331.2455 338.8093 346.37309 353.93687 361.5006 369.0644 376.62818 384.19197 391.75575 399.31953 407.00236 414.5661 422.24894 429.8127 437.49555 445.05934 452.74214 460.3059">&#x5f53;&#x521d;&#x652f;&#x6255;&#x5229;&#x5b50;&#x914d;&#x8ce6;&#x984d;&#x306e;&#x63a7;&#x9664;&#x4e0d;&#x8db3;&#x984d;&#x306e;&#x76ca;&#x91d1;&#x7b97;&#x5165;&#x984d;</tspan></text>
<text xml:space="preserve" transform="matrix(.99950036 0 -0 1.0004999 0 842)" font-size="7.5037496" font-family="MS"><tspan y="-443.3804" x="349.61473 353.45564 361.13948 368.82328 376.50715 380.34806 388.03089 391.8718 399.55564 407.23847 411.08039 414.9223 418.76423 422.60517">(&#x5225;&#x8868;&#x516b;(&#x4e00;)&#x4ed8;&#x8868;&#xff62;24&#xff63;)</tspan></text>
<text xml:space="preserve" transform="matrix(.9995004 0 -0 1.0005 0 842)" font-size="9.404698" font-family="MS"><tspan y="-797.4433" x="544.8322">&#x5225;</tspan><tspan y="-786.898" x="544.8322">&#x8868;</tspan><tspan y="-776.3527" x="544.8322">&#x4e09;</tspan><tspan y="-765.68746" x="544.8322">&#x3220;</tspan><tspan y="-755.14218" x="544.8322">&#x4ed8;</tspan><tspan y="-744.5969" x="544.8322">&#x8868;</tspan><tspan y="-734.05166" x="544.8322">&#x4e8c;</tspan></text>
<text xml:space="preserve" transform="matrix(.9995004 0 -0 1.0005 0 842)" font-size="9.404698" font-family="MS"><tspan y="-723.50637" x="544.8322">&#x3000;</tspan><tspan y="-712.9611" x="544.8322">&#x4ee4;</tspan><tspan y="-702.2958" x="544.8322">&#x4e94;</tspan><tspan y="-691.7505" x="544.8322">&#x30fb;</tspan><tspan y="-681.20529" x="544.8322">&#x56db;</tspan><tspan y="-670.66" x="544.8322">&#x30fb;</tspan><tspan y="-660.11477" x="544.8322">&#x4e00;</tspan><tspan y="-649.56948" x="544.8322">&#x4ee5;</tspan><tspan y="-639.0242" x="544.8322">&#x5f8c;</tspan><tspan y="-628.3589" x="544.8322">&#x7d42;</tspan><tspan y="-617.8136" x="544.8322">&#x4e86;</tspan><tspan y="-607.2684" x="544.8322">&#x4e8b;</tspan><tspan y="-596.7231" x="544.8322">&#x696d;</tspan><tspan y="-586.1778" x="544.8322">&#x5e74;</tspan><tspan y="-575.63259" x="544.8322">&#x5ea6;</tspan><tspan y="-564.9672" x="544.8322">&#x5206;</tspan></text>
<text xml:space="preserve" transform="matrix(.99950036 0 -0 1.0004999 0 842)" font-size="7.5037496" font-family="MS"><tspan y="-371.41636" x="78.038997 110.69531 143.35164 176.00795 208.66428 241.32059 273.9769 306.51316 339.1695 371.70576 404.36204 436.8983 469.5546 502.09086">&#x901a;&#x7b97;&#x5916;&#x914d;&#x5f53;&#x7b49;&#x6d41;&#x51fa;&#x914d;&#x8ce6;&#x984d;&#x306e;&#x8a08;&#x7b97;</tspan><tspan y="-265.86915" x="222.83136 226.67227">20</tspan><tspan y="-412.67573" x="59.789876 72.39618 85.00248 97.60877 110.21507 122.82137 135.42768 148.03398 160.64029 173.2466 185.8529 198.4592 211.0655">&#x901a;&#x7b97;&#x6cd5;&#x4eba;&#x306e;&#x6240;&#x5f97;&#x57fa;&#x6e96;&#x984d;&#x52a0;&#x7b97;&#x984d;</tspan></text>
<text fill="#ffffff" xml:space="preserve" transform="matrix(.99950036 0 -0 1.0004999 0 842)" font-size="7.5037496" font-family="MS"><tspan y="-400.08207" x="59.789876 67.71284 75.635799 83.67982 87.761859 95.80588 103.728839 111.77286">&#x25cf;&#x25cf;&#x25cf;a&#x25cf;&#x25cf;&#x25cf;&#x25cf;</tspan></text>
<text xml:space="preserve" transform="matrix(.99950036 0 -0 1.0004999 0 842)" font-size="7.5037496" font-family="MS"><tspan y="-400.08207" x="119.695819 123.537738 127.37965 131.22158 135.42368 143.34664 147.18856 151.03047 154.8724">(11)&#xff0b;(12)</tspan></text>
<text fill="#ffffff" xml:space="preserve" transform="matrix(.99950036 0 -0 1.0004999 0 842)" font-size="7.5037496" font-family="MS"><tspan y="-400.08207" x="158.95446 166.99846 175.04248 179.12451 187.16854 195.09149 203.13552 211.05847">&#x25cf;&#x25cf;a&#x25cf;&#x25cf;&#x25cf;&#x25cf;&#x25cf;</tspan></text>
<path transform="matrix(1,0,0,-1,0,842)" d="M293.16 773.242H294V807.08206H293.16Z"/>
<path transform="matrix(1,0,0,-1,0,842)" d="M58.44 719.602H293.63999V719.722H58.44Z"/>
<path transform="matrix(1,0,0,-1,0,842)" d="M58.44 680.242H293.63999V680.362H58.44Z"/>
<path transform="matrix(1,0,0,-1,0,842)" d="M58.44 640.882H293.63999V641.002H58.44Z"/>
<path transform="matrix(1,0,0,-1,0,842)" d="M58.44 601.522H293.63999V601.64199H58.44Z"/>
<path transform="matrix(1,0,0,-1,0,842)" d="M58.32 562.162H58.44V758.962H58.32Z"/>
<path transform="matrix(1,0,0,-1,0,842)" d="M219.6 562.162H219.72V758.962H219.6Z"/>
<path transform="matrix(1,0,0,-1,0,842)" d="M233.04 562.162H233.15999V758.962H233.04Z"/>
<path transform="matrix(1,0,0,-1,0,842)" d="M293.52 562.162H293.63999V758.962H293.52Z"/>
<path transform="matrix(1,0,0,-1,0,842)" d="M306.96 562.162H307.08V758.962H306.96Z"/>
<path transform="matrix(1,0,0,-1,0,842)" d="M468.24 562.162H468.36V758.962H468.24Z"/>
<path transform="matrix(1,0,0,-1,0,842)" d="M481.68 562.162H481.8V758.962H481.68Z"/>
<path transform="matrix(1,0,0,-1,0,842)" d="M58.44 436.642H293.63999V436.762H58.44Z"/>
<path transform="matrix(1,0,0,-1,0,842)" d="M219.6 381.202H219.72V547.522H219.6Z"/>
<path transform="matrix(1,0,0,-1,0,842)" d="M233.04 381.202H233.15999V547.522H233.04Z"/>
<path transform="matrix(1,0,0,-1,0,842)" d="M293.52 381.202H293.63999V547.522H293.52Z"/>
<path transform="matrix(1,0,0,-1,0,842)" d="M468.24 381.202H468.36V547.522H468.24Z"/>
<path transform="matrix(1,0,0,-1,0,842)" d="M481.68 381.202H481.8V547.522H481.68Z"/>
<path transform="matrix(1,0,0,-1,0,842)" d="M293.52 170.362H293.63999V366.562H293.52Z"/>
<path transform="matrix(1,0,0,-1,0,842)" d="M327.12 774.082H327.24V806.24197H327.12Z"/>
<path transform="matrix(1,0,0,-1,0,842)" d="M401.04 774.082H401.16V806.24197H401.04Z"/>
<path transform="matrix(1,0,0,-1,0,842)" d="M427.92 774.082H428.04V806.24197H427.92Z"/>
<path transform="matrix(1,0,0,-1,0,842)" d="M541.8 169.522H542.64V806.24197H541.8Z"/>
<path transform="matrix(1,0,0,-1,0,842)" d="M44.52 169.522H45.36V774.08206H44.52Z"/>
<path transform="matrix(1,0,0,-1,0,842)" d="M58.32 381.202H58.44V547.522H58.32Z"/>
<path transform="matrix(1,0,0,-1,0,842)" d="M219.6 170.362H219.72V366.562H219.6Z"/>
<path transform="matrix(1,0,0,-1,0,842)" d="M233.04 170.362H233.15999V366.562H233.04Z"/>
<path transform="matrix(1,0,0,-1,0,842)" d="M306.96 381.202H307.08V547.522H306.96Z"/>
<path transform="matrix(1,0,0,-1,0,842)" d="M468.24 170.362H468.36V366.562H468.24Z"/>
<path transform="matrix(1,0,0,-1,0,842)" d="M481.68 170.362H481.8V366.562H481.68Z"/>
<path transform="matrix(1,0,0,-1,0,842)" d="M294 806.242H542.64V807.08206H294Z"/>
<path transform="matrix(1,0,0,-1,0,842)" d="M45.36 773.242H542.64V774.08206H45.36Z"/>
<path transform="matrix(1,0,0,-1,0,842)" d="M45.36 758.962H541.8V759.082H45.36Z"/>
<path transform="matrix(1,0,0,-1,0,842)" d="M307.08 719.602H541.8V719.722H307.08Z"/>
<path transform="matrix(1,0,0,-1,0,842)" d="M307.08 680.242H541.8V680.362H307.08Z"/>
<path transform="matrix(1,0,0,-1,0,842)" d="M307.08 640.882H541.8V641.002H307.08Z"/>
<path transform="matrix(1,0,0,-1,0,842)" d="M307.08 601.522H541.8V601.64199H307.08Z"/>
<path transform="matrix(1,0,0,-1,0,842)" d="M45.36 562.162H541.8V562.282H45.36Z"/>
<path transform="matrix(1,0,0,-1,0,842)" d="M45.36 547.522H541.8V547.64199H45.36Z"/>
<path transform="matrix(1,0,0,-1,0,842)" d="M307.08 510.562H541.8V510.682H307.08Z"/>
<path transform="matrix(1,0,0,-1,0,842)" d="M58.44 492.082H293.63999V492.202H58.44Z"/>
<path transform="matrix(1,0,0,-1,0,842)" d="M307.08 473.602H541.8V473.722H307.08Z"/>
<path transform="matrix(1,0,0,-1,0,842)" d="M307.08 436.642H541.8V436.762H307.08Z"/>
<path transform="matrix(1,0,0,-1,0,842)" d="M45.36 381.202H541.8V381.322H45.36Z"/>
<path transform="matrix(1,0,0,-1,0,842)" d="M45.36 366.562H541.8V366.682H45.36Z"/>
<path transform="matrix(1,0,0,-1,0,842)" d="M45.36 327.322H293.64V327.442H45.36Z"/>
<path transform="matrix(1,0,0,-1,0,842)" d="M293.64 317.482H541.80007V317.602H293.64Z"/>
<path transform="matrix(1,0,0,-1,0,842)" d="M45.36 287.962H293.64V288.082H45.36Z"/>
<path transform="matrix(1,0,0,-1,0,842)" d="M293.64 268.282H541.80007V268.402H293.64Z"/>
<path transform="matrix(1,0,0,-1,0,842)" d="M45.36 248.602H293.64V248.722H45.36Z"/>
<path transform="matrix(1,0,0,-1,0,842)" d="M293.64 219.082H541.80007V219.202H293.64Z"/>
<path transform="matrix(1,0,0,-1,0,842)" d="M45.36 209.242H293.64V209.362H45.36Z"/>
<path transform="matrix(1,0,0,-1,0,842)" d="M45.36 169.522H542.64V170.362H45.36Z"/>
<path transform="matrix(1,0,0,-1,44.76,475.198)" d="M0 0V0L-.36 .36Z"/>
<text xml:space="preserve" transform="matrix(1 0 -0 1 0 842)" font-size="7.5" font-family="MS"><tspan y="-285.682" x="374.28 378.12 381.96 385.68">(22)</tspan></text>
<path transform="matrix(1,0,0,-1,0,842)" d="M360.96 283.042H403.32V283.40199H360.96Z"/>
<text xml:space="preserve" transform="matrix(1 0 -0 1 0 842)" font-size="7.5" font-family="MS"><tspan y="-275.002" x="363.48 367.32 371.16 374.88 378.72 386.28 390.12 393.96 397.68">(22)&#xff0b;(23)</tspan></text>
</svg>
